<svg width="118" height="120" viewBox="0 0 118 120" fill="none" xmlns="http://www.w3.org/2000/svg">

<defs>
<linearGradient id="paint0_linear_2019_9106" x1="22.8187" y1="103.094" x2="79.8715" y2="103.094" gradientUnits="userSpaceOnUse">
<stop stop-opacity="0.7"/>
<stop offset="0.96" stop-opacity="0"/>
</linearGradient>
<linearGradient id="paint1_linear_2019_9106" x1="34.7911" y1="76.8228" x2="0.291695" y2="76.8228" gradientUnits="userSpaceOnUse">
<stop stop-opacity="0.7"/>
<stop offset="0.96" stop-opacity="0"/>
</linearGradient>
<linearGradient id="paint2_linear_2019_9106" x1="33.8284" y1="54.7931" x2="74.2469" y2="54.7931" gradientUnits="userSpaceOnUse">
<stop stop-opacity="0.7"/>
<stop offset="0.96" stop-opacity="0"/>
</linearGradient>
<linearGradient id="paint3_linear_2019_9106" x1="35.1593" y1="27.8573" x2="60.5365" y2="27.8573" gradientUnits="userSpaceOnUse">
<stop stop-opacity="0.7"/>
<stop offset="0.96" stop-opacity="0"/>
</linearGradient>
<linearGradient id="paint4_linear_2019_9106" x1="51.3174" y1="-0.88525" x2="50.0957" y2="7.40563" gradientUnits="userSpaceOnUse">
<stop stop-opacity="0.7"/>
<stop offset="0.96" stop-opacity="0"/>
</linearGradient>
<linearGradient id="paint5_linear_2019_9106" x1="69.4631" y1="37.9735" x2="88.9008" y2="37.9735" gradientUnits="userSpaceOnUse">
<stop stop-opacity="0.7"/>
<stop offset="0.96" stop-opacity="0"/>
</linearGradient>
<linearGradient id="paint6_linear_2019_9106" x1="87.2229" y1="19.54" x2="83.9206" y2="26.2031" gradientUnits="userSpaceOnUse">
<stop stop-opacity="0.7"/>
<stop offset="0.96" stop-opacity="0"/>
</linearGradient>
<linearGradient id="paint7_linear_2019_9106" x1="103.393" y1="74.5451" x2="102.749" y2="63.4833" gradientUnits="userSpaceOnUse">
<stop stop-opacity="0.7"/>
<stop offset="0.96" stop-opacity="0"/>
</linearGradient>
<linearGradient id="paint8_linear_2019_9106" x1="82.9287" y1="60.1538" x2="112.034" y2="60.1538" gradientUnits="userSpaceOnUse">
<stop stop-opacity="0.7"/>
<stop offset="0.96" stop-opacity="0"/>
</linearGradient>
<linearGradient id="paint9_linear_2019_9106" x1="1.78238" y1="20.2071" x2="27.6234" y2="20.2071" gradientUnits="userSpaceOnUse">
<stop stop-opacity="0.7"/>
<stop offset="0.96" stop-opacity="0"/>
</linearGradient>
<linearGradient id="paint10_linear_2019_9106" x1="15.3565" y1="77.456" x2="15.3565" y2="61.3064" gradientUnits="userSpaceOnUse">
<stop stop-opacity="0.7"/>
<stop offset="0.96" stop-opacity="0"/>
</linearGradient>
<clipPath id="clip0_2019_9106">
<rect width="118" height="120" fill="white"/>
</clipPath>
</defs>
<g clip-path="url(#clip0_2019_9106)">
<path d="M64.0745 88.3926H22.8187V117.796H64.0745V88.3926Z" fill="#ECB57B"/>
<path d="M79.8715 88.3926H60.9794V117.796H79.8715V88.3926Z" fill="#E6A253"/>
<path d="M63.319 88.3926H60.9794V117.796H63.319V88.3926Z" fill="#CC8034"/>
<path d="M79.8715 88.3926H22.8187V90.2676H79.8715V88.3926Z" fill="#F0CAA2"/>
<path d="M32.0285 91.5737H24.432V104.188H32.0285V91.5737Z" fill="#F0CAA2"/>
<path d="M32.0285 106.014H24.432V108.101H32.0285V106.014Z" fill="#F0CAA2"/>
<path d="M32.0285 109.377H24.432V111.464H32.0285V109.377Z" fill="#F0CAA2"/>
<path d="M45.7337 88.3926H39.2399V117.796H45.7337V88.3926Z" fill="#F0CAA2"/>
<path d="M48.794 110.832C52.2778 107.162 52.2778 101.21 48.794 97.5393C45.3101 93.8685 39.6617 93.8685 36.1778 97.5393C32.694 101.21 32.694 107.162 36.1778 110.832C39.6617 114.503 45.3101 114.503 48.794 110.832Z" fill="white"/>
<path d="M44.1643 97.6907H40.8065V109.174H44.1643V97.6907Z" fill="#D36768"/>
<path d="M47.9362 101.665H37.0374V105.203H47.9362V101.665Z" fill="#D36768"/>
<path style="mix-blend-mode:overlay" opacity="0.93" d="M79.8715 88.3926H22.8187V117.796H79.8715V88.3926Z" fill="url(#paint0_linear_2019_9106)"/>
<path d="M67.3885 65.207H34.7911V88.4386H67.3885V65.207Z" fill="#ECB57B"/>
<path d="M79.8714 65.207H64.9438V88.4386H79.8714V65.207Z" fill="#E6A253"/>
<path d="M66.7934 65.207H64.9438V88.4386H66.7934V65.207Z" fill="#CC8034"/>
<path d="M79.8715 65.207H34.7911V66.6886H79.8715V65.207Z" fill="#F0CAA2"/>
<path d="M42.0667 67.7214H36.0659V77.6866H42.0667V67.7214Z" fill="#F0CAA2"/>
<path d="M42.0667 79.1311H36.0659V80.7817H42.0667V79.1311Z" fill="#F0CAA2"/>
<path d="M42.0667 81.7869H36.0659V83.4375H42.0667V81.7869Z" fill="#F0CAA2"/>
<path d="M52.8985 65.207H47.7671V88.4386H52.8985V65.207Z" fill="#F0CAA2"/>
<path d="M51.9302 84.9219C55.7209 83.9895 58.0764 79.9959 57.1915 76.0018C56.3066 72.0078 52.5164 69.5259 48.7257 70.4583C44.9351 71.3906 42.5795 75.3843 43.4644 79.3783C44.3493 83.3723 48.1396 85.8542 51.9302 84.9219Z" fill="white"/>
<path d="M51.6558 72.5535H49.004V81.6272H51.6558V72.5535Z" fill="#D36768"/>
<path d="M54.6372 75.6948H46.0255V78.4889H54.6372V75.6948Z" fill="#D36768"/>
<path style="mix-blend-mode:overlay" opacity="0.93" d="M79.8715 65.207H34.7911V88.4386H79.8715V65.207Z" fill="url(#paint1_linear_2019_9106)"/>
<path d="M63.0563 44.3792H33.8284V65.2101H63.0563V44.3792Z" fill="#ECB57B"/>
<path d="M74.247 44.3792H60.8627V65.2101H74.247V44.3792Z" fill="#E6A253"/>
<path d="M62.5197 44.3792H60.8627V65.2101H62.5197V44.3792Z" fill="#CC8034"/>
<path d="M74.2469 44.3792H33.8284V45.707H74.2469V44.3792Z" fill="#F0CAA2"/>
<path d="M40.3544 46.6292H34.972V55.5646H40.3544V46.6292Z" fill="#F0CAA2"/>
<path d="M40.3544 56.8618H34.972V58.3403H40.3544V56.8618Z" fill="#F0CAA2"/>
<path d="M40.3544 59.2439H34.972V60.7224H40.3544V59.2439Z" fill="#F0CAA2"/>
<path d="M50.06 44.3792H45.4595V65.2101H50.06V44.3792Z" fill="#F0CAA2"/>
<path d="M47.7613 62.2255C51.251 62.2255 54.08 59.2447 54.08 55.5677C54.08 51.8907 51.251 48.9099 47.7613 48.9099C44.2715 48.9099 41.4425 51.8907 41.4425 55.5677C41.4425 59.2447 44.2715 62.2255 47.7613 62.2255Z" fill="white"/>
<path d="M48.9486 50.9663H46.571V59.1026H48.9486V50.9663Z" fill="#D36768"/>
<path d="M51.6237 53.7788H43.9017V56.2839H51.6237V53.7788Z" fill="#D36768"/>
<path style="mix-blend-mode:overlay" opacity="0.93" d="M74.2469 44.3792H33.8284V65.2101H74.2469V44.3792Z" fill="url(#paint2_linear_2019_9106)"/>
<path d="M37.154 22.1158L36.1505 8.69263" stroke="#06060A" stroke-width="1.04" stroke-miterlimit="10"/>
<path d="M52.671 25.8197L55.0515 10.4478" stroke="#06060A" stroke-width="1.04" stroke-miterlimit="10"/>
<path d="M59.4039 26.8188L63.3977 12.6057" stroke="#06060A" stroke-width="1.04" stroke-miterlimit="10"/>
<path d="M53.9487 22.4876L36.7405 20.0232L35.1587 32.2855L52.3669 34.7498L53.9487 22.4876Z" fill="#ECB57B"/>
<path d="M60.5326 23.4322L52.6526 22.3037L51.0708 34.566L58.9508 35.6944L60.5326 23.4322Z" fill="#E6A253"/>
<path d="M53.6313 22.4434L52.6543 22.3035L51.0725 34.5657L52.0496 34.7056L53.6313 22.4434Z" fill="#CC8034"/>
<path d="M60.533 23.4315L36.7369 20.0237L36.636 20.8064L60.432 24.2142L60.533 23.4315Z" fill="#F0CAA2"/>
<path d="M40.4105 21.902L37.2423 21.4482L36.5638 26.7083L39.732 27.162L40.4105 21.902Z" fill="#F0CAA2"/>
<path d="M39.6339 27.9247L36.4657 27.4709L36.3533 28.342L39.5215 28.7957L39.6339 27.9247Z" fill="#F0CAA2"/>
<path d="M39.4535 29.3246L36.2853 28.8708L36.1729 29.7419L39.3411 30.1956L39.4535 29.3246Z" fill="#F0CAA2"/>
<path d="M46.2954 21.3928L43.5868 21.0049L42.005 33.2671L44.7136 33.655L46.2954 21.3928Z" fill="#F0CAA2"/>
<path d="M40.3718 27.2521C40.0918 29.416 41.5329 31.4109 43.5866 31.706C45.6404 32.0011 47.5337 30.4826 47.8137 28.3187C48.0938 26.1547 46.6527 24.1599 44.5989 23.8648C42.5452 23.5697 40.6519 25.0882 40.3718 27.2521Z" fill="white"/>
<path d="M43.7443 24.9777L43.1267 29.7656L44.5258 29.966L45.1434 25.178L43.7443 24.9777Z" fill="#D36768"/>
<path d="M41.9581 26.4092L41.7679 27.8833L46.3121 28.5341L46.5022 27.0599L41.9581 26.4092Z" fill="#D36768"/>
<path style="mix-blend-mode:overlay" opacity="0.93" d="M60.5376 23.4317L36.7416 20.0239L35.1598 32.2862L58.9558 35.694L60.5376 23.4317Z" fill="url(#paint3_linear_2019_9106)"/>
<path d="M36.0222 8.78483C36.0222 8.78483 46.113 1.03278 54.8152 11.9693C54.8152 11.9693 60.355 8.44057 63.5203 12.7623C63.5203 12.7623 61.1952 1.3709 50.8594 0.107578C40.5235 -1.15574 36.0251 8.78176 36.0251 8.78176L36.0222 8.78483Z" fill="#67A4C2"/>
<path d="M35.4066 8.69264C35.4066 9.19981 35.7975 9.61477 36.2818 9.61477C36.7661 9.61477 37.157 9.20288 37.157 8.69264C37.157 8.18239 36.7661 7.77051 36.2818 7.77051C35.7975 7.77051 35.4066 8.18239 35.4066 8.69264Z" fill="#67A4C2"/>
<path d="M53.8612 11.8433C53.8612 12.3504 54.2521 12.7654 54.7364 12.7654C55.2206 12.7654 55.6116 12.3535 55.6116 11.8433C55.6116 11.333 55.2206 10.9211 54.7364 10.9211C54.2521 10.9211 53.8612 11.333 53.8612 11.8433Z" fill="#67A4C2"/>
<path d="M62.3591 12.6057C62.3591 13.1129 62.75 13.5279 63.2343 13.5279C63.7186 13.5279 64.1095 13.116 64.1095 12.6057C64.1095 12.0955 63.7186 11.6836 63.2343 11.6836C62.75 11.6836 62.3591 12.0955 62.3591 12.6057Z" fill="#67A4C2"/>
<path style="mix-blend-mode:overlay" opacity="0.93" d="M36.0222 8.78483C36.0222 8.78483 46.113 1.03278 54.8152 11.9693C54.8152 11.9693 60.355 8.44057 63.5203 12.7623C63.5203 12.7623 61.1952 1.3709 50.8594 0.107578C40.5235 -1.15574 36.0251 8.78176 36.0251 8.78176L36.0222 8.78483Z" fill="url(#paint4_linear_2019_9106)"/>
<path d="M72.9722 31.5123L75.0784 21.9744" stroke="#06060A" stroke-width="0.76" stroke-miterlimit="10"/>
<path d="M82.952 37.6754L87.8122 27.575" stroke="#06060A" stroke-width="0.76" stroke-miterlimit="10"/>
<path d="M87.4097 39.9283L93.145 31.0051" stroke="#06060A" stroke-width="0.76" stroke-miterlimit="10"/>
<path d="M84.5359 35.6592L73.1232 29.9622L69.4661 38.0955L80.8788 43.7926L84.5359 35.6592Z" fill="#ECB57B"/>
<path d="M88.9054 37.8413L83.6802 35.2329L80.0231 43.3663L85.2483 45.9747L88.9054 37.8413Z" fill="#E6A253"/>
<path d="M84.324 35.5531L83.6781 35.2307L80.021 43.3641L80.6669 43.6865L84.324 35.5531Z" fill="#CC8034"/>
<path d="M88.9063 37.8404L73.1251 29.9626L72.8916 30.4821L88.6727 38.3598L88.9063 37.8404Z" fill="#F0CAA2"/>
<path d="M75.2746 32.1141L73.1735 31.0652L71.6047 34.5541L73.7059 35.603L75.2746 32.1141Z" fill="#F0CAA2"/>
<path d="M73.4796 36.1087L71.3784 35.0598L71.1186 35.6376L73.2198 36.6865L73.4796 36.1087Z" fill="#F0CAA2"/>
<path d="M73.0599 37.0376L70.9587 35.9888L70.6989 36.5666L72.8001 37.6154L73.0599 37.0376Z" fill="#F0CAA2"/>
<path d="M79.4597 33.1259L77.6643 32.2297L74.0072 40.3631L75.8026 41.2593L79.4597 33.1259Z" fill="#F0CAA2"/>
<path d="M79.0571 38.2792C79.7044 36.844 79.1251 35.1277 77.763 34.4457C76.401 33.7636 74.7721 34.3741 74.1247 35.8092C73.4774 37.2443 74.0568 38.9606 75.4188 39.6427C76.7809 40.3247 78.4098 39.7143 79.0571 38.2792Z" fill="white"/>
<path d="M76.9364 35.0144L75.5088 38.1895L76.4368 38.6527L77.8644 35.4777L76.9364 35.0144Z" fill="#D36768"/>
<path d="M75.4005 35.5977L74.9608 36.5754L77.9742 38.0797L78.4138 37.1019L75.4005 35.5977Z" fill="#D36768"/>
<path style="mix-blend-mode:overlay" opacity="0.93" d="M88.9035 37.8416L73.1223 29.9639L69.4652 38.0973L85.2464 45.975L88.9035 37.8416Z" fill="url(#paint5_linear_2019_9106)"/>
<path d="M74.9705 22.0113C74.9705 22.0113 83.5822 18.9775 87.3309 28.5769C87.3309 28.5769 91.908 27.415 93.1975 31.1435C93.1975 31.1435 93.9647 22.7091 87.0654 19.4386C80.1661 16.1681 74.9705 22.0113 74.9705 22.0113Z" fill="#67A4C2"/>
<path d="M74.5649 21.8023C74.4599 22.1558 74.6437 22.5308 74.9792 22.6445C75.3147 22.7552 75.6706 22.5615 75.7785 22.208C75.8835 21.8546 75.6997 21.4796 75.3643 21.3658C75.0288 21.2552 74.6729 21.4488 74.5649 21.8023Z" fill="#67A4C2"/>
<path d="M86.6949 28.2664C86.5899 28.6199 86.7737 28.9949 87.1092 29.1086C87.4447 29.2193 87.8006 29.0256 87.9085 28.6721C88.0135 28.3187 87.8297 27.9437 87.4943 27.8299C87.1588 27.7193 86.8029 27.9129 86.6949 28.2664Z" fill="#67A4C2"/>
<path d="M92.4274 30.7623C92.3223 31.1157 92.5061 31.4907 92.8416 31.6045C93.1771 31.7182 93.533 31.5215 93.6409 31.168C93.7489 30.8145 93.5622 30.4395 93.2267 30.3258C92.8912 30.2151 92.5353 30.4088 92.4274 30.7623Z" fill="#67A4C2"/>
<path style="mix-blend-mode:overlay" opacity="0.93" d="M74.9705 22.0113C74.9705 22.0113 83.5822 18.9775 87.3309 28.5769C87.3309 28.5769 91.908 27.415 93.1975 31.1435C93.1975 31.1435 93.9647 22.7091 87.0654 19.4386C80.1661 16.1681 74.9705 22.0113 74.9705 22.0113Z" fill="url(#paint6_linear_2019_9106)"/>
<path d="M100.146 78.5873L99.5367 111.074L96.0126 110.828C96.0126 110.828 90.8929 88.4356 92.2115 71.8465L100.89 73.2758L109.309 71.7881C110.619 88.3772 105.753 110.831 105.753 110.831L102.606 111.074L101.634 78.5873C101.634 78.5873 100.934 78.9961 100.146 78.5873Z" fill="#192D3F"/>
<path d="M102.606 110.723C102.606 110.723 100.721 114.437 101.576 117.947H111.071C111.071 117.947 111.731 114.249 107.868 113.016L106.203 110.723H102.606Z" fill="#274256"/>
<path d="M110.135 118.98H102.553C102.013 118.98 101.573 118.518 101.573 117.947H111.112C111.112 118.515 110.675 118.98 110.132 118.98H110.135Z" fill="white"/>
<path d="M107.9 112.897C107.463 112.706 106.958 112.638 106.488 112.608C105.339 112.537 104.207 112.826 103.18 113.358C103.043 113.428 103.163 113.647 103.3 113.573C104.306 113.05 105.418 112.78 106.544 112.86C106.976 112.89 107.434 112.961 107.836 113.136C107.979 113.198 108.04 112.955 107.9 112.894V112.897Z" fill="#D0D2F9"/>
<path d="M106.203 110.723C106.203 110.723 107.361 108.661 107.081 108.148C106.564 107.207 102.635 106.955 104.455 110.723H106.203Z" fill="#274256"/>
<path d="M99.5133 110.723C99.5133 110.723 101.398 114.437 100.543 117.947H91.0475C91.0475 117.947 90.3882 114.249 94.2506 113.016L95.9164 110.723H99.5133Z" fill="#274256"/>
<path d="M91.9839 118.98H99.5658C100.106 118.98 100.546 118.518 100.546 117.947H91.0066C91.0066 118.515 91.4442 118.98 91.9868 118.98H91.9839Z" fill="white"/>
<path d="M94.2827 113.136C94.6853 112.961 95.1462 112.894 95.575 112.86C96.6982 112.78 97.8096 113.05 98.819 113.573C98.9561 113.644 99.0757 113.428 98.9386 113.358C97.9117 112.826 96.7769 112.534 95.6304 112.608C95.1608 112.638 94.659 112.706 94.2185 112.897C94.0785 112.958 94.1397 113.201 94.2827 113.139V113.136Z" fill="#D0D2F9"/>
<path d="M95.9164 110.723C95.9164 110.723 94.7583 108.661 95.0383 108.148C95.5547 107.207 99.4842 106.955 97.6638 110.723H95.9164Z" fill="#274256"/>
<path d="M117.656 57.495C117.656 57.495 116.486 61.7614 112.034 61.2296C112.034 61.2296 112.679 56.6589 117.656 57.495Z" fill="#D5D5D5"/>
<path d="M114.613 55.0606C114.613 55.0606 117.936 63.6703 117.947 64.8844L113.292 65.8557L110.001 56.1303C110.001 56.1303 110.759 52.3957 114.61 55.0575L114.613 55.0606Z" fill="#A95C50"/>
<path d="M102.894 30.704C102.894 30.704 106.599 31.2788 107.381 34.8229C108.163 38.3669 114.709 41.9571 108.665 46.8413C108.665 46.8413 110.12 44.161 109.257 42.7224C109.257 42.7224 109.94 46.746 102.553 47.3208C95.1666 47.8956 94.7611 44.5421 94.7611 44.5421C94.7611 44.5421 93.8538 45.6917 94.7611 47.1763C94.7611 47.1763 91.167 45.8823 92.7599 42.1476C94.3498 38.413 94.3498 33.6702 94.3498 33.6702L102.897 30.7009L102.894 30.704Z" fill="#0C143B"/>
<path d="M96.6632 38.8218C97.197 39.7624 97.2408 41.2562 96.5086 41.7173C95.7763 42.1784 94.5482 41.4314 94.0143 40.4909C93.4804 39.5503 93.6409 38.4161 94.3731 37.955C95.1054 37.4939 96.1293 37.8843 96.6632 38.8218Z" fill="#EBC3A0"/>
<path d="M94.9099 39.3352H94.9157C94.9449 39.3382 94.8836 39.329 94.907 39.3352C94.9303 39.3413 94.9566 39.3444 94.9828 39.3505C95.0178 39.3598 95.0558 39.369 95.0879 39.3843C95.0995 39.3874 95.1083 39.3936 95.1199 39.3966C95.1258 39.3966 95.155 39.412 95.1374 39.4028C95.1199 39.3936 95.152 39.4089 95.155 39.412C95.1666 39.4182 95.1783 39.4243 95.187 39.4304C95.2075 39.4427 95.2308 39.455 95.2512 39.4704C95.26 39.4766 95.2716 39.4827 95.2804 39.4919C95.2833 39.495 95.2891 39.4981 95.2921 39.5011C95.2775 39.4858 95.3125 39.5165 95.2921 39.5011C95.3125 39.5196 95.3329 39.538 95.3504 39.5565C95.3592 39.5657 95.3679 39.5749 95.3767 39.5872C95.3796 39.5903 95.3825 39.5964 95.3883 39.6026C95.4058 39.6241 95.3796 39.5872 95.3912 39.6057C95.4058 39.6302 95.4233 39.6548 95.435 39.6825C95.4408 39.6948 95.4467 39.7102 95.4525 39.7225C95.4408 39.6979 95.4584 39.7409 95.4613 39.7501C95.4729 39.7839 95.4788 39.8177 95.4846 39.8516C95.4846 39.8577 95.4904 39.8823 95.4846 39.8577C95.4846 39.8669 95.4846 39.8731 95.4846 39.8823C95.4846 39.9038 95.4875 39.9222 95.4875 39.9438C95.4875 39.9868 95.4875 40.0268 95.4817 40.0698C95.4817 40.0759 95.4758 40.1005 95.4817 40.079C95.4817 40.0882 95.4817 40.0944 95.4788 40.1036C95.4759 40.122 95.4729 40.1405 95.4671 40.1589C95.4642 40.1743 95.4584 40.1927 95.4525 40.2081C95.4496 40.2143 95.4467 40.2235 95.4438 40.2296C95.4379 40.2419 95.4321 40.2542 95.4263 40.2634C95.4263 40.2696 95.4204 40.2727 95.4175 40.2788C95.4058 40.3003 95.4321 40.2634 95.4175 40.2788C95.4088 40.288 95.4 40.2973 95.3912 40.3065C95.3883 40.3095 95.3825 40.3126 95.3796 40.3157C95.3621 40.3341 95.3971 40.3065 95.3825 40.3157C95.3737 40.3188 95.365 40.328 95.3562 40.3341C95.3446 40.3403 95.3183 40.3495 95.3475 40.3403C95.3271 40.3464 95.3067 40.3526 95.2862 40.3587C95.2716 40.3618 95.3183 40.3587 95.295 40.3587C95.2891 40.3587 95.2862 40.3587 95.2804 40.3587C95.2687 40.3587 95.2571 40.3587 95.2454 40.3587C95.2396 40.3587 95.2337 40.3587 95.2279 40.3587C95.2133 40.3587 95.2571 40.3649 95.2337 40.3587C95.225 40.3587 95.2133 40.3557 95.2016 40.3526C95.19 40.3495 95.1812 40.3464 95.1725 40.3434C95.1433 40.3341 95.187 40.3526 95.1608 40.3372C95.1404 40.3249 95.1199 40.3157 95.0995 40.3003C95.0937 40.2973 95.0908 40.2942 95.0849 40.288C95.0849 40.288 95.1054 40.3065 95.0908 40.2942C95.082 40.285 95.0733 40.2757 95.0616 40.2665C95.0499 40.2573 95.0441 40.2481 95.0353 40.2388C95.012 40.2143 95.0412 40.2511 95.0266 40.2296C95.012 40.2081 95.0003 40.1866 94.9887 40.162C94.977 40.1282 94.9857 40.1559 94.9887 40.162C94.9887 40.1559 94.9858 40.1528 94.9828 40.1466C94.977 40.1313 94.9741 40.1159 94.9712 40.1005C94.9682 40.0698 94.9712 40.0944 94.9712 40.1005C94.9712 40.0944 94.9712 40.0882 94.9712 40.0821C94.9712 40.0698 94.977 40.0298 94.9712 40.0636C94.9741 40.0483 94.977 40.0329 94.9828 40.0175C94.9741 40.0483 94.9858 40.0175 94.9916 40.0052C95.0003 39.9868 94.9916 40.0083 94.9858 40.0114C94.9916 40.0052 94.9945 39.9991 95.0003 39.9929C95.0033 39.9899 95.0091 39.9837 95.0149 39.9807C95.0149 39.9807 94.9945 39.9929 95.0178 39.9807C95.0295 39.9745 95.0412 39.9684 95.0528 39.9622C95.0703 39.953 95.0528 39.9622 95.047 39.9622C95.0558 39.9622 95.0616 39.9561 95.0704 39.953C95.0849 39.9468 95.0995 39.9438 95.1141 39.9407C95.1229 39.9407 95.1404 39.9407 95.1141 39.9407C95.1229 39.9407 95.1316 39.9407 95.1404 39.9407C95.155 39.9407 95.1695 39.9407 95.1841 39.9407C95.1929 39.9407 95.1987 39.9407 95.2075 39.9407C95.2337 39.9407 95.2016 39.9407 95.2133 39.9407C95.2454 39.9468 95.2746 39.9561 95.3037 39.9653C95.2891 39.9561 95.3329 39.9745 95.3037 39.9653C95.3125 39.9684 95.3212 39.9745 95.3271 39.9776C95.3417 39.9868 95.3562 39.996 95.3708 40.0052C95.3767 40.0083 95.3854 40.0206 95.3708 40.0052C95.3767 40.0114 95.3854 40.0175 95.3912 40.0237C95.3971 40.0298 95.4029 40.036 95.4088 40.0421C95.4117 40.0452 95.435 40.0759 95.4175 40.0513C95.4554 40.1036 95.5167 40.1313 95.578 40.0944C95.6276 40.0636 95.6567 39.9807 95.6188 39.9253C95.5167 39.7839 95.3708 39.7009 95.2016 39.6886C95.0674 39.6763 94.9157 39.7194 94.8253 39.83C94.624 40.0759 94.8253 40.4386 95.0674 40.5493C95.1929 40.6077 95.33 40.6138 95.4525 40.5524C95.575 40.4909 95.6596 40.3587 95.6976 40.2204C95.7442 40.0452 95.7413 39.8362 95.6801 39.6641C95.6276 39.5165 95.54 39.3936 95.4204 39.2952C95.2746 39.1784 95.0849 39.1046 94.9012 39.0893C94.837 39.0831 94.7845 39.1507 94.7845 39.2122C94.7845 39.2829 94.837 39.329 94.9012 39.3352H94.9099Z" fill="#D47F6D"/>
<path d="M96.7215 47.9755C96.7215 47.9755 101.55 47.1763 105.429 48.3136C105.429 48.3136 106.176 51.1015 100.782 51.4396C95.3854 51.7777 96.7215 47.9755 96.7215 47.9755Z" fill="#D5D5D5"/>
<path d="M87.0245 51.3721C87.0245 51.3721 90.8228 52.2542 90.3939 60.1538C90.3939 60.1538 86.5257 55.66 87.0245 51.3721Z" fill="#D5D5D5"/>
<path d="M103.74 42.9868L100.984 42.704V42.6487L100.771 42.6825L100.558 42.661V42.7163L97.8213 43.1405C97.8213 43.1405 99.1574 48.0063 95.6188 50.6651C97.3575 52.454 103.685 53.4684 106.812 50.7112C102.524 48.3751 103.74 42.9868 103.74 42.9868Z" fill="#EBC3A0"/>
<path d="M103.583 44.5298C103.6 43.6138 103.74 42.9868 103.74 42.9868L100.984 42.704V42.6487L100.771 42.6825L100.558 42.661V42.7163L97.8213 43.1405C97.8213 43.1405 98.1101 44.1917 98.0663 45.5841C98.6994 46.8659 100.911 48.6056 103.583 44.5268V44.5298Z" fill="#A95C50"/>
<path d="M95.3066 33.9376C95.2745 34.0452 94.3614 41.3146 96.9461 43.9304C99.5308 46.5462 103.857 44.8464 104.855 42.0677C105.715 39.6702 105.788 35.1948 103.939 32.5083C102.089 29.8218 96.9374 28.4509 95.3037 33.9376H95.3066Z" fill="#EBC3A0"/>
<path d="M99.0465 36.209C98.9619 37.3924 98.8773 38.5727 98.7927 39.7561L98.7548 40.2694C98.7519 40.3186 98.7927 40.3801 98.8394 40.3893C99.2245 40.4539 99.6095 40.5184 99.9946 40.586C100.14 40.6106 100.205 40.3739 100.056 40.3494C99.6708 40.2848 99.2857 40.2203 98.9006 40.1526L98.9853 40.2725C99.0699 39.0891 99.1545 37.9088 99.2391 36.7254L99.277 36.2121C99.2886 36.0553 99.0553 36.0553 99.0436 36.2121L99.0465 36.209Z" fill="#D47F6D"/>
<path d="M95.9835 41.3453C96.036 41.874 96.5027 42.2582 97.0278 42.1998C97.55 42.1414 97.9322 41.6649 97.8797 41.1363C97.8272 40.6076 97.3604 40.2233 96.8353 40.2817C96.3131 40.3401 95.931 40.8166 95.9835 41.3453Z" fill="#D47F6D"/>
<path d="M101.375 41.1209C101.427 41.6496 101.894 42.0338 102.419 41.9754C102.941 41.917 103.323 41.4406 103.271 40.9119C103.218 40.3832 102.752 39.999 102.226 40.0574C101.704 40.1158 101.322 40.5922 101.375 41.1209Z" fill="#D47F6D"/>
<path d="M102.375 36.9161C102.337 37.1497 101.917 37.0452 101.395 36.953C100.87 36.8608 100.441 36.8178 100.479 36.5842C100.517 36.3506 100.969 36.2368 101.494 36.326C102.019 36.4182 102.413 36.6795 102.375 36.9131V36.9161Z" fill="#0C143B"/>
<path d="M97.9993 36.5195C98.0489 36.7501 97.62 36.8177 97.1037 36.9406C96.5844 37.0605 96.1701 37.1896 96.1235 36.9591C96.0739 36.7286 96.456 36.4427 96.9753 36.3228C97.4946 36.2029 97.9526 36.2921 98.0022 36.5226L97.9993 36.5195Z" fill="#0C143B"/>
<path d="M104.42 38.785C103.886 39.7255 103.843 41.2194 104.575 41.6804C105.307 42.1415 106.535 41.3946 107.069 40.454C107.603 39.5134 107.442 38.3792 106.71 37.9181C105.978 37.4571 104.954 37.8475 104.42 38.785Z" fill="#EBC3A0"/>
<path d="M106.17 39.0522C106.016 39.0676 105.855 39.1229 105.724 39.2059C105.607 39.2797 105.505 39.3873 105.438 39.5133C105.357 39.6701 105.333 39.8576 105.351 40.0359C105.368 40.2141 105.424 40.3709 105.558 40.4785C105.66 40.5584 105.788 40.5738 105.908 40.5461C106.036 40.5154 106.147 40.4324 106.226 40.3217C106.308 40.208 106.36 40.0451 106.31 39.9037C106.249 39.7316 106.08 39.6486 105.914 39.6455C105.73 39.6455 105.564 39.7315 105.453 39.8852C105.415 39.9375 105.444 40.0236 105.494 40.0543C105.552 40.0912 105.616 40.0635 105.654 40.0113C105.639 40.0328 105.669 39.9959 105.674 39.9897C105.68 39.9836 105.683 39.9805 105.689 39.9774C105.689 39.9774 105.712 39.9559 105.698 39.9682C105.689 39.9774 105.718 39.9529 105.724 39.9498C105.736 39.9406 105.75 39.9344 105.765 39.9252C105.75 39.9313 105.791 39.9098 105.765 39.9252C105.771 39.9252 105.78 39.919 105.785 39.916C105.797 39.9129 105.812 39.9068 105.823 39.9037C105.835 39.9006 105.85 39.8975 105.864 39.8945C105.835 39.9006 105.876 39.8945 105.887 39.8945C105.902 39.8945 105.917 39.8945 105.931 39.8945C105.937 39.8945 105.943 39.8945 105.949 39.8945C105.931 39.8883 105.975 39.8945 105.949 39.8945C105.975 39.9006 105.998 39.9068 106.025 39.916C105.992 39.9068 106.03 39.919 106.039 39.9252C106.045 39.9283 106.074 39.9498 106.06 39.9375C106.045 39.9252 106.071 39.9498 106.074 39.9529C106.077 39.9559 106.08 39.9621 106.083 39.9652C106.062 39.9436 106.077 39.9559 106.083 39.9652C106.083 39.9713 106.089 39.9775 106.092 39.9805C106.1 39.9897 106.086 39.9529 106.092 39.9774C106.092 39.9897 106.097 40.002 106.1 40.0113C106.106 40.0236 106.1 39.9805 106.1 40.0082C106.1 40.0143 106.1 40.0205 106.1 40.0266C106.1 40.0328 106.1 40.0389 106.1 40.0451C106.1 40.0727 106.106 40.0266 106.1 40.0512C106.095 40.0697 106.092 40.085 106.086 40.1004C106.086 40.1066 106.083 40.1096 106.08 40.1158C106.083 40.1065 106.089 40.0881 106.08 40.1158C106.068 40.1404 106.057 40.1619 106.042 40.1834C106.025 40.2111 106.054 40.1711 106.033 40.1957C106.025 40.2049 106.019 40.2141 106.01 40.2203C106.001 40.2264 105.992 40.2356 105.987 40.2449C105.984 40.2479 105.978 40.251 105.975 40.2541C105.981 40.2479 105.998 40.2326 105.975 40.2541C105.955 40.2664 105.937 40.2787 105.917 40.291C105.911 40.291 105.905 40.2971 105.899 40.3002C105.899 40.3002 105.925 40.291 105.908 40.2971C105.896 40.3002 105.885 40.3063 105.873 40.3094C105.861 40.3125 105.85 40.3156 105.838 40.3186C105.82 40.3248 105.847 40.3186 105.85 40.3186C105.844 40.3186 105.838 40.3186 105.832 40.3186C105.82 40.3186 105.812 40.3186 105.8 40.3186C105.785 40.3186 105.759 40.3125 105.791 40.3186C105.771 40.3156 105.75 40.3063 105.73 40.3033C105.715 40.3033 105.756 40.3186 105.736 40.3033C105.733 40.3033 105.727 40.3002 105.724 40.2971C105.712 40.291 105.704 40.2848 105.695 40.2787C105.674 40.2664 105.71 40.294 105.698 40.2818C105.695 40.2756 105.689 40.2725 105.683 40.2695C105.674 40.2602 105.669 40.251 105.66 40.2449C105.645 40.2233 105.654 40.2387 105.66 40.2449C105.657 40.2387 105.654 40.2356 105.651 40.2295C105.645 40.2172 105.637 40.2049 105.631 40.1926C105.628 40.1865 105.625 40.1772 105.622 40.1711C105.613 40.1527 105.631 40.1988 105.622 40.1711C105.616 40.1557 105.613 40.1434 105.607 40.1281C105.604 40.1127 105.599 40.0973 105.596 40.0789C105.596 40.0727 105.596 40.0635 105.593 40.0574C105.587 40.0297 105.593 40.0697 105.593 40.042C105.59 39.999 105.587 39.959 105.587 39.916C105.587 39.8975 105.587 39.8791 105.587 39.8606C105.587 39.8514 105.587 39.8453 105.587 39.8361C105.587 39.8053 105.584 39.8484 105.587 39.8238C105.593 39.7899 105.602 39.7561 105.61 39.7223C105.616 39.707 105.619 39.6916 105.625 39.6793C105.616 39.7039 105.634 39.6639 105.637 39.6547C105.651 39.627 105.666 39.6024 105.68 39.5779C105.683 39.5717 105.698 39.5563 105.68 39.5779C105.683 39.5717 105.686 39.5686 105.692 39.5625C105.701 39.5502 105.709 39.541 105.721 39.5287C105.739 39.5072 105.759 39.4918 105.78 39.4734C105.785 39.4672 105.8 39.4549 105.78 39.4734C105.782 39.4703 105.788 39.4672 105.791 39.4641C105.803 39.4549 105.812 39.4488 105.823 39.4395C105.847 39.4242 105.87 39.4088 105.896 39.3965C105.908 39.3904 105.92 39.3842 105.928 39.3781C105.934 39.3781 105.94 39.3719 105.946 39.3688C105.922 39.3781 105.952 39.3658 105.946 39.3688C105.987 39.3535 106.027 39.3381 106.071 39.3258C106.1 39.3166 106.133 39.3104 106.165 39.3043C106.141 39.3043 106.203 39.2981 106.165 39.3043C106.168 39.3043 106.17 39.3043 106.173 39.3043C106.235 39.2981 106.29 39.252 106.29 39.1813C106.29 39.1199 106.238 39.0522 106.173 39.0584L106.17 39.0522Z" fill="#D47F6D"/>
<path d="M97.0628 38.6436C97.0949 38.9817 97.3254 39.2369 97.5792 39.2092C97.83 39.1846 98.0109 38.8895 97.9759 38.5483C97.9438 38.2102 97.7134 37.9551 97.4596 37.9828C97.2087 38.0074 97.0278 38.3024 97.0628 38.6436Z" fill="#0C143B"/>
<path d="M100.587 38.5789C100.602 38.9201 100.817 39.1875 101.068 39.1752C101.322 39.166 101.515 38.8801 101.503 38.542C101.488 38.2008 101.272 37.9334 101.022 37.9457C100.768 37.9549 100.575 38.2408 100.587 38.5789Z" fill="#0C143B"/>
<path d="M102.991 33.8023C102.991 33.8023 103.344 39.2337 104.785 39.4704C105.505 39.5872 105.92 38.8003 106.153 37.9857C106.456 36.9284 106.413 35.788 106.092 34.7368C105.555 32.9847 104.277 29.9755 101.135 29.828C94.2826 29.5052 93.9705 35.6497 92.1414 35.453C92.1414 35.453 97.6141 37.7398 101.797 32.7419C101.797 32.7419 102.813 32.1548 102.991 33.8054V33.8023Z" fill="#0C143B"/>
<path d="M99.2158 41.4038C99.4462 41.5575 99.7379 41.5913 99.9859 41.4622C100.307 41.2962 100.715 41.1671 100.917 41.4346C101.272 41.9079 100.919 42.9284 99.6592 42.9284C98.3989 42.9284 98.0605 41.745 98.3377 41.4161C98.5652 41.1456 98.962 41.2348 99.2158 41.4038Z" fill="white"/>
<path d="M99.6825 43.4418C99.8114 43.4418 99.9159 43.3771 99.9159 43.2973C99.9159 43.2175 99.8114 43.1528 99.6825 43.1528C99.5536 43.1528 99.4491 43.2175 99.4491 43.2973C99.4491 43.3771 99.5536 43.4418 99.6825 43.4418Z" fill="#A95C50"/>
<path d="M96.7215 47.9754C96.7215 47.9754 97.5237 50.4283 100.415 50.5113C103.303 50.5974 105.429 48.3136 105.429 48.3136C105.429 48.3136 109.951 47.5328 112.48 51.4396C114.692 54.8545 115.048 56.2685 117.656 57.4949C117.656 57.4949 113.825 57.0646 112.034 61.2295L109.321 57.7838C109.321 57.7838 109.601 68.3976 109.922 75.1045C109.922 75.1045 98.4718 78.0369 91.6776 74.3146L94.8865 55.915L90.391 60.1537C90.391 60.1537 89.3758 52.331 87.0216 51.372C87.0216 51.372 91.1408 50.6097 92.719 49.4263C94.2972 48.2429 95.9017 47.8771 96.7186 47.9754H96.7215Z" fill="#76C6B8"/>
<path style="mix-blend-mode:overlay" opacity="0.93" d="M96.7215 47.9754C96.7215 47.9754 97.5237 50.4283 100.415 50.5113C103.303 50.5974 105.429 48.3136 105.429 48.3136C105.429 48.3136 109.951 47.5328 112.48 51.4396C114.692 54.8545 115.048 56.2685 117.656 57.4949C117.656 57.4949 113.825 57.0646 112.034 61.2295L109.321 57.7838C109.321 57.7838 109.601 68.3976 109.922 75.1045C109.922 75.1045 98.4718 78.0369 91.6776 74.3146L94.8865 55.915L90.391 60.1537C90.391 60.1537 89.3758 52.331 87.0216 51.372C87.0216 51.372 91.1408 50.6097 92.719 49.4263C94.2972 48.2429 95.9017 47.8771 96.7186 47.9754H96.7215Z" fill="url(#paint7_linear_2019_9106)"/>
<path d="M103.974 52.6538H82.9287V67.6538H103.974V52.6538Z" fill="#ECB57B"/>
<path d="M112.034 52.6538H102.396V67.6538H112.034V52.6538Z" fill="#E6A253"/>
<path d="M103.589 52.6538H102.396V67.6538H103.589V52.6538Z" fill="#CC8034"/>
<path d="M112.034 52.6538H82.9287V53.6098H112.034V52.6538Z" fill="#F0CAA2"/>
<path d="M87.6284 54.2766H83.7543V60.71H87.6284V54.2766Z" fill="#F0CAA2"/>
<path d="M87.6284 61.6445H83.7543V62.7081H87.6284V61.6445Z" fill="#F0CAA2"/>
<path d="M87.6284 63.3596H83.7543V64.4262H87.6284V63.3596Z" fill="#F0CAA2"/>
<path d="M94.6211 52.6538H91.3071V67.6538H94.6211V52.6538Z" fill="#F0CAA2"/>
<path d="M92.9641 65.5052C95.4775 65.5052 97.515 63.3584 97.515 60.7101C97.515 58.0619 95.4775 55.915 92.9641 55.915C90.4507 55.915 88.4132 58.0619 88.4132 60.7101C88.4132 63.3584 90.4507 65.5052 92.9641 65.5052Z" fill="white"/>
<path d="M93.8189 57.3965H92.1064V63.2551H93.8189V57.3965Z" fill="#D36768"/>
<path d="M95.7442 59.4253H90.184V61.2296H95.7442V59.4253Z" fill="#D36768"/>
<path style="mix-blend-mode:overlay" opacity="0.93" d="M112.034 52.6538H82.9287V67.6538H112.034V52.6538Z" fill="url(#paint8_linear_2019_9106)"/>
<path d="M108.703 58.4509C108.703 58.4509 111.422 60.1108 113.977 61.6015C115.865 62.702 117.746 63.3997 117.95 64.8843C118.432 68.3792 115.328 68.662 113.455 67.7583C111.582 66.8577 107.215 60.3259 107.215 60.3259L108.703 58.4509Z" fill="#EBC3A0"/>
<path d="M108.501 60.0954C108.913 59.6651 109.134 59.0595 109.062 58.454C109.032 58.2142 108.959 57.9776 108.814 57.7839C108.312 57.1261 108.478 56.0411 107.644 55.7983C106.812 55.5585 107.183 56.8618 107.448 57.455C107.714 58.0483 107.014 58.4233 106.071 57.661C105.132 56.8987 103.819 55.1651 103.417 55.5616C103.014 55.9581 103.828 57.1108 105.526 58.2388C105.526 58.2388 104.289 57.4581 103.609 56.6804C102.929 55.9028 102.597 55.9335 102.422 56.1179C102.25 56.3024 103.075 57.7993 105.112 59.1118C105.112 59.1118 103.51 58.1405 102.754 57.1476C102.754 57.1476 102.439 56.8526 102.305 57.2153C102.139 57.6579 104.382 59.8802 105.167 60.203C105.663 60.4089 106.252 60.5626 106.742 60.6671C107.37 60.8024 108.017 60.5933 108.472 60.1169L108.498 60.0892L108.501 60.0954Z" fill="#EBC3A0"/>
<path d="M87.2521 69.6393C86.8407 69.209 86.619 68.6035 86.692 67.9979C86.7211 67.7582 86.7941 67.5215 86.9399 67.3279C87.4417 66.6701 87.2754 65.585 88.1097 65.3422C88.9412 65.1024 88.5707 66.4057 88.3052 66.999C88.0397 67.5922 88.7399 67.9672 89.6822 67.2049C90.6215 66.4426 91.9343 64.709 92.3368 65.1055C92.7394 65.502 91.9255 66.6547 90.2277 67.7828C90.2277 67.7828 91.4646 67.002 92.1443 66.2244C92.824 65.4467 93.1566 65.4774 93.3316 65.6619C93.5037 65.8463 92.6782 67.3432 90.6419 68.6557C90.6419 68.6557 92.2435 67.6844 92.9991 66.6916C92.9991 66.6916 93.3141 66.3965 93.4483 66.7592C93.6146 67.2018 91.3712 69.4242 90.5865 69.7469C90.0906 69.9529 89.5013 70.1065 89.0112 70.2111C88.384 70.3463 87.7363 70.1373 87.2813 69.6608L87.255 69.6332L87.2521 69.6393Z" fill="#EBC3A0"/>
<path d="M15.1055 79.6078L14.4958 112.094L10.9717 111.849C10.9717 111.849 5.85196 89.4561 7.17056 72.867L15.8494 74.2963L24.2686 72.8086C25.5784 89.3977 20.7124 111.852 20.7124 111.852L17.5647 112.094L16.5933 79.6078C16.5933 79.6078 15.8931 80.0166 15.1055 79.6078Z" fill="#192D3F"/>
<path d="M17.5647 111.747C17.5647 111.747 15.6802 115.46 16.5349 118.97H26.0306C26.0306 118.97 26.6899 115.273 22.8274 114.04L21.1617 111.747H17.5647Z" fill="#274256"/>
<path d="M25.0941 120H17.5122C16.9725 120 16.532 119.539 16.532 118.967H26.0714C26.0714 119.536 25.6338 120 25.0912 120H25.0941Z" fill="white"/>
<path d="M22.8596 113.917C22.422 113.727 21.9173 113.659 21.4477 113.628C20.2983 113.558 19.1664 113.846 18.1395 114.378C18.0024 114.449 18.122 114.667 18.2591 114.593C19.2655 114.071 20.377 113.8 21.5031 113.88C21.9348 113.911 22.3928 113.982 22.7954 114.157C22.9384 114.218 22.9996 113.976 22.8596 113.914V113.917Z" fill="#D0D2F9"/>
<path d="M21.1617 111.747C21.1617 111.747 22.3198 109.684 22.0398 109.171C21.5234 108.231 17.5939 107.978 19.4142 111.747H21.1617Z" fill="#274256"/>
<path d="M14.4724 111.747C14.4724 111.747 16.357 115.46 15.5022 118.97H6.00657C6.00657 118.97 5.34727 115.273 9.20972 114.04L10.8755 111.747H14.4724Z" fill="#274256"/>
<path d="M6.94298 120H14.5249C15.0646 120 15.5051 119.539 15.5051 118.967H5.9657C5.9657 119.536 6.40329 120 6.9459 120H6.94298Z" fill="white"/>
<path d="M9.24178 114.16C9.64436 113.985 10.1053 113.917 10.5341 113.883C11.6573 113.803 12.7687 114.074 13.7781 114.596C13.9152 114.667 14.0348 114.452 13.8977 114.381C12.8708 113.849 11.736 113.557 10.5895 113.631C10.1199 113.662 9.6181 113.73 9.1776 113.92C9.03757 113.982 9.09883 114.224 9.24178 114.163V114.16Z" fill="#D0D2F9"/>
<path d="M10.8755 111.747C10.8755 111.747 9.71736 109.684 9.99742 109.171C10.5138 108.231 14.4433 107.978 12.6229 111.747H10.8755Z" fill="#274256"/>
<path d="M0 47.4561C0 47.4561 2.97268 44.6252 6.3567 45.2952C6.3567 45.2952 5.00017 50.453 0 47.4561Z" fill="#D5D5D5"/>
<path d="M24.3561 45.2952C24.3561 45.2952 28.694 44.9079 30.7157 47.4561C30.7157 47.4561 26.3369 50.41 24.3561 45.2952Z" fill="#D5D5D5"/>
<path d="M11.6252 51.9529H19.0876C19.0876 51.9529 18.472 54.6547 15.0472 54.2121C11.6252 53.7664 11.6252 51.9529 11.6252 51.9529Z" fill="#D5D5D5"/>
<path d="M23.4371 49.7645C23.4371 49.7645 27.1975 42.6917 22.9529 29.6436C22.9529 29.6436 20.8612 28.3895 21.2288 26.6774C21.5963 24.9653 22.2235 23.8249 22.5503 23.9632C22.8741 24.1016 22.1389 25.7891 22.5065 26.2686C22.8741 26.7481 23.1133 26.9294 24.887 26.2225C26.6636 25.5155 27.6788 24.5104 28.1777 24.6702C28.6211 24.8116 28.061 26.0934 26.2873 27.0462C25.7768 27.3198 25.4529 27.9007 25.5346 28.4971C25.5375 28.5278 25.5434 28.5524 25.5492 28.577C25.6367 28.9182 32.8949 41.7542 28.8049 50.6497L23.4371 49.7614V49.7645Z" fill="#EBC3A0"/>
<path d="M8.93549 26.8679L27.6234 26.8679V13.5493L8.93549 13.5493V26.8679Z" fill="#ECB57B"/>
<path d="M1.78525 26.8679H10.3416L10.3416 13.5493L1.78525 13.5493L1.78525 26.8679Z" fill="#E6A253"/>
<path d="M9.28259 26.8679H10.3416L10.3416 13.5493H9.28259L9.28259 26.8679Z" fill="#CC8034"/>
<path d="M1.78238 14.3977L27.6234 14.3977V13.5493L1.78238 13.5493V14.3977Z" fill="#F0CAA2"/>
<path d="M23.4518 20.7019H26.8912V14.9878H23.4518V20.7019Z" fill="#F0CAA2"/>
<path d="M23.4518 22.4756H26.8912V21.5289H23.4518V22.4756Z" fill="#F0CAA2"/>
<path d="M23.4518 24H26.8912V23.0533H23.4518V24Z" fill="#F0CAA2"/>
<path d="M17.2468 26.8679H20.1874V13.5493H17.2468V26.8679Z" fill="#F0CAA2"/>
<path d="M18.717 24.9592C20.9485 24.9592 22.7574 23.0532 22.7574 20.702C22.7574 18.3508 20.9485 16.4448 18.717 16.4448C16.4856 16.4448 14.6766 18.3508 14.6766 20.702C14.6766 23.0532 16.4856 24.9592 18.717 24.9592Z" fill="white"/>
<path d="M19.4756 17.7603H17.9557V22.9611H19.4756V17.7603Z" fill="#D36768"/>
<path d="M21.185 19.5615H16.249V21.163H21.185V19.5615Z" fill="#D36768"/>
<path style="mix-blend-mode:overlay" opacity="0.93" d="M1.78238 26.8679L27.6234 26.8679V13.5493L1.78238 13.5493V26.8679Z" fill="url(#paint9_linear_2019_9106)"/>
<path d="M12.7688 48.0892L14.9888 47.7665V47.7234L15.1609 47.7419L15.333 47.7173V47.7603L17.5618 48.0093C17.5618 48.0093 16.6341 51.9898 19.5747 54.0185C18.224 55.5247 13.1393 56.5636 10.5254 54.4396C13.9211 52.4048 12.7717 48.0892 12.7717 48.0892H12.7688Z" fill="#EBC3A0"/>
<path d="M12.9438 49.331C12.903 48.5902 12.7688 48.0892 12.7688 48.0892L14.9888 47.7665V47.7234L15.1609 47.7419L15.3331 47.7173V47.7603L17.5618 48.0093C17.5618 48.0093 17.3606 48.8699 17.4393 49.9949C16.9667 51.0523 15.2339 52.537 12.9468 49.331H12.9438Z" fill="#A95C50"/>
<path d="M20.2836 38.7512C20.3187 38.8496 21.4418 45.6764 19.0963 48.2492C16.7509 50.8219 12.6054 49.3895 11.564 46.8076C10.6655 44.5791 10.435 40.3557 12.0832 37.7461C13.7315 35.1365 18.545 33.6365 20.2836 38.7481V38.7512Z" fill="#EBC3A0"/>
<path d="M16.9405 40.7121C16.9609 41.8248 16.9813 42.9375 17.0017 44.0502L17.0105 44.5297L17.0893 44.4222L16.042 44.6465C15.9078 44.6742 15.9661 44.8924 16.0974 44.8617L17.1447 44.6373C17.1885 44.6281 17.2235 44.5758 17.2235 44.5297C17.203 43.417 17.1826 42.3043 17.1622 41.1916L17.1534 40.7121C17.1534 40.5676 16.9376 40.5676 16.9405 40.7121Z" fill="#D47F6D"/>
<path d="M19.9773 44.9049C19.9481 45.3905 19.5368 45.7563 19.0554 45.7225C18.577 45.6887 18.2123 45.2706 18.2415 44.7881C18.2707 44.3024 18.682 43.9366 19.1634 43.9704C19.6418 44.0042 20.0064 44.4223 19.9773 44.9049Z" fill="#D47F6D"/>
<path d="M14.4549 45.1414C14.4258 45.6271 14.0144 45.9929 13.5331 45.959C13.0517 45.9252 12.69 45.5072 12.7192 45.0246C12.7483 44.539 13.1597 44.1732 13.641 44.207C14.1195 44.2408 14.4841 44.6588 14.4549 45.1414Z" fill="#D47F6D"/>
<path d="M13.4456 41.3053C13.4865 41.5174 13.8657 41.4037 14.3412 41.3023C14.8167 41.1978 15.2047 41.1424 15.1639 40.9303C15.123 40.7183 14.703 40.6322 14.2304 40.7336C13.7549 40.8381 13.4048 41.0933 13.4456 41.3053Z" fill="#0C143B"/>
<path d="M17.8127 41.0318C17.7777 41.2438 18.1686 41.2899 18.6441 41.3791C19.1197 41.4682 19.5018 41.5697 19.5397 41.3576C19.5748 41.1455 19.2188 40.8996 18.7433 40.8104C18.2678 40.7213 17.8507 40.8197 17.8156 41.0318H17.8127Z" fill="#0C143B"/>
<path d="M11.8207 43.4047C12.34 44.2408 12.4304 45.5994 11.7799 46.0481C11.1293 46.4969 9.98285 45.8637 9.4665 45.0277C8.94723 44.1916 9.05516 43.1496 9.7028 42.7039C10.3533 42.2551 11.3015 42.5717 11.8207 43.4047Z" fill="#EBC3A0"/>
<path d="M10.2366 43.9428C10.2366 43.9428 10.2541 43.9428 10.2628 43.9428C10.2687 43.9428 10.2716 43.9428 10.2774 43.9428C10.2978 43.9428 10.2483 43.9366 10.2687 43.9428C10.2803 43.9428 10.2949 43.9459 10.3066 43.9489C10.3416 43.9551 10.3737 43.9643 10.4058 43.9735C10.4233 43.9797 10.4408 43.9858 10.4583 43.992C10.467 43.995 10.4758 43.9981 10.4846 44.0043C10.4525 43.992 10.4933 44.0073 10.4991 44.0104C10.54 44.0319 10.5779 44.0565 10.6158 44.0811C10.6217 44.0842 10.6333 44.0965 10.6158 44.0811C10.6187 44.0842 10.6246 44.0873 10.6275 44.0903C10.6363 44.0996 10.6479 44.1088 10.6567 44.118C10.6742 44.1364 10.6917 44.1549 10.7063 44.1764C10.6917 44.1549 10.7179 44.1887 10.7063 44.1764C10.7092 44.1825 10.7121 44.1856 10.715 44.1918C10.7238 44.2041 10.7296 44.2164 10.7384 44.2287C10.7442 44.2379 10.75 44.2502 10.7559 44.2594C10.7588 44.2655 10.7617 44.2717 10.7646 44.2809C10.7675 44.2871 10.7646 44.2871 10.7646 44.2748C10.7646 44.2809 10.7704 44.2871 10.7704 44.2932C10.7792 44.3209 10.7879 44.3485 10.7938 44.3793C10.7967 44.3916 10.7996 44.4069 10.8025 44.4192C10.8084 44.453 10.8025 44.3977 10.8025 44.4315C10.8025 44.4438 10.8025 44.453 10.8025 44.4653C10.8025 44.5022 10.8025 44.536 10.8025 44.5729C10.8025 44.5791 10.8025 44.5883 10.8025 44.5944C10.8025 44.5944 10.7996 44.6282 10.8025 44.6129C10.8055 44.5975 10.8025 44.6313 10.8025 44.6282C10.8025 44.6375 10.7996 44.6467 10.7967 44.6559C10.7967 44.6682 10.7909 44.6805 10.7879 44.6928C10.7879 44.6989 10.7704 44.742 10.7821 44.7143C10.7704 44.7389 10.7588 44.7604 10.7442 44.7819C10.7588 44.7604 10.7442 44.7819 10.7354 44.7912C10.7296 44.7973 10.7209 44.8065 10.715 44.8127C10.7033 44.825 10.7179 44.8096 10.7209 44.8065C10.715 44.8065 10.7121 44.8127 10.7092 44.8157C10.7004 44.8219 10.6888 44.828 10.68 44.8342C10.6654 44.8434 10.6858 44.8342 10.6888 44.8311C10.6829 44.8311 10.68 44.8342 10.6742 44.8373C10.6654 44.8373 10.6567 44.8434 10.6479 44.8465C10.645 44.8465 10.6392 44.8465 10.6363 44.8465C10.6158 44.8526 10.6567 44.8465 10.6421 44.8465C10.6304 44.8465 10.6187 44.8465 10.6071 44.8465C10.5983 44.8465 10.5867 44.8465 10.5779 44.8465C10.5633 44.8465 10.6042 44.8526 10.5837 44.8465C10.5808 44.8465 10.575 44.8465 10.5721 44.8465C10.5517 44.8434 10.5312 44.8342 10.5108 44.828C10.4933 44.8219 10.5166 44.828 10.5196 44.8311C10.5137 44.8311 10.5108 44.825 10.505 44.825C10.4962 44.8188 10.4875 44.8157 10.4787 44.8096C10.47 44.8034 10.4612 44.7973 10.4495 44.7912C10.4437 44.7881 10.435 44.7789 10.4554 44.7973C10.4495 44.7912 10.4437 44.7881 10.4408 44.785C10.4262 44.7696 10.4116 44.7543 10.397 44.7389C10.3766 44.7143 10.4058 44.7543 10.3883 44.7266C10.3824 44.7174 10.3766 44.7051 10.3708 44.6959C10.3649 44.6866 10.3591 44.6743 10.3562 44.6621C10.3679 44.6866 10.3562 44.659 10.3504 44.6467C10.3504 44.6405 10.3416 44.5944 10.3445 44.6221C10.3445 44.6098 10.3445 44.5944 10.3445 44.5821C10.3445 44.5575 10.3387 44.5975 10.3445 44.5852C10.3445 44.5791 10.3474 44.5698 10.3504 44.5637C10.3504 44.5545 10.3591 44.5422 10.3504 44.5637C10.3533 44.5575 10.3562 44.5514 10.3591 44.5452C10.3591 44.5422 10.3649 44.536 10.3679 44.533C10.3533 44.5483 10.3766 44.5145 10.3679 44.533C10.3708 44.5299 10.3766 44.5237 10.3795 44.5207C10.3795 44.5207 10.4 44.5022 10.3883 44.5145C10.3766 44.5237 10.4087 44.5022 10.4145 44.4991C10.4175 44.4991 10.4233 44.4961 10.4262 44.493C10.4029 44.5053 10.4204 44.493 10.4262 44.493C10.4408 44.4899 10.4525 44.4838 10.4671 44.4807C10.4729 44.4807 10.4787 44.4807 10.4875 44.4776C10.5079 44.4715 10.467 44.4776 10.4904 44.4776C10.5196 44.4776 10.5458 44.4776 10.575 44.4776C10.5487 44.4715 10.5925 44.4776 10.575 44.4776C10.5837 44.4776 10.5925 44.4807 10.5983 44.4838C10.6129 44.4868 10.6246 44.4899 10.6392 44.4961C10.6392 44.4961 10.6654 44.5084 10.6508 44.4991C10.6363 44.493 10.6625 44.5053 10.6654 44.5053C10.68 44.5114 10.6917 44.5207 10.7063 44.5299C10.7121 44.533 10.715 44.536 10.7209 44.5391C10.7004 44.5237 10.7209 44.5391 10.7267 44.5452C10.7384 44.5575 10.7529 44.5729 10.7617 44.5852C10.7996 44.6313 10.8755 44.6252 10.9134 44.5852C10.9571 44.5391 10.9513 44.4746 10.9134 44.4254C10.7413 44.2071 10.3445 44.161 10.1812 44.4162C10.1024 44.5391 10.1316 44.7051 10.2045 44.825C10.2687 44.9295 10.3649 45.0094 10.4787 45.0493C10.5837 45.0862 10.7033 45.0801 10.8025 45.0248C10.9163 44.9602 10.9863 44.828 11.0126 44.6989C11.0417 44.536 11.033 44.3578 10.9747 44.2071C10.9221 44.075 10.8375 43.9674 10.7267 43.8844C10.5925 43.783 10.4145 43.7246 10.2512 43.7153C10.1928 43.7153 10.1462 43.7676 10.1462 43.826C10.1462 43.8875 10.1957 43.9366 10.2512 43.9366L10.2366 43.9428Z" fill="#D47F6D"/>
<path d="M18.6383 43.3126C18.6208 43.6231 18.4195 43.8628 18.189 43.8475C17.9586 43.8352 17.7865 43.5708 17.804 43.2604C17.8215 42.9499 18.0228 42.7102 18.2532 42.7256C18.4837 42.7378 18.6558 43.0022 18.6383 43.3126Z" fill="#0C143B"/>
<path d="M15.3155 43.3617C15.3155 43.6721 15.1288 43.9242 14.8954 43.9242C14.665 43.9242 14.4783 43.6752 14.4783 43.3647C14.4783 43.0543 14.665 42.8022 14.8954 42.8022C15.1259 42.8022 15.3126 43.0512 15.3126 43.3617H15.3155Z" fill="#0C143B"/>
<path d="M10.3562 42.1383C10.3562 42.1383 10.7763 43.6875 11.5844 43.3985C12.3896 43.1096 12.1649 39.1598 12.1649 39.1598C12.1649 39.1598 12.197 40.2633 13.0868 39.8545C13.9766 39.4457 14.2654 37.0512 14.2654 37.0512C14.2654 37.0512 17.6406 40.9733 20.625 40.4354C23.6093 39.8975 21.4972 35.9754 18.6471 35.5358C18.6471 35.5358 20.167 35.3391 18.3233 34.4815C16.4796 33.6239 12.763 34.0051 10.5225 37.6383C10.5225 37.6383 9.76404 37.2264 9.76404 37.4508C9.76404 37.6752 10.4058 38.0717 10.4058 38.0717C10.4058 38.0717 9.70278 38.2039 9.69986 38.3145C9.69403 38.4252 10.5021 38.3821 10.5021 38.3821C10.5021 38.3821 9.81655 40.7397 10.3592 42.1414L10.3562 42.1383Z" fill="#0C143B"/>
<path d="M16.109 45.6762C16.3482 45.8207 16.6428 45.8422 16.885 45.7039C17.2 45.5256 17.6084 45.3781 17.8185 45.6363C18.1948 46.0973 17.8798 47.1363 16.6107 47.1916C15.3417 47.2469 14.9596 46.0727 15.225 45.7285C15.4438 45.4488 15.8435 45.5195 16.109 45.6793V45.6762Z" fill="white"/>
<path d="M6.92843 49.7645C6.92843 49.7645 3.16809 42.6917 7.4127 29.6436C7.4127 29.6436 9.50437 28.3895 9.13679 26.6774C8.76922 24.9653 8.14201 23.8249 7.81528 23.9632C7.48855 24.1016 8.22661 25.7891 7.85904 26.2686C7.49146 26.7481 7.25225 26.9294 5.47856 26.2225C3.70195 25.5155 2.68674 24.5104 2.18789 24.6702C1.74447 24.8116 2.30458 26.0934 4.07827 27.0462C4.58879 27.3198 4.91261 27.9007 4.83093 28.4971C4.82801 28.5278 4.82218 28.5524 4.81634 28.577C4.72882 28.9182 -2.52931 41.7542 1.5636 50.6497L6.93135 49.7614L6.92843 49.7645Z" fill="#EBC3A0"/>
<path d="M30.713 47.456C30.713 47.456 26.4129 48.4427 24.3533 45.2952C24.3533 45.2952 23.8282 49.8321 19.0848 51.953C19.0848 51.953 18.6705 53.1302 16.6489 53.6066C15.797 53.8064 14.9102 53.8064 14.0584 53.6066C12.0367 53.1333 11.6224 51.953 11.6224 51.953C6.88191 49.8321 6.35389 45.2952 6.35389 45.2952C4.29722 48.4427 -0.00280762 47.456 -0.00280762 47.456C0.840279 54.6609 6.81773 57.8392 6.81773 57.8392L6.05925 73.7153C7.9788 77.2624 13.5712 77.3669 15.3536 77.3054C17.1361 77.3669 22.7314 77.2624 24.648 73.7153L23.8895 57.8392C23.8895 57.8392 29.864 54.664 30.71 47.456H30.713Z" fill="#76C6B8"/>
<path style="mix-blend-mode:overlay" opacity="0.93" d="M30.713 47.456C30.713 47.456 26.4129 48.4427 24.3533 45.2952C24.3533 45.2952 23.8282 49.8321 19.0848 51.953C19.0848 51.953 18.6705 53.1302 16.6489 53.6066C15.797 53.8064 14.9102 53.8064 14.0584 53.6066C12.0367 53.1333 11.6224 51.953 11.6224 51.953C6.88191 49.8321 6.35389 45.2952 6.35389 45.2952C4.29722 48.4427 -0.00280762 47.456 -0.00280762 47.456C0.840279 54.6609 6.81773 57.8392 6.81773 57.8392L6.05925 73.7153C7.9788 77.2624 13.5712 77.3669 15.3536 77.3054C17.1361 77.3669 22.7314 77.2624 24.648 73.7153L23.8895 57.8392C23.8895 57.8392 29.864 54.664 30.71 47.456H30.713Z" fill="url(#paint10_linear_2019_9106)"/>
</g>
</svg>
