<svg width="60" height="60" viewBox="0 0 60 60" fill="none" xmlns="http://www.w3.org/2000/svg">
<path d="M30 0C34.3125 0 38.0625 2.42578 39.9492 5.98828C43.8047 4.69922 48.0586 5.7375 51.2109 8.78672C54.2578 11.8359 55.0898 16.1953 54.0117 20.0508C57.5742 21.9375 60 25.6875 60 30C60 34.3125 57.5742 38.0625 54.0117 39.9492C55.1953 43.8047 54.2578 48.0586 51.2109 51.2109C48.0586 54.2578 43.8047 55.0898 39.9492 54.0117C38.0625 57.5742 34.3125 60 30 60C25.6875 60 21.9375 57.5742 20.0508 54.0117C16.1953 55.1953 11.8359 54.2578 8.78672 51.2109C5.7375 48.0586 4.80469 43.8047 5.98828 39.9492C2.42578 38.0625 0 34.3125 0 30C0 25.6875 2.42578 21.9375 5.98828 20.0508C4.69922 16.1953 5.7375 11.8359 8.78672 8.78672C11.8359 5.7375 16.1953 4.80469 20.0508 5.98828C21.9375 2.42578 25.6875 0 30 0ZM41.2617 26.2617C42.457 25.2656 42.457 23.4844 41.2617 22.3828C40.2656 21.293 38.4844 21.293 37.3828 22.3828L26.25 33.5273L21.5742 28.9453C20.5781 27.8555 18.7969 27.8555 17.6953 28.9453C16.6055 30.0469 16.6055 31.8281 17.6953 32.8242L24.2578 39.3867C25.3594 40.582 27.1406 40.582 28.1367 39.3867L41.2617 26.2617Z" fill="white"/>
</svg>
