<svg width="87" height="107" viewBox="0 0 87 107" fill="none" xmlns="http://www.w3.org/2000/svg">
<g clip-path="url(#clip0_2048_965)">
<path d="M38.9062 95.0557C38.2513 94.9003 37.5963 94.7449 36.9413 94.5895C36.956 91.0542 37.5006 86.1515 39.8556 80.7981C40.7828 78.6925 41.8352 76.8588 42.8875 75.2893C43.1893 74.3025 43.6823 73.9451 43.9105 73.813C45.1174 73.0982 47.2368 73.8985 48.819 76.1206C47.384 77.3716 46.9277 78.2807 46.7879 78.9022C46.5671 79.9123 46.4935 80.1454 46.3537 80.6038C46.2065 81.0856 46.0593 81.4818 45.9416 81.7693C44.0724 86.5555 41.0625 88.1638 39.4802 92.849C39.1491 93.8358 38.9798 94.6361 38.9062 95.0557Z" fill="#E59379"/>
<path d="M48.922 76.8979C50.9605 75.103 53.0947 72.9119 55.17 70.2314C55.7072 69.501 56.2444 68.7473 56.789 67.9315C56.9214 67.745 57.0392 67.543 57.1496 67.341C58.0253 65.989 58.798 64.6837 59.4604 63.3551C59.1292 61.7623 58.0768 60.286 56.6712 59.5168C55.3171 58.7787 54.1544 58.9962 53.8306 59.0739C52.2116 61.4359 50.5852 63.8213 48.9736 66.1833C47.1779 68.7784 45.4044 71.3813 43.6161 74.0075C45.3896 74.9709 47.1558 75.9344 48.9294 76.8901L48.922 76.8979Z" fill="#E59379"/>
<path d="M55.17 70.2313C55.7072 69.5009 56.2444 68.7473 56.789 67.9314C56.9214 67.745 57.0392 67.543 57.1496 67.3409L51.9246 64.9634C50.9311 65.3596 49.9597 65.787 48.9662 66.1832C51.0268 67.5274 53.1094 68.8794 55.17 70.2235V70.2313Z" fill="#12005A"/>
<path d="M57.8045 69.4854C59.2984 67.3487 60.9175 64.2718 61.3516 60.3714C61.4105 59.8586 61.44 59.3535 61.4547 58.8718C60.1595 58.5688 58.4963 58.3357 56.5756 58.4212C55.6041 58.4678 54.7211 58.5843 53.9336 58.7397C53.8306 58.8252 53.7276 58.9184 53.6319 59.0117C51.9319 60.5579 50.1437 62.8033 48.7601 66.1133L57.7972 69.4931L57.8045 69.4854Z" fill="#EA3F78"/>
<path d="M49.3194 84.2403C50.4012 82.4688 51.4757 80.6895 52.5575 78.918C56.2444 79.3531 62.4629 80.6895 68.4753 85.2892C70.5212 86.8509 72.1696 88.5137 73.4795 90.0521C71.5588 92.2277 69.6381 94.4032 67.7173 96.5865C61.5798 92.4685 55.4496 88.3583 49.3121 84.2403H49.3194Z" fill="#12005A"/>
<path d="M69.0714 58.4134C66.9888 59.6488 64.9208 60.9075 62.8235 62.1507C62.5585 61.4436 62.2936 60.7521 62.036 60.045C61.5724 58.8019 61.1161 57.5665 60.6525 56.3311C60.6231 56.2378 60.5863 56.1524 60.5569 56.0514C60.0564 54.6839 59.5413 53.2931 59.0335 51.9256L61.2339 50.7912L63.265 49.7423L64.1923 49.2683C64.7148 50.5892 65.355 51.9644 66.0983 53.3785C67.0918 55.2666 68.0926 56.9449 69.0714 58.3978V58.4134Z" fill="#E59379"/>
<path d="M66.01 54.0622C66.0468 54.3341 66.4368 57.512 64.3247 59.1747C63.4711 59.8507 62.5512 60.0061 62.036 60.045C61.5724 58.8018 61.1161 57.5664 60.6525 56.331C60.6231 56.2378 60.5863 56.1523 60.5569 56.0513C60.0564 54.6838 59.5413 53.293 59.0335 51.9255L61.2339 50.7911L63.265 49.7422C63.5888 49.9597 65.6347 51.3583 66.01 54.0467V54.0622Z" fill="#12005A"/>
<path d="M86.0122 84.2403C84.9304 82.4688 83.856 80.6895 82.7742 78.918C79.0872 79.3531 72.8687 80.6895 66.8563 85.2892C64.8105 86.8509 63.162 88.5137 61.8521 90.0521C63.7728 92.2277 65.6936 94.4032 67.6143 96.5865C73.7518 92.4685 79.882 88.3583 86.0196 84.2403H86.0122Z" fill="#12005A"/>
<path d="M66.4221 95.9493C66.9225 96.6486 67.423 97.3557 67.9234 98.055C68.8433 97.8141 70.1459 97.4256 71.6692 96.8273C73.4796 96.1203 77.0414 94.6984 80.8387 91.5905C82.2664 90.425 84.2166 88.6224 86.1667 86.0506C86.2698 85.701 86.8732 83.5876 85.7178 81.4664C84.7538 79.6871 83.1789 79.0656 82.7668 78.9102C77.321 84.5821 71.8679 90.2619 66.4221 95.9338V95.9493Z" fill="#E59379"/>
<path d="M61.6828 97.8762C61.0646 99.6399 61.5135 101.52 62.7204 102.507C63.8243 103.408 65.149 103.222 65.4433 103.175C65.8334 103.144 66.3117 103.043 66.5178 102.678C66.7459 102.266 66.4883 101.792 66.4368 101.442C66.3411 100.767 66.9152 99.6943 69.9324 97.9694C69.2186 96.5242 68.5121 95.0868 67.7983 93.6416C66.9961 94.6983 65.6126 96.1901 63.5152 97.1924C62.8676 97.5032 62.2421 97.7208 61.6754 97.8762H61.6828Z" fill="#99D0DD"/>
<path d="M68.9021 95.9493C68.4017 96.6486 67.9013 97.3557 67.4009 98.055C66.481 97.8141 65.1784 97.4256 63.6551 96.8273C61.8447 96.1203 58.2829 94.6984 54.4856 91.5905C53.0579 90.425 51.1077 88.6224 49.1575 86.0506C49.0545 85.701 48.451 83.5876 49.6064 81.4664C50.5705 79.6871 52.1453 79.0656 52.5575 78.9102C58.0032 84.5821 63.4564 90.2619 68.9021 95.9338V95.9493Z" fill="#E59379"/>
<path d="M73.6415 97.8762C74.2596 99.6399 73.8107 101.52 72.6038 102.507C71.4999 103.408 70.1753 103.222 69.8809 103.175C69.4909 103.144 69.0126 103.043 68.8065 102.678C68.5784 102.266 68.8359 101.792 68.8874 101.442C68.9831 100.767 68.4091 99.6943 65.3918 97.9694C66.1057 96.5242 66.8122 95.0868 67.526 93.6416C68.3281 94.6983 69.7117 96.1901 71.809 97.1924C72.4566 97.5032 73.0822 97.7208 73.6488 97.8762H73.6415Z" fill="#99D0DD"/>
<path d="M56.237 81.1635C58.5773 85.5923 63.1399 88.0864 67.6953 87.4803C73.6856 86.68 76.3643 80.9381 76.541 80.5419C76.0773 73.4325 75.6063 66.3231 75.1427 59.2138C74.6644 58.8719 74.1419 58.5378 73.5679 58.2192C71.419 57.0227 69.3511 56.4943 67.71 56.2612C67.6143 56.6109 67.1654 58.1648 65.8555 58.7864C64.2512 59.5479 61.9036 58.6543 60.6525 56.3312C59.5634 56.3933 58.0032 56.6264 56.2738 57.3956C55.1479 57.8929 54.2427 58.4834 53.5657 59.0117C53.8968 61.2728 54.2206 63.5571 54.5224 65.8803C55.2068 71.0938 55.7734 76.1908 56.2444 81.1635H56.237Z" fill="#EA3F78"/>
<path d="M51.6817 46.1991L52.7635 50.6512L52.9107 51.234L52.9401 51.335L53.1388 52.1897L53.2713 52.7413C54.2721 56.8826 58.2461 59.369 62.1685 58.32C62.978 57.9082 64.1628 57.1701 65.2005 55.857C67.4082 53.1143 67.4671 49.9053 67.4524 48.9263L65.6347 41.3819C65.0533 38.9888 63.0443 37.2716 60.704 37.2017C59.7179 37.1862 58.6288 37.2716 57.4587 37.5591C56.7154 37.73 56.031 37.9865 55.4128 38.2584C52.4765 39.556 50.909 42.9436 51.6964 46.1991H51.6817Z" fill="#E59379"/>
<path d="M57.7236 55.2744C57.8413 55.3366 58.2461 55.5308 58.7539 55.3987C59.3867 55.2433 59.6885 54.6994 59.74 54.6062L57.7309 55.2744H57.7236Z" fill="#12005A"/>
<path d="M59.5634 57.2945C59.2984 57.2945 59.085 57.2479 58.9526 57.2168C58.901 57.2013 58.8716 57.1547 58.8863 57.1003C58.901 57.0459 58.9452 57.0148 58.9967 57.0304C59.2764 57.1003 59.9902 57.2246 60.6378 56.7817C60.8512 56.6341 61.0352 56.4398 61.1897 56.2068C61.2192 56.1601 61.2781 56.1524 61.3149 56.1834C61.359 56.2145 61.3664 56.2767 61.3369 56.3155C61.175 56.5719 60.969 56.7817 60.7335 56.9449C60.3287 57.2168 59.9092 57.2945 59.5634 57.2945Z" fill="#12005A"/>
<path d="M65.5022 40.9468C65.6862 41.4596 66.6429 44.0702 65.5022 45.7874C64.5602 47.2092 63.2356 46.4322 57.7162 47.6754C55.7219 48.1261 53.9778 48.6622 53.6761 48.0794C53.4038 47.5589 54.4488 46.44 54.2942 46.3002C54.1176 46.137 53.0285 47.9474 51.7774 47.9007C50.3129 47.8464 48.5614 45.2357 49.0177 43.2932C49.4961 41.2576 52.322 40.364 52.0276 39.4083C51.8951 38.9732 51.2696 39.0354 51.196 38.6158C51.0783 37.9243 52.6311 36.619 54.2574 36.6034C55.6557 36.5879 56.6565 37.528 56.995 37.1396C57.2453 36.8521 56.7448 36.316 56.9509 35.9352C57.3851 35.166 60.5054 35.7255 62.8676 37.5669C63.6256 38.1574 64.8399 39.1286 65.5022 40.939V40.9468Z" fill="#252FB7"/>
<path d="M85.9754 73.1139C84.6287 70.6975 82.9287 68.1179 80.7578 65.5228C80.1617 64.8468 79.5509 64.1553 78.8738 63.4638C78.7193 63.2929 78.55 63.1453 78.3808 62.9976C77.2622 61.8632 76.1657 60.8454 75.0323 59.9441C73.4943 60.0296 71.9415 60.8842 70.9922 62.2284C70.0796 63.5182 70.1017 64.7614 70.1091 65.111C72.0519 67.1778 74.0241 69.2601 75.967 71.3269C78.0938 73.619 80.2426 75.8955 82.4062 78.1798C83.591 76.4938 84.7832 74.8 85.9681 73.1139H85.9754Z" fill="#E59379"/>
<path d="M80.7578 65.5227C80.1617 64.8468 79.5509 64.1553 78.8738 63.4637C78.7193 63.2928 78.55 63.1452 78.3807 62.9976L75.312 68.0557C75.518 69.1512 75.7609 70.239 75.9743 71.3346C77.5639 69.4076 79.1682 67.4574 80.7578 65.5305V65.5227Z" fill="#12005A"/>
<path d="M80.4928 62.6557C78.7413 60.7521 76.1215 58.561 72.5523 57.481C72.0813 57.3411 71.6177 57.2246 71.1688 57.1313C70.6757 58.359 70.1532 60.0606 69.9545 62.1351C69.8441 63.3083 69.8588 64.365 69.9251 65.2586C71.9047 67.3486 73.8843 69.431 75.8713 71.521C77.4167 68.5685 78.9548 65.6082 80.5002 62.6557H80.4928Z" fill="#EA3F78"/>
<path d="M55.0596 53.6428C54.5812 53.6428 54.1176 53.3398 53.8895 52.8581C53.8674 52.8114 53.8895 52.7493 53.9336 52.726C53.9778 52.7027 54.0366 52.726 54.0587 52.7726C54.2869 53.2466 54.7652 53.5185 55.2288 53.433C55.7808 53.332 56.1782 52.7648 56.134 52.1432C56.134 52.0889 56.1708 52.0422 56.215 52.0422C56.2665 52.0422 56.3106 52.0811 56.3106 52.1277C56.3695 52.8503 55.8985 53.5107 55.2509 53.6273C55.1847 53.6428 55.1184 53.6428 55.0522 53.6428H55.0596Z" fill="#12005A"/>
<path d="M60.0859 52.1897C59.6075 52.1897 59.1439 51.8867 58.9158 51.4049C58.8937 51.3583 58.9158 51.2962 58.9599 51.2729C59.0041 51.2495 59.063 51.2729 59.085 51.3195C59.3058 51.7934 59.7915 52.0654 60.2551 51.9799C60.8071 51.8789 61.2045 51.3117 61.1603 50.6901C61.1603 50.6357 61.1971 50.5891 61.2413 50.5891C61.2928 50.5891 61.3369 50.628 61.3369 50.6746C61.3958 51.3972 60.9248 52.0576 60.2772 52.1742C60.211 52.1897 60.1447 52.1897 60.0785 52.1897H60.0859Z" fill="#12005A"/>
<path d="M57.9885 48.6546C57.9885 48.8721 58.9452 49.0819 59.7768 49.0353C60.6157 48.9887 61.5062 48.6779 61.4915 48.4681C61.4768 48.2583 60.5789 48.1729 60.0344 48.1729C59.085 48.1729 57.9885 48.4293 57.9885 48.6624V48.6546Z" fill="#252FB7"/>
<path d="M52.7635 50.6513L52.9107 51.2341L52.9401 51.3351C53.2934 51.2962 53.7496 51.1331 54.1397 50.9544C54.8977 50.5814 55.6483 49.8899 55.5306 49.6413C55.4349 49.4159 54.5592 49.6102 53.941 49.8821C53.5068 50.0841 53.0652 50.3794 52.7709 50.6513H52.7635Z" fill="#252FB7"/>
<path d="M68.6666 44.9172C68.9978 46.2769 68.387 47.6133 67.3199 47.9008C66.2455 48.1883 65.1122 47.3258 64.781 45.9661C64.4498 44.6064 65.0607 43.27 66.1277 42.9825C67.2022 42.695 68.3355 43.5575 68.6666 44.9172Z" fill="#E59379"/>
<path d="M67.0331 46.6498C66.9815 46.6498 66.9447 46.6109 66.9447 46.5565L66.9078 43.9304C66.9078 43.876 66.9447 43.8293 66.9963 43.8293C67.0405 43.8371 67.0921 43.8682 67.0921 43.9226L67.129 46.5488C67.129 46.6032 67.0921 46.6498 67.0405 46.6498H67.0331Z" fill="#12005A"/>
<path d="M66.9446 45.3678C66.9446 45.3678 66.8931 45.3601 66.8784 45.3368L66.0173 44.35C65.9805 44.3111 65.9879 44.249 66.0173 44.2101C66.0541 44.1713 66.113 44.1791 66.1498 44.2101L67.0108 45.1969C67.0476 45.2358 67.0403 45.2979 67.0108 45.3368C66.9961 45.3523 66.974 45.3601 66.952 45.3601L66.9446 45.3678Z" fill="#12005A"/>
<path d="M40.562 86.8119C49.9082 87.5345 59.2543 88.2571 68.6004 88.972C67.1654 85.6542 65.7303 82.3365 64.288 79.0188C63.5226 78.7003 62.3598 78.2418 60.9027 77.8145C56.7743 76.5946 48.2597 74.0695 43.6676 78.4439C42.8728 79.1975 40.7681 81.5129 40.5547 86.8119H40.562Z" fill="#252FB7"/>
<path d="M32.6804 95.1257V102.064H77.115C78.6162 99.2204 79.1166 97.2935 79.1166 95.9571C79.1166 95.0635 78.8959 94.442 78.6015 93.9913C77.7405 92.6627 76.4821 93.1677 72.8908 91.2797C70.5579 90.0598 70.0428 89.2906 68.387 88.4359C68.1441 88.3116 67.8866 88.2028 67.5922 88.0707C67.1801 87.892 66.7606 87.7444 66.3853 87.6123C64.884 87.084 63.5741 86.9052 62.6763 86.812H40.5694C39.0828 86.812 37.7067 87.2471 36.5145 88.0163C35.0795 88.9099 33.9462 90.2773 33.2912 91.9168C32.8938 92.9035 32.6877 93.9913 32.6877 95.1257H32.6804Z" fill="#252FB7"/>
<path d="M41.9971 86.8121C46.361 87.084 50.8207 87.4259 55.3687 87.8377C59.3132 88.1951 63.1767 88.5991 66.9593 89.0343C65.7377 86.0196 64.5161 82.9971 63.2945 79.9824C61.2781 79.1511 58.5184 78.2575 55.1552 77.8768C51.1813 77.4184 47.8329 77.8457 45.5 78.3352C44.3299 81.1634 43.1598 83.9916 41.9971 86.8199V86.8121Z" fill="#12005A"/>
<path d="M48.7969 89.6636H50.4675V76.6258H48.7969V89.6636Z" fill="#252FB7"/>
<path d="M67.3788 106.602C71.0733 106.602 74.0683 103.44 74.0683 99.5391C74.0683 95.6384 71.0733 92.4763 67.3788 92.4763C63.6843 92.4763 60.6893 95.6384 60.6893 99.5391C60.6893 103.44 63.6843 106.602 67.3788 106.602Z" fill="#12005A"/>
<path d="M67.3788 102.662C69.0127 102.662 70.3372 101.264 70.3372 99.539C70.3372 97.814 69.0127 96.4155 67.3788 96.4155C65.7449 96.4155 64.4204 97.814 64.4204 99.539C64.4204 101.264 65.7449 102.662 67.3788 102.662Z" fill="#99D0DD"/>
<path d="M42.939 106.602C46.6335 106.602 49.6285 103.44 49.6285 99.5391C49.6285 95.6384 46.6335 92.4763 42.939 92.4763C39.2446 92.4763 36.2496 95.6384 36.2496 99.5391C36.2496 103.44 39.2446 106.602 42.939 106.602Z" fill="#12005A"/>
<path d="M42.939 102.662C44.5729 102.662 45.8974 101.264 45.8974 99.539C45.8974 97.814 44.5729 96.4155 42.939 96.4155C41.3052 96.4155 39.9807 97.814 39.9807 99.539C39.9807 101.264 41.3052 102.662 42.939 102.662Z" fill="#99D0DD"/>
<path d="M68.777 86.8121C68.777 88.1096 69.616 89.1585 70.6463 89.1585C71.6765 89.1585 72.5155 88.1096 72.5155 86.8121C72.5155 85.5145 71.6765 84.4656 70.6463 84.4656C69.616 84.4656 68.777 85.5145 68.777 86.8121Z" fill="#252FB7"/>
<path d="M68.3502 87.9464C69.4435 87.9464 70.3298 87.5046 70.3298 86.9597C70.3298 86.4147 69.4435 85.9729 68.3502 85.9729C67.2569 85.9729 66.3706 86.4147 66.3706 86.9597C66.3706 87.5046 67.2569 87.9464 68.3502 87.9464Z" fill="#252FB7"/>
<path d="M33.2838 91.9168C33.8873 92.4297 34.7851 92.7404 35.7712 92.7404C37.6037 92.7404 39.0828 91.6682 39.0828 90.3551C39.0828 89.2052 37.979 88.2573 36.5145 88.0242C35.0795 88.9177 33.9462 90.2852 33.2912 91.9246L33.2838 91.9168Z" fill="#EA3F78"/>
<path d="M74.8925 96.1512C74.8925 97.3478 75.7241 98.3112 76.747 98.3112C77.77 98.3112 78.6015 97.34 78.6015 96.1512C78.6015 94.9624 77.77 93.9912 76.747 93.9912C75.7241 93.9912 74.8925 94.9624 74.8925 96.1512Z" fill="#99D0DD"/>
<path d="M64.0893 77.1231C64.0745 77.8302 64.0525 78.5372 64.0378 79.2443C67.2905 80.099 71.9268 80.7439 77.4093 79.6561C79.5656 79.2287 81.5157 78.5994 83.2157 77.9079C83.6499 77.8535 84.2681 77.6981 84.82 77.2241C85.8944 76.3151 86.2845 74.5979 85.8356 72.873C84.1798 72.9197 82.5166 72.9741 80.8608 73.0207C80.456 73.0051 79.8747 72.9974 79.1903 73.0517C78.7119 73.0828 78.3145 73.1372 78.0201 73.1838C73.1631 73.922 70.948 76.6026 66.2602 77.0765C65.2741 77.1775 64.494 77.1464 64.0966 77.1231H64.0893Z" fill="#E59379"/>
<path d="M56.8846 78.0399C59.9976 79.3841 63.0516 80.7049 64.4278 79.3452C64.7148 79.0655 65.1269 78.4672 65.1195 77.1386C64.1555 76.9599 62.7205 76.7268 60.9616 76.5481C59.8725 76.4393 54.5959 75.911 54.4635 76.6258C54.3973 76.9677 55.5453 77.4649 56.8773 78.0399H56.8846Z" fill="#E59379"/>
<path d="M79.021 73.9219C79.021 73.9219 78.9989 73.9219 78.9842 73.9141L77.7037 73.3158C77.6595 73.2925 77.6375 73.2381 77.6595 73.1915C77.6816 73.1449 77.7331 73.1216 77.7773 73.1449L79.0578 73.7432C79.1019 73.7665 79.124 73.8209 79.1019 73.8675C79.0872 73.9063 79.0504 73.9219 79.021 73.9219Z" fill="#12005A"/>
<path d="M75.8639 71.6143C75.8639 71.6143 75.8124 71.5988 75.7903 71.5755L72.1255 66.7193C72.096 66.6805 72.1034 66.6183 72.1402 66.5795C72.177 66.5484 72.2359 66.5562 72.2726 66.595L75.9375 71.4511C75.9669 71.49 75.9596 71.5522 75.9228 71.591C75.9081 71.6065 75.886 71.6143 75.8639 71.6143Z" fill="#12005A"/>
<path d="M49.3202 75.88C49.3202 75.88 49.2539 75.8566 49.2391 75.8256L48.8853 75.0719C48.8631 75.0253 48.8853 74.9631 48.9295 74.9398C48.9737 74.9165 49.0327 74.9398 49.0548 74.9864L49.4087 75.7401C49.4308 75.7867 49.4087 75.8489 49.3645 75.8722C49.3497 75.8722 49.335 75.88 49.3202 75.88Z" fill="#12005A"/>
<path d="M54.7799 68.0402C54.7358 68.0402 54.6916 68.0013 54.6916 67.9547L54.2648 64.6603C54.2648 64.6059 54.2942 64.5593 54.3457 64.5515C54.3972 64.5515 54.4414 64.5826 54.4487 64.637L54.8756 67.9314C54.8756 67.9858 54.8461 68.0324 54.7946 68.0402C54.7946 68.0402 54.7873 68.0402 54.7799 68.0402Z" fill="#12005A"/>
<path d="M34.7925 50.2007C32.8644 51.1253 30.951 52.0343 29.0229 52.9434C28.1987 49.7733 27.3891 46.6266 26.6091 43.4487C25.8805 40.5894 25.1372 37.6991 24.4087 34.8242C24.5853 34.5134 25.174 33.3713 26.6606 32.672C28.1839 31.9494 30.0311 31.9727 31.4588 32.6875C32.0401 34.0783 32.5258 35.5624 32.9674 37.1552C33.0483 37.3805 33.1293 37.598 33.1808 37.8389C33.4384 38.8101 33.6518 39.7425 33.8578 40.6593C34.1301 42.0113 34.3141 43.3322 34.4613 44.5986C34.5275 45.1503 34.5717 45.7097 34.6085 46.2381C34.7262 47.6211 34.7851 48.942 34.7851 50.1929L34.7925 50.2007Z" fill="#E59379"/>
<path d="M34.6158 46.2459C32.4081 45.8185 30.2077 45.3912 28 44.9794C30.1562 44.8628 32.2977 44.7385 34.4687 44.6064C34.5349 45.1581 34.579 45.7175 34.6158 46.2459Z" fill="#12005A"/>
<path d="M34.9544 45.2901H27.816V37.7533C27.0212 35.0261 26.2264 32.2912 25.4316 29.564C26.8078 29.7893 28.9419 30.372 30.9068 32.0581C36.2275 36.6345 35.0353 44.8006 34.9617 45.2901H34.9544Z" fill="#252FB7"/>
<path d="M10.4852 23.7368C9.49167 24.7702 9.61678 26.4873 9.64622 26.9069C9.84491 29.6108 12.4795 32.1515 14.3193 31.8252C15.9751 31.5377 16.2106 28.9659 18.1534 23.7368C22.3481 12.4317 24.9974 9.69674 23.4078 6.65875C22.3187 4.56867 19.8902 3.35658 18.0136 3.63629C14.518 4.16464 11.8908 9.99976 12.7371 13.5117C12.9137 14.2343 13.2596 14.9647 13.186 16.1768C13.0829 17.9327 12.2366 18.2591 12.1778 20.1471C12.141 21.3281 12.4501 21.7788 12.0674 22.4625C11.67 23.1774 11.0886 23.1152 10.4925 23.7368H10.4852Z" fill="#12005A"/>
<path d="M13.3994 31.7008C12.7076 31.7008 11.9202 31.3667 11.1696 30.7451C9.91115 29.7039 9.06485 28.1422 8.95446 26.6582C8.822 24.8556 9.35186 23.8999 9.82285 23.4104C10.0951 23.1307 10.3601 22.9831 10.6029 22.851C10.912 22.68 11.1769 22.5324 11.3903 22.1595C11.6111 21.7554 11.5817 21.4446 11.5375 20.9707C11.5081 20.691 11.4787 20.3413 11.4934 19.8984C11.5302 18.9039 11.773 18.3289 12.0159 17.7695C12.244 17.2489 12.4574 16.7517 12.5016 15.9203C12.5531 15.0035 12.3691 14.3663 12.1999 13.7991C12.1483 13.6204 12.0968 13.4573 12.06 13.2863C11.5743 11.2895 12.1925 8.46128 13.5981 6.24688C14.6725 4.55306 16.0266 3.50414 17.4175 3.29436C19.4339 2.99133 21.8403 4.34328 22.9001 6.36343C23.9819 8.4302 23.1208 10.4115 21.2295 14.7471C20.2581 16.977 19.0512 19.7508 17.653 23.5192C17.1158 24.9721 16.6963 26.2541 16.3578 27.2798C15.4526 30.0613 14.9963 31.4521 13.7453 31.6697C13.6349 31.6852 13.5245 31.7008 13.4068 31.7008H13.3994ZM17.9841 3.43421C17.7928 3.43421 17.6088 3.44975 17.4249 3.47306C16.0928 3.67508 14.7829 4.69292 13.7379 6.34012C12.3618 8.5079 11.7583 11.2739 12.2219 13.2242C12.2587 13.3873 12.3102 13.5583 12.3618 13.7292C12.531 14.3119 12.7297 14.9724 12.6708 15.9203C12.6193 16.7827 12.3912 17.3189 12.1631 17.8317C11.9202 18.3989 11.6921 18.9272 11.6553 19.8907C11.6406 20.3258 11.67 20.6521 11.6994 20.9396C11.7509 21.4369 11.7804 21.7943 11.5302 22.2527C11.2947 22.68 10.993 22.8432 10.6691 23.0219C10.4337 23.154 10.1834 23.2861 9.93323 23.5502C9.49168 24.0087 8.99862 24.9177 9.12373 26.6426C9.22675 28.0645 10.051 29.5796 11.2652 30.5897C12.0968 31.2812 12.9799 31.5998 13.6864 31.4754C14.8271 31.2734 15.2686 29.9137 16.1517 27.2098C16.4902 26.1842 16.9024 24.9022 17.4469 23.4415C18.8452 19.6653 20.0594 16.8915 21.0308 14.6538C22.9516 10.2483 23.7464 8.42243 22.7087 6.44113C21.7815 4.66184 19.7871 3.42644 17.9694 3.42644L17.9841 3.43421Z" fill="#12005A"/>
<path d="M16.0266 30.0614C18.3447 30.6519 20.6629 31.2735 23.0031 31.8718C23.0767 31.1181 23.1503 30.3722 23.2239 29.6185C23.349 28.2899 23.4741 26.969 23.5992 25.6482C23.5992 25.5472 23.6139 25.4539 23.6213 25.3529C23.7537 23.8922 23.8935 22.4082 24.026 20.9474L21.6122 20.489L19.3897 20.0617L18.3815 19.8674C18.2196 21.2815 17.9547 22.7967 17.6015 24.3739C17.1305 26.4795 16.6006 28.3754 16.0266 30.0614Z" fill="#E59379"/>
<path d="M19.5737 25.2052C20.3611 27.5672 21.8403 29.2688 23.2312 29.6262C23.3563 28.2976 23.4814 26.9767 23.6065 25.6558C23.6065 25.5548 23.6213 25.4616 23.6286 25.3606C23.7611 23.8999 23.9009 22.4158 24.0334 20.9551L21.6196 20.4967L19.3971 20.0693C18.8967 21.3591 18.9261 23.2705 19.5737 25.2052Z" fill="#12005A"/>
<path d="M6.54066 98.8475C5.73852 98.1404 4.92901 97.4334 4.12686 96.7185C5.15714 93.4475 6.25366 90.8135 7.14412 88.8788C10.0731 82.492 11.7951 81.482 12.612 81.0935C13.2743 80.7749 14.0323 80.5496 15.276 79.8114C16.9392 78.8247 18.1166 77.7369 18.8525 76.9677C19.0439 76.8822 20.5746 76.2529 21.7079 77.0532C22.9737 77.9467 23.3784 80.3476 22.0464 82.4221C21.649 82.8494 21.1486 83.3312 20.5451 83.7974C20.0226 84.2014 19.5149 84.5199 19.0659 84.7764C18.1902 85.4601 17.2997 86.1905 16.4093 86.983C12.141 90.7824 8.94711 94.9237 6.54802 98.8475H6.54066Z" fill="#E59379"/>
<path d="M8.4614 105.568L0.226501 97.954C0.255938 97.4723 0.373685 96.7963 0.800516 96.198C1.3083 95.491 2.00006 95.2268 2.32386 95.0947C3.1996 94.7295 4.4433 94.0147 5.94457 92.4685C6.80559 93.3076 7.66661 94.139 8.52027 94.9782C8.12288 97.4412 8.4246 99.2671 8.822 100.526C9.35922 102.243 10.3085 103.665 9.71245 104.714C9.42545 105.227 8.88823 105.452 8.45404 105.568H8.4614Z" fill="#252FB7"/>
<path d="M28.9861 100.495C27.9411 100.518 26.8887 100.549 25.8437 100.572C24.578 97.3945 23.7611 94.6517 23.2165 92.5772C21.4356 85.7397 22.1053 83.774 22.4732 82.9193C22.775 82.22 23.2018 81.5207 23.6728 80.1066C24.3057 78.203 24.5191 76.5714 24.5927 75.4758L30.4358 77.4649C30.3843 78.0476 30.2887 78.7158 30.1268 79.4307C29.9796 80.0911 29.803 80.6816 29.6263 81.1944C29.3908 82.321 29.1774 83.4865 29.0082 84.7064C28.1692 90.5415 28.3458 95.8716 28.9934 100.495H28.9861Z" fill="#E59379"/>
<path d="M35.3223 105.801L24.3793 106.135C24.0922 105.755 23.739 105.18 23.6654 104.434C23.5845 103.556 23.9156 102.864 24.0702 102.53C24.4749 101.629 24.9238 100.215 25.0342 98.0082C26.2043 98.0082 27.3744 98.0004 28.5372 97.9927C29.8324 100.091 31.2306 101.209 32.3345 101.847C33.8358 102.717 35.4401 103.082 35.6903 104.278C35.808 104.861 35.5652 105.413 35.3223 105.809V105.801Z" fill="#252FB7"/>
<path d="M22.0905 55.3054C22.2819 57.0692 22.4511 58.8484 22.6425 60.6122C22.6572 60.7831 22.6793 60.9696 22.694 61.1405C22.8927 63.0441 23.0988 64.9555 23.2974 66.8591V66.9135C23.5256 69.0502 23.739 71.1791 23.9745 73.3158C24.1511 74.9397 24.313 76.5636 24.4896 78.1797C26.4692 77.9389 28.4489 77.698 30.4358 77.4571C31.1644 75.3049 32.0107 72.2203 32.3345 68.4908C32.4154 67.6905 32.4522 66.8824 32.467 66.0277C32.5185 64.0076 32.4007 61.8476 32.0254 59.571C31.6059 56.9371 30.9215 54.645 30.1783 52.7258C27.4848 53.5805 24.784 54.4507 22.0905 55.2976V55.3054Z" fill="#E59379"/>
<path d="M12.4059 56.6342C12.8916 59.8043 13.392 62.9821 13.8851 66.1677C14.1942 68.219 14.5033 70.2547 14.8271 72.2826C15.1877 74.6291 15.5556 76.9911 15.9162 79.3531C17.8811 78.9957 19.8534 78.6383 21.833 78.2964C22.1936 76.9989 22.591 75.3672 22.8706 73.4714C23.1797 71.5367 23.371 69.3145 23.3048 66.9136V66.8593C23.268 65.0489 23.0767 63.1453 22.7014 61.1407C22.6719 60.9697 22.6351 60.7988 22.591 60.6123C22.5763 60.5113 22.5615 60.4259 22.5395 60.3248C21.9875 57.7375 21.1927 55.4687 20.3538 53.5962C17.6971 54.6063 15.0552 55.6163 12.4059 56.6264V56.6342Z" fill="#E59379"/>
<path d="M6.37875 48.9031C8.30685 49.8277 10.2202 50.7367 12.1483 51.6458C12.9726 48.4757 13.7821 45.329 14.5621 42.1511C15.2907 39.2918 16.034 36.4014 16.7625 33.5266C16.5859 33.2158 15.9972 32.0737 14.5106 31.3744C12.9873 30.6518 11.1401 30.6751 9.71245 31.3899C9.13108 32.7807 8.64537 34.2647 8.20382 35.8576C8.12287 36.0829 8.04192 36.3004 7.99041 36.5413C7.73284 37.5125 7.51942 38.4449 7.31337 39.3617C7.04108 40.7137 6.8571 42.0346 6.70992 43.301C6.64368 43.8527 6.59953 44.4121 6.56273 44.9405C6.44499 46.3235 6.38611 47.6444 6.38611 48.8953L6.37875 48.9031Z" fill="#E59379"/>
<path d="M26.587 25.7492C26.5355 25.7492 26.4987 25.7026 26.4987 25.6559C26.4987 25.6016 26.5428 25.5549 26.587 25.5549H27.5731C27.6246 25.5549 27.6688 25.5938 27.6688 25.6404C27.6688 25.6948 27.6246 25.7414 27.5805 25.7414H26.5944L26.587 25.7492Z" fill="#12005A"/>
<path d="M13.8851 66.1677C14.1942 68.219 14.5033 70.2546 14.8271 72.2826C16.8729 73.3781 20.0815 73.7744 22.8706 73.4791C23.1797 71.5444 23.3711 69.3223 23.3048 66.9214C23.533 69.0581 23.7464 71.187 23.9819 73.3237C24.0113 73.3237 24.0334 73.3082 24.0628 73.3082C26.6753 72.8109 31.1644 71.1715 32.3345 68.4987C32.5258 68.1024 32.6142 67.6906 32.6436 67.2633C32.6583 66.8515 32.6068 66.4397 32.467 66.0356C31.6207 63.2463 27.632 60.7599 24.0555 60.5735C23.5845 60.5424 23.1135 60.5579 22.6425 60.6123H22.591C18.9629 61.0241 15.5851 63.5726 13.8851 66.16V66.1677Z" fill="#12005A"/>
<path d="M8.52762 69.7728C10.9488 70.9383 16.0708 72.9817 22.6793 72.3834C27.6173 71.9328 31.3852 70.1846 33.5708 68.9414C32.5921 56.6729 31.6207 44.4044 30.6419 32.1281C30.1783 31.7396 29.6558 31.3588 29.067 30.9937C26.9108 29.6573 24.8061 29.1833 23.2827 29.0124C22.9736 30.2711 22.3702 30.7062 22.1421 30.846C20.8174 31.6541 18.4036 30.7606 16.6227 28.1965C15.9677 28.1965 13.76 28.3053 11.7657 30.0535C10.1614 31.4599 9.56526 33.1692 9.35185 33.884C9.50639 35.7566 9.71981 37.7223 10.0068 39.758C10.6471 44.2179 11.5522 48.2659 12.5604 51.8634C11.2137 57.8306 9.86699 63.7978 8.52026 69.765L8.52762 69.7728Z" fill="#252FB7"/>
<path d="M17.6235 20.5045C17.8738 21.468 18.7716 24.6225 21.6932 26.666C23.062 27.645 24.4308 28.0179 25.3359 28.1966C26.116 28.049 28.2355 27.5362 30.0752 25.586C32.1358 23.4104 32.5258 20.8464 32.6141 20.0539L32.5626 18.2435L32.5332 17.2256L32.4228 13.131C32.3198 9.68893 29.8839 6.80633 26.6532 6.41007C25.9541 6.31683 25.2108 6.28575 24.4381 6.31683C23.2091 6.38676 22.1053 6.62762 21.1412 6.93842C18.8452 7.68432 17.3292 9.99195 17.3881 12.5249L17.6015 20.4967L17.6235 20.5045Z" fill="#E59379"/>
<path d="M29.2216 22.9674C29.1185 23.0607 28.7727 23.3715 28.2428 23.3948C27.5731 23.4259 27.1389 22.983 27.0653 22.9053L29.2289 22.9674H29.2216Z" fill="#12005A"/>
<path d="M16.3357 18.2201C16.3725 19.6575 17.3292 20.7919 18.4625 20.7608C19.5958 20.7298 20.4863 19.5332 20.4495 18.0958C20.4127 16.6584 19.456 15.524 18.3227 15.5551C17.1894 15.5861 16.2989 16.7827 16.3357 18.2201Z" fill="#E59379"/>
<path d="M18.3815 19.4477C18.3374 19.4477 18.3006 19.4166 18.2932 19.3777L17.6309 16.7748C17.6162 16.7205 17.6456 16.6661 17.6971 16.6583C17.7487 16.6428 17.8002 16.6738 17.8075 16.7282L18.4699 19.3311C18.4846 19.3855 18.4551 19.4399 18.4036 19.4477C18.3963 19.4477 18.3889 19.4477 18.3815 19.4477Z" fill="#12005A"/>
<path d="M18.1313 18.1579C18.1313 18.1579 18.1019 18.1579 18.0872 18.1501C18.043 18.1268 18.0209 18.0646 18.043 18.018L18.6244 16.7904C18.6465 16.7438 18.7053 16.7205 18.7495 16.7438C18.7937 16.7671 18.8157 16.8292 18.7937 16.8759L18.2123 18.1035C18.2123 18.1035 18.1608 18.1579 18.1313 18.1579Z" fill="#12005A"/>
<path d="M16.6301 14.5916C17.1231 15.7571 18.1387 17.0391 18.7127 16.8371C19.1837 16.6661 18.7863 15.6405 19.3014 15.0345C20.8837 13.1697 25.91 17.9559 30.8995 16.1378C31.5176 15.9125 33.2176 15.2598 34.0786 13.5038C34.7189 12.1985 35.0942 10.2483 34.292 9.48685C33.6665 8.89634 33.0263 9.67332 31.7605 9.14497C30.5609 8.63994 30.4653 7.66094 28.8904 6.72079C28.4562 6.45662 27.8307 6.09921 27.3008 6.18468C27.2199 6.20022 26.9697 6.2546 26.6385 6.20799C26.3662 6.16914 26.1749 6.06036 26.1381 6.05259C25.1005 5.78065 21.3252 4.78611 18.5582 7.10151C18.1608 7.43562 16.895 8.57778 16.3946 10.5513C16.2253 11.2195 15.9089 12.8823 16.6301 14.5838V14.5916Z" fill="#12005A"/>
<path d="M25.9247 23.9077C26.5502 25.2441 27.4554 26.0366 28.1913 25.889C28.6844 25.788 29.1701 25.2597 29.0891 24.9644C29.0229 24.7235 28.5887 24.7235 27.8896 24.5759C27.3376 24.4594 26.6679 24.2574 25.9247 23.9077Z" fill="white"/>
<path d="M27.1978 20.4967C27.161 20.4967 27.1242 20.4656 27.1095 20.4267C27.0359 20.147 26.9108 19.8984 26.7415 19.7041C26.2264 19.1136 25.3065 18.9427 24.3425 19.2768C24.2983 19.2923 24.2394 19.2613 24.2247 19.2146C24.21 19.1602 24.2394 19.1059 24.2836 19.0903C25.3139 18.7407 26.3074 18.9272 26.874 19.572C27.0653 19.7896 27.2052 20.0615 27.2861 20.3723C27.3008 20.4267 27.2714 20.4811 27.2199 20.4889C27.2125 20.4889 27.2052 20.4889 27.1978 20.4889V20.4967Z" fill="#12005A"/>
<path d="M25.7554 19.6576C25.5273 20.0539 25.5862 20.5279 25.8805 20.7143C26.1749 20.9008 26.5944 20.7299 26.8225 20.3336C27.0506 19.9374 26.9918 19.4634 26.6974 19.2769C26.403 19.0904 25.9836 19.2614 25.7554 19.6576Z" fill="#12005A"/>
<path d="M23.5992 17.6142C23.6065 17.8939 24.5412 18.0959 25.6818 18.0571C26.8225 18.026 27.7424 17.7696 27.735 17.4899C27.7277 17.2102 26.7931 17.0082 25.6524 17.047C24.5117 17.0781 23.5918 17.3345 23.5992 17.6142Z" fill="#FFB92E"/>
<path d="M30.3917 17.754C30.3917 18.0415 31.3263 18.2591 32.467 18.2513C32.5038 18.2513 32.5332 18.2513 32.57 18.2513L32.5406 17.2335C32.5406 17.2335 32.489 17.2179 32.4596 17.2335C31.3189 17.249 30.3843 17.4743 30.3917 17.7618V17.754Z" fill="#FFB92E"/>
<path d="M20.685 4.23453C20.685 5.56316 21.2516 6.65094 21.9507 6.65094C22.6498 6.65094 23.2165 5.57093 23.2165 4.23453C23.2165 2.89812 22.6498 1.81812 21.9507 1.81812C21.2516 1.81812 20.685 2.89812 20.685 4.23453Z" fill="#EA3F78"/>
<path d="M17.7045 4.25008C19.1322 6.06822 20.7291 7.15599 21.2663 6.68203C21.8035 6.20808 21.0823 4.35886 19.6473 2.54073C18.2196 0.73036 16.6227 -0.365183 16.0855 0.108776C15.5483 0.582734 16.2695 2.43195 17.7045 4.25008Z" fill="#EA3F78"/>
<path d="M6.55537 44.9483C8.76312 44.5209 10.9635 44.0936 13.1713 43.6818C11.015 43.5652 8.87351 43.4409 6.70256 43.3088C6.63632 43.8605 6.59217 44.4199 6.55537 44.9483Z" fill="#12005A"/>
<path d="M6.21685 43.9927H13.3552V36.456C14.15 33.7288 14.9448 30.9938 15.7396 28.2666C14.3634 28.4919 12.2293 29.0747 10.2644 30.7607C4.94372 35.3371 6.1359 43.5032 6.20949 43.9927H6.21685Z" fill="#252FB7"/>
<path d="M28.2575 64.8313C27.2788 64.2563 26.0277 64.6759 25.2035 65.0644C25.7186 66.7737 26.2264 68.4753 26.7415 70.1847C28.5593 77.8846 29.3467 79.4696 29.7146 79.4074C30.1856 79.3298 30.0532 76.587 29.8029 71.4512C29.5748 66.8126 29.251 65.4218 28.2575 64.8391V64.8313Z" fill="#E59379"/>
<path d="M28.1177 75.6079C27.8601 75.6934 28.0515 77.9078 29.2289 79.8347C29.4939 80.262 30.3254 81.6295 30.87 81.4586C31.4808 81.2565 31.4072 79.182 31.2453 78.0165C30.9951 76.2217 30.2666 74.5667 29.9501 74.6367C29.5675 74.7221 30.009 77.426 29.5159 77.5581C29.067 77.6747 28.3753 75.5224 28.1177 75.6079Z" fill="#EA3F78"/>
<path d="M21.3031 64.8855C22.2083 64.194 23.4961 64.4504 24.3645 64.7301L23.4226 70.0058C22.4953 77.8844 21.8992 79.5549 21.5165 79.5394C21.0382 79.5238 20.8542 76.7889 20.5231 71.653C20.2213 67.0222 20.3832 65.6003 21.3031 64.8933V64.8855Z" fill="#E59379"/>
<path d="M22.6719 75.5691C22.9369 75.6235 22.9957 77.8457 22.0464 79.9047C21.833 80.3631 21.1633 81.8238 20.604 81.7228C19.9711 81.6063 19.8166 79.5317 19.8387 78.3507C19.8828 76.5403 20.42 74.7999 20.7365 74.831C21.1265 74.8698 20.994 77.6048 21.4945 77.6747C21.9507 77.7369 22.3923 75.507 22.6646 75.5613L22.6719 75.5691Z" fill="#EA3F78"/>
<path d="M18.3006 42.5008C18.3006 45.1659 20.3464 47.3259 22.8706 47.3259C25.3948 47.3259 27.4407 45.1659 27.4407 42.5008C27.4407 39.8358 25.3948 37.6758 22.8706 37.6758C20.3464 37.6758 18.3006 39.8358 18.3006 42.5008Z" fill="#E59379"/>
<path d="M17.9106 40.8925C18.227 41.9337 21.2369 41.7472 22.7161 41.654C24.2909 41.553 27.0506 41.382 27.2714 40.3331C27.4922 39.2764 25.1372 37.2718 22.7161 37.2951C20.0373 37.3184 17.5868 39.8281 17.9106 40.8925Z" fill="#FFB92E"/>
<path d="M25.0342 40.2787C26.1357 40.2787 27.0285 39.1794 27.0285 37.8234C27.0285 36.4674 26.1357 35.3682 25.0342 35.3682C23.9328 35.3682 23.0399 36.4674 23.0399 37.8234C23.0399 39.1794 23.9328 40.2787 25.0342 40.2787Z" fill="#FFB92E"/>
<path d="M19.8019 40.6361C20.7163 40.6361 21.4577 39.4568 21.4577 38.0021C21.4577 36.5474 20.7163 35.3682 19.8019 35.3682C18.8874 35.3682 18.146 36.5474 18.146 38.0021C18.146 39.4568 18.8874 40.6361 19.8019 40.6361Z" fill="#FFB92E"/>
<path d="M21.4577 46.8441C21.4577 48.872 22.2966 50.5192 23.3269 50.5192C24.3572 50.5192 25.1961 48.872 25.1961 46.8441C25.1961 44.8161 24.3572 43.1689 23.3269 43.1689C22.2966 43.1689 21.4577 44.8161 21.4577 46.8441Z" fill="#E59379"/>
<path d="M16.4166 65.0099C18.0062 66.1599 20.3391 67.3953 23.1944 67.4963C25.1593 67.5662 26.8299 67.0845 28.1913 66.696C29.9722 66.1832 31.3925 65.5305 32.3934 65.0099L25.071 48.1572C23.923 48.2272 22.775 48.2971 21.6196 48.367C19.8828 53.9147 18.146 59.4701 16.4093 65.0177L16.4166 65.0099Z" fill="#EA3F78"/>
<path d="M24.9901 47.8929C24.3057 48.4368 25.439 51.2417 27.5216 54.1554C29.6043 57.0768 31.8414 58.996 32.5258 58.4521C33.2102 57.9082 32.0769 55.1033 29.9943 52.1896C27.9116 49.2682 25.6745 47.349 24.9901 47.8929Z" fill="#EA3F78"/>
<path d="M21.7079 47.8541C20.9278 47.4812 19.1395 49.882 17.7192 53.2075C16.2989 56.533 15.769 59.5321 16.5491 59.9051C17.3292 60.278 19.1174 57.8772 20.5378 54.5517C21.9654 51.2262 22.4879 48.2271 21.7079 47.8541Z" fill="#EA3F78"/>
<path d="M31.9665 57.2557C31.6207 57.6908 32.5332 59.7808 33.7843 59.8042C34.4466 59.8119 35.1899 59.2447 35.1678 58.7397C35.1457 58.2968 34.5422 58.0171 33.7843 57.6752C33.1072 57.3644 32.202 56.9526 31.9665 57.2557Z" fill="#E59379"/>
<path d="M17.4028 59.0737C16.998 58.693 14.9963 59.5943 14.9375 60.9151C14.908 61.6144 15.4232 62.4147 15.9015 62.4069C16.321 62.4069 16.6006 61.7621 16.9539 60.9773C17.2629 60.278 17.6824 59.3301 17.4028 59.0737Z" fill="#E59379"/>
<path d="M24.7546 42.7726C24.7546 43.1223 24.9017 43.4097 25.0857 43.4097C25.2697 43.4097 25.4169 43.1223 25.4169 42.7726C25.4169 42.423 25.2697 42.1355 25.0857 42.1355C24.9017 42.1355 24.7546 42.423 24.7546 42.7726Z" fill="#12005A"/>
<path d="M20.3464 43.1379C20.3464 43.4875 20.4936 43.775 20.6776 43.775C20.8616 43.775 21.0088 43.4875 21.0088 43.1379C21.0088 42.7882 20.8616 42.5007 20.6776 42.5007C20.4936 42.5007 20.3464 42.7882 20.3464 43.1379Z" fill="#12005A"/>
<path d="M21.546 45.0105C21.4871 45.5156 22.2377 46.1449 22.9589 46.1061C23.5992 46.0672 24.2615 45.5 24.1953 45.0105C24.129 44.5288 23.3931 44.2646 22.8706 44.2646C22.326 44.2646 21.5975 44.5521 21.546 45.0105Z" fill="#EA3F78"/>
<path d="M28.1471 52.2286C28.1619 52.9357 28.1839 53.6427 28.1987 54.3498C24.9459 55.2044 20.3096 55.8493 14.8271 54.7616C12.6708 54.3342 10.7207 53.7049 9.02069 53.0134C8.5865 52.959 7.96833 52.8036 7.4164 52.3296C6.34196 51.4205 5.95193 49.7034 6.40083 47.9785C8.05664 48.0251 9.71981 48.0795 11.3756 48.1261C11.7804 48.1106 12.3618 48.1028 13.0462 48.1572C13.5245 48.1883 13.9219 48.2427 14.2163 48.2893C19.0733 49.0274 21.2884 51.708 25.9762 52.182C26.9623 52.283 27.7424 52.2519 28.1398 52.2286H28.1471Z" fill="#E59379"/>
<path d="M17.9768 54.6839C16.9539 54.3575 14.8197 53.6893 14.3561 54.443C13.9808 55.0413 14.8197 56.3388 15.4084 56.9993C16.8876 58.6465 19.0071 58.7475 19.7724 58.7475C20.3391 58.7863 21.1412 58.8174 22.0979 58.7475C24.21 58.5921 26.7268 57.9783 29.4423 56.4088C30.9436 55.5463 32.2609 54.5285 33.3942 53.5029C33.6959 53.363 34.1228 53.0833 34.4613 52.5006C35.1236 51.3817 35.1825 49.6257 34.6453 48.0251C33.4604 48.4136 32.2683 48.8021 31.0834 49.1906C30.7891 49.2605 30.377 49.3693 29.8839 49.5636C29.8839 49.5636 29.4718 49.719 29.0597 49.9288C28.3458 50.2862 25.2182 52.6793 21.0897 56.1601C20.3979 55.7095 19.3382 55.119 17.9694 54.6839H17.9768Z" fill="#E59379"/>
<path d="M22.0905 55.4066C22.0905 55.4066 22.039 55.391 22.017 55.3677C21.9875 55.3289 21.9949 55.2667 22.0317 55.2278L25.9173 52.1044C25.9541 52.0733 26.013 52.0811 26.0498 52.1199C26.0792 52.1588 26.0719 52.2209 26.0351 52.2598L22.1494 55.3832C22.1494 55.3832 22.1126 55.4066 22.0905 55.4066Z" fill="#12005A"/>
<path d="M19.846 55.4374C19.846 55.4374 19.8092 55.4374 19.7945 55.4219C19.1542 54.9324 18.0945 54.3419 16.6963 54.2875C15.8794 54.2486 15.0773 54.4118 14.3193 54.7459C14.2751 54.7692 14.2163 54.7459 14.2015 54.6915C14.1795 54.6449 14.2015 54.5827 14.253 54.5672C15.0405 54.2176 15.8721 54.0622 16.711 54.0932C18.1534 54.1554 19.2426 54.7614 19.9049 55.2665C19.949 55.2976 19.9564 55.3597 19.927 55.3986C19.9122 55.4219 19.8828 55.4374 19.8534 55.4374H19.846Z" fill="#12005A"/>
<path d="M10.4337 48.437C10.3895 48.437 10.3527 48.4059 10.3453 48.3593C10.338 48.3049 10.3674 48.2583 10.4189 48.2427L11.5522 48.0252C11.6038 48.0096 11.6479 48.0485 11.6626 48.1029C11.67 48.1573 11.6406 48.2039 11.589 48.2194L10.4557 48.437H10.441H10.4337Z" fill="#12005A"/>
<path d="M32.9821 49.416C32.9821 49.416 32.9527 49.416 32.9379 49.4082L32.0548 48.9498C32.0107 48.9265 31.9886 48.8643 32.0107 48.8177C32.0328 48.7711 32.0916 48.7478 32.1358 48.7711L33.0189 49.2295C33.0631 49.2528 33.0851 49.315 33.063 49.3616C33.0483 49.3927 33.0115 49.416 32.9821 49.416Z" fill="#12005A"/>
<path d="M32.6141 20.7219C32.6141 20.7219 32.5553 20.7064 32.5406 20.6753C32.4964 20.5976 32.0475 19.9216 31.2306 19.8905C31.2159 19.8905 31.1938 19.8905 31.1791 19.8905C30.48 19.8905 30.0384 20.38 29.9575 20.481C29.9207 20.5199 29.8618 20.5277 29.825 20.4888C29.7882 20.45 29.7809 20.3956 29.8177 20.349C29.9133 20.2324 30.4285 19.6652 31.238 19.6963C32.1505 19.7274 32.6362 20.481 32.6951 20.5665C32.7245 20.6131 32.7098 20.6753 32.6657 20.6986C32.6509 20.7064 32.6362 20.7141 32.6141 20.7141V20.7219Z" fill="#12005A"/>
<path d="M31.2085 20.3725C31.0319 20.7454 31.1129 21.165 31.3852 21.3049C31.6575 21.4447 32.0181 21.2583 32.1947 20.8853C32.3713 20.5124 32.2903 20.0928 32.0181 19.9529C31.7458 19.8131 31.3852 19.9995 31.2085 20.3725Z" fill="#12005A"/>
</g>
<defs>
<clipPath id="clip0_2048_965">
<rect width="86.1904" height="106.602" fill="white" transform="translate(0.226501)"/>
</clipPath>
</defs>
</svg>
