<svg width="124" height="107" viewBox="0 0 124 107" fill="none" xmlns="http://www.w3.org/2000/svg">
<defs>
<linearGradient id="paint0_linear_2019_1369" x1="63.5939" y1="77.6601" x2="65.677" y2="29.7951" gradientUnits="userSpaceOnUse">
<stop stop-color="#A6D7FF"/>
<stop offset="1" stop-color="#80C4FF"/>
</linearGradient>
<linearGradient id="paint1_linear_2019_1369" x1="104.403" y1="84.9174" x2="104.142" y2="103.453" gradientUnits="userSpaceOnUse">
<stop stop-color="#A0B858"/>
<stop offset="1" stop-color="#3E5929"/>
</linearGradient>
<linearGradient id="paint2_linear_2019_1369" x1="97.6913" y1="92.8494" x2="97.5291" y2="104.781" gradientUnits="userSpaceOnUse">
<stop stop-color="#A0B858"/>
<stop offset="1" stop-color="#3E5929"/>
</linearGradient>
<linearGradient id="paint3_linear_2019_1369" x1="19.1755" y1="89.4469" x2="20.9559" y2="97.3773" gradientUnits="userSpaceOnUse">
<stop stop-color="#A0B858"/>
<stop offset="1" stop-color="#3E5929"/>
</linearGradient>
<linearGradient id="paint4_linear_2019_1369" x1="21.9524" y1="83.5677" x2="23.7006" y2="107.315" gradientUnits="userSpaceOnUse">
<stop stop-color="#A0B858"/>
<stop offset="1" stop-color="#3E5929"/>
</linearGradient>
<linearGradient id="paint5_linear_2019_1369" x1="34.8871" y1="94.6868" x2="34.9928" y2="108.463" gradientUnits="userSpaceOnUse">
<stop stop-color="#A0B858"/>
<stop offset="1" stop-color="#3E5929"/>
</linearGradient>
<linearGradient id="paint6_linear_2019_1369" x1="39.8104" y1="80.4691" x2="55.253" y2="77.143" gradientUnits="userSpaceOnUse">
<stop stop-color="#E9F4F7"/>
<stop offset="1" stop-color="#CCDEE6"/>
</linearGradient>
<linearGradient id="paint7_linear_2019_1369" x1="85.5957" y1="79.0346" x2="70.0378" y2="76.8548" gradientUnits="userSpaceOnUse">
<stop stop-color="#E9F4F7"/>
<stop offset="1" stop-color="#CCDEE6"/>
</linearGradient>
<linearGradient id="paint8_linear_2019_1369" x1="59.248" y1="38.7876" x2="67.3518" y2="38.7876" gradientUnits="userSpaceOnUse">
<stop stop-color="#98A7AB"/>
<stop offset="1" stop-color="#6E848D"/>
</linearGradient>
<linearGradient id="paint9_linear_2019_1369" x1="63.0662" y1="-0.943369" x2="63.5208" y2="10.8117" gradientUnits="userSpaceOnUse">
<stop stop-color="#DAF1F7"/>
<stop offset="1" stop-color="#93B7C7"/>
</linearGradient>
<linearGradient id="paint10_linear_2019_1369" x1="63.1689" y1="-0.946979" x2="63.6236" y2="10.8081" gradientUnits="userSpaceOnUse">
<stop stop-color="#DAF1F7"/>
<stop offset="1" stop-color="#93B7C7"/>
</linearGradient>
<linearGradient id="paint11_linear_2019_1369" x1="62.5738" y1="11.4158" x2="63.3316" y2="30.7427" gradientUnits="userSpaceOnUse">
<stop stop-color="#0E90CC"/>
<stop offset="1" stop-color="#005E94"/>
</linearGradient>
<linearGradient id="paint12_linear_2019_1369" x1="63.059" y1="11.0766" x2="63.5136" y2="41.056" gradientUnits="userSpaceOnUse">
<stop stop-color="#0E90CC"/>
<stop offset="1" stop-color="#005E94"/>
</linearGradient>
<linearGradient id="paint13_linear_2019_1369" x1="63.5229" y1="28.9759" x2="63.2973" y2="33.6964" gradientUnits="userSpaceOnUse">
<stop stop-color="#0E90CC"/>
<stop offset="1" stop-color="#005E94"/>
</linearGradient>
<linearGradient id="paint14_linear_2019_1369" x1="58.2386" y1="61.6088" x2="72.4798" y2="98.9569" gradientUnits="userSpaceOnUse">
<stop stop-color="#EBF4F7"/>
<stop offset="1" stop-color="#D8E5EB"/>
</linearGradient>
<linearGradient id="paint15_linear_2019_1369" x1="63.2362" y1="47.7584" x2="63.3877" y2="50.9171" gradientUnits="userSpaceOnUse">
<stop stop-color="#0E90CC"/>
<stop offset="1" stop-color="#005E94"/>
</linearGradient>
<linearGradient id="paint16_linear_2019_1369" x1="63.5761" y1="28.9794" x2="63.347" y2="33.6963" gradientUnits="userSpaceOnUse">
<stop stop-color="#0E90CC"/>
<stop offset="1" stop-color="#005E94"/>
</linearGradient>
<linearGradient id="paint17_linear_2019_1369" x1="63.4947" y1="47.4864" x2="63.2269" y2="31.1629" gradientUnits="userSpaceOnUse">
<stop stop-color="#EBF4F7"/>
<stop offset="1" stop-color="#E1EBF0"/>
</linearGradient>
<linearGradient id="paint18_linear_2019_1369" x1="40.1821" y1="61.736" x2="55.9823" y2="61.736" gradientUnits="userSpaceOnUse">
<stop stop-color="#0E90CC"/>
<stop offset="1" stop-color="#005E94"/>
</linearGradient>
<linearGradient id="paint19_linear_2019_1369" x1="71.0281" y1="61.736" x2="86.8247" y2="61.736" gradientUnits="userSpaceOnUse">
<stop stop-color="#0E90CC"/>
<stop offset="1" stop-color="#005E94"/>
</linearGradient>
<linearGradient id="paint20_linear_2019_1369" x1="50.0852" y1="101.156" x2="50.4271" y2="107.664" gradientUnits="userSpaceOnUse">
<stop stop-color="#D4E0E6"/>
<stop offset="1" stop-color="#A0B8C8"/>
</linearGradient>
<linearGradient id="paint21_linear_2019_1369" x1="48.7713" y1="101.227" x2="49.1132" y2="107.732" gradientUnits="userSpaceOnUse">
<stop stop-color="#D4E0E6"/>
<stop offset="1" stop-color="#A0B8C8"/>
</linearGradient>
<linearGradient id="paint22_linear_2019_1369" x1="47.4572" y1="101.294" x2="47.7991" y2="107.802" gradientUnits="userSpaceOnUse">
<stop stop-color="#D4E0E6"/>
<stop offset="1" stop-color="#A0B8C8"/>
</linearGradient>
<linearGradient id="paint23_linear_2019_1369" x1="76.7767" y1="99.7569" x2="77.1186" y2="106.262" gradientUnits="userSpaceOnUse">
<stop stop-color="#D4E0E6"/>
<stop offset="1" stop-color="#A0B8C8"/>
</linearGradient>
<linearGradient id="paint24_linear_2019_1369" x1="77.8959" y1="99.6969" x2="78.2378" y2="106.202" gradientUnits="userSpaceOnUse">
<stop stop-color="#D4E0E6"/>
<stop offset="1" stop-color="#A0B8C8"/>
</linearGradient>
<linearGradient id="paint25_linear_2019_1369" x1="79.0151" y1="99.6369" x2="79.357" y2="106.145" gradientUnits="userSpaceOnUse">
<stop stop-color="#D4E0E6"/>
<stop offset="1" stop-color="#A0B8C8"/>
</linearGradient>
<linearGradient id="paint26_linear_2019_1369" x1="48.2823" y1="62.9373" x2="48.6242" y2="80.4585" gradientUnits="userSpaceOnUse">
<stop stop-color="#0E90CC"/>
<stop offset="1" stop-color="#005E94"/>
</linearGradient>
<linearGradient id="paint27_linear_2019_1369" x1="47.6024" y1="55.1607" x2="48.7408" y2="80.6142" gradientUnits="userSpaceOnUse">
<stop stop-color="#F5FDFF"/>
<stop offset="1" stop-color="#BED7E1"/>
</linearGradient>
<linearGradient id="paint28_linear_2019_1369" x1="48.1655" y1="55.2419" x2="48.6202" y2="80.1229" gradientUnits="userSpaceOnUse">
<stop stop-color="#0E90CC"/>
<stop offset="1" stop-color="#005E94"/>
</linearGradient>
<linearGradient id="paint29_linear_2019_1369" x1="47.7548" y1="55.1536" x2="48.8932" y2="80.6069" gradientUnits="userSpaceOnUse">
<stop stop-color="#F5FDFF"/>
<stop offset="1" stop-color="#BED7E1"/>
</linearGradient>
<linearGradient id="paint30_linear_2019_1369" x1="47.6414" y1="55.1604" x2="48.7799" y2="80.6142" gradientUnits="userSpaceOnUse">
<stop stop-color="#F5FDFF"/>
<stop offset="1" stop-color="#BED7E1"/>
</linearGradient>
<linearGradient id="paint31_linear_2019_1369" x1="47.5316" y1="55.1644" x2="48.6701" y2="80.6178" gradientUnits="userSpaceOnUse">
<stop stop-color="#F5FDFF"/>
<stop offset="1" stop-color="#BED7E1"/>
</linearGradient>
<linearGradient id="paint32_linear_2019_1369" x1="47.6697" y1="55.1606" x2="48.8082" y2="80.6106" gradientUnits="userSpaceOnUse">
<stop stop-color="#F5FDFF"/>
<stop offset="1" stop-color="#BED7E1"/>
</linearGradient>
<linearGradient id="paint33_linear_2019_1369" x1="46.7527" y1="55.2017" x2="47.8912" y2="80.6553" gradientUnits="userSpaceOnUse">
<stop stop-color="#F5FDFF"/>
<stop offset="1" stop-color="#BED7E1"/>
</linearGradient>
<linearGradient id="paint34_linear_2019_1369" x1="48.851" y1="55.1091" x2="49.9895" y2="80.5592" gradientUnits="userSpaceOnUse">
<stop stop-color="#F5FDFF"/>
<stop offset="1" stop-color="#BED7E1"/>
</linearGradient>
<linearGradient id="paint35_linear_2019_1369" x1="78.0021" y1="87.8642" x2="78.6823" y2="100.361" gradientUnits="userSpaceOnUse">
<stop stop-color="#F5FDFF"/>
<stop offset="1" stop-color="#BED7E1"/>
</linearGradient>
<linearGradient id="paint36_linear_2019_1369" x1="85.5711" y1="95.0542" x2="78.2502" y2="94.5358" gradientUnits="userSpaceOnUse">
<stop stop-color="#0E90CC"/>
<stop offset="1" stop-color="#005E94"/>
</linearGradient>
<linearGradient id="paint37_linear_2019_1369" x1="75.1544" y1="94.0614" x2="80.4729" y2="95.2647" gradientUnits="userSpaceOnUse">
<stop stop-color="#0E90CC"/>
<stop offset="1" stop-color="#005E94"/>
</linearGradient>
<linearGradient id="paint38_linear_2019_1369" x1="79.1035" y1="94.6726" x2="79.1317" y2="95.1956" gradientUnits="userSpaceOnUse">
<stop stop-color="#095C7A"/>
<stop offset="1" stop-color="#002D42"/>
</linearGradient>
<linearGradient id="paint39_linear_2019_1369" x1="77.7683" y1="94.6726" x2="77.7965" y2="95.1956" gradientUnits="userSpaceOnUse">
<stop stop-color="#095C7A"/>
<stop offset="1" stop-color="#002D42"/>
</linearGradient>
<linearGradient id="paint40_linear_2019_1369" x1="78.6326" y1="100.054" x2="78.3682" y2="91.2454" gradientUnits="userSpaceOnUse">
<stop stop-color="#095C7A"/>
<stop offset="1" stop-color="#002D42"/>
</linearGradient>
<linearGradient id="paint41_linear_2019_1369" x1="49.0086" y1="87.8642" x2="48.3284" y2="100.361" gradientUnits="userSpaceOnUse">
<stop stop-color="#F5FDFF"/>
<stop offset="1" stop-color="#BED7E1"/>
</linearGradient>
<linearGradient id="paint42_linear_2019_1369" x1="41.4395" y1="95.0542" x2="48.7603" y2="94.5358" gradientUnits="userSpaceOnUse">
<stop stop-color="#0E90CC"/>
<stop offset="1" stop-color="#005E94"/>
</linearGradient>
<linearGradient id="paint43_linear_2019_1369" x1="51.8562" y1="94.0614" x2="46.5376" y2="95.2647" gradientUnits="userSpaceOnUse">
<stop stop-color="#0E90CC"/>
<stop offset="1" stop-color="#005E94"/>
</linearGradient>
<linearGradient id="paint44_linear_2019_1369" x1="47.9069" y1="3.95918e-05" x2="47.8785" y2="3.95918e-05" gradientUnits="userSpaceOnUse">
<stop stop-color="#095C7A"/>
<stop offset="1" stop-color="#002D42"/>
</linearGradient>
<linearGradient id="paint45_linear_2019_1369" x1="49.2457" y1="94.6726" x2="49.214" y2="95.1956" gradientUnits="userSpaceOnUse">
<stop stop-color="#095C7A"/>
<stop offset="1" stop-color="#002D42"/>
</linearGradient>
<linearGradient id="paint46_linear_2019_1369" x1="48.718" y1="100.054" x2="48.4537" y2="91.2454" gradientUnits="userSpaceOnUse">
<stop stop-color="#095C7A"/>
<stop offset="1" stop-color="#002D42"/>
</linearGradient>
<linearGradient id="paint47_linear_2019_1369" x1="78.1863" y1="62.3543" x2="78.5282" y2="79.8755" gradientUnits="userSpaceOnUse">
<stop stop-color="#0E90CC"/>
<stop offset="1" stop-color="#005E94"/>
</linearGradient>
<linearGradient id="paint48_linear_2019_1369" x1="77.4567" y1="53.8251" x2="78.5952" y2="79.2787" gradientUnits="userSpaceOnUse">
<stop stop-color="#F5FDFF"/>
<stop offset="1" stop-color="#BED7E1"/>
</linearGradient>
<linearGradient id="paint49_linear_2019_1369" x1="78.0694" y1="54.6942" x2="78.5241" y2="79.5752" gradientUnits="userSpaceOnUse">
<stop stop-color="#0E90CC"/>
<stop offset="1" stop-color="#005E94"/>
</linearGradient>
<linearGradient id="paint50_linear_2019_1369" x1="77.6089" y1="53.8182" x2="78.7473" y2="79.2716" gradientUnits="userSpaceOnUse">
<stop stop-color="#F5FDFF"/>
<stop offset="1" stop-color="#BED7E1"/>
</linearGradient>
<linearGradient id="paint51_linear_2019_1369" x1="77.4991" y1="53.8248" x2="78.6376" y2="79.2786" gradientUnits="userSpaceOnUse">
<stop stop-color="#F5FDFF"/>
<stop offset="1" stop-color="#BED7E1"/>
</linearGradient>
<linearGradient id="paint52_linear_2019_1369" x1="77.3858" y1="53.8287" x2="78.5242" y2="79.2821" gradientUnits="userSpaceOnUse">
<stop stop-color="#F5FDFF"/>
<stop offset="1" stop-color="#BED7E1"/>
</linearGradient>
<linearGradient id="paint53_linear_2019_1369" x1="77.524" y1="53.8249" x2="78.6624" y2="79.275" gradientUnits="userSpaceOnUse">
<stop stop-color="#F5FDFF"/>
<stop offset="1" stop-color="#BED7E1"/>
</linearGradient>
<linearGradient id="paint54_linear_2019_1369" x1="78.7065" y1="53.7701" x2="79.8449" y2="79.2202" gradientUnits="userSpaceOnUse">
<stop stop-color="#F5FDFF"/>
<stop offset="1" stop-color="#BED7E1"/>
</linearGradient>
<linearGradient id="paint55_linear_2019_1369" x1="76.6064" y1="53.8627" x2="77.7449" y2="79.3163" gradientUnits="userSpaceOnUse">
<stop stop-color="#F5FDFF"/>
<stop offset="1" stop-color="#BED7E1"/>
</linearGradient>
<linearGradient id="paint56_linear_2019_1369" x1="63.2716" y1="62.6474" x2="63.6135" y2="80.1652" gradientUnits="userSpaceOnUse">
<stop stop-color="#0E90CC"/>
<stop offset="1" stop-color="#005E94"/>
</linearGradient>
<linearGradient id="paint57_linear_2019_1369" x1="62.6162" y1="54.4894" x2="63.7546" y2="79.9429" gradientUnits="userSpaceOnUse">
<stop stop-color="#F5FDFF"/>
<stop offset="1" stop-color="#BED7E1"/>
</linearGradient>
<linearGradient id="paint58_linear_2019_1369" x1="63.1547" y1="54.9663" x2="63.6094" y2="79.8472" gradientUnits="userSpaceOnUse">
<stop stop-color="#0E90CC"/>
<stop offset="1" stop-color="#005E94"/>
</linearGradient>
<linearGradient id="paint59_linear_2019_1369" x1="62.8571" y1="54.4788" x2="63.9956" y2="79.9322" gradientUnits="userSpaceOnUse">
<stop stop-color="#F5FDFF"/>
<stop offset="1" stop-color="#BED7E1"/>
</linearGradient>
<linearGradient id="paint60_linear_2019_1369" x1="62.7225" y1="54.4858" x2="63.8609" y2="79.9393" gradientUnits="userSpaceOnUse">
<stop stop-color="#F5FDFF"/>
<stop offset="1" stop-color="#BED7E1"/>
</linearGradient>
<linearGradient id="paint61_linear_2019_1369" x1="62.6906" y1="54.4859" x2="63.8291" y2="79.9393" gradientUnits="userSpaceOnUse">
<stop stop-color="#F5FDFF"/>
<stop offset="1" stop-color="#BED7E1"/>
</linearGradient>
<linearGradient id="paint62_linear_2019_1369" x1="62.5206" y1="54.4962" x2="63.6591" y2="79.9464" gradientUnits="userSpaceOnUse">
<stop stop-color="#F5FDFF"/>
<stop offset="1" stop-color="#BED7E1"/>
</linearGradient>
<linearGradient id="paint63_linear_2019_1369" x1="64.611" y1="54.4" x2="65.7529" y2="79.8536" gradientUnits="userSpaceOnUse">
<stop stop-color="#F5FDFF"/>
<stop offset="1" stop-color="#BED7E1"/>
</linearGradient>
<linearGradient id="paint64_linear_2019_1369" x1="61.2587" y1="54.5523" x2="62.3972" y2="80.0024" gradientUnits="userSpaceOnUse">
<stop stop-color="#F5FDFF"/>
<stop offset="1" stop-color="#BED7E1"/>
</linearGradient>
<linearGradient id="paint65_linear_2019_1369" x1="62.5453" y1="84.4158" x2="64.0257" y2="100.507" gradientUnits="userSpaceOnUse">
<stop stop-color="#F5FDFF"/>
<stop offset="1" stop-color="#BED7E1"/>
</linearGradient>
<linearGradient id="paint66_linear_2019_1369" x1="72.9869" y1="92.3052" x2="63.2645" y2="92.4969" gradientUnits="userSpaceOnUse">
<stop stop-color="#0E90CC"/>
<stop offset="1" stop-color="#005E94"/>
</linearGradient>
<linearGradient id="paint67_linear_2019_1369" x1="54.7854" y1="92.383" x2="65.9422" y2="92.4966" gradientUnits="userSpaceOnUse">
<stop stop-color="#0E90CC"/>
<stop offset="1" stop-color="#005E94"/>
</linearGradient>
<linearGradient id="paint68_linear_2019_1369" x1="62.7295" y1="94.6619" x2="62.6978" y2="95.259" gradientUnits="userSpaceOnUse">
<stop stop-color="#095C7A"/>
<stop offset="1" stop-color="#002D42"/>
</linearGradient>
<linearGradient id="paint69_linear_2019_1369" x1="64.2669" y1="94.6619" x2="64.2352" y2="95.259" gradientUnits="userSpaceOnUse">
<stop stop-color="#095C7A"/>
<stop offset="1" stop-color="#002D42"/>
</linearGradient>
<linearGradient id="paint70_linear_2019_1369" x1="62.7474" y1="53.6872" x2="64.3408" y2="61.6031" gradientUnits="userSpaceOnUse">
<stop stop-color="#0E90CC"/>
<stop offset="1" stop-color="#005E94"/>
</linearGradient>
<linearGradient id="paint71_linear_2019_1369" x1="63.3708" y1="54.4575" x2="64.5092" y2="79.9075" gradientUnits="userSpaceOnUse">
<stop stop-color="#F5FDFF"/>
<stop offset="1" stop-color="#BED7E1"/>
</linearGradient>
<linearGradient id="paint72_linear_2019_1369" x1="63.4592" y1="54.9628" x2="63.9138" y2="79.8437" gradientUnits="userSpaceOnUse">
<stop stop-color="#0E90CC"/>
<stop offset="1" stop-color="#005E94"/>
</linearGradient>
<linearGradient id="paint73_linear_2019_1369" x1="63.3706" y1="54.4575" x2="64.5091" y2="79.9075" gradientUnits="userSpaceOnUse">
<stop stop-color="#F5FDFF"/>
<stop offset="1" stop-color="#BED7E1"/>
</linearGradient>
<linearGradient id="paint74_linear_2019_1369" x1="63.3707" y1="54.4576" x2="64.5092" y2="79.9112" gradientUnits="userSpaceOnUse">
<stop stop-color="#F5FDFF"/>
<stop offset="1" stop-color="#BED7E1"/>
</linearGradient>
<linearGradient id="paint75_linear_2019_1369" x1="63.3668" y1="54.4586" x2="64.5053" y2="79.9086" gradientUnits="userSpaceOnUse">
<stop stop-color="#F5FDFF"/>
<stop offset="1" stop-color="#BED7E1"/>
</linearGradient>
<linearGradient id="paint76_linear_2019_1369" x1="63.3708" y1="54.4556" x2="64.5092" y2="79.9057" gradientUnits="userSpaceOnUse">
<stop stop-color="#F5FDFF"/>
<stop offset="1" stop-color="#BED7E1"/>
</linearGradient>
<linearGradient id="paint77_linear_2019_1369" x1="63.4804" y1="98.8772" x2="63.4804" y2="106.869" gradientUnits="userSpaceOnUse">
<stop stop-color="#AAC3CF"/>
<stop offset="1" stop-color="#7D9CB1"/>
</linearGradient>
<linearGradient id="paint78_linear_2019_1369" x1="63.4804" y1="98.8772" x2="63.4804" y2="106.869" gradientUnits="userSpaceOnUse">
<stop stop-color="#AAC3CF"/>
<stop offset="1" stop-color="#7D9CB1"/>
</linearGradient>
<linearGradient id="paint79_linear_2019_1369" x1="63.4806" y1="98.877" x2="63.4806" y2="106.869" gradientUnits="userSpaceOnUse">
<stop stop-color="#AAC3CF"/>
<stop offset="1" stop-color="#7D9CB1"/>
</linearGradient>
<linearGradient id="paint80_linear_2019_1369" x1="63.4805" y1="98.8771" x2="63.4805" y2="106.869" gradientUnits="userSpaceOnUse">
<stop stop-color="#AAC3CF"/>
<stop offset="1" stop-color="#7D9CB1"/>
</linearGradient>
<linearGradient id="paint81_linear_2019_1369" x1="64.1605" y1="100.435" x2="62.9093" y2="84.9768" gradientUnits="userSpaceOnUse">
<stop stop-color="#095C7A"/>
<stop offset="1" stop-color="#002D42"/>
</linearGradient>
<clipPath id="clip0_2019_1369">
<rect width="124" height="107" fill="white"/>
</clipPath>
</defs>
<g clip-path="url(#clip0_2019_1369)">
<path d="M118.779 82.6843C118.779 88.8816 117.756 94.8386 115.872 100.4C115.712 100.873 115.546 101.34 115.372 101.806H11.3694C11.1959 101.34 11.0294 100.87 10.87 100.4C8.98575 94.8386 7.96216 88.8816 7.96216 82.6843C7.96216 52.1573 32.7692 27.4106 63.3708 27.4106C93.9723 27.4106 118.779 52.1573 118.779 82.6843Z" fill="url(#paint0_linear_2019_1369)"/>
<path d="M91.3159 61.478H117.108C114.961 58.662 112.889 59.8138 112.889 59.8138C109.765 54.2455 106.174 58.715 106.174 58.715C104.378 55.846 102.526 59.2485 102.526 59.2485C100.078 56.8071 98.4173 60.0718 98.4173 60.0718C97.036 58.6938 95.6936 60.4569 95.6936 60.4569L91.323 61.4815L91.3159 61.478Z" fill="white"/>
<path d="M78.9866 56.7435H87.8412C87.0336 55.5705 85.6452 56.1888 85.6452 56.1888C84.9369 54.4434 82.6205 55.6977 82.6205 55.6977C81.9971 55.0758 81.0656 56.0015 81.0656 56.0015L78.9866 56.7435Z" fill="white"/>
<path d="M43.0759 72.5334H31.9155C32.932 71.0565 34.6817 71.8339 34.6817 71.8339C35.5743 69.6327 38.4927 71.2155 38.4927 71.2155C39.279 70.4312 40.4514 71.6007 40.4514 71.6007L43.0723 72.5334H43.0759Z" fill="white"/>
<path d="M5.21704 52.062C6.19813 47.7161 13.4943 49.67 13.4943 49.67C14.3656 45.2146 17.741 49.2319 17.741 49.2319C19.4836 43.9109 29.6133 45.6139 29.6133 49.8149C31.6463 47.7868 34.2956 50.2141 34.2956 50.2141C38.0004 48.5853 40.1786 52.062 40.1786 52.062H5.21704Z" fill="white"/>
<path d="M43.2424 47.1014C43.9933 46.5821 45.3782 46.4831 45.3782 46.4831C45.998 45.8648 46.4761 46.3701 46.4761 46.3701C47.1066 45.0628 49.5398 45.4373 49.5398 46.522C50.064 45.9991 50.7476 46.6245 50.7476 46.6245C51.3816 46.5856 52.2671 47.1014 52.2671 47.1014H43.2424Z" fill="white"/>
<path d="M13.4131 64.1455H28.4305C26.525 62.9265 22.8556 62.817 22.0021 63.3646C21.1485 61.5238 17.7341 61.6793 16.9868 63.0678C15.4744 62.4354 15.2265 63.4671 15.2265 63.4671L13.4131 64.1455Z" fill="white"/>
<path d="M70.4509 37.9292L76.6456 35.7775C78.1084 32.859 80.1308 34.873 80.1308 34.873C80.5735 31.6259 84.6927 34.1946 84.6927 34.1946C87.9653 31.6295 89.4281 35.5796 89.4281 35.5796C91.5072 30.6296 96.3206 37.9292 96.3206 37.9292H70.4509Z" fill="white"/>
<path d="M86.7539 104.894H124C123.387 100.481 119.962 102.954 119.962 102.954C118.903 95.5347 112.376 98.976 112.05 101.018C110.991 95.7502 108.377 96.8243 108.377 96.8243C108.377 91.5563 104.024 89.9487 103.564 90.5564C103.103 86.7158 100.872 88.6626 100.872 88.6626C100.057 83.9175 95.8954 87.3588 95.8954 87.3588C95.4881 83.5959 91.0608 85.0481 91.0608 85.0481C89.2651 82.6808 87.4694 85.9243 87.4694 85.9243C86.4883 84.6312 84.5261 84.6312 84.5261 84.6312L86.7539 104.891V104.894Z" fill="url(#paint1_linear_2019_1369)"/>
<path d="M85.2098 104.894L84.8237 92.2558C87.4553 90.1571 88.4966 93.8952 88.4966 93.8952C90.4553 92.2558 91.3124 97.8736 91.3124 97.8736C93.944 97.8736 93.6996 99.7922 93.6996 99.7922C95.4741 100.721 95.2899 102.188 95.2899 102.188C97.6204 99.1173 99.1434 101.725 99.1434 101.725C99.1434 98.7075 102.221 98.2128 103.181 99.4777C104.361 97.9231 105.813 100.559 105.813 100.559C107.771 99.8346 108.689 103.463 108.689 103.463C110.035 102.898 110.403 104.891 110.403 104.891H85.2133L85.2098 104.894Z" fill="url(#paint2_linear_2019_1369)"/>
<path d="M29.1706 91.0333C27.5803 87.8958 24.4954 90.2065 24.4954 90.2065C22.9511 86.9877 19.9618 90.6623 19.9618 90.6623C17.9501 87.4683 15.616 92.1038 15.616 92.1038C12.485 91.1923 12.9525 93.9058 12.9525 93.9058C9.91361 92.4148 10.8734 97.3931 12.3433 99.0678C13.8132 100.743 22.8272 99.9794 22.8272 99.9794L29.1706 91.0333Z" fill="url(#paint3_linear_2019_1369)"/>
<path d="M45.6508 85.6594C43.2318 81.5255 37.1646 83.9599 36.605 87.5214C34.409 85.7653 33.8919 88.97 33.8919 88.97C29.7798 85.5534 27.676 91.7895 27.676 91.7895C23.5143 91.0864 24.0775 95.1072 24.0775 95.1072C20.2912 94.2239 20.1035 98.0822 20.1035 98.0822C19.1685 96.3544 16.5971 95.7785 15.4743 97.6087C14.6809 94.4924 11.1285 95.1284 10.4272 97.0434C9.63382 95.1814 7.38829 97.1494 7.38829 98.0786C3.04245 96.5629 1.07672 101.562 2.24553 103.795C0.935047 103.53 0 105.021 0 105.021H44.0535L45.6508 85.6523V85.6594Z" fill="url(#paint4_linear_2019_1369)"/>
<path d="M44.0533 96.2555C42.4454 93.906 37.0724 94.2769 37.3522 97.842C35.4821 96.4605 33.8458 100.153 33.8458 100.153C30.527 98.4249 29.9178 101.891 29.9178 101.891C27.0667 99.2765 25.1045 102.637 26.0395 105.025C26.3193 105.025 44.0533 105.294 44.0533 105.025V96.2555Z" fill="url(#paint5_linear_2019_1369)"/>
<path d="M41.1138 69.5091L55.9824 53.9099V100.096H41.1138V69.5091Z" fill="url(#paint6_linear_2019_1369)"/>
<path d="M85.8967 69.5091L71.0281 53.9099V100.096H85.8967V69.5091Z" fill="url(#paint7_linear_2019_1369)"/>
<mask id="mask0_2019_1369" style="mask-type:luminance" maskUnits="userSpaceOnUse" x="41" y="50" width="45" height="51">
<path d="M71.0282 53.9099V50.6169H55.9824V53.9099L41.1138 69.5091V100.096H55.9824H71.0282H85.8969V69.5091L71.0282 53.9099Z" fill="white"/>
</mask>
<g mask="url(#mask0_2019_1369)">
<g style="mix-blend-mode:multiply">
<path d="M85.8969 98.7463H41.1138V98.8594H85.8969V98.7463Z" fill="#DDE9ED"/>
</g>
<g style="mix-blend-mode:multiply">
<path d="M85.8969 97.3967H41.1138V97.5098H85.8969V97.3967Z" fill="#DDE9ED"/>
</g>
<g style="mix-blend-mode:multiply">
<path d="M85.8969 96.0435H41.1138V96.1565H85.8969V96.0435Z" fill="#DDE9ED"/>
</g>
<g style="mix-blend-mode:multiply">
<path d="M85.8969 94.6938H41.1138V94.8069H85.8969V94.6938Z" fill="#DDE9ED"/>
</g>
<g style="mix-blend-mode:multiply">
<path d="M85.8969 93.344H41.1138V93.4571H85.8969V93.344Z" fill="#DDE9ED"/>
</g>
<g style="mix-blend-mode:multiply">
<path d="M85.8969 91.9944H41.1138V92.1075H85.8969V91.9944Z" fill="#DDE9ED"/>
</g>
<g style="mix-blend-mode:multiply">
<path d="M85.8969 90.6411H41.1138V90.7542H85.8969V90.6411Z" fill="#DDE9ED"/>
</g>
<g style="mix-blend-mode:multiply">
<path d="M85.8969 89.2915H41.1138V89.4046H85.8969V89.2915Z" fill="#DDE9ED"/>
</g>
<g style="mix-blend-mode:multiply">
<path d="M85.8969 87.9417H41.1138V88.0547H85.8969V87.9417Z" fill="#DDE9ED"/>
</g>
<g style="mix-blend-mode:multiply">
<path d="M85.8969 86.5886H41.1138V86.7017H85.8969V86.5886Z" fill="#DDE9ED"/>
</g>
<g style="mix-blend-mode:multiply">
<path d="M85.8969 85.2388H41.1138V85.3518H85.8969V85.2388Z" fill="#DDE9ED"/>
</g>
<g style="mix-blend-mode:multiply">
<path d="M85.8969 83.8892H41.1138V84.0022H85.8969V83.8892Z" fill="#DDE9ED"/>
</g>
<g style="mix-blend-mode:multiply">
<path d="M85.8969 82.5396H41.1138V82.6526H85.8969V82.5396Z" fill="#DDE9ED"/>
</g>
<g style="mix-blend-mode:multiply">
<path d="M85.8969 81.1863H41.1138V81.2993H85.8969V81.1863Z" fill="#DDE9ED"/>
</g>
<g style="mix-blend-mode:multiply">
<path d="M85.8969 79.8367H41.1138V79.9497H85.8969V79.8367Z" fill="#DDE9ED"/>
</g>
<g style="mix-blend-mode:multiply">
<path d="M85.8969 78.4868H41.1138V78.5999H85.8969V78.4868Z" fill="#DDE9ED"/>
</g>
<g style="mix-blend-mode:multiply">
<path d="M85.8969 77.1372H41.1138V77.2503H85.8969V77.1372Z" fill="#DDE9ED"/>
</g>
<g style="mix-blend-mode:multiply">
<path d="M85.8969 75.7839H41.1138V75.897H85.8969V75.7839Z" fill="#DDE9ED"/>
</g>
<g style="mix-blend-mode:multiply">
<path d="M85.8969 74.4343H41.1138V74.5474H85.8969V74.4343Z" fill="#DDE9ED"/>
</g>
<g style="mix-blend-mode:multiply">
<path d="M85.8969 73.0845H41.1138V73.1975H85.8969V73.0845Z" fill="#DDE9ED"/>
</g>
<g style="mix-blend-mode:multiply">
<path d="M85.8969 71.7349H41.1138V71.8479H85.8969V71.7349Z" fill="#DDE9ED"/>
</g>
<g style="mix-blend-mode:multiply">
<path d="M85.8969 70.3816H41.1138V70.4947H85.8969V70.3816Z" fill="#DDE9ED"/>
</g>
<g style="mix-blend-mode:multiply">
<path d="M85.8969 69.032H41.1138V69.145H85.8969V69.032Z" fill="#DDE9ED"/>
</g>
<g style="mix-blend-mode:multiply">
<path d="M85.8969 67.6824H41.1138V67.7954H85.8969V67.6824Z" fill="#DDE9ED"/>
</g>
<g style="mix-blend-mode:multiply">
<path d="M85.8969 66.3325H41.1138V66.4456H85.8969V66.3325Z" fill="#DDE9ED"/>
</g>
<g style="mix-blend-mode:multiply">
<path d="M85.8969 64.9795H41.1138V65.0926H85.8969V64.9795Z" fill="#DDE9ED"/>
</g>
<g style="mix-blend-mode:multiply">
<path d="M85.8969 63.6296H41.1138V63.7427H85.8969V63.6296Z" fill="#DDE9ED"/>
</g>
<g style="mix-blend-mode:multiply">
<path d="M85.8969 62.28H41.1138V62.3931H85.8969V62.28Z" fill="#DDE9ED"/>
</g>
<g style="mix-blend-mode:multiply">
<path d="M85.8969 60.9304H41.1138V61.0435H85.8969V60.9304Z" fill="#DDE9ED"/>
</g>
<g style="mix-blend-mode:multiply">
<path d="M85.8969 59.5771H41.1138V59.6902H85.8969V59.5771Z" fill="#DDE9ED"/>
</g>
<g style="mix-blend-mode:multiply">
<path d="M85.8969 58.2273H41.1138V58.3404H85.8969V58.2273Z" fill="#DDE9ED"/>
</g>
<g style="mix-blend-mode:multiply">
<path d="M85.8969 56.8777H41.1138V56.9908H85.8969V56.8777Z" fill="#DDE9ED"/>
</g>
<g style="mix-blend-mode:multiply">
<path d="M85.8969 55.5281H41.1138V55.6411H85.8969V55.5281Z" fill="#DDE9ED"/>
</g>
<g style="mix-blend-mode:multiply">
<path d="M85.8969 54.1748H41.1138V54.2879H85.8969V54.1748Z" fill="#DDE9ED"/>
</g>
<g style="mix-blend-mode:multiply">
<path d="M85.8969 52.751H41.1138V52.864H85.8969V52.751Z" fill="#DDE9ED"/>
</g>
<g style="mix-blend-mode:multiply">
<path d="M85.8969 51.3235H41.1138V51.4366H85.8969V51.3235Z" fill="#DDE9ED"/>
</g>
</g>
<path d="M64.536 32.548L63.2999 30.0146L62.0638 32.548H59.248V47.5606H67.3518V32.548H64.536ZM61.4298 43.1688H59.8856V36.1554C59.8856 35.5441 60.2327 35.0495 60.6577 35.0495C61.0827 35.0495 61.4298 35.5441 61.4298 36.1554V43.1688ZM64.4971 43.1688H62.1063V36.7596C62.1063 35.8162 62.6411 35.0495 63.2999 35.0495C63.9587 35.0495 64.4935 35.8162 64.4935 36.7596V43.1688H64.4971ZM66.7213 43.1688H65.1771V36.1554C65.1771 35.5441 65.5207 35.0495 65.9492 35.0495C66.3778 35.0495 66.7213 35.5441 66.7213 36.1554V43.1688Z" fill="url(#paint8_linear_2019_1369)"/>
<path d="M63.6718 0H63.0732V13.8114H63.6718V0Z" fill="url(#paint9_linear_2019_1369)"/>
<path d="M66.8064 4.58604V4.00659H59.9352V4.58604H66.8064Z" fill="url(#paint10_linear_2019_1369)"/>
<path d="M63.3707 11.0696L57.6294 31.6824H69.1156L63.3707 11.0696Z" fill="url(#paint11_linear_2019_1369)"/>
<path d="M63.3706 11.0696L60.9197 31.6824H65.8251L63.3706 11.0696Z" fill="url(#paint12_linear_2019_1369)"/>
<path d="M70.0328 31.6824H56.7119V32.5515H70.0328V31.6824Z" fill="url(#paint13_linear_2019_1369)"/>
<path d="M71.0317 50.6169H55.9824V100.096H71.0317V50.6169Z" fill="url(#paint14_linear_2019_1369)"/>
<g style="mix-blend-mode:multiply">
<path d="M71.0317 98.5627H55.9824V98.6758H71.0317V98.5627Z" fill="#DDE9ED"/>
</g>
<g style="mix-blend-mode:multiply">
<path d="M71.0317 97.2129H55.9824V97.3259H71.0317V97.2129Z" fill="#DDE9ED"/>
</g>
<g style="mix-blend-mode:multiply">
<path d="M71.0317 95.8599H55.9824V95.9729H71.0317V95.8599Z" fill="#DDE9ED"/>
</g>
<g style="mix-blend-mode:multiply">
<path d="M71.0317 94.51H55.9824V94.6231H71.0317V94.51Z" fill="#DDE9ED"/>
</g>
<g style="mix-blend-mode:multiply">
<path d="M71.0317 93.1604H55.9824V93.2735H71.0317V93.1604Z" fill="#DDE9ED"/>
</g>
<g style="mix-blend-mode:multiply">
<path d="M71.0317 91.8108H55.9824V91.9239H71.0317V91.8108Z" fill="#DDE9ED"/>
</g>
<g style="mix-blend-mode:multiply">
<path d="M71.0317 90.4575H55.9824V90.5706H71.0317V90.4575Z" fill="#DDE9ED"/>
</g>
<g style="mix-blend-mode:multiply">
<path d="M71.0317 89.1077H55.9824V89.2207H71.0317V89.1077Z" fill="#DDE9ED"/>
</g>
<g style="mix-blend-mode:multiply">
<path d="M71.0317 87.7581H55.9824V87.8711H71.0317V87.7581Z" fill="#DDE9ED"/>
</g>
<g style="mix-blend-mode:multiply">
<path d="M71.0317 86.4084H55.9824V86.5215H71.0317V86.4084Z" fill="#DDE9ED"/>
</g>
<g style="mix-blend-mode:multiply">
<path d="M71.0317 85.0552H55.9824V85.1682H71.0317V85.0552Z" fill="#DDE9ED"/>
</g>
<g style="mix-blend-mode:multiply">
<path d="M71.0317 83.7056H55.9824V83.8186H71.0317V83.7056Z" fill="#DDE9ED"/>
</g>
<g style="mix-blend-mode:multiply">
<path d="M71.0317 82.3557H55.9824V82.4688H71.0317V82.3557Z" fill="#DDE9ED"/>
</g>
<g style="mix-blend-mode:multiply">
<path d="M71.0317 81.0061H55.9824V81.1192H71.0317V81.0061Z" fill="#DDE9ED"/>
</g>
<g style="mix-blend-mode:multiply">
<path d="M71.0317 79.6528H55.9824V79.7659H71.0317V79.6528Z" fill="#DDE9ED"/>
</g>
<g style="mix-blend-mode:multiply">
<path d="M71.0317 78.3032H55.9824V78.4163H71.0317V78.3032Z" fill="#DDE9ED"/>
</g>
<g style="mix-blend-mode:multiply">
<path d="M71.0317 76.9536H55.9824V77.0667H71.0317V76.9536Z" fill="#DDE9ED"/>
</g>
<g style="mix-blend-mode:multiply">
<path d="M71.0317 75.6038H55.9824V75.7168H71.0317V75.6038Z" fill="#DDE9ED"/>
</g>
<g style="mix-blend-mode:multiply">
<path d="M71.0317 74.2505H55.9824V74.3636H71.0317V74.2505Z" fill="#DDE9ED"/>
</g>
<g style="mix-blend-mode:multiply">
<path d="M71.0317 72.9009H55.9824V73.0139H71.0317V72.9009Z" fill="#DDE9ED"/>
</g>
<g style="mix-blend-mode:multiply">
<path d="M71.0317 71.5513H55.9824V71.6643H71.0317V71.5513Z" fill="#DDE9ED"/>
</g>
<g style="mix-blend-mode:multiply">
<path d="M71.0317 70.2014H55.9824V70.3145H71.0317V70.2014Z" fill="#DDE9ED"/>
</g>
<g style="mix-blend-mode:multiply">
<path d="M71.0317 68.8484H55.9824V68.9614H71.0317V68.8484Z" fill="#DDE9ED"/>
</g>
<g style="mix-blend-mode:multiply">
<path d="M71.0317 67.4985H55.9824V67.6116H71.0317V67.4985Z" fill="#DDE9ED"/>
</g>
<g style="mix-blend-mode:multiply">
<path d="M71.0317 66.1489H55.9824V66.262H71.0317V66.1489Z" fill="#DDE9ED"/>
</g>
<g style="mix-blend-mode:multiply">
<path d="M71.0317 64.7993H55.9824V64.9124H71.0317V64.7993Z" fill="#DDE9ED"/>
</g>
<g style="mix-blend-mode:multiply">
<path d="M71.0317 63.446H55.9824V63.5591H71.0317V63.446Z" fill="#DDE9ED"/>
</g>
<g style="mix-blend-mode:multiply">
<path d="M71.0317 62.0962H55.9824V62.2093H71.0317V62.0962Z" fill="#DDE9ED"/>
</g>
<g style="mix-blend-mode:multiply">
<path d="M71.0317 60.7466H55.9824V60.8596H71.0317V60.7466Z" fill="#DDE9ED"/>
</g>
<g style="mix-blend-mode:multiply">
<path d="M71.0317 59.397H55.9824V59.51H71.0317V59.397Z" fill="#DDE9ED"/>
</g>
<g style="mix-blend-mode:multiply">
<path d="M71.0317 58.0437H55.9824V58.1568H71.0317V58.0437Z" fill="#DDE9ED"/>
</g>
<g style="mix-blend-mode:multiply">
<path d="M71.0317 56.6941H55.9824V56.8072H71.0317V56.6941Z" fill="#DDE9ED"/>
</g>
<g style="mix-blend-mode:multiply">
<path d="M71.0317 55.3442H55.9824V55.4573H71.0317V55.3442Z" fill="#DDE9ED"/>
</g>
<g style="mix-blend-mode:multiply">
<path d="M71.0317 53.9946H55.9824V54.1077H71.0317V53.9946Z" fill="#DDE9ED"/>
</g>
<g style="mix-blend-mode:multiply">
<path d="M71.0317 52.5671H55.9824V52.6802H71.0317V52.5671Z" fill="#DDE9ED"/>
</g>
<g style="mix-blend-mode:multiply">
<path d="M71.0317 51.1399H55.9824V51.253H71.0317V51.1399Z" fill="#DDE9ED"/>
</g>
<path d="M73.465 50.6168H53.28L57.5267 47.5605H69.2183L73.465 50.6168Z" fill="url(#paint15_linear_2019_1369)"/>
<path d="M63.3707 28.6614L60.562 32.5514H66.2396L63.3707 28.6614Z" fill="url(#paint16_linear_2019_1369)"/>
<path d="M65.1452 32.548L63.3743 30.0146L61.6034 32.548H57.5657V47.5606H69.1865V32.548H65.1488H65.1452ZM60.6896 43.1688H58.4724V36.1554C58.4724 35.5441 58.9682 35.0495 59.581 35.0495C60.1937 35.0495 60.6896 35.5441 60.6896 36.1554V43.1688ZM65.0886 43.1688H61.66V36.7596C61.66 35.8162 62.4251 35.0495 63.3743 35.0495C64.3235 35.0495 65.0886 35.8162 65.0886 36.7596V43.1688ZM68.2762 43.1688H66.059V36.1554C66.059 35.5441 66.5549 35.0495 67.1676 35.0495C67.7804 35.0495 68.2762 35.5441 68.2762 36.1554V43.1688Z" fill="#979D9D"/>
<path d="M65.1452 32.548L63.3743 30.0146L61.6034 32.548H57.5657V47.5606H69.1865V32.548H65.1488H65.1452ZM60.6896 43.1688H58.4724V36.1554C58.4724 35.5441 58.9682 35.0495 59.581 35.0495C60.1937 35.0495 60.6896 35.5441 60.6896 36.1554V43.1688ZM65.0886 43.1688H61.66V36.7596C61.66 35.8162 62.4251 35.0495 63.3743 35.0495C64.3235 35.0495 65.0886 35.8162 65.0886 36.7596V43.1688ZM68.2762 43.1688H66.059V36.1554C66.059 35.5441 66.5549 35.0495 67.1676 35.0495C67.7804 35.0495 68.2762 35.5441 68.2762 36.1554V43.1688Z" fill="url(#paint17_linear_2019_1369)"/>
<path d="M55.9823 53.9099L40.1821 70.5125L40.2034 69.3889L55.9823 52.9595V53.9099Z" fill="url(#paint18_linear_2019_1369)"/>
<path d="M71.0281 53.9099L86.8247 70.5125L86.8035 69.3889L71.0281 52.9595V53.9099Z" fill="url(#paint19_linear_2019_1369)"/>
<path d="M36.7253 101.99H63.5052V101.439H39.1692L36.7253 101.99Z" fill="url(#paint20_linear_2019_1369)"/>
<path d="M34.2852 103.845H63.5054V103.294H36.7255L34.2852 103.845Z" fill="url(#paint21_linear_2019_1369)"/>
<path d="M31.8447 105.7H63.5053V105.149H34.2851L31.8447 105.7Z" fill="url(#paint22_linear_2019_1369)"/>
<path d="M87.8414 101.439H63.5054V101.99H90.2853L87.8414 101.439Z" fill="url(#paint23_linear_2019_1369)"/>
<path d="M90.2853 103.294H63.5054V103.845H92.7256L90.2853 103.294Z" fill="url(#paint24_linear_2019_1369)"/>
<path d="M92.7256 105.149H63.5054V105.7H95.1659L92.7256 105.149Z" fill="url(#paint25_linear_2019_1369)"/>
<path d="M44.9424 80.409V72.6041C44.9424 70.622 46.561 69.0073 48.548 69.0073C50.535 69.0073 52.1536 70.622 52.1536 72.6041V80.409H44.9424Z" fill="url(#paint26_linear_2019_1369)"/>
<path d="M45.5269 79.8261V72.6042C45.5269 70.9436 46.8834 69.5903 48.5481 69.5903C50.2127 69.5903 51.5692 70.9436 51.5692 72.6042V79.8261H45.5304H45.5269Z" fill="url(#paint27_linear_2019_1369)"/>
<path d="M48.548 69.8835C47.0427 69.8835 45.8208 71.1025 45.8208 72.6041V79.5328H51.2752V72.6041C51.2752 71.1025 50.0533 69.8835 48.548 69.8835Z" fill="url(#paint28_linear_2019_1369)"/>
<path d="M51.2718 72.604H45.8174V72.9715H51.2718V72.604Z" fill="url(#paint29_linear_2019_1369)"/>
<path d="M51.2718 75.095H45.8174V75.4624H51.2718V75.095Z" fill="url(#paint30_linear_2019_1369)"/>
<path d="M51.2718 77.5896H45.8174V77.9571H51.2718V77.5896Z" fill="url(#paint31_linear_2019_1369)"/>
<path d="M48.7288 79.5363V69.8835H48.3604V79.5363H48.7288Z" fill="url(#paint32_linear_2019_1369)"/>
<path d="M46.6159 70.6885L46.4431 70.8608L48.3766 72.7896L48.5494 72.6172L46.6159 70.6885Z" fill="url(#paint33_linear_2019_1369)"/>
<path d="M48.5474 72.6164L48.7202 72.7888L50.6537 70.8601L50.4809 70.6877L48.5474 72.6164Z" fill="url(#paint34_linear_2019_1369)"/>
<path d="M74.6833 100.679V91.9804C74.6833 89.9029 76.3764 88.2104 78.4625 88.2104C80.5486 88.2104 82.2416 89.8993 82.2416 91.9804V100.679H74.6833Z" fill="url(#paint35_linear_2019_1369)"/>
<path d="M81.6573 91.9803V100.093H75.2678V91.9803C75.2678 90.2208 76.6987 88.7969 78.459 88.7969C80.2193 88.7969 81.6538 90.2243 81.6538 91.9803H81.6573Z" fill="url(#paint36_linear_2019_1369)"/>
<path d="M78.4624 88.7969V100.096H75.2712V91.9838C75.2712 90.2243 76.7021 88.8004 78.4624 88.8004V88.7969Z" fill="url(#paint37_linear_2019_1369)"/>
<path d="M79.1177 95.2168C79.2644 95.2168 79.3833 95.0981 79.3833 94.9518C79.3833 94.8054 79.2644 94.6868 79.1177 94.6868C78.971 94.6868 78.8521 94.8054 78.8521 94.9518C78.8521 95.0981 78.971 95.2168 79.1177 95.2168Z" fill="url(#paint38_linear_2019_1369)"/>
<path d="M78.0481 94.9518C78.0481 95.0966 77.9312 95.2168 77.7825 95.2168C77.6337 95.2168 77.5168 95.1002 77.5168 94.9518C77.5168 94.8034 77.6337 94.6868 77.7825 94.6868C77.9312 94.6868 78.0481 94.8034 78.0481 94.9518Z" fill="url(#paint39_linear_2019_1369)"/>
<path d="M78.5617 88.7969H78.3669V100.096H78.5617V88.7969Z" fill="url(#paint40_linear_2019_1369)"/>
<path d="M52.3273 100.679V91.9804C52.3273 89.9029 50.6343 88.2104 48.5482 88.2104C46.462 88.2104 44.769 89.8993 44.769 91.9804V100.679H52.3273Z" fill="url(#paint41_linear_2019_1369)"/>
<path d="M45.3533 91.9803V100.093H51.7428V91.9803C51.7428 90.2208 50.3119 88.7969 48.5516 88.7969C46.7913 88.7969 45.3568 90.2243 45.3568 91.9803H45.3533Z" fill="url(#paint42_linear_2019_1369)"/>
<path d="M48.5481 88.7969V100.096H51.7393V91.9838C51.7393 90.2243 50.3084 88.8004 48.5481 88.8004V88.7969Z" fill="url(#paint43_linear_2019_1369)"/>
<path d="M47.8892 95.2168C48.0359 95.2168 48.1548 95.0981 48.1548 94.9518C48.1548 94.8054 48.0359 94.6868 47.8892 94.6868C47.7425 94.6868 47.6235 94.8054 47.6235 94.9518C47.6235 95.0981 47.7425 95.2168 47.8892 95.2168Z" fill="url(#paint44_linear_2019_1369)"/>
<path d="M48.9624 94.9518C48.9624 95.0966 49.0793 95.2168 49.228 95.2168C49.3768 95.2168 49.4937 95.1002 49.4937 94.9518C49.4937 94.8034 49.3768 94.6868 49.228 94.6868C49.0793 94.6868 48.9624 94.8034 48.9624 94.9518Z" fill="url(#paint45_linear_2019_1369)"/>
<path d="M48.6472 88.7969H48.4524V100.096H48.6472V88.7969Z" fill="url(#paint46_linear_2019_1369)"/>
<path d="M74.8569 80.409V72.6041C74.8569 70.622 76.4756 69.0073 78.4625 69.0073C80.4495 69.0073 82.0681 70.622 82.0681 72.6041V80.409H74.8569Z" fill="url(#paint47_linear_2019_1369)"/>
<path d="M81.4838 79.8261V72.6042C81.4838 70.9436 80.1273 69.5903 78.4626 69.5903C76.7979 69.5903 75.4414 70.9436 75.4414 72.6042V79.8261H81.4803H81.4838Z" fill="url(#paint48_linear_2019_1369)"/>
<path d="M78.4626 69.8835C79.9679 69.8835 81.1898 71.1025 81.1898 72.6041V79.5328H75.7354V72.6041C75.7354 71.1025 76.9573 69.8835 78.4626 69.8835Z" fill="url(#paint49_linear_2019_1369)"/>
<path d="M75.7353 72.9717H81.1897V72.6042H75.7353V72.9717Z" fill="url(#paint50_linear_2019_1369)"/>
<path d="M75.7353 75.4624H81.1897V75.0949H75.7353V75.4624Z" fill="url(#paint51_linear_2019_1369)"/>
<path d="M75.7353 77.9534H81.1897V77.5859H75.7353V77.9534Z" fill="url(#paint52_linear_2019_1369)"/>
<path d="M78.6467 79.5326V69.8799H78.2784V79.5326H78.6467Z" fill="url(#paint53_linear_2019_1369)"/>
<path d="M78.462 72.613L78.6348 72.7854L80.5682 70.8567L80.3954 70.6843L78.462 72.613Z" fill="url(#paint54_linear_2019_1369)"/>
<path d="M76.5336 70.685L76.3608 70.8574L78.2943 72.7862L78.4671 72.6138L76.5336 70.685Z" fill="url(#paint55_linear_2019_1369)"/>
<path d="M58.012 80.7022V68.555C58.012 65.5341 60.4771 63.075 63.5054 63.075C66.5336 63.075 68.9988 65.5341 68.9988 68.555V80.7022H58.0155H58.012Z" fill="url(#paint56_linear_2019_1369)"/>
<path d="M58.5962 80.1158V68.5516C58.5962 65.8522 60.7992 63.6545 63.5052 63.6545C66.2112 63.6545 68.4142 65.8522 68.4142 68.5516V80.1158H58.5997H58.5962Z" fill="url(#paint57_linear_2019_1369)"/>
<path d="M63.5054 64.241C65.8926 64.241 67.83 66.1736 67.83 68.555V79.5363H59.1843V68.555C59.1843 66.1736 61.1217 64.241 63.5089 64.241H63.5054Z" fill="url(#paint58_linear_2019_1369)"/>
<path d="M67.8263 68.5515H59.1807V69.184H67.8263V68.5515Z" fill="url(#paint59_linear_2019_1369)"/>
<path d="M63.824 79.5363V64.241H63.19V79.5363H63.824Z" fill="url(#paint60_linear_2019_1369)"/>
<path d="M67.8263 72.3003H59.1807V72.9327H67.8263V72.3003Z" fill="url(#paint61_linear_2019_1369)"/>
<path d="M67.8263 76.0454H59.1807V76.6779H67.8263V76.0454Z" fill="url(#paint62_linear_2019_1369)"/>
<path d="M63.5038 68.5941L63.7793 68.8689L66.8673 65.7884L66.5918 65.5136L63.5038 68.5941Z" fill="url(#paint63_linear_2019_1369)"/>
<path d="M60.4176 65.514L60.1421 65.7888L63.2301 68.8693L63.5056 68.5945L60.4176 65.514Z" fill="url(#paint64_linear_2019_1369)"/>
<path d="M58.5962 100.679V89.1149C58.5962 86.4156 60.7957 84.2214 63.5016 84.2214C66.2076 84.2214 68.4106 86.4156 68.4106 89.1149V100.679H58.5962Z" fill="url(#paint65_linear_2019_1369)"/>
<path d="M67.83 89.1147V100.096H59.1843V89.1147C59.1843 86.7333 61.1182 84.8042 63.5054 84.8042C65.8926 84.8042 67.83 86.7369 67.83 89.1147Z" fill="url(#paint66_linear_2019_1369)"/>
<path d="M63.5054 84.8042V100.096H59.1843V89.1147C59.1843 86.7333 61.1182 84.8042 63.5054 84.8042Z" fill="url(#paint67_linear_2019_1369)"/>
<path d="M62.4072 94.9799C62.4072 95.1459 62.5418 95.2837 62.7118 95.2837C62.8818 95.2837 63.0164 95.1495 63.0164 94.9799C63.0164 94.8103 62.8818 94.676 62.7118 94.676C62.5418 94.676 62.4072 94.8103 62.4072 94.9799Z" fill="url(#paint68_linear_2019_1369)"/>
<path d="M63.9446 94.9799C63.9446 95.1459 64.0792 95.2837 64.2492 95.2837C64.4192 95.2837 64.5538 95.1495 64.5538 94.9799C64.5538 94.8103 64.4192 94.676 64.2492 94.676C64.0792 94.676 63.9446 94.8103 63.9446 94.9799Z" fill="url(#paint69_linear_2019_1369)"/>
<path d="M63.5053 61.1882C61.4263 61.1882 59.7368 59.4994 59.7368 57.4254C59.7368 55.3514 61.4298 53.666 63.5053 53.666C65.5809 53.666 67.2739 55.3549 67.2739 57.4254C67.2739 59.4958 65.5809 61.1882 63.5053 61.1882Z" fill="url(#paint70_linear_2019_1369)"/>
<path d="M63.5054 60.5417C61.784 60.5417 60.385 59.1461 60.385 57.4289C60.385 55.7118 61.784 54.3162 63.5054 54.3162C65.2267 54.3162 66.6257 55.7118 66.6257 57.4289C66.6257 59.1461 65.2267 60.5417 63.5054 60.5417Z" fill="url(#paint71_linear_2019_1369)"/>
<path d="M66.0412 57.429C66.0412 58.8246 64.9042 59.9587 63.5052 59.9587C62.1062 59.9587 60.9692 58.8246 60.9692 57.429C60.9692 56.0333 62.1062 54.8992 63.5052 54.8992C64.9042 54.8992 66.0412 56.0333 66.0412 57.429Z" fill="url(#paint72_linear_2019_1369)"/>
<path d="M63.7142 54.8992H63.2927V59.9587H63.7142V54.8992Z" fill="url(#paint73_linear_2019_1369)"/>
<path d="M66.0413 57.6375V57.217H60.9693V57.6375H66.0413Z" fill="url(#paint74_linear_2019_1369)"/>
<path d="M61.8588 55.4922L61.5608 55.7896L65.1472 59.3672L65.4452 59.0699L61.8588 55.4922Z" fill="url(#paint75_linear_2019_1369)"/>
<path d="M65.4467 55.7866L65.1487 55.4893L61.5623 59.0669L61.8603 59.3642L65.4467 55.7866Z" fill="url(#paint76_linear_2019_1369)"/>
<path d="M63.5052 101.439H87.7916V100.096H63.5052H63.4556H39.1692V101.439H63.4556H63.5052Z" fill="url(#paint77_linear_2019_1369)"/>
<path d="M63.5052 103.294H90.232V101.99H63.5052H63.4556H36.7253V103.294H63.4556H63.5052Z" fill="url(#paint78_linear_2019_1369)"/>
<path d="M63.5054 105.148H92.676V103.845H63.5054H63.4558H34.2852V105.148H63.4558H63.5054Z" fill="url(#paint79_linear_2019_1369)"/>
<path d="M63.5053 105.7H63.4557H31.8447V107H63.4557H63.5053H95.1162V105.7H63.5053Z" fill="url(#paint80_linear_2019_1369)"/>
<path d="M63.6116 84.8042H63.4167V100.096H63.6116V84.8042Z" fill="url(#paint81_linear_2019_1369)"/>
</g>

</svg>
