<svg width="60" height="60" viewBox="0 0 60 60" fill="none" xmlns="http://www.w3.org/2000/svg">
<path fill-rule="evenodd" clip-rule="evenodd" d="M54.0117 20.0508C55.0898 16.1953 54.2578 11.8359 51.2109 8.78672C48.0586 5.7375 43.8047 4.69922 39.9492 5.98828C38.0625 2.42578 34.3125 0 30 0C25.6875 0 21.9375 2.42578 20.0508 5.98828C16.1953 4.80469 11.8359 5.7375 8.78672 8.78672C5.7375 11.8359 4.69922 16.1953 5.98828 20.0508C2.42578 21.9375 0 25.6875 0 30C0 34.3125 2.42578 38.0625 5.98828 39.9492C4.80469 43.8047 5.7375 48.0586 8.78672 51.2109C11.8359 54.2578 16.1953 55.1953 20.0508 54.0117C21.9375 57.5742 25.6875 60 30 60C34.3125 60 38.0625 57.5742 39.9492 54.0117C43.8047 55.0898 48.0586 54.2578 51.2109 51.2109C54.2578 48.0586 55.1953 43.8047 54.0117 39.9492C57.5742 38.0625 60 34.3125 60 30C60 25.6875 57.5742 21.9375 54.0117 20.0508ZM39.4404 39.4449C40.1826 38.7028 40.1826 37.5005 39.4404 36.7584L33.1858 30.5037L39.4434 24.2461C40.1855 23.5039 40.1855 22.3017 39.4434 21.5596C38.7013 20.8174 37.499 20.8174 36.7569 21.5596L30.4993 27.8172L24.2431 21.5566C23.501 20.8145 22.2987 20.8145 21.5566 21.5566C20.8145 22.2987 20.8145 23.501 21.5566 24.2431L27.8142 30.4978L21.5566 36.7554C20.8145 37.4975 20.8145 38.6998 21.5566 39.4419C21.928 39.816 22.4136 40 22.8999 40C23.3861 40 23.8723 39.816 24.2434 39.4419L30.4993 33.1902L36.7557 39.4434C37.1262 39.8145 37.6118 40 38.0987 40C38.5855 40 39.0723 39.8159 39.4404 39.4449Z" fill="white"/>
</svg>
