<svg width="105" height="104" viewBox="0 0 105 104" fill="none" xmlns="http://www.w3.org/2000/svg">
<g clip-path="url(#clip0_2019_9968)">
<path d="M42.4927 49.0017C42.659 49.0017 42.8179 48.9022 42.8928 48.7321L44.3771 45.3617H49.2995C49.5434 45.3617 49.7407 45.1529 49.7407 44.8949C49.7407 44.6369 49.5434 44.4282 49.2995 44.4282H44.0958C43.9241 44.4282 43.7688 44.5335 43.6957 44.6978L42.0926 48.3369C41.9894 48.5707 42.0853 48.848 42.3064 48.9572C42.3667 48.9872 42.4297 49.0007 42.4927 49.0007V49.0017Z" fill="#233862"/>
<path d="M45.6513 45.5993H49.4338C49.8001 45.5993 50.1006 45.2823 50.1006 44.8939C50.1006 44.5064 49.801 44.1885 49.4338 44.1885H45.6513C45.285 44.1885 44.9845 44.5064 44.9845 44.8939C44.9845 45.2814 45.285 45.5993 45.6513 45.5993Z" fill="#233862"/>
<path d="M49.4996 43.4318C49.3763 43.5314 47.1813 43.2366 46.4752 43.7082C45.7691 44.1797 45.0905 45.4871 45.4074 45.9548C45.7244 46.4215 47.2261 45.0194 47.6672 45.0436C48.1084 45.0678 49.3763 44.6523 49.3763 44.6523L49.4996 43.4318Z" fill="#FFB27D"/>
<path d="M48.83 43.2465C48.83 43.2465 48.6008 43.6688 48.6044 44.0359C48.6108 44.6563 48.83 44.952 48.83 44.952C48.83 44.952 51.4845 45.1762 54.3416 44.7404C55.9301 44.4978 57.5815 44.0504 58.874 43.2465C60.6296 42.1546 62.2601 38.2662 63.474 34.5547C64.761 30.62 65.5795 26.8823 65.5795 26.8823C64.9821 25.3517 63.4 24.4299 62.0683 24.656C61.3384 24.7797 59.6276 25.3749 59.2403 25.9132C58.6466 26.7384 56.9705 34.2696 55.6542 37.8353C55.3647 38.6179 48.8291 43.2455 48.8291 43.2455L48.83 43.2465Z" fill="#F9DDBF"/>
<path d="M54.3417 44.7401C55.9301 44.4976 57.5816 44.0502 58.8741 43.2462C60.6297 42.1543 62.2601 38.266 63.474 34.5544C63.4932 31.8739 63.4932 29.6611 63.4932 29.6611L60.6187 30.9221C60.5301 31.1086 59.603 40.3106 57.5277 42.1785C55.7648 43.7651 54.6403 44.5411 54.3407 44.7391L54.3417 44.7401Z" fill="#EAC3A2"/>
<path opacity="0.2" d="M18.8077 98.4517H17.4257L17.4257 67.8966H18.8077L18.8077 98.4517Z" fill="#233862"/>
<g opacity="0.2">
<path d="M15.6637 100.719C15.6637 99.2865 16.7616 98.125 18.1163 98.125C19.4709 98.125 20.5688 99.2865 20.5688 100.719C20.5688 102.152 19.4709 103.314 18.1163 103.314C16.7616 103.314 15.6637 102.152 15.6637 100.719Z" fill="#233862"/>
<path d="M18.9584 100.72C18.9584 100.228 18.5812 99.8286 18.1163 99.8286C17.6513 99.8286 17.2741 100.228 17.2741 100.72C17.2741 101.211 17.6513 101.61 18.1163 101.61C18.5812 101.61 18.9584 101.211 18.9584 100.72Z" fill="#F99746"/>
</g>
<path d="M53.0181 49.0017C53.1843 49.0017 53.3433 48.9022 53.4182 48.7321L54.9025 45.3617H59.8249C60.0688 45.3617 60.2661 45.1529 60.2661 44.8949C60.2661 44.6369 60.0688 44.4282 59.8249 44.4282H54.6212C54.4494 44.4282 54.2942 44.5335 54.2211 44.6978L52.618 48.3369C52.5148 48.5707 52.6107 48.848 52.8318 48.9572C52.8921 48.9872 52.9551 49.0007 53.0181 49.0007V49.0017Z" fill="#233862"/>
<g opacity="0.2">
<path d="M34.0581 102.07C34.1604 101.583 28.9558 82.2275 28.362 80.0215L28.1921 80.0727C29.787 85.997 33.9193 101.491 33.8846 102.036L34.0572 102.07H34.0581Z" fill="#2D53A0"/>
<path d="M41.5875 88.0069C41.1272 87.8987 22.8304 93.4046 20.7451 94.0327L20.7935 94.2125C26.3937 92.5253 41.0395 88.1538 41.5546 88.1905L41.5875 88.0079V88.0069Z" fill="#2D53A0"/>
<path d="M39.672 83.9968C39.2071 84.0848 24.3311 96.6272 22.6367 98.0573L22.7463 98.2032C27.2988 94.3622 39.219 84.3563 39.7076 84.1795L39.6711 83.9968H39.672Z" fill="#2D53A0"/>
<path d="M20.3212 89.6012C20.7633 89.4263 39.6044 92.2024 41.751 92.5194L41.7263 92.7039C35.9599 91.8517 20.8829 89.6659 20.3778 89.777L20.3212 89.6002V89.6012Z" fill="#2D53A0"/>
<path d="M35.2538 80.5867C34.8921 80.9075 27.8944 99.6207 27.0979 101.753L27.2623 101.822C29.4024 96.0937 35.0309 81.1365 35.3716 80.7258L35.2547 80.5867H35.2538Z" fill="#2D53A0"/>
<path d="M22.6468 84.2383C23.1126 84.3194 38.1448 96.6513 39.8575 98.0572L39.7497 98.2051C35.1497 94.4288 23.1035 84.591 22.613 84.4219L22.6468 84.2392V84.2383Z" fill="#2D53A0"/>
<path d="M30.7825 92.7742C30.0326 92.4456 29.6764 91.5361 29.9871 90.7428C30.2977 89.9495 31.1574 89.5728 31.9073 89.9014C32.6572 90.23 33.0133 91.1394 32.7027 91.9327C32.3921 92.7261 31.5324 93.1028 30.7825 92.7742Z" fill="#F99746"/>
<path d="M42.8983 91.0913C42.8983 84.3514 37.7155 78.8687 31.3444 78.8687C24.9733 78.8687 19.7905 84.3514 19.7905 91.0913C19.7905 97.8312 24.9733 103.314 31.3444 103.314C37.7155 103.314 42.8983 97.8312 42.8983 91.0913ZM41.6633 91.0913C41.6633 97.1103 37.0341 102.007 31.3444 102.007C25.6547 102.007 21.0254 97.1103 21.0254 91.0913C21.0254 85.0722 25.6547 80.1751 31.3444 80.1751C37.0341 80.1751 41.6633 85.0722 41.6633 91.0913Z" fill="#233862"/>
</g>
<path d="M56.1758 45.5993H59.9583C60.3246 45.5993 60.6251 45.2823 60.6251 44.8939C60.6251 44.5064 60.3255 44.1885 59.9583 44.1885H56.1758C55.8095 44.1885 55.509 44.5064 55.509 44.8939C55.509 45.2814 55.8086 45.5993 56.1758 45.5993Z" fill="#233862"/>
<path d="M22.7802 65.073C22.7802 65.073 20.641 65.3059 20.3761 65.617C20.1112 65.9282 19.1411 67.6279 19.1119 67.9448C19.0827 68.2608 19.1046 68.8444 19.3247 68.7507C19.5448 68.6579 20.4701 67.1022 20.9378 67.079C21.4055 67.0558 22.9044 66.393 22.9044 66.393L22.7784 65.073H22.7802Z" fill="#ED985F"/>
<path d="M25.0207 77.1623L44.9233 77.3788L53.8776 47.7706L35.4684 47.5542L25.0207 77.1623Z" fill="#2B478B"/>
<path d="M31.4458 49.0625C31.4458 49.0625 31.0512 59.9487 30.093 61.0319C29.4737 61.7325 22.781 65.0739 22.781 65.0739L22.8486 66.4084C22.8486 66.4084 31.5535 65.1048 32.8369 63.4621C35.3698 60.2193 35.537 51.3806 35.6603 50.4414C35.7827 49.5021 33.2388 47.6179 31.4467 49.0625H31.4458Z" fill="#ED985F"/>
<path d="M11.8529 95.1198H18.5144C18.5144 95.1198 18.7638 93.996 18.3263 93.2307C17.939 92.5543 18.0879 92.1688 18.3747 91.6083C18.0733 91.7388 17.6823 91.8576 17.253 91.8315C16.9214 91.8112 16.5698 91.6518 16.2629 91.4624C15.9761 91.8083 14.7484 93.28 14.3648 93.5718C13.9291 93.9023 11.9881 93.7844 11.8547 95.1188L11.8529 95.1198Z" fill="#1A3670"/>
<path d="M42.5649 69.3489C42.1219 72.1714 39.7561 74.2026 37.0524 74.1687C33.6983 74.1262 28.7996 74.0557 27.0039 73.9832C23.1976 73.8315 21.7681 73.9938 21.7791 74.1079C21.9499 75.7989 22.0906 75.078 20.3167 74.9456C20.3167 74.9456 14.0451 74.7582 15.9222 70.2195C17.7984 65.6808 35.6156 64.2662 37.1903 64.4633C38.5294 64.6314 43.2527 64.9754 42.5649 69.3489Z" fill="#ED7D2B"/>
<path d="M15.5815 72.0014C15.6619 75.2095 16.1323 84.1013 14.9503 91.2422C14.6507 93.054 17.1078 93.1091 17.1252 93.112C17.5919 93.1699 18.4103 93.2134 18.6835 92.8549C20.5779 90.3677 23.2533 78.8224 22.5262 74.0287C22.1718 71.6912 19.9686 71.7328 18.1902 70.8708C17.095 70.3403 15.5504 70.7278 15.5815 72.0014Z" fill="#ED7D2B"/>
<path d="M48.4053 91.5996H47.0233V67.2143H48.4053V91.5996Z" fill="#233862"/>
<path d="M37.8242 29.5956C35.874 29.0293 33.7814 29.5357 32.2404 30.9204C31.5609 31.5311 30.8091 32.3002 30.1076 33.2201C28.3685 35.5006 31.3234 38.0419 30.8694 38.8227C30.4154 39.6035 29.4308 40.1823 29.755 41.8897C30.0793 43.5971 32.7017 45.9472 33.5905 46.0989C42.595 47.6343 46.8132 42.5903 43.9405 39.558C41.0668 36.5258 42.5274 32.4703 40.1562 30.7155C39.4245 30.1734 38.6061 29.8227 37.8242 29.5956Z" fill="#233862"/>
<path d="M31.1462 48.2779C31.866 48.8731 32.7803 49.3843 33.944 49.7437C38.3056 51.0927 40.2146 47.2439 40.9984 44.5693C40.4156 44.1673 39.8529 44.0523 39.5268 43.9914C39.2099 43.9325 38.8746 43.8851 38.5979 43.8532C38.1229 43.4213 37.4735 41.7293 37.4488 39.1638L37.2378 39.2102L33.6992 40.0074C33.6992 40.0074 33.7951 41.1892 33.8134 42.3004C33.8271 43.171 33.7915 43.9991 33.6252 44.1924C33.3813 44.2649 33.163 44.3441 33.163 44.3441C33.11 44.4272 33.1073 44.3895 33.1247 44.3625C33.0735 44.4407 32.0249 46.0486 31.1471 48.2779H31.1462Z" fill="#FFB27D"/>
<path d="M33.6983 40.0074C33.6983 40.0074 33.7951 41.1882 33.8125 42.3004C35.7973 42.2115 36.8222 40.2789 37.2378 39.2102L33.6983 40.0064V40.0074Z" fill="#ED985F"/>
<path d="M33.0497 41.0711C33.0497 41.0711 37.7493 41.0827 37.7118 37.9867C37.6735 34.8907 38.2544 32.8064 35.252 32.6682C32.2496 32.5301 31.6814 33.7196 31.4567 34.7564C31.232 35.7932 31.8267 40.989 33.0506 41.0721L33.0497 41.0711Z" fill="#FFB27D"/>
<path d="M31.5718 33.0326C32.2861 32.0905 32.8369 32.2866 33.1484 32.562C35.6969 31.0295 37.3812 33.2133 37.3812 33.2133C37.7256 35.43 39.2565 36.6803 39.2565 36.6803C39.2565 36.6803 38.3878 37.3326 36.4258 36.7451C33.9157 35.9943 33.1694 33.6085 33.0699 33.2432C32.7867 33.5196 32.4314 33.6858 32.1318 34.3052C31.7765 35.0415 31.5545 35.4676 31.4814 36.7074C31.4814 36.7074 30.4995 34.4453 31.57 33.0326H31.5718Z" fill="#233862"/>
<path d="M26.4092 96.4426H9.7045V95.0096H26.4092V96.4426Z" fill="#233862"/>
<path d="M44.6109 69.3489C44.1679 72.1714 41.8022 74.2026 39.0984 74.1687C35.7443 74.1262 30.8457 74.0557 29.0499 73.9832C25.2436 73.8315 23.8141 73.9938 23.8251 74.1079C23.9959 75.7989 24.1366 75.078 22.3627 74.9456C22.3627 74.9456 16.0911 74.7582 17.9682 70.2195C19.8444 65.6808 37.6616 64.2662 39.2363 64.4633C40.5754 64.6314 45.2987 64.9754 44.6109 69.3489Z" fill="#F99746"/>
<path d="M44.631 59.9255C44.3113 57.6151 45.0886 48.8663 43.3614 46.1327C42.1118 44.1556 40.3791 43.3749 38.2416 43.3381C37.5529 43.7507 34.9314 45.3103 33.9038 45.033C33.8928 45.0301 33.8727 45.0233 33.8463 45.0147C33.364 44.8552 33.1995 44.4803 33.6243 44.1923C33.6243 44.1923 31.8723 44.5924 31.3279 45.2456C30.8055 45.8737 30.8292 47.2207 30.6621 48.8083C30.621 49.2016 30.6146 49.5978 30.5689 49.9901C30.3625 51.7758 30.9078 51.9691 32.7675 57.1223C33.6764 59.6424 33.2507 61.6532 32.6433 62.9925C32.0989 64.1946 32.4798 65.6353 33.5448 66.3484C37.2168 68.8076 44.3588 73.0864 44.61 69.3468C44.8649 65.5512 45.0713 63.1162 44.6301 59.9236L44.631 59.9255Z" fill="#F9DDBF"/>
<path d="M38.3988 48.7252C38.3988 48.7252 36.634 61.3932 35.4585 62.4658C34.6985 63.1596 27.1454 64.4458 27.1454 64.4458L27.0212 65.6778C27.0212 65.6778 37.7959 66.5146 38.4125 65.5628C40.9006 61.7218 42.6416 51.7864 42.8818 50.7679C43.1212 49.7494 40.5316 47.3579 38.3978 48.7252H38.3988Z" fill="#FFB27D"/>
<path d="M13.8999 95.0241H20.5614C20.5614 95.0241 20.8108 93.9003 20.3733 93.135C19.986 92.4586 20.1349 92.0731 20.4208 91.5126C20.1193 91.6431 19.7284 91.7619 19.2991 91.7358C18.9675 91.7155 18.6158 91.5561 18.3089 91.3677C18.0221 91.7136 16.7945 93.1853 16.4109 93.4771C15.9752 93.8076 14.0341 93.6897 13.9008 95.0241H13.8999Z" fill="#2B478B"/>
<path d="M17.6276 72.0014C17.7079 75.2095 18.1783 84.1013 16.9964 91.2422C16.6968 93.054 19.1539 93.1091 19.1712 93.112C19.638 93.1699 20.4564 93.2134 20.7295 92.8549C22.624 90.3677 25.2994 78.8224 24.5723 74.0287C24.2179 71.6912 22.0147 71.7328 20.2363 70.8708C19.1411 70.3403 17.5965 70.7278 17.6285 72.0014H17.6276Z" fill="#F99746"/>
<path d="M32.2688 39.2449C32.2688 39.2449 32.7219 39.0865 33.9623 39.2691C33.9623 39.2691 33.8682 39.7793 32.9466 39.7745C32.4241 39.7716 32.2688 39.2449 32.2688 39.2449Z" fill="white"/>
<path d="M36.7236 52.5236C36.7236 52.5236 39.9169 55.4515 43.6299 54.4523C43.6299 54.4523 44.9681 44.9991 40.3197 44.8696C40.3197 44.8696 36.4678 46.4843 36.7236 52.5246V52.5236Z" fill="#F9DDBF"/>
<path d="M47.0233 77.3062H24.6947V75.446H47.0233V77.3062Z" fill="#233862"/>
<path d="M26.4101 96.4425L24.813 95.467L35.7398 75.4458L37.3369 76.4213L26.4101 96.4425Z" fill="#233862"/>
<path d="M47.0233 75.4463C46.6159 75.4463 45.0649 73.9002 42.6324 73.9833C40.2 74.0664 26.6256 73.9804 26.6256 73.9804C26.6256 73.9804 24.8536 73.7833 24.6883 75.4463H47.0242H47.0233Z" fill="#2D53A0"/>
<path d="M26.6257 98.4517H25.2437L25.2437 67.8966H26.6257L26.6257 98.4517Z" fill="#233862"/>
<path d="M27.1463 64.4458C27.1463 64.4458 24.7577 64.5907 24.4928 64.9019C24.2279 65.213 23.2579 66.9127 23.2286 67.2297C23.1994 67.5457 23.2213 68.1293 23.4415 68.0356C23.6616 67.9418 24.5768 66.2624 25.0454 66.2392C25.514 66.216 27.0221 65.6778 27.0221 65.6778L27.1463 64.4458Z" fill="#FFB27D"/>
<path d="M49.2731 68.7604H23.225C23.225 67.0694 24.5212 65.6982 26.1206 65.6982H47.5485C48.5012 65.6982 49.2731 66.5148 49.2731 67.5226V68.7604Z" fill="#233862"/>
<path d="M50.4276 102.07C50.5299 101.583 45.3252 82.2275 44.7315 80.0215L44.5616 80.0727C46.1564 85.997 50.2888 101.491 50.254 102.036L50.4267 102.07H50.4276Z" fill="#2D53A0"/>
<path d="M57.9579 88.0069C57.4975 87.8987 39.2008 93.4046 37.1154 94.0327L37.1638 94.2125C42.764 92.5253 57.4098 88.1538 57.925 88.1905L57.9579 88.0079V88.0069Z" fill="#2D53A0"/>
<path d="M56.0424 83.9968C55.5775 84.0848 40.7024 96.6272 39.0071 98.0573L39.1167 98.2032C43.6683 94.3622 55.5893 84.3563 56.078 84.1795L56.0415 83.9968H56.0424Z" fill="#2D53A0"/>
<path d="M36.6915 89.6012C37.1336 89.4263 55.9739 92.2024 58.1213 92.5194L58.0967 92.7039C52.3303 91.8517 37.2533 89.6659 36.7482 89.777L36.6915 89.6002V89.6012Z" fill="#2D53A0"/>
<path d="M51.6242 80.5869C51.2625 80.9077 44.2648 99.6209 43.4683 101.754L43.6327 101.822C45.7728 96.094 51.4014 81.1367 51.7421 80.7261L51.6251 80.5869H51.6242Z" fill="#2D53A0"/>
<path d="M39.0171 84.2383C39.483 84.3194 54.5152 96.6513 56.2278 98.0572L56.1201 98.2051C51.5201 94.4288 39.4739 84.591 38.9834 84.4219L39.0171 84.2392V84.2383Z" fill="#2D53A0"/>
<path d="M49.1844 91.3377C49.1844 90.4787 48.5259 89.783 47.7148 89.783C46.9036 89.783 46.2451 90.4797 46.2451 91.3377C46.2451 92.1958 46.9036 92.8925 47.7148 92.8925C48.5259 92.8925 49.1844 92.1968 49.1844 91.3377Z" fill="#F99746"/>
<path d="M59.2687 91.0913C59.2687 84.3514 54.0859 78.8687 47.7148 78.8687C41.3437 78.8687 36.1609 84.3514 36.1609 91.0913C36.1609 97.8312 41.3437 103.314 47.7148 103.314C54.0859 103.314 59.2687 97.8312 59.2687 91.0913ZM58.0337 91.0913C58.0337 97.1103 53.4045 102.007 47.7148 102.007C42.0251 102.007 37.3959 97.1103 37.3959 91.0913C37.3959 85.0722 42.0251 80.1751 47.7148 80.1751C53.4045 80.1751 58.0337 85.0722 58.0337 91.0913Z" fill="#233862"/>
<path d="M23.4826 100.719C23.4826 99.2865 24.5805 98.125 25.9351 98.125C27.2898 98.125 28.3877 99.2865 28.3877 100.719C28.3877 102.152 27.2898 103.314 25.9351 103.314C24.5805 103.314 23.4826 102.152 23.4826 100.719Z" fill="#233862"/>
<path d="M26.7773 100.72C26.7773 100.228 26.4 99.8286 25.9351 99.8286C25.4702 99.8286 25.0929 100.228 25.0929 100.72C25.0929 101.211 25.4702 101.61 25.9351 101.61C26.4 101.61 26.7773 101.211 26.7773 100.72Z" fill="#F99746"/>
<path d="M72.5215 28.5635C72.8521 27.889 65.3082 25.4598 65.1885 32.1175C65.1885 32.1175 51.057 31.7503 57.8044 23.417C60.14 20.5326 59.8998 18.1469 59.8304 15.9273C59.7591 13.7068 61.2855 7.2529 66.5166 7.90322C66.5166 7.90322 67.8868 7.31378 69.5958 8.25205C73.4833 10.3856 82.1928 31.0198 72.5224 28.5645L72.5215 28.5635Z" fill="#163560"/>
<path d="M82.0822 95.7479C82.0822 95.7479 83.6661 97.2766 83.3565 98.3627C83.0477 99.4488 81.6182 100.174 81.4255 101.5C81.2328 102.828 80.46 103.552 79.7649 103.552H76.4501C76.4501 103.552 75.9386 102.617 77.1744 102.336C78.4103 102.055 78.8761 100.494 78.7994 99.0459C78.7218 97.5974 78.9154 95.6667 78.9154 95.6667L81.5415 95.0232L82.0822 95.7469V95.7479Z" fill="#233862"/>
<path d="M68.6796 96.3962C68.6796 96.3962 69.2478 102.952 68.5526 103.314H59.5783C59.5783 103.314 59.6568 102.129 61.0854 101.889C62.5149 101.647 65.025 100.762 65.4497 98.7907C65.8745 96.8195 68.6787 96.3972 68.6787 96.3972L68.6796 96.3962Z" fill="#233862"/>
<path d="M75.0197 49.9321C73.1892 45.5886 72.0684 44.3421 72.2821 42.9931C72.4411 41.9901 71.7971 24.2848 71.7971 24.2848C71.5797 24.2133 71.1449 24.1495 70.9065 24.0934C70.1557 23.9166 69.5336 23.3591 69.2751 22.5928C68.9637 21.67 68.7161 20.3065 68.7216 18.5981L68.4869 18.6474L64.5436 19.4736C64.5436 19.4736 64.6331 20.7868 64.6359 22.0236C64.6359 22.0343 64.6359 22.0439 64.6359 22.0546C64.6404 23.1291 63.9746 24.077 62.999 24.3746C62.5012 24.5263 62.0673 24.6568 62.0673 24.6568C62.0673 24.6568 60.6196 29.0302 60.3428 33.5235C60.066 38.0167 62.9762 39.9686 60.3209 48.9465C57.6098 58.1166 76.0308 52.3333 75.0187 49.934L75.0197 49.9321Z" fill="#FFB27D"/>
<path d="M64.5436 19.4736C64.5436 19.4736 64.6332 20.7868 64.6359 22.0237C66.8427 21.958 68.0092 19.8283 68.4869 18.6475L64.5436 19.4736Z" fill="#E8945B"/>
<path d="M63.8065 20.6449C63.8065 20.6449 69.0276 20.7358 69.0313 17.2958C69.0349 13.8548 69.7109 11.5502 66.3778 11.3463C63.0447 11.1424 62.3953 12.4546 62.1304 13.6026C61.8655 14.7505 62.4492 20.5328 63.8065 20.6449Z" fill="#FFB27D"/>
<path d="M64.0002 11.2612C64.0002 11.2612 65.4297 15.2974 67.6237 15.8945C69.8177 16.4917 70.7695 15.8694 70.7695 15.8694C70.7695 15.8694 69.087 14.4548 68.7372 11.9869C68.7372 11.9869 65.0789 9.34019 64.0002 11.2612Z" fill="#163560"/>
<path d="M64.3546 11.5898C64.3546 11.5898 63.295 12.0091 62.8584 12.8266C62.4319 13.6267 62.0683 14.6858 62.1524 15.9854C62.1524 15.9854 61.0754 13.2421 62.2857 11.6903C63.5691 10.0447 64.3546 11.5898 64.3546 11.5898Z" fill="#163560"/>
<path d="M64.9428 18.5102C64.9428 18.5102 64.5829 19.0117 63.8613 18.976C63.2804 18.947 63.0566 18.4146 63.0566 18.4146C63.0566 18.4146 64.1235 18.143 64.9419 18.5112L64.9428 18.5102Z" fill="#EBF3FA"/>
<path d="M61.0845 42.1883L66.2645 43.8252L67.9068 43.3991L72.5781 42.1883C72.5781 42.1883 73.1819 41.9758 73.7171 40.6684C73.8185 40.422 74.0012 39.6683 74.1921 38.7773C74.4031 37.7879 74.6223 36.6293 74.7456 35.8108C74.9265 34.6059 75.29 33.1052 75.6061 31.4886C75.8381 30.3049 76.0445 29.0603 76.1377 27.8225C76.2628 26.1489 75.1092 24.6714 73.5308 24.4869L71.7971 24.2839C66.2937 29.0333 62.0664 24.656 62.0664 24.656C62.0664 24.656 60.6196 27.379 59.6714 31.3002C58.7242 35.2204 61.0836 42.1874 61.0836 42.1874L61.0845 42.1883Z" fill="#F9DDBF"/>
<path d="M61.4143 43.2454C61.4143 43.2454 58.8494 51.6917 58.6841 54.5674C58.5197 57.4431 63.5873 95.4193 63.791 96.745C63.9828 97.9945 65.4498 98.7907 65.4498 98.7907C65.4498 98.7907 66.1239 99.211 67.0866 98.924C68.4221 98.5249 68.8441 98.0476 68.8441 98.0476C68.8441 98.0476 70.8408 70.9634 69.6049 61.288C68.3691 51.6125 68.3545 43.2463 68.3545 43.2463H61.4143V43.2454Z" fill="#ED7D2B"/>
<path d="M72.2821 42.9941C72.2821 42.9941 76.1952 48.5484 76.5597 52.3024C76.9242 56.0565 77.1324 69.2444 77.9088 72.9047C78.6861 76.565 81.5415 83.6083 81.5415 95.0241C81.5415 95.0241 81.2446 95.6783 80.3285 96.0271C80.0353 96.1382 79.6425 96.2465 79.2616 96.3392C78.5062 96.5228 77.7307 96.1315 77.3854 95.3971C75.4554 91.2855 69.3062 78.0241 68.9911 75.2712C68.7682 73.3231 66.8263 60.4299 62.5916 52.8648C61.575 51.0482 63.2155 43.8261 63.2155 43.8261L72.2831 42.9951L72.2821 42.9941Z" fill="#F99746"/>
<path d="M64.8268 18.6021C64.8268 18.6021 64.7364 19.0079 63.7827 18.9451C63.7827 18.9451 62.9826 18.8929 63.0063 18.4475C63.0063 18.4475 63.7827 18.1305 64.8259 18.6021H64.8268Z" fill="white"/>
<path d="M61.0042 41.9419C61.0042 41.9419 62.0336 42.8038 64.0797 42.8473C66.5231 42.8995 72.5782 42.1883 72.5782 42.1883C72.5782 42.1883 72.8476 42.9836 72.8366 43.8233C72.8366 43.8233 65.4416 45.7964 61.1567 44.1112C61.1567 44.1112 60.6041 43.0116 61.0042 41.9419Z" fill="#233862"/>
<path d="M64.6085 43.7402C64.6085 43.0039 64.108 42.4048 63.4932 42.4048C62.8785 42.4048 62.3779 43.0039 62.3779 43.7402C62.3779 44.4765 62.8785 45.0756 63.4932 45.0756C64.108 45.0756 64.6085 44.4765 64.6085 43.7402ZM64.2386 43.7402C64.2386 44.261 63.9043 44.6843 63.4932 44.6843C63.0822 44.6843 62.7479 44.261 62.7479 43.7402C62.7479 43.2194 63.0822 42.7961 63.4932 42.7961C63.9043 42.7961 64.2386 43.2194 64.2386 43.7402Z" fill="white"/>
<path d="M69.7931 41.942C71.7916 40.8598 73.2056 39.793 74.1921 38.7784C74.4031 37.7889 74.6223 36.6303 74.7456 35.8118C74.9265 34.6069 75.5558 31.6259 75.8719 30.0083L67.5534 42.6851C67.5534 42.6851 67.1788 43.3566 69.7931 41.942Z" fill="#EAC3A2"/>
<path d="M66.8482 33.4946C66.8482 33.4946 63.1488 39.7079 62.0765 40.8249C61.005 41.9419 66.4518 39.9379 66.4518 39.9379L66.8482 33.4946Z" fill="#EAC3A2"/>
<path d="M58.4338 43.4638C58.3105 43.5633 56.1155 43.2686 55.4094 43.7402C54.7034 44.2117 54.0247 45.5191 54.3417 45.9868C54.6586 46.4535 56.1603 45.0514 56.6015 45.0756C57.0426 45.0997 58.3105 44.6842 58.3105 44.6842L58.4338 43.4638Z" fill="#FFB27D"/>
<path d="M75.8728 30.0081C75.8728 30.0081 71.9716 40.9958 68.3553 43.2463C64.7391 45.4968 58.3114 44.9518 58.3114 44.9518C58.3114 44.9518 58.125 44.6503 58.0739 44.0087C58.0483 43.6918 58.3114 43.2453 58.3114 43.2453C58.3114 43.2453 64.8469 38.6187 65.1364 37.8351C66.4527 34.2704 68.3599 29.7076 69.1546 29.1008C69.9493 28.4939 74.9813 27.719 75.8737 30.0072L75.8728 30.0081Z" fill="#F9DDBF"/>
</g>
<defs>
<clipPath id="clip0_2019_9968">
<rect width="103.239" height="104" fill="white" transform="matrix(-1 0 0 1 104.134 0)"/>
</clipPath>
</defs>
</svg>
