<svg width="66" height="120" viewBox="0 0 66 120" fill="none" xmlns="http://www.w3.org/2000/svg">
<g clip-path="url(#clip0_2019_7093)">
<path opacity="0.8" d="M41.2166 35.1009L50.5639 40.6019C51.3514 41.0653 51.6358 42.1199 51.1982 42.9539L22.748 97.1777L10.5455 89.9964L38.9943 35.7755C39.4318 34.9415 40.4276 34.6403 41.2151 35.1037L41.2166 35.1009Z" fill="#F6F6F6"/>
<path d="M22.6128 100.276L8.12283 91.7483C7.28021 91.2518 6.97687 90.1258 7.44567 89.2334C7.91447 88.341 8.9777 88.0197 9.82032 88.5162L24.3103 97.0443C25.1529 97.5408 25.4563 98.6668 24.9875 99.5592C24.5187 100.452 23.4554 100.773 22.6128 100.276Z" fill="#F6F6F6"/>
<path d="M48.1763 39.2007L43.6017 36.5073L47.8393 28.4303L50.073 26.7007C50.6031 26.2918 51.3109 26.2431 51.8839 26.5806C52.4844 26.9343 52.8215 27.6353 52.7357 28.3557L52.4139 31.1205L48.1763 39.1975V39.2007Z" fill="#2F4260"/>
<path d="M48.9832 38.6121L43.6453 35.4707L43.2211 36.2791L48.559 39.4205L48.9832 38.6121Z" fill="#2F4260"/>
<g style="mix-blend-mode:multiply" opacity="0.42">
<path d="M48.5992 38.3927L52.4139 31.1204L52.8736 27.1647L52.1106 26.7136L51.651 30.6726L47.8362 37.9416L48.2192 38.1655L47.7933 38.9736L48.1763 39.2007L48.5563 39.4246L48.9791 38.6166L48.5992 38.3927Z" fill="#2F4260"/>
</g>
<path d="M46.9262 36.3482L46.5432 36.1243L64.7713 1.39214L66 0L46.9262 36.3482Z" fill="#2F4260"/>
<path d="M48.1267 45.0005L34.7797 70.4388L25.6278 65.0529L38.9748 39.6145C39.7964 38.0488 41.6615 37.487 43.1373 38.3554L46.9379 40.5921C48.4163 41.4622 48.9468 43.4375 48.1267 45.0005Z" fill="#94CDBA"/>
<g style="mix-blend-mode:multiply" opacity="0.4">
<path d="M42.8755 46.6513C42.1738 47.9883 40.5805 48.4718 39.3151 47.7286C38.0527 46.9855 37.5961 45.2981 38.2978 43.9579C38.9995 42.6176 40.5928 42.1374 41.8582 42.8805C43.1206 43.6236 43.5772 45.3111 42.8755 46.6513Z" fill="#94CDBA"/>
</g>
<g style="mix-blend-mode:multiply" opacity="0.4">
<path d="M37.9577 61.7314C37.4889 62.6238 36.4256 62.945 35.583 62.4485C34.7404 61.952 34.437 60.826 34.9058 59.9336C35.3746 59.0412 36.4379 58.7199 37.2805 59.2164C38.1231 59.7129 38.4265 60.839 37.9577 61.7314Z" fill="#94CDBA"/>
</g>
<g style="mix-blend-mode:multiply" opacity="0.4">
<path d="M42.2811 51.5872C42.0482 52.0318 41.5151 52.1941 41.0953 51.9474C40.6755 51.7008 40.5223 51.1362 40.7552 50.6916C40.988 50.247 41.5212 50.0847 41.941 50.3314C42.3608 50.578 42.514 51.1426 42.2811 51.5872Z" fill="#94CDBA"/>
</g>
<g style="mix-blend-mode:multiply" opacity="0.4">
<path d="M37.3449 52.9404C37.8075 53.08 38.0803 53.5894 37.9485 54.0794C37.8167 54.5694 37.3357 54.8583 36.873 54.7187C36.4103 54.5792 36.1376 54.0697 36.2694 53.5797C36.4011 53.0897 36.8822 52.8009 37.3449 52.9404Z" fill="#94CDBA"/>
</g>
<g style="mix-blend-mode:multiply" opacity="0.4">
<path d="M33.3585 65.3853C33.6159 65.4632 33.766 65.7455 33.6925 66.0181C33.6189 66.2906 33.3524 66.4497 33.095 66.3718C32.8376 66.2939 32.6875 66.0116 32.761 65.739C32.8345 65.4664 33.1011 65.3074 33.3585 65.3853Z" fill="#94CDBA"/>
</g>
<g style="mix-blend-mode:multiply" opacity="0.4">
<path d="M31.7683 64.4311C31.5078 64.9276 30.9164 65.1061 30.4507 64.8302C29.9819 64.5544 29.8134 63.9281 30.0738 63.4349C30.3343 62.9384 30.9256 62.7599 31.3914 63.0357C31.8602 63.3115 32.0287 63.9378 31.7683 64.4311Z" fill="#94CDBA"/>
</g>
<path d="M25.6278 65.0401L23.5084 69.0793L32.6603 74.4653L34.7796 70.426L25.6278 65.0401Z" fill="#2F4260"/>
<path opacity="0.99" d="M29.9961 72.9023L26.1822 70.6577L2.87103 115.087L6.68498 117.331L29.9961 72.9023Z" fill="#F6F6F6"/>
<path d="M8.48136 118.388L0.853455 113.899L0.00512933 115.516L7.63303 120.005L8.48136 118.388Z" fill="#F6F6F6"/>
<g style="mix-blend-mode:multiply" opacity="0.15">
<path d="M29.993 72.9011L28.1503 71.8167L4.8391 116.246L6.6818 117.33L29.993 72.9011Z" fill="#CCCCCC"/>
</g>
<g style="mix-blend-mode:multiply" opacity="0.42">
<path d="M49.7972 40.1547L46.4482 38.1816C47.2356 38.6457 47.5206 39.7003 47.0824 40.5343L18.6295 94.7565L21.9785 96.7295L50.4315 42.5073C50.8696 41.6734 50.5847 40.6187 49.7972 40.1547Z" fill="#CCCCCC"/>
</g>
<g style="mix-blend-mode:screen" opacity="0.63">
<path d="M43.2983 36.3287L44.3616 36.955C43.5741 36.491 42.5783 36.7928 42.1401 37.6268L13.6872 91.8489L12.624 91.2226L41.0769 37.0005C41.5151 36.1665 42.5109 35.8647 43.2983 36.3287Z" fill="#F6F6F6"/>
</g>
<path opacity="0.99" d="M38.1293 38.571L41.944 40.8166" stroke="#F6F6F6" stroke-width="0.63" stroke-miterlimit="10" stroke-linecap="round"/>
<path opacity="0.99" d="M37.112 40.5117L40.1638 42.3063" stroke="#F6F6F6" stroke-width="0.63" stroke-miterlimit="10" stroke-linecap="round"/>
<path opacity="0.99" d="M36.0947 42.449L39.1465 44.2468" stroke="#F6F6F6" stroke-width="0.63" stroke-miterlimit="10" stroke-linecap="round"/>
<path opacity="0.99" d="M35.0775 44.3894L38.1293 46.1839" stroke="#F6F6F6" stroke-width="0.63" stroke-miterlimit="10" stroke-linecap="round"/>
<path opacity="0.99" d="M34.0602 46.3269L37.8749 48.5725" stroke="#F6F6F6" stroke-width="0.63" stroke-miterlimit="10" stroke-linecap="round"/>
<path opacity="0.99" d="M33.0429 48.2642L36.0947 50.0619" stroke="#F6F6F6" stroke-width="0.63" stroke-miterlimit="10" stroke-linecap="round"/>
<path opacity="0.99" d="M32.0256 50.2048L35.0774 51.9994" stroke="#F6F6F6" stroke-width="0.63" stroke-miterlimit="10" stroke-linecap="round"/>
<path opacity="0.99" d="M31.0084 52.1421L34.0602 53.9399" stroke="#F6F6F6" stroke-width="0.63" stroke-miterlimit="10" stroke-linecap="round"/>
<path opacity="0.99" d="M29.9911 54.0825L33.0429 55.8771" stroke="#F6F6F6" stroke-width="0.63" stroke-miterlimit="10" stroke-linecap="round"/>
<path opacity="0.99" d="M28.9738 56.02L32.7855 58.2656" stroke="#F6F6F6" stroke-width="0.63" stroke-miterlimit="10" stroke-linecap="round"/>
<path opacity="0.99" d="M27.9565 57.9573L31.0084 59.7551" stroke="#F6F6F6" stroke-width="0.63" stroke-miterlimit="10" stroke-linecap="round"/>
<path opacity="0.99" d="M26.9393 59.8977L29.988 61.6922" stroke="#F6F6F6" stroke-width="0.63" stroke-miterlimit="10" stroke-linecap="round"/>
<path opacity="0.99" d="M25.922 61.8352L28.9707 63.633" stroke="#F6F6F6" stroke-width="0.63" stroke-miterlimit="10" stroke-linecap="round"/>
<path opacity="0.99" d="M24.9047 63.7756L28.7164 66.018" stroke="#F6F6F6" stroke-width="0.63" stroke-miterlimit="10" stroke-linecap="round"/>
<path opacity="0.99" d="M23.8875 65.7129L26.9362 67.5074" stroke="#F6F6F6" stroke-width="0.63" stroke-miterlimit="10" stroke-linecap="round"/>
<path opacity="0.99" d="M22.8702 67.6504L25.9189 69.4482" stroke="#F6F6F6" stroke-width="0.63" stroke-miterlimit="10" stroke-linecap="round"/>
<path opacity="0.99" d="M21.8529 69.5908L24.9017 71.3854" stroke="#F6F6F6" stroke-width="0.63" stroke-miterlimit="10" stroke-linecap="round"/>
<path opacity="0.99" d="M20.8356 71.5281L24.6473 73.7737" stroke="#F6F6F6" stroke-width="0.63" stroke-miterlimit="10" stroke-linecap="round"/>
<path opacity="0.99" d="M19.8184 73.4688L22.8671 75.2633" stroke="#F6F6F6" stroke-width="0.63" stroke-miterlimit="10" stroke-linecap="round"/>
<path opacity="0.99" d="M18.8011 75.406L21.8498 77.2005" stroke="#F6F6F6" stroke-width="0.63" stroke-miterlimit="10" stroke-linecap="round"/>
<path opacity="0.99" d="M17.7839 77.3433L20.8326 79.141" stroke="#F6F6F6" stroke-width="0.63" stroke-miterlimit="10" stroke-linecap="round"/>
<path opacity="0.99" d="M16.7666 79.2839L20.5783 81.5263" stroke="#F6F6F6" stroke-width="0.63" stroke-miterlimit="10" stroke-linecap="round"/>
<path opacity="0.99" d="M15.7493 81.2212L18.7981 83.019" stroke="#F6F6F6" stroke-width="0.63" stroke-miterlimit="10" stroke-linecap="round"/>
<path opacity="0.99" d="M14.7321 83.1619L17.7808 84.9564" stroke="#F6F6F6" stroke-width="0.63" stroke-miterlimit="10" stroke-linecap="round"/>
<path opacity="0.99" d="M13.7148 85.0991L16.7635 86.8937" stroke="#F6F6F6" stroke-width="0.63" stroke-miterlimit="10" stroke-linecap="round"/>
<path opacity="0.99" d="M12.6975 87.0364L16.5092 89.282" stroke="#F6F6F6" stroke-width="0.63" stroke-miterlimit="10" stroke-linecap="round"/>
</g>
<defs>
<clipPath id="clip0_2019_7093">
<rect width="66" height="120" fill="white"/>
</clipPath>
</defs>
</svg>
