<svg width="99" height="120" viewBox="0 0 99 120" fill="none" xmlns="http://www.w3.org/2000/svg">
<g clip-path="url(#clip0_2019_9276)">
<path d="M43.3168 0.272792C40.9398 -0.651666 38.9132 0.944521 37.3494 2.64712C36.605 3.46517 35.8669 4.32977 34.8035 4.64235C33.3899 5.0547 32.0575 3.62478 30.8503 3.08607C27.9917 1.80912 24.7953 2.75353 22.7374 5.12786C20.6982 7.48889 20.6857 10.5615 21.8492 13.3549C22.5435 15.0176 24.0635 16.0617 25.5272 16.8598C27.0222 17.6712 29.1927 18.2831 29.8745 19.979C29.8495 20.0057 29.8245 20.0323 29.7994 20.0589C29.3491 20.5577 29.7744 21.2693 30.3249 21.2227C30.5688 21.3558 30.9066 21.256 30.9566 20.9102C31.9512 20.2318 32.6455 19.1943 33.59 18.4228C34.5846 17.618 35.7293 17.0195 36.8552 16.4608C39.0383 15.3834 41.3339 14.5121 43.2542 12.9359C45.1683 11.3663 46.338 9.14493 46.5632 6.58438C46.8009 3.88416 45.8126 1.24381 43.3043 0.266141L43.3168 0.272792Z" fill="#EEF0F5"/>
<path d="M14.2992 98.7708H9.92065V113.402H14.2992V98.7708Z" fill="#807553"/>
<path d="M21.918 85.0502C21.918 103.513 17.014 103.499 10.959 103.499C4.90402 103.499 0 103.513 0 85.0502C0 66.5876 4.90402 36.6392 10.959 36.6392C17.014 36.6392 21.918 66.5876 21.918 85.0502Z" fill="#6E8048"/>
<path d="M85.5515 111.407H15.7254L16.107 105.096L18.2337 69.7468L19.147 54.6229C19.147 54.6229 80.1971 50.4396 80.1971 51.8296C80.1971 52.2818 80.9101 60.3758 81.8171 70.4185C82.8805 82.2702 84.2191 96.862 84.9697 105.096C85.3263 109.013 85.5515 111.407 85.5515 111.407Z" fill="#BBA93F"/>
<path d="M81.8171 70.3653L18.2337 69.7335L19.147 54.6163C19.147 54.6163 80.1971 50.4329 80.1971 51.8296C80.1971 52.2818 80.9101 60.3226 81.8171 70.3653Z" fill="#8F8232"/>
<path d="M44.3239 77.4883H24.933V97.4406H44.3239V77.4883Z" fill="white"/>
<path d="M43.0728 78.8184H26.184V96.1104H43.0728V78.8184Z" fill="#A5CAC6"/>
<path d="M43.0728 78.8184V88.4221L36.1421 96.1104H26.184V89.3066C29.3115 86.2539 33.1084 82.1437 36.0733 78.8184H43.0728Z" fill="#D2E1E0"/>
<path d="M71.221 77.4883H51.2045V97.4406H71.221V77.4883Z" fill="white"/>
<path d="M69.3444 78.8184H53.0811V96.1104H69.3444V78.8184Z" fill="#A5CAC6"/>
<path d="M69.3444 78.8184V88.4221L62.495 96.1104H53.0811V89.3066C55.5831 86.2539 59.4613 82.1437 62.4262 78.8184H69.3444Z" fill="#D2E1E0"/>
<path d="M93.6706 64.8518H8.08789L13.1358 47.1408L15.888 37.4905L80.8539 33.6863L86.3897 47.1674L93.6706 64.8518Z" fill="#324165"/>
<path d="M86.3897 46.8946H13.1358L15.8881 37.364L80.8539 33.6196L86.3897 46.8946Z" fill="#3F5483"/>
<path d="M36.7864 24.9871H25.8275V44.9593H36.7864V24.9871Z" fill="#BBA93F"/>
<path d="M36.8177 24.947H25.5585V28.2724H36.8177V24.947Z" fill="#8F8232"/>
<path d="M39.3198 18.9614H23.6819V26.2773H39.3198V18.9614Z" fill="#324165"/>
<path d="M85.5515 111.407H15.7254L16.107 105.421H84.9635C85.32 108.747 85.5452 111.407 85.5452 111.407H85.5515Z" fill="#CDD4DA"/>
<path d="M99 120V118.61C99 114.014 95.4971 110.29 91.1749 110.29H12.9106C8.58832 110.29 5.08545 114.014 5.08545 118.61V120H99.0063H99Z" fill="#9EAD55"/>
<path d="M38.0687 106.752H34.9412V114.068H38.0687V106.752Z" fill="#8B594A"/>
<path d="M45.137 100.034C45.137 104.863 41.459 108.773 36.9178 108.773C32.3766 108.773 28.6985 104.863 28.6985 100.034C28.6985 95.2058 32.3766 91.2952 36.9178 91.2952C41.459 91.2952 45.137 95.2058 45.137 100.034Z" fill="#A2B358"/>
<path d="M56.2087 106.752H53.7066V114.068H56.2087V106.752Z" fill="#8B594A"/>
<path d="M63.1393 100.034C63.1393 104.863 59.4613 108.773 54.9201 108.773C50.3788 108.773 46.7008 104.863 46.7008 100.034C46.7008 95.2058 50.3788 91.2952 54.9201 91.2952C59.4613 91.2952 63.1393 95.2058 63.1393 100.034Z" fill="#A2B358"/>
</g>
<defs>
<clipPath id="clip0_2019_9276">
<rect width="99" height="120" fill="white"/>
</clipPath>
</defs>
</svg>
