<svg width="512" height="512" viewBox="0 0 512 512" fill="none" xmlns="http://www.w3.org/2000/svg">
<rect width="512" height="512" fill="#54A1EE"/>
<path fill-rule="evenodd" clip-rule="evenodd" d="M173.293 151.242H199.427V193.667C193.422 200.444 185.961 205.775 177.603 209.26C169.245 212.745 160.207 214.294 151.166 213.79C142.573 213.733 134.083 211.918 126.218 208.458C118.352 204.997 111.278 199.963 105.431 193.667C95.2045 181.929 89.7085 166.807 90.0119 151.242C89.9485 143.29 91.4548 135.402 94.4445 128.033C97.4342 120.663 101.849 113.956 107.435 108.295C113.083 102.462 119.854 97.8337 127.341 94.6895C134.827 91.5454 142.872 89.9505 150.992 90.0012C168.852 90.1129 186.064 96.7066 199.427 108.556L182.004 128.418C178.408 123.986 173.847 120.433 168.668 118.033C163.49 115.632 157.831 114.447 152.124 114.567C142.951 114.744 134.217 118.532 127.819 125.108C124.221 128.449 121.344 132.491 119.366 136.986C117.389 141.48 116.352 146.332 116.32 151.242C116.217 156.253 117.137 161.233 119.025 165.876C120.912 170.52 123.727 174.729 127.297 178.248C133.551 184.504 141.826 188.333 150.643 189.05C158.493 189.472 166.313 187.788 173.293 184.171V151.242Z" fill="white"/>
<path d="M236.103 119.794H210.056V213.703H236.103V119.794Z" fill="white"/>
<path fill-rule="evenodd" clip-rule="evenodd" d="M284.622 213.703L247.599 119.794H276.085L297.95 178.944L321.297 119.794H348.389L311.366 213.703H284.622Z" fill="white"/>
<path fill-rule="evenodd" clip-rule="evenodd" d="M383.844 138.959V178.945C384.197 182.207 385.71 185.234 388.109 187.473C390.508 189.712 393.632 191.013 396.911 191.141C399.078 191.077 401.202 190.518 403.12 189.506C405.038 188.494 406.698 187.057 407.974 185.304C412.396 189.734 417.079 193.894 422 197.761C418.217 202.401 413.519 206.211 408.198 208.954C402.877 211.697 397.048 213.314 391.074 213.703C386.721 213.892 382.375 213.177 378.312 211.603C374.249 210.029 370.556 207.629 367.466 204.556C364.128 201.223 361.544 197.211 359.891 192.792C358.237 188.373 357.553 183.651 357.884 178.945V90.2627H384.018V119.794H406.668V138.959H383.844Z" fill="white"/>
<path d="M347.434 90.2627H210.056V109.428H347.434V90.2627Z" fill="#F2DF7F"/>
<rect x="110" y="348.023" width="278.821" height="115" rx="20" transform="rotate(-7.63048 110 348.023)" fill="#F2DF7F"/>
<path d="M226.849 393.657C227.837 393.525 228.657 393.879 229.312 394.719C230.042 395.55 230.514 396.763 230.727 398.359C231.134 401.398 230.728 403.85 229.508 405.716C226.78 410.181 223.69 413.959 220.236 417.052C216.859 420.134 212.777 421.996 207.99 422.637C203.962 423.177 200.501 422.171 197.607 419.619C193.652 423.011 189.324 425.061 184.623 425.768C185.6 440.566 184.997 453.1 182.815 463.371C180.643 473.717 176.175 479.344 169.413 480.25C165.309 480.799 162.071 479.725 159.699 477.026C157.326 474.327 155.788 470.356 155.086 465.113C154.088 457.666 154.633 448.736 156.718 438.324C158.815 427.987 162.635 416.376 168.18 403.489C166.693 392.394 165.584 384.692 164.852 380.381C164.481 378.187 165.121 376.323 166.771 374.787C168.422 373.25 170.615 372.299 173.351 371.933C174.946 371.719 176.132 371.908 176.907 372.501C177.749 373.007 178.335 374.204 178.665 376.094C178.92 377.994 179.146 379.394 179.344 380.296C181.369 376.931 183.472 374.444 185.655 372.837C187.827 371.154 190.243 370.134 192.903 369.778C197.158 369.208 200.844 370.454 203.962 373.517C207.156 376.57 209.124 380.87 209.867 386.418C210.407 390.445 210.285 394.445 209.502 398.417C208.719 402.39 207.397 406.086 205.535 409.507C207.191 409.749 208.552 409.799 209.615 409.657C212.123 409.321 214.395 408.088 216.43 405.959C218.465 403.83 220.984 400.399 223.985 395.665C224.754 394.479 225.709 393.81 226.849 393.657ZM183.727 414.749C186.382 413.775 188.691 411.957 190.655 409.296C192.685 406.549 194.149 403.336 195.049 399.657C195.938 395.903 196.123 392.088 195.604 388.212C195.299 385.933 194.614 384.284 193.549 383.266C192.475 382.173 191.177 381.728 189.658 381.931C186.922 382.298 184.003 385.628 180.902 391.922C181.273 395.276 181.892 400.182 182.757 406.641C183.226 410.137 183.549 412.839 183.727 414.749ZM168.828 468.957C170.88 468.682 171.989 463.97 172.155 454.82C172.332 445.747 171.72 434.535 170.318 421.186C168.069 429.223 166.457 436.826 165.484 443.995C164.511 451.165 164.34 457.105 164.971 461.816C165.296 464.248 165.85 466.069 166.631 467.279C167.336 468.5 168.068 469.059 168.828 468.957ZM264.058 388.672C265.045 388.54 265.866 388.894 266.52 389.735C267.25 390.565 267.722 391.778 267.936 393.374C268.343 396.413 267.937 398.866 266.717 400.731C263.989 405.196 260.861 408.98 257.331 412.083C253.878 415.175 249.72 417.047 244.857 417.699C238.17 418.595 232.785 416.222 228.703 410.58C224.698 404.929 222.048 397.278 220.755 387.628C219.514 378.357 219.276 367.637 220.044 355.467C220.888 343.287 223.057 332.632 226.552 323.5C230.123 314.358 235.138 309.355 241.597 308.49C245.245 308.001 248.323 309.329 250.833 312.474C253.409 315.532 255.119 320.215 255.964 326.522C257.175 335.564 256.072 346.387 252.655 358.988C249.238 371.59 244.02 384.318 237.001 397.17C237.951 400.214 239.125 402.339 240.524 403.544C241.913 404.673 243.595 405.105 245.571 404.84C248.686 404.423 251.305 403.182 253.426 401.119C255.537 398.98 258.127 395.5 261.194 390.68C261.963 389.494 262.918 388.825 264.058 388.672ZM240.601 320.11C238.854 320.344 237.3 323.762 235.942 330.364C234.583 336.966 233.694 345.053 233.274 354.623C232.854 364.194 233.144 373.282 234.142 381.889C238.346 372.276 241.448 362.81 243.449 353.492C245.439 344.098 245.941 335.716 244.953 328.345C244.18 322.57 242.729 319.825 240.601 320.11ZM274.424 413.738C269.713 414.369 265.722 413.163 262.453 410.12C259.183 407.077 257.177 402.783 256.434 397.235C255.619 391.156 256.257 385.231 258.345 379.459C260.424 373.611 263.562 368.743 267.76 364.855C272.023 360.88 276.776 358.542 282.019 357.839C283.691 357.615 284.839 357.81 285.462 358.422C286.152 358.949 286.798 360.023 287.402 361.643C288.957 361.126 290.609 360.75 292.356 360.516C296.08 360.017 298.12 361.097 298.476 363.757C298.69 365.353 298.629 369.228 298.293 375.384C297.716 384.357 297.656 390.553 298.114 393.972C298.267 395.112 298.655 395.988 299.279 396.601C299.978 397.203 300.784 397.444 301.696 397.321C303.14 397.128 304.765 395.982 306.573 393.884C308.37 391.709 310.736 388.298 313.672 383.65C314.441 382.464 315.396 381.795 316.535 381.642C317.523 381.51 318.344 381.864 318.998 382.705C319.728 383.535 320.2 384.748 320.414 386.344C320.821 389.383 320.415 391.836 319.195 393.701C316.599 397.994 313.731 401.704 310.592 404.832C307.453 407.96 304.249 409.742 300.982 410.18C298.474 410.516 296.045 409.991 293.693 408.604C291.407 407.131 289.534 404.984 288.073 402.163C284.977 409.075 280.427 412.934 274.424 413.738ZM276.985 401.676C278.657 401.452 280.12 400.25 281.376 398.071C282.631 395.892 283.381 393.123 283.627 389.764L285.035 368.226C281.854 368.73 279.053 370.342 276.633 373.064C274.279 375.7 272.559 379.025 271.472 383.038C270.385 387.051 270.127 391.185 270.697 395.441C271.012 397.796 271.702 399.483 272.767 400.501C273.907 401.508 275.314 401.9 276.985 401.676ZM346.646 349.414C348.394 349.18 349.641 349.245 350.386 349.609C351.13 349.974 351.574 350.688 351.717 351.751C351.961 353.575 351.844 360.204 351.364 371.639C351.052 382.588 350.876 389.07 350.837 391.087C350.641 410.992 348.837 426.975 345.425 439.035C342.013 451.094 336.203 457.674 327.997 458.773C324.121 459.293 320.805 458.499 318.047 456.393C315.3 454.363 313.667 451.411 313.148 447.535C312.67 443.964 312.979 440.21 314.076 436.273C315.249 432.325 317.713 427.625 321.469 422.171C325.311 416.783 330.88 410.429 338.176 403.109L338.167 400.442C338.322 397.559 338.39 393.45 338.372 388.115C337.585 393.79 336.017 398.254 333.668 401.508C331.31 404.686 328.61 406.479 325.571 406.886C322.151 407.344 319.131 406.163 316.51 403.343C313.955 400.436 312.362 396.627 311.731 391.916C310.967 386.217 310.65 380.961 310.779 376.148C310.897 371.259 311.474 366.038 312.509 360.485C312.964 358.103 313.809 356.327 315.044 355.156C316.28 353.985 318.379 353.201 321.343 352.804C323.014 352.58 324.19 352.693 324.869 353.144C325.624 353.584 326.073 354.336 326.215 355.4C326.297 356.008 326.154 358.115 325.786 361.723C325.403 364.636 325.136 367.263 324.985 369.604C324.795 372.801 324.665 375.873 324.596 378.822C324.517 381.695 324.599 384.043 324.843 385.867C325.23 388.754 326.222 390.091 327.817 389.877C328.957 389.725 330.21 388.396 331.577 385.893C333.019 383.379 334.379 379.677 335.658 374.788C337.013 369.888 338.149 363.934 339.067 356.927C339.369 354.566 340.062 352.81 341.146 351.659C342.305 350.498 344.139 349.75 346.646 349.414ZM327.769 447.549C329.669 447.295 331.501 444.806 333.267 440.083C335.032 435.36 336.405 427.712 337.387 417.138C332.197 422.861 328.542 427.914 326.422 432.298C324.388 436.748 323.575 440.492 323.982 443.532C324.155 444.823 324.526 445.857 325.094 446.631C325.738 447.396 326.629 447.702 327.769 447.549Z" fill="white"/>
<g clip-path="url(#clip0_1504_650)">
<path d="M184.444 248.898H169.273V256.218H162.79L180.824 229.094H164.286L144 258.47V268.718H168.807V276.922H184.444V268.718H190.799V256.218H184.444V248.898Z" fill="#F2DF7F"/>
<path d="M244.081 229.094H226.529L210.812 246.42V229.094H194.965V276.922H210.812V265.066L214.399 261.092L226.384 276.922H245.046L224.952 250.169L244.081 229.094Z" fill="#BFDBFC"/>
<path d="M263.353 229.094H247.233V276.922H263.353V229.094Z" fill="#BFDBFC"/>
<path d="M308.784 231.99C304.73 230.059 300.033 229.094 294.708 229.094H271.14V276.922H294.708C300.033 276.922 304.73 275.957 308.784 274.026C312.838 272.096 316.008 269.329 318.276 265.757C320.561 262.186 321.687 257.907 321.687 252.952C321.687 247.997 320.544 243.798 318.276 240.243C315.992 236.687 312.838 233.952 308.784 232.006V231.99ZM304.006 259.178C303.057 260.883 301.722 262.17 300.017 263.039C298.311 263.907 296.317 264.342 294.032 264.342H287.275V241.658H294.032C296.317 241.658 298.295 242.093 300.017 242.961C301.722 243.83 303.057 245.101 304.006 246.79C304.956 248.479 305.438 250.523 305.438 252.936C305.438 255.349 304.956 257.472 304.006 259.194V259.178Z" fill="#BFDBFC"/>
<path d="M366.233 255.606C365.284 253.917 364.013 252.55 362.436 251.504C360.86 250.458 359.138 249.622 357.272 248.978C355.406 248.335 353.524 247.836 351.642 247.482C349.743 247.112 348.022 246.774 346.445 246.452C344.869 246.131 343.614 245.728 342.649 245.262C341.7 244.779 341.217 244.136 341.217 243.315C341.217 242.768 341.41 242.27 341.796 241.819C342.182 241.369 342.826 240.999 343.743 240.725C344.66 240.452 345.882 240.323 347.427 240.323C349.518 240.323 351.674 240.613 353.878 241.208C356.082 241.803 358.382 242.688 360.747 243.878L365.606 232.199C363.096 230.783 360.281 229.738 357.128 229.062C353.974 228.386 350.789 228.032 347.555 228.032C342.633 228.032 338.53 228.756 335.216 230.22C331.918 231.684 329.425 233.631 327.768 236.06C326.111 238.505 325.274 241.192 325.274 244.152C325.274 246.71 325.757 248.833 326.706 250.539C327.655 252.244 328.926 253.627 330.503 254.673C332.079 255.719 333.801 256.555 335.699 257.199C337.581 257.842 339.463 258.341 341.33 258.743C343.196 259.129 344.917 259.499 346.494 259.837C348.07 260.175 349.325 260.593 350.29 261.108C351.239 261.607 351.722 262.299 351.722 263.151C351.722 263.698 351.513 264.165 351.111 264.551C350.709 264.937 350.049 265.227 349.164 265.436C348.279 265.645 347.057 265.741 345.512 265.741C342.874 265.741 340.155 265.339 337.356 264.551C334.557 263.747 332.015 262.701 329.747 261.366L324.55 273.109C326.963 274.573 330.036 275.748 333.768 276.665C337.501 277.582 341.378 278.032 345.384 278.032C350.355 278.032 354.473 277.292 357.755 275.812C361.037 274.332 363.498 272.369 365.171 269.94C366.828 267.511 367.665 264.824 367.665 261.913C367.665 259.403 367.182 257.312 366.233 255.622V255.606Z" fill="#BFDBFC"/>
</g>
<defs>
<clipPath id="clip0_1504_650">
<rect width="223.665" height="50" fill="white" transform="translate(144 228)"/>
</clipPath>
</defs>
</svg>
