<svg width="106" height="120" viewBox="0 0 106 120" fill="none" xmlns="http://www.w3.org/2000/svg">
<g clip-path="url(#clip0_2019_6905)">
<path d="M7.39036 98.7099L0 101.247C0 101.247 57.6952 118.805 60.3938 119.936C63.0889 121.07 105.148 105.778 105.148 105.778L93.2841 101.813L7.39036 98.7063" fill="#8BCDE5"/>
<path d="M101.151 104.883L98.2348 103.452C94.4937 101.308 96.8754 88.4495 96.8754 88.4495L63.4262 98.6168L6.75661 83.8079C4.88602 91.2481 6.41588 101.05 6.41588 101.05L58.8026 116.074L58.7855 116.135L63.3751 117.384C102.484 105.417 101.148 104.883 101.148 104.883H101.151Z" fill="#DE6C6B"/>
<path d="M64.1656 98.8744L101.744 87.0894L45.1224 74.4062L6.75661 83.8077L64.1656 98.8744Z" fill="#DE6C6B"/>
<path opacity="0.37" d="M7.56073 100.531C7.28133 99.3433 7.11097 98.1301 6.99512 96.9133C6.87587 95.6965 6.83839 94.469 6.86224 93.2415C6.89631 92.0139 7.00875 90.79 7.21318 89.5839C7.43125 88.3779 7.75494 87.1933 8.21833 86.0696C8.07863 86.6637 7.88782 87.2398 7.79583 87.8411C7.65613 88.4316 7.58117 89.0328 7.48917 89.6305C7.34947 90.8329 7.24726 92.039 7.22341 93.2522C7.19274 94.4654 7.22 95.6786 7.27111 96.8918C7.29837 97.5002 7.33925 98.105 7.39036 98.7098C7.42784 99.3182 7.49599 99.923 7.56073 100.528V100.531Z" fill="#2B3448"/>
<path opacity="0.37" d="M60.4721 115.466C60.1927 114.278 60.0224 113.064 59.9065 111.848C59.7873 110.631 59.7498 109.403 59.7736 108.176C59.8077 106.948 59.9202 105.724 60.1246 104.518C60.3427 103.312 60.6664 102.128 61.1297 101.004C60.99 101.598 60.7992 102.174 60.7072 102.775C60.5675 103.366 60.4926 103.967 60.4006 104.565C60.2609 105.767 60.1587 106.973 60.1348 108.187C60.1042 109.4 60.1314 110.613 60.1825 111.826C60.2098 112.435 60.2507 113.039 60.3018 113.644C60.3393 114.253 60.4074 114.857 60.4721 115.462V115.466Z" fill="#2B3448"/>
<path opacity="0.37" d="M9.90492 85.7546C13.9936 86.8139 18.0721 87.9126 22.1472 89.0148L34.3657 92.3717L46.5637 95.8145L52.6559 97.5681L58.7378 99.3575L52.6116 97.747L46.4955 96.0972L34.2771 92.7368L22.0791 89.294C18.0176 88.1309 13.9562 86.9606 9.90492 85.751V85.7546Z" fill="#2B3448"/>
<g opacity="0.41">
<path d="M20.4266 104.017L9.19621 100.564L9.83678 87.0681L20.8831 90.1351L20.4231 104.014L20.4266 104.017ZM9.57783 100.438L20.0449 103.652L20.4947 90.2711L10.1911 87.4045L9.57783 100.438Z" fill="white"/>
<path d="M15.0192 95.6537L9.78908 90.6685L15.2952 88.7825L20.6514 93.7713L15.0158 95.6537H15.0192ZM10.307 90.8152L15.0329 95.3137L20.1131 93.6138L15.285 89.1117L10.3104 90.8152H10.307Z" fill="white"/>
<path d="M14.6887 99.2289L9.44153 94.1649L14.9681 92.2932L20.3448 97.3608L14.6887 99.2253V99.2289ZM9.96284 94.3188L14.7023 98.8889L19.803 97.2069L14.9579 92.6332L9.96284 94.3224V94.3188Z" fill="white"/>
<path d="M14.5695 102.181L9.30525 97.0529L14.8523 95.1956L20.246 100.331L14.5695 102.181ZM9.82656 97.2104L14.5831 101.838L19.7008 100.17L14.8386 95.5355L9.82656 97.2104Z" fill="white"/>
</g>
<g opacity="0.41">
<path d="M32.812 107.775L21.5816 104.321L22.2222 90.8257L33.2685 93.8927L32.8086 107.771L32.812 107.775ZM21.9632 104.196L32.4303 107.41L32.8801 94.0287L22.5765 91.1621L21.9632 104.196Z" fill="white"/>
<path d="M27.408 99.4113L22.1779 94.4261L27.684 92.54L33.0402 97.5289L27.4046 99.4113H27.408ZM22.6958 94.5728L27.4217 99.0713L32.5019 97.3714L27.6738 92.8693L22.6992 94.5728H22.6958Z" fill="white"/>
<path d="M27.0775 102.986L21.8304 97.9225L27.3569 96.0508L32.7336 101.118L27.0775 102.983V102.986ZM22.3517 98.0764L27.0912 102.646L32.1918 100.964L27.3467 96.3908L22.3517 98.0799V98.0764Z" fill="white"/>
<path d="M26.9549 105.939L21.6907 100.811L27.2377 98.9531L32.6314 104.089L26.9549 105.939ZM22.212 100.968L26.9685 105.595L32.0862 103.928L27.2241 99.2931L22.212 100.968Z" fill="white"/>
</g>
<g opacity="0.41">
<path d="M45.5517 111.533L34.3214 108.079L34.9619 94.5835L46.0083 97.6505L45.5483 111.529L45.5517 111.533ZM34.703 107.954L45.1701 111.168L45.6199 97.7865L35.3163 94.9199L34.703 107.954Z" fill="white"/>
<path d="M40.1478 103.173L34.9176 98.1873L40.4238 96.3013L45.78 101.29L40.1444 103.173H40.1478ZM35.4356 98.334L40.1614 102.833L45.2417 101.133L40.4136 96.6305L35.439 98.334H35.4356Z" fill="white"/>
<path d="M39.8173 106.748L34.5701 101.684L40.0967 99.812L45.4734 104.88L39.8173 106.744V106.748ZM35.0914 101.838L39.8309 106.408L44.9316 104.726L40.0865 100.152L35.0914 101.841V101.838Z" fill="white"/>
<path d="M39.698 109.7L34.4338 104.572L39.9808 102.715L45.3745 107.85L39.698 109.7ZM34.9551 104.729L39.7117 109.357L44.8294 107.689L39.9672 103.055L34.9551 104.729Z" fill="white"/>
</g>
<g opacity="0.41">
<path d="M58.3051 115.101L47.0748 111.647L47.7153 98.1516L58.7617 101.219L58.3017 115.097L58.3051 115.101ZM47.4564 111.522L57.9235 114.736L58.3733 101.355L48.0697 98.488L47.4564 111.522Z" fill="white"/>
<path d="M52.9012 106.737L47.671 101.752L53.1772 99.8657L58.5334 104.855L52.8978 106.737H52.9012ZM48.1889 101.898L52.9148 106.397L57.995 104.697L53.167 100.195L48.1923 101.898H48.1889Z" fill="white"/>
<path d="M52.5707 110.312L47.3235 105.248L52.8501 103.377L58.2267 108.444L52.5707 110.309V110.312ZM47.8448 105.402L52.5843 109.972L57.685 108.29L52.8399 103.717L47.8448 105.406V105.402Z" fill="white"/>
<path d="M52.4514 113.265L47.1872 108.136L52.7342 106.279L58.1279 111.415L52.4514 113.265ZM47.7085 108.294L52.4651 112.921L57.5828 111.254L52.7206 106.619L47.7085 108.294Z" fill="white"/>
</g>
<mask id="mask0_2019_6905" style="mask-type:luminance" maskUnits="userSpaceOnUse" x="62" y="90" width="38" height="27">
<path d="M64.4791 98.2554C64.4791 98.2554 60.0326 107.621 63.0821 116.443L99.5637 104.053C99.5637 104.053 96.4869 98.0228 99.3592 90.5825L64.4757 98.2518L64.4791 98.2554Z" fill="white"/>
</mask>
<g mask="url(#mask0_2019_6905)">
<path d="M64.4791 98.2553C64.4791 98.2553 60.0326 107.621 63.0821 116.443L99.5637 104.053C99.5637 104.053 97.1854 95.6034 100.061 88.1667L64.4791 98.2517V98.2553Z" fill="white"/>
<path opacity="0.1" d="M92.313 105.062C87.2805 107.084 82.2582 108.691 76.8577 109.113C71.5083 109.532 66.0362 108.14 62.7482 103.541C61.9475 107.038 61.4841 111.815 63.0821 116.443L99.5637 104.053C99.5637 104.053 99.3831 103.405 99.1786 102.31C96.8719 103.173 94.5959 104.142 92.313 105.059V105.062Z" fill="#74471B"/>
<g opacity="0.22">
<path d="M100.681 92.5192L61.0908 101.715L61.1496 101.995L100.74 92.7988L100.681 92.5192Z" fill="#74471B"/>
<path d="M100.664 94.8112L61.2227 104.688L61.2859 104.966L100.727 95.0897L100.664 94.8112Z" fill="#74471B"/>
<path d="M100.347 97.8727L60.9061 107.75L60.9693 108.028L100.41 98.1512L100.347 97.8727Z" fill="#74471B"/>
<path d="M100.095 99.9111L60.8083 110.445L60.8757 110.722L100.162 100.189L100.095 99.9111Z" fill="#74471B"/>
<path d="M100.214 102.163L61.2778 114.044L61.3539 114.319L100.29 102.438L100.214 102.163Z" fill="#74471B"/>
</g>
</g>
<path opacity="0.11" d="M62.2848 99.9911L6.57943 84.7527C6.57943 84.7527 5.68332 88.7037 6.22167 90.9619L61.927 106.576L63.5387 100.181L62.2848 99.9911Z" fill="white"/>
<path opacity="0.1" d="M6.41588 101.047L63.3785 117.38C63.3785 117.38 62.1042 111.84 62.1042 111.278L6.22167 96.4158C6.22167 96.4158 5.89457 100.034 6.41588 101.047Z" fill="#2B3448"/>
<path d="M16.9 69.1886C16.9 69.1886 15.8813 75.795 16.7297 80.0824C16.7297 80.0824 52.0971 100.263 54.6457 100.979C57.1978 101.695 105.997 91.8709 105.997 91.8709L99.5364 90.264L99.2298 78.1821L105.148 77.0512L63.9986 59.7263L16.9 69.1922V69.1886Z" fill="#ECB751"/>
<path d="M101.237 77.7632L55.3272 85.4432C55.3272 85.4432 52.6627 94.3115 55.3272 99.1965L102.528 90.7971C102.528 90.7971 101.407 84.5521 101.237 77.7668V77.7632Z" fill="white"/>
<path opacity="0.1" d="M78.0195 93.7533C70.0806 94.0683 61.3989 93.7784 54.3868 90.0278C53.9983 92.9338 53.9234 96.6199 55.3272 99.1931L102.528 90.7937C102.528 90.7937 102.511 90.6971 102.48 90.5181C94.4051 92.2037 86.2413 93.4241 78.0195 93.7498V93.7533Z" fill="#74471B"/>
<g opacity="0.35">
<path d="M20.6582 71.5539L18.6446 70.7236L17.6462 75.0933L18.5526 80.2503L20.5083 81.3204L21.6157 77.0008L20.6582 71.5539Z" stroke="#2B3448" stroke-miterlimit="10"/>
<path d="M20.0483 74.0627L19.1625 73.6619L18.7059 75.6016L19.1148 77.9278L19.9904 78.3787L20.4708 76.4497L20.0483 74.0627Z" fill="#2B3448"/>
<path d="M21.6293 81.9324L17.6053 79.7279L17.6701 70.2334L21.8133 71.9405L21.6293 81.9324Z" stroke="#2B3448" stroke-miterlimit="10"/>
<path d="M33.0573 76.6717L30.3212 75.5408L28.805 80.458L29.8613 86.4381L32.4985 87.8804L34.1851 83.0455L33.0573 76.6717Z" stroke="#2B3448" stroke-miterlimit="10"/>
<path d="M32.1305 79.5096L30.9243 78.9656L30.2292 81.1415L30.7097 83.8506L31.8954 84.4554L32.6211 82.2938L32.1305 79.5096Z" fill="#2B3448"/>
<path d="M34.0249 88.7142L28.5869 85.7403L29.006 74.9001L34.6485 77.2192L34.0249 88.7142Z" stroke="#2B3448" stroke-miterlimit="10"/>
<path d="M50.5263 83.8793L46.5807 82.251L44.1854 87.8518L45.4495 94.97L49.2043 97.0242L51.8926 91.5558L50.5263 83.8793Z" stroke="#2B3448" stroke-miterlimit="10"/>
<path d="M49.0374 87.1288L47.3065 86.3486L46.2093 88.8251L46.7817 92.0568L48.4752 92.9193L49.6336 90.4714L49.0374 87.1288Z" fill="#2B3448"/>
<path d="M51.3952 98.2231L43.6539 93.9858L44.7067 81.3599L52.8467 84.706L51.3952 98.2231Z" stroke="#2B3448" stroke-miterlimit="10"/>
<path d="M25.3535 84.0152L24.471 83.5285L24.747 73.1465L25.6601 73.5223L25.3535 84.0152Z" fill="#2B3448"/>
<path d="M38.8326 91.3982L37.6741 90.7612L38.4578 78.7866L39.6674 79.2841L38.8326 91.3982Z" fill="#2B3448"/>
</g>
<path opacity="0.11" d="M16.9 69.1886L55.3272 85.4399C55.3272 85.4399 54.0937 90.3607 54.1857 91.5166L16.4741 73.1074C16.4741 73.1074 16.6786 69.6038 16.8966 69.1851L16.9 69.1886Z" fill="white"/>
<path opacity="0.26" d="M16.7297 80.0859L54.6457 100.982C54.6457 100.982 53.0852 98.556 53.1772 94.2185L16.4741 76.5823C16.4741 76.5823 16.5218 79.6385 16.7263 80.0859H16.7297Z" fill="#DC903C"/>
<mask id="mask1_2019_6905" style="mask-type:luminance" maskUnits="userSpaceOnUse" x="54" y="77" width="49" height="23">
<path d="M101.237 77.7632L55.3272 85.4432C55.3272 85.4432 52.6627 94.3115 55.3272 99.1965L102.528 90.7971C102.528 90.7971 101.407 84.5521 101.237 77.7668V77.7632Z" fill="white"/>
</mask>
<g mask="url(#mask1_2019_6905)">
<g opacity="0.44">
<path d="M102.436 79.29L53.3106 87.8506L53.3401 88.0377L102.466 79.4771L102.436 79.29Z" fill="#74471B"/>
</g>
<g opacity="0.44">
<path d="M102.598 81.434L53.472 89.9946L53.5016 90.1817L102.627 81.6212L102.598 81.434Z" fill="#74471B"/>
</g>
<g opacity="0.44">
<path d="M102.411 83.8068L53.2855 92.3674L53.3151 92.5545L102.441 83.994L102.411 83.8068Z" fill="#74471B"/>
</g>
<g opacity="0.44">
<path d="M102.505 86.1745L53.3805 94.7441L53.4101 94.9313L102.534 86.3617L102.505 86.1745Z" fill="#74471B"/>
</g>
<g opacity="0.44">
<path d="M102.601 88.7673L53.4767 97.3369L53.5063 97.524L102.631 88.9544L102.601 88.7673Z" fill="#74471B"/>
</g>
</g>
<path d="M10.9475 49.9024C10.9475 49.9024 7.20636 57.7614 10.7772 66.6904L61.1059 83.1206L99.1923 72.1445L95.9792 71.2999L95.2637 56.3012L98.8515 55.2598L51.2418 40.2576L10.9441 49.9024H10.9475Z" fill="#5CA28B"/>
<path d="M95.8941 56.1152L60.2575 64.01C60.2575 64.01 54.8161 74.7249 61.7873 81.3349L96.3029 71.3322L95.8906 56.1152H95.8941Z" fill="white"/>
<path opacity="0.1" d="M81.0656 59.5152C82.3638 59.5152 83.662 59.4651 84.9567 59.3577C85.5394 59.3076 86.1186 59.2432 86.6978 59.1752C86.8 59.1609 86.8784 59.1537 86.9329 59.1465C87.0658 59.1251 87.1953 59.1036 87.3282 59.0821C89.5156 58.6885 91.6792 58.2089 93.8292 57.6148C94.5277 57.4216 95.2228 57.2176 95.9179 57.01L95.894 56.1189L80.5818 59.5116C80.7419 59.5116 80.9021 59.5187 81.0622 59.5187L81.0656 59.5152Z" fill="#74471B"/>
<path opacity="0.1" d="M80.3535 72.8173C75.2528 72.7672 70.1522 72.2053 65.0651 71.8367C62.7959 71.6721 60.5266 71.4287 58.3221 70.9456C57.9916 74.3061 58.547 78.2642 61.7907 81.3384L96.3063 71.3357L96.2859 70.5806C91.0966 71.9405 85.829 72.871 80.3535 72.8173Z" fill="#74471B"/>
<path opacity="0.38" d="M11.4518 65.8781C10.9237 64.7043 10.6136 63.4338 10.4024 62.1526C10.1911 60.8714 10.1094 59.5651 10.1298 58.2625C10.1366 57.9368 10.1639 57.6111 10.1775 57.289L10.2048 56.8023L10.2593 56.3192L10.3751 55.3529L10.5489 54.3938C10.6511 53.7532 10.8385 53.1305 10.985 52.5006C11.1622 51.8815 11.3734 51.2695 11.5813 50.6611C11.2917 51.9209 10.9986 53.1699 10.8249 54.4439L10.692 55.3959L10.6034 56.355L10.5557 56.8345L10.5319 57.3141C10.5182 57.6326 10.4978 57.9547 10.491 58.2732C10.4603 59.5544 10.5319 60.8356 10.675 62.1096C10.7397 62.7467 10.8521 63.3801 10.9782 64.01C11.1009 64.6398 11.2542 65.2625 11.4518 65.8781Z" fill="#2B3448"/>
<path opacity="0.38" d="M57.3306 80.5619C56.8025 79.3881 56.4924 78.1176 56.2812 76.8364C56.0699 75.5552 55.9882 74.249 56.0086 72.9463C56.0154 72.6206 56.0427 72.295 56.0563 71.9729L56.0836 71.4862L56.1381 71.003L56.2539 70.0367L56.4277 69.0776C56.5299 68.437 56.7173 67.8143 56.8638 67.1845C57.0444 66.5653 57.2523 65.9534 57.4601 65.345C57.1705 66.6047 56.8775 67.8537 56.7037 69.1277L56.5708 70.0797L56.4822 71.0388L56.4345 71.5184L56.4107 71.9979C56.397 72.3164 56.3732 72.6385 56.3698 72.957C56.3391 74.2382 56.4107 75.5194 56.5538 76.7935C56.6185 77.4305 56.7309 78.0639 56.857 78.6938C56.9797 79.3237 57.133 79.9464 57.3306 80.5619Z" fill="#2B3448"/>
<g opacity="0.23">
<path d="M15.6564 62.2672L22.781 63.5305L16.5525 58.4021L13.1452 58.8781L15.6564 62.2672Z" fill="#2B3448"/>
<path d="M16.6411 58.1623L23.3943 63.7023L19.0602 55.2456L15.4588 53.6531L16.6411 58.1623Z" fill="#2B3448"/>
<path d="M15.6291 62.6646L23.2375 63.8778L16.5048 66.5332L13.2952 64.9908L15.6291 62.6646Z" fill="#2B3448"/>
</g>
<path opacity="0.23" d="M26.5699 55.9937C26.5699 55.9937 23.4386 63.7202 25.4795 71.1605L33.381 74.0235C33.381 74.0235 31.6092 61.5765 35.1527 58.7135L26.5699 55.9937Z" fill="#2B3448"/>
<path opacity="0.23" d="M44.1411 61.5728C44.1411 61.5728 40.8735 70.0151 43.0508 77.0259L45.504 78.028C45.504 78.028 44.8226 66.2967 47.2758 62.4317L44.1445 61.5728H44.1411Z" fill="#2B3448"/>
<mask id="mask2_2019_6905" style="mask-type:luminance" maskUnits="userSpaceOnUse" x="58" y="56" width="39" height="26">
<path d="M95.8941 56.1152L60.2575 64.01C60.2575 64.01 54.8161 74.7249 61.7873 81.3349L96.3029 71.3322L95.8906 56.1152H95.8941Z" fill="white"/>
</mask>
<g mask="url(#mask2_2019_6905)">
<g opacity="0.27">
<path d="M99.55 56.231L58.6338 65.5227L58.6719 65.7081L99.5882 56.4164L99.55 56.231Z" fill="#74471B"/>
<path d="M98.866 58.3046L58.0157 67.9111L58.0551 68.0962L98.9054 58.4897L98.866 58.3046Z" fill="#74471B"/>
<path d="M98.3736 60.1874L57.6771 70.489L57.7194 70.6734L98.4159 60.3718L98.3736 60.1874Z" fill="#74471B"/>
<path d="M98.1948 62.278L57.4983 72.5796L57.5406 72.764L98.2371 62.4624L98.1948 62.278Z" fill="#74471B"/>
<path d="M98.2439 64.3688L57.5474 74.6704L57.5897 74.8548L98.2862 64.5532L98.2439 64.3688Z" fill="#74471B"/>
<path d="M98.5262 66.3275L57.8297 76.6292L57.872 76.8135L98.5685 66.5119L98.5262 66.3275Z" fill="#74471B"/>
<path d="M59.668 80.5084L59.6237 80.3223L100.177 69.4177L100.221 69.6038L59.668 80.5084Z" fill="#74471B"/>
<path d="M99.3917 68.0187L58.6952 78.3203L58.7375 78.5047L99.434 68.2031L99.3917 68.0187Z" fill="#74471B"/>
</g>
</g>
<path opacity="0.11" d="M10.9475 49.9026L60.2575 64.0101C60.2575 64.0101 58.3051 69.0097 58.0325 71.4433L9.26776 55.7074C9.26776 55.7074 10.0412 50.8223 10.9475 49.9026Z" fill="white"/>
<path opacity="0.1" d="M10.3581 66.5795L61.1093 83.1207C61.1093 83.1207 58.2745 81.9611 57.3511 76.7361L9.26776 61.4297C9.26776 61.4297 9.94921 65.7206 10.3581 66.5795Z" fill="#2B3448"/>
<path d="M14.8591 32.3987C14.8591 32.3987 13.67 43.1136 14.6887 45.973L52.6048 62.2243L98.3439 53.832L93.7543 52.762L93.216 41.2133L97.2331 40.7445L51.586 26.687L14.8591 32.4023V32.3987Z" fill="#2B3448"/>
<path d="M94.4357 41.1524L53.7973 46.6888C53.7973 46.6888 49.0373 56.1546 54.9864 60.0841L94.773 53.2988C94.773 53.2988 94.4323 40.6192 94.4323 41.156L94.4357 41.1524Z" fill="white"/>
<path opacity="0.1" d="M78.4625 55.5176C73.4777 55.4962 68.4213 55.0416 63.4535 54.5907C60.496 54.3223 57.4431 53.9644 54.7616 52.5222C53.8927 52.0569 53.1124 51.4664 52.3697 50.8223C51.6814 53.8714 51.6235 57.8617 54.9864 60.0806L82.1355 55.4496C80.9089 55.4962 79.6823 55.5212 78.4591 55.514L78.4625 55.5176Z" fill="#74471B"/>
<g opacity="0.54">
<path d="M17.9358 40.6585C17.929 40.7766 17.7893 40.8124 17.619 40.7444C17.4486 40.6764 17.3157 40.526 17.3225 40.4115C17.3259 40.297 17.469 40.2576 17.636 40.3256C17.8064 40.3936 17.9392 40.5439 17.9324 40.662L17.9358 40.6585Z" fill="#ECB751"/>
<path d="M22.8253 39.2448C22.8185 39.3664 22.6651 39.4094 22.4845 39.3378C22.304 39.2698 22.1609 39.1123 22.1677 38.9942C22.1745 38.8726 22.3244 38.8296 22.5084 38.9012C22.6924 38.9692 22.8355 39.1267 22.8287 39.2483L22.8253 39.2448Z" fill="#ECB751"/>
<path d="M22.4777 45.8941C22.4709 46.0122 22.321 46.048 22.1404 45.9693C21.9598 45.8905 21.8201 45.7331 21.8269 45.615C21.8337 45.4969 21.9837 45.4611 22.1643 45.5398C22.3448 45.615 22.4845 45.776 22.4777 45.8941Z" fill="#ECB751"/>
<path d="M27.667 44.6382C27.6602 44.7634 27.4966 44.7992 27.3024 44.7205C27.1082 44.6417 26.9583 44.4771 26.9651 44.3554C26.9719 44.2302 27.1355 44.1944 27.3297 44.2731C27.5239 44.3519 27.6738 44.5165 27.667 44.6382Z" fill="#ECB751"/>
<path d="M16.314 34.5674L16.0925 39.9391L16.0448 39.957L16.0891 40.0143L15.8779 45.114L28.9277 50.9009L29.6534 39.4417L16.314 34.5674ZM23.0058 37.4626L25.5272 40.9161L22.5629 42.1544L22.6685 40.1395L22.2835 39.9892L22.1813 41.9432L19.7587 38.7975L23.0058 37.459V37.4626ZM19.5338 38.5076L16.8455 35.0147L22.7367 37.1763L19.5338 38.5076ZM23.2955 37.3839L28.9822 39.4703L25.7964 40.8016L23.2955 37.3803V37.3839ZM22.7265 42.4908L25.7555 41.2346L28.7096 45.2858L25.5715 46.3559L22.8321 42.795L26.1678 44.1478L26.1814 43.8865L22.7299 42.4908H22.7265ZM22.0518 42.2188L18.6105 40.8267L18.6003 41.0736L21.9223 42.4228L19.1625 43.5787L16.498 40.1431L19.5066 38.9049L22.0518 42.2188ZM22.1404 42.7342L22.0246 45.0031L22.4062 45.1641L22.5288 42.8344L25.3023 46.4453L22.2051 47.4975L19.3942 43.8722L22.1404 42.7306V42.7342ZM21.9053 47.5333L16.4196 45.1105L19.1522 43.976L21.9053 47.5333ZM25.5374 46.7603L28.3041 50.3605L22.4845 47.791L25.5409 46.7603H25.5374ZM25.81 46.6672L28.8255 45.6509L28.5392 50.2138L25.81 46.6672ZM26.0281 41.1201L29.1934 39.8067L28.8663 45.0031L26.0281 41.1201ZM16.6479 35.1794L19.2851 38.6114L16.4537 39.7852L16.6479 35.1758V35.1794ZM18.9239 43.679L16.2424 44.7991L16.4264 40.4509L18.9239 43.679Z" fill="#ECB751"/>
</g>
<g opacity="0.54">
<path d="M37.4629 48.1167C37.4561 48.2348 37.3164 48.2706 37.146 48.2026C36.9756 48.1346 36.8428 47.9843 36.8496 47.8698C36.853 47.7553 36.9961 47.7159 37.163 47.7839C37.3334 47.8519 37.4663 48.0022 37.4595 48.1203L37.4629 48.1167Z" fill="#ECB751"/>
<path d="M42.3557 46.7067C42.3489 46.8283 42.1956 46.8713 42.015 46.7997C41.8344 46.7317 41.6913 46.5742 41.6981 46.4561C41.7049 46.3345 41.8548 46.2915 42.0388 46.3631C42.2228 46.4311 42.3659 46.5886 42.3591 46.7102L42.3557 46.7067Z" fill="#ECB751"/>
<path d="M42.0048 53.356C41.9979 53.4741 41.848 53.5099 41.6674 53.4312C41.4869 53.3524 41.3472 53.195 41.354 53.0769C41.3608 52.9588 41.5107 52.923 41.6913 53.0017C41.8719 53.0769 42.0116 53.2379 42.0048 53.356Z" fill="#ECB751"/>
<path d="M47.194 52.0998C47.1872 52.2251 47.0237 52.2609 46.8294 52.1821C46.6352 52.1034 46.4853 51.9388 46.4921 51.8171C46.4989 51.6918 46.6625 51.6561 46.8567 51.7348C47.0509 51.8135 47.2008 51.9782 47.194 52.0998Z" fill="#ECB751"/>
<path d="M35.8444 42.0256L35.623 47.3974L35.5753 47.4153L35.6195 47.4725L35.4083 52.5723L48.4581 58.3592L49.1839 46.8999L35.8444 42.0256ZM42.5363 44.9209L45.0577 48.3744L42.0933 49.6126L42.199 47.5978L41.814 47.4475L41.7117 49.4015L39.2892 46.2558L42.5363 44.9173V44.9209ZM39.0643 45.9659L36.376 42.473L42.2671 44.6346L39.0643 45.9659ZM42.8259 44.8421L48.5126 46.9286L45.3268 48.2599L42.8259 44.8386V44.8421ZM42.2569 49.9491L45.286 48.6929L48.2401 52.7441L45.102 53.8141L42.3625 50.2532L45.6982 51.606L45.7119 51.3448L42.2603 49.9491H42.2569ZM41.5823 49.6771L38.1409 48.2849L38.1307 48.5319L41.4528 49.8811L38.6929 51.037L36.0284 47.6014L39.037 46.3631L41.5823 49.6771ZM41.6708 50.1924L41.555 52.4614L41.9366 52.6224L42.0593 50.2926L44.8328 53.9036L41.7356 54.9558L38.9246 51.3305L41.6708 50.1888V50.1924ZM41.4357 54.9915L35.9501 52.5687L38.6827 51.4342L41.4357 54.9915ZM45.0679 54.2185L47.8346 57.8188L42.015 55.2492L45.0713 54.2185H45.0679ZM45.3405 54.1255L48.3559 53.1091L48.0697 57.6721L45.3405 54.1255ZM45.5585 48.5784L48.7239 47.265L48.3968 52.4614L45.5585 48.5784ZM36.1783 42.6376L38.8156 46.0697L35.9841 47.2435L36.1783 42.634V42.6376ZM38.4544 51.1372L35.7729 52.2574L35.9569 47.9091L38.4544 51.1372Z" fill="#ECB751"/>
</g>
<mask id="mask3_2019_6905" style="mask-type:luminance" maskUnits="userSpaceOnUse" x="51" y="41" width="44" height="20">
<path d="M94.4357 41.1524L53.7973 46.6888C53.7973 46.6888 49.0373 56.1546 54.9864 60.0841L94.773 53.2988C94.773 53.2988 94.4323 40.6192 94.4323 41.156L94.4357 41.1524Z" fill="white"/>
</mask>
<g mask="url(#mask3_2019_6905)">
<g opacity="0.31">
<path d="M97.4216 45.6837L51.3546 52.1655L51.3786 52.3535L97.4456 45.8717L97.4216 45.6837Z" fill="#74471B"/>
</g>
<g opacity="0.31">
<path d="M97.4223 48.7061L51.3553 55.188L51.3793 55.376L97.4462 48.8941L97.4223 48.7061Z" fill="#74471B"/>
</g>
<g opacity="0.31">
<path d="M51.4122 58.6525L51.3884 58.4628L97.3898 51.4771L97.4137 51.6667L51.4122 58.6525Z" fill="#74471B"/>
</g>
<g opacity="0.31">
<path d="M97.4666 43.0397L51.3083 48.7607L51.3295 48.9491L97.4877 43.2281L97.4666 43.0397Z" fill="#74471B"/>
</g>
</g>
<path d="M62.4994 47.4044C62.4994 47.4044 67.6819 55.471 66.5302 65.5524L69.0244 63.3335L70.9426 65.3484C70.9426 65.3484 71.1334 51.6381 67.6785 47L62.496 47.4044H62.4994Z" fill="#ECB751"/>
<path opacity="0.11" d="M14.8591 32.3987C14.8591 32.3987 52.9012 45.1857 52.9012 45.7905C52.9012 46.3953 50.4071 50.629 50.9829 54.6623L14.5081 39.5383L14.8625 32.3987H14.8591Z" fill="white"/>
<path d="M93.2057 31.6292H24.0008V43.2387H93.2057V31.6292Z" fill="#DC903C"/>
<path opacity="0.11" d="M93.2057 40.748H24.0008V43.2353H93.2057V40.748Z" fill="#2B3448"/>
<path opacity="0.11" d="M93.2057 31.6292H24.0008V35.9129H93.2057V31.6292Z" fill="white"/>
<path opacity="0.26" d="M33.8341 31.6292H27.7522V43.2387H33.8341V31.6292Z" fill="#74471B"/>
<path opacity="0.26" d="M39.2108 31.6292H38.1784V43.2387H39.2108V31.6292Z" fill="#74471B"/>
<path opacity="0.26" d="M78.1797 31.6292H43.5551V43.2387H78.1797V31.6292Z" fill="#74471B"/>
<path opacity="0.26" d="M86.8205 31.6292H82.524V43.2387H86.8205V31.6292Z" fill="#74471B"/>
<path d="M24.0008 31.6292L23.4897 22.5176L87.0829 21.9844L93.2057 31.6292H24.0008Z" fill="#DC903C"/>
<path d="M27.2309 16.2691V26.6261L71.0994 31.6292L87.7643 26.0928L85.553 25.1981L85.7234 16.8059L87.4236 16.0901L46.4444 12.1606L27.2309 16.2691Z" fill="#DE6C6B"/>
<path d="M86.5718 16.4016L70.929 20.9109V29.4856V30.5557L86.3537 25.4237L86.5718 16.4016Z" fill="white"/>
<path d="M28.9284 18.1783L28.8875 18.5552L67.6634 23.1955L67.7043 22.8186L28.9284 18.1783Z" fill="#ECB751"/>
<path d="M28.7348 20.6016L28.694 20.9785L67.4699 25.6189L67.5108 25.242L28.7348 20.6016Z" fill="#ECB751"/>
<path d="M28.7337 23.0191L28.6928 23.396L67.4687 28.0363L67.5096 27.6594L28.7337 23.0191Z" fill="#ECB751"/>
<path d="M28.7371 25.2388L28.6962 25.6157L67.4722 30.2561L67.5131 29.8792L28.7371 25.2388Z" fill="#ECB751"/>
<mask id="mask4_2019_6905" style="mask-type:luminance" maskUnits="userSpaceOnUse" x="70" y="16" width="17" height="15">
<path d="M86.5718 16.4016L70.929 20.9109V29.4856V30.5557L86.3537 25.4237L86.5718 16.4016Z" fill="white"/>
</mask>
<g mask="url(#mask4_2019_6905)">
<g opacity="0.37">
<path d="M70.0397 22.4174L69.9954 22.2313L88.7456 16.9419L88.7899 17.1244L70.0397 22.4174Z" fill="#74471B"/>
</g>
<g opacity="0.37">
<path d="M70.234 24.8366L70.1862 24.6541L88.9364 19.3611L88.9841 19.5436L70.234 24.8366Z" fill="#74471B"/>
</g>
<g opacity="0.37">
<path d="M70.2646 26.9767L70.2169 26.7942L88.9671 21.5012L89.0148 21.6873L70.2646 26.9767Z" fill="#74471B"/>
</g>
<g opacity="0.37">
<path d="M70.4554 29.1957L70.4077 29.0132L89.1579 23.7202L89.2056 23.9027L70.4554 29.1957Z" fill="#74471B"/>
</g>
</g>
<path opacity="0.1" d="M27.2309 26.6261L71.0994 31.6292L70.9461 27.4421L27.3672 22.804L27.2309 26.6261Z" fill="#2B3448"/>
<path opacity="0.11" d="M27.2309 16.269L70.929 20.9107L70.9461 23.4087L27.3672 19.3754L27.2309 16.269Z" fill="white"/>
<path opacity="0.1" d="M70.929 20.9109V30.5557L84.7659 25.8281C84.7659 25.8281 71.1062 30.1083 70.929 20.9109Z" fill="#74471B"/>
<path d="M20.9138 5.08902C20.9138 5.08902 18.9069 9.39071 20.6617 13.5135L57.0921 20.7963L87.9245 15.6178L85.5837 15.1776L86.0028 6.75315L87.8427 6.31296L51.5792 0C51.5792 0 22.1677 3.33542 20.9138 5.08902Z" fill="#4D82A3"/>
<mask id="mask5_2019_6905" style="mask-type:luminance" maskUnits="userSpaceOnUse" x="57" y="6" width="30" height="15">
<path d="M58.8162 11.8493C58.8162 11.8493 56.0597 15.8861 58.2301 20.0125L85.9721 15.1847L86.3912 6.76025L58.8162 11.8493Z" fill="white"/>
</mask>
<g mask="url(#mask5_2019_6905)">
<path d="M58.8162 11.8493C58.8162 11.8493 56.0597 15.8861 58.2301 20.0125L85.9721 15.1847L86.3912 6.76025L58.8162 11.8493Z" fill="white"/>
<path opacity="0.1" d="M72.9495 17.4321C69.7978 17.3712 66.3871 17.2782 63.3274 16.4121C61.3342 15.8502 59.6442 14.7372 57.9712 13.5598C57.392 15.1202 56.9354 17.5466 58.2301 20.0052L73.0313 17.4285C73.004 17.4285 72.9768 17.4285 72.9495 17.4285V17.4321Z" fill="#74471B"/>
<g opacity="0.4">
<path d="M88.9766 7.77538L55.768 13.4373L55.7969 13.6245L89.0056 7.96261L88.9766 7.77538Z" fill="#74471B"/>
</g>
<g opacity="0.4">
<path d="M88.9774 9.7893L55.7687 15.4512L55.7976 15.6384L89.0063 9.97652L88.9774 9.7893Z" fill="#74471B"/>
</g>
<g opacity="0.4">
<path d="M88.9786 11.8066L55.7699 17.4685L55.7989 17.6557L89.0076 11.9939L88.9786 11.8066Z" fill="#74471B"/>
</g>
<g opacity="0.4">
<path d="M88.9761 13.4214L55.7674 19.0833L55.7964 19.2705L89.005 13.6086L88.9761 13.4214Z" fill="#74471B"/>
</g>
</g>
<path d="M58.1859 4.79555C59.9508 5.1069 60.1859 5.56499 58.7072 5.8155C57.2284 6.06601 54.5946 6.01591 52.8262 5.70456C51.0544 5.3932 50.8228 4.93512 52.3049 4.68103C53.7871 4.43051 56.4209 4.48062 58.1893 4.79197L58.1859 4.79555Z" fill="#ECB751"/>
<path d="M50.649 4.60226C49.8892 4.63804 49.0135 4.62373 48.1923 4.57005C47.7801 4.54142 47.3746 4.50205 47.0475 4.44479C46.1855 4.29806 46.039 4.08333 45.6676 3.89366C44.9043 3.50357 42.8975 3.15643 40.6521 3.02401C42.5635 2.98465 44.6965 2.9596 46.5126 3.16359C48.4751 3.38905 49.3474 3.80061 50.2776 4.16564C50.6285 4.30522 51.0136 4.44121 51.3577 4.5772L50.6524 4.59868L50.649 4.60226Z" fill="#ECB751"/>
<path d="M59.8077 6.0016C60.5641 5.96582 61.4364 5.97655 62.2541 6.03381C62.663 6.06244 63.0685 6.10181 63.3922 6.15907C64.2474 6.3058 64.3973 6.51695 64.7653 6.70662C65.5217 7.09313 67.515 7.44027 69.7433 7.56911C67.8455 7.60847 65.7329 7.63711 63.9271 7.43311C61.9747 7.21123 61.1059 6.79967 60.1791 6.43464C59.8282 6.29864 59.4466 6.16265 59.1024 6.02308L59.8077 6.0016Z" fill="#ECB751"/>
<path d="M54.2334 4.33029C53.4429 4.25514 52.7513 4.14062 52.2879 4.00463C52.0562 3.93663 51.879 3.86505 51.8313 3.7899C51.7086 3.60022 52.4651 3.46065 52.9353 3.30676C53.8995 2.99183 53.6337 2.54448 52.2708 2.19019C54.046 2.40849 55.9711 2.65901 56.656 3.00257C57.3954 3.37476 56.4277 3.71832 55.7088 4.04041C55.4362 4.16209 55.2011 4.28735 54.9217 4.40903L54.2334 4.33387V4.33029Z" fill="#ECB751"/>
<path d="M56.2301 6.27364C57.0172 6.3488 57.7123 6.46332 58.1722 6.59931C58.4039 6.66731 58.5811 6.73888 58.6254 6.81404C58.7481 7.00371 57.9951 7.14328 57.5249 7.29717C56.5606 7.6121 56.8264 8.05945 58.1859 8.41375C56.4107 8.19902 54.489 7.94851 53.8041 7.60495C53.0647 7.23275 54.0324 6.88919 54.7513 6.5671C55.0239 6.44542 55.259 6.32016 55.5384 6.19849L56.2267 6.27364H56.2301Z" fill="#ECB751"/>
<path d="M57.8724 4.55576C57.4328 4.41976 57.2284 4.26588 57.3034 4.1263C57.3408 4.05473 57.4499 3.98673 57.6714 3.93663C58.2574 3.79706 59.4499 3.7899 60.4381 3.7398C62.462 3.63959 63.8555 3.3175 63.9169 2.93457C64.7312 3.27455 65.5592 3.65033 64.922 3.95094C64.2337 4.27661 62.1076 4.39471 60.2779 4.52713C59.5862 4.57723 58.915 4.63449 58.2199 4.68101L57.8724 4.55576Z" fill="#ECB751"/>
<path d="M52.5877 6.0516C53.0307 6.1876 53.2317 6.34149 53.1567 6.48106C53.1193 6.55263 53.0102 6.62063 52.7887 6.67073C52.2027 6.8103 51.0067 6.81746 50.0152 6.86757C47.9845 6.96777 46.5841 7.29344 46.5228 7.67637C45.705 7.33639 44.8737 6.96061 45.5108 6.65642C46.2025 6.33075 48.3389 6.20907 50.1754 6.07666C50.867 6.02655 51.5417 5.96929 52.2368 5.91919L52.5843 6.04445L52.5877 6.0516Z" fill="#ECB751"/>
<path d="M60.6459 5.26428C60.881 5.13544 61.3819 5.02808 62.0531 4.96724C62.387 4.93503 62.772 4.91356 63.1843 4.91714C64.2678 4.92429 65.273 5.0746 66.2917 5.18197C68.3804 5.39669 70.9154 5.41459 72.6293 5.22491C71.8183 5.50764 70.8575 5.81183 69.0312 5.88341C67.0516 5.96214 64.8062 5.74383 62.7346 5.56847C61.9543 5.50406 61.1604 5.44322 60.3801 5.3788L60.6459 5.26786V5.26428Z" fill="#ECB751"/>
<path d="M49.8074 5.34317C49.5723 5.47201 49.068 5.57937 48.3968 5.64021C48.0595 5.67242 47.6744 5.69389 47.2588 5.69031C46.1718 5.68673 45.1565 5.53284 44.1343 5.42548C42.032 5.21075 39.4698 5.19286 37.7389 5.38254C38.5566 5.09623 39.5277 4.79204 41.371 4.72046C43.3643 4.64173 45.6267 4.86361 47.7085 5.03539C48.4922 5.09981 49.2895 5.16065 50.0732 5.22865L49.804 5.33959L49.8074 5.34317Z" fill="#ECB751"/>
<path d="M25.2853 5.91919C25.2853 5.91919 22.8321 10.9724 25.4659 14.5047L28.5529 15.0773C28.5529 15.0773 26.9174 9.06851 29.2786 6.49179L25.2819 5.91919H25.2853Z" fill="#ECB751"/>
<path d="M46.9896 10.3428C46.9896 10.3428 44.5364 15.396 47.1702 18.9283L50.2572 19.5009C50.2572 19.5009 48.6217 13.4921 50.9829 10.9154L46.9862 10.3428H46.9896Z" fill="#ECB751"/>
<path opacity="0.11" d="M20.9138 5.08911L58.8162 11.8458C58.8162 11.8458 57.3204 14.2579 57.1841 16.144L19.8916 9.0365C19.8916 9.0365 20.1403 5.78339 20.9138 5.08911Z" fill="white"/>
<g opacity="0.4">
<path d="M23.1791 5.07471L23.1161 5.44824L56.7096 11.7016L56.7726 11.3281L23.1791 5.07471Z" fill="#2B3448"/>
</g>
<path opacity="0.18" d="M56.9252 19.4112C56.8366 19.0676 56.7616 18.7241 56.7003 18.3805L20.0279 11.9387L20.6616 13.517L57.0921 20.7998C56.8672 20.3524 56.8604 19.8407 56.9218 19.4112H56.9252Z" fill="#2B3448"/>
<path opacity="0.11" d="M25.8305 3.66825C25.8305 3.66825 39.8991 1.11658 51.5792 0L73.0654 3.66825H25.8305Z" fill="white"/>
</g>
<defs>
<clipPath id="clip0_2019_6905">
<rect width="106" height="120" fill="white"/>
</clipPath>
</defs>
</svg>
