<svg width="109" height="120" viewBox="0 0 109 120" fill="none" xmlns="http://www.w3.org/2000/svg">
<g clip-path="url(#clip0_2019_7258)">
<g opacity="0.2">
<path d="M63.9822 120.001C85.705 120.001 103.315 116.203 103.315 111.517C103.315 106.832 85.705 103.034 63.9822 103.034C42.2594 103.034 24.6496 106.832 24.6496 111.517C24.6496 116.203 42.2594 120.001 63.9822 120.001Z" fill="#000072"/>
</g>
<path d="M47.1812 69.1761C46.4711 70.4148 45.8874 71.7788 45.4089 73.1729C44.9062 74.6368 44.5193 76.1354 44.2203 77.5596C43.3286 81.8072 43.2302 85.3794 43.2302 85.3794C40.3609 91.8145 31.5845 88.5688 31.5845 88.5688C30.5902 81.9878 34.7771 73.521 37.0915 69.4544C37.9395 67.9653 38.5359 67.0674 38.5359 67.0674L44.8952 68.6191L47.1812 69.1756V69.1761Z" fill="#60547B"/>
<path d="M36.2368 90.3199C34.3592 90.3199 32.5627 89.9137 31.2973 89.4463C30.9936 89.3342 30.7726 89.0541 30.7217 88.7173C29.3222 79.4602 37.4746 67.056 37.8224 66.5328C38.0269 66.2248 38.3866 66.0785 38.7328 66.1631L47.3764 68.2718C47.65 68.3385 47.8765 68.5407 47.9859 68.8153C48.095 69.09 48.0737 69.4034 47.9278 69.6578C44.4074 75.8129 44.1057 85.3118 44.1028 85.4072C44.0994 85.5351 44.071 85.6612 44.0192 85.7769C42.4581 89.2779 39.2439 90.3208 36.2363 90.3208L36.2368 90.3199ZM32.3761 87.8537C34.1577 88.3738 40.1662 89.7291 42.3627 85.1474C42.4204 83.743 42.8705 75.8363 45.845 69.8019L38.9254 68.1138C37.4623 70.4625 31.6146 80.3928 32.3761 87.8537Z" fill="#000072"/>
<path d="M62.335 114.218C35.1177 114.218 38.0129 90.5861 42.1523 76.5154C43.9042 70.55 45.8815 66.3037 45.8815 66.3037L86.2631 66.8769C87.1696 68.8285 88.3727 72.1264 89.3157 76.1043C92.7645 90.6343 92.7645 114.218 62.3355 114.218H62.335Z" fill="white"/>
<path d="M89.3144 76.1048C86.6703 76.8608 84.758 77.3944 84.3648 77.5061C84.3147 77.5201 84.2884 77.5268 84.2884 77.5268C62.9005 84.0659 49.1682 79.7423 44.2203 77.5592C42.8501 76.9563 42.1531 76.5155 42.1531 76.5155C42.5769 75.0705 43.0143 73.7273 43.4338 72.5209C43.9713 70.9692 44.4828 69.6422 44.8956 68.6191C45.4878 67.1485 45.881 66.3042 45.881 66.3042L86.2635 66.877C86.4341 67.2435 86.6152 67.6587 86.8031 68.118C87.2553 69.2198 87.7448 70.5698 88.2238 72.1103C88.6039 73.3328 88.9755 74.6738 89.3144 76.1048Z" fill="#60547B"/>
<g opacity="0.3">
<path d="M89.504 76.9275C91.4316 91.1931 88.158 109.346 61.4608 109.346C47.8892 109.346 41.8057 103.47 39.6291 95.8334C40.5055 105.692 45.9875 114.217 62.3346 114.217C92.196 114.217 92.7526 91.5065 89.5036 76.927L89.504 76.9275Z" fill="#000072"/>
</g>
<path d="M62.3359 115.145C52.2857 115.145 45.3219 111.955 41.6386 105.661C38.138 99.6807 37.6659 91.149 40.2357 80.3037C42.1277 72.3183 44.9775 66.1506 45.0979 65.8917C45.2473 65.5711 45.5561 65.3775 45.8933 65.3748L86.2746 65.9493C86.6029 65.9543 86.9011 66.1538 87.0466 66.4663C88.5254 69.6462 90.5391 75.745 91.3472 82.4674C92.3513 90.8225 91.2293 98.0619 88.102 103.403C83.5397 111.195 74.8707 115.145 62.3363 115.145H62.3359ZM46.4316 67.2385C44.8477 70.8764 35.981 92.4846 43.1246 104.684C46.4677 110.394 52.9317 113.289 62.3359 113.289C74.2255 113.289 82.3948 109.633 86.6169 102.423C93.3278 90.9617 88.2908 73.7088 85.7082 67.7973L46.4321 67.2385H46.4316Z" fill="#000072"/>
<path d="M50.4624 112.142C50.4624 112.142 57.1793 92.2976 39.5002 92.3003H37.005C32.4456 92.3003 28.4984 95.7792 27.7811 100.559C27.5881 101.845 27.5648 103.279 27.8027 104.858C27.8969 105.483 28.0174 106.068 28.1603 106.614C29.399 111.351 33.7628 114.376 38.3578 113.761L50.4628 112.141L50.4624 112.142Z" fill="#60547B"/>
<path d="M34.6091 110.419C37.2462 110.419 39.3839 107.082 39.3839 102.964C39.3839 98.8465 37.2462 95.5085 34.6091 95.5085C31.972 95.5085 29.8343 98.8465 29.8343 102.964C29.8343 107.082 31.972 110.419 34.6091 110.419Z" fill="white"/>
<g opacity="0.3">
<path d="M49.7896 96.7727C49.9305 97.7597 49.978 98.7544 49.9623 99.7176C49.8931 103.979 46.841 107.521 42.8573 108.054L36.6092 108.89C33.1121 109.358 29.7507 107.717 27.7968 104.818C27.7959 104.818 27.7968 104.818 27.7959 104.818C27.8859 105.423 28.0004 105.991 28.1357 106.522C29.3549 111.304 33.7306 114.381 38.3599 113.761L50.462 112.142C50.462 112.142 53.6813 102.625 49.7892 96.7727H49.7896Z" fill="#000072"/>
</g>
<path d="M37.1912 114.767C32.6599 114.767 28.5447 111.554 27.3175 106.862C27.1626 106.27 27.0349 105.645 26.9391 105.004C26.7028 103.435 26.6956 101.891 26.9174 100.413C27.7039 95.1746 31.9459 91.3728 37.0046 91.3728H39.504C44.6657 91.3728 48.3707 93.0141 50.5159 96.2517C54.6082 102.427 51.4228 112.049 51.285 112.456C51.1738 112.785 50.8981 113.019 50.5715 113.063L38.4664 114.683C38.0392 114.74 37.6129 114.768 37.1908 114.768L37.1912 114.767ZM37.0046 93.228C32.81 93.228 29.2938 96.3724 28.6439 100.705C28.4513 101.988 28.4586 103.337 28.6651 104.712C28.7513 105.284 28.8645 105.841 29.002 106.366C30.113 110.614 34.0899 113.398 38.2479 112.841L49.8007 111.296C50.3793 109.269 52.1525 101.941 49.0829 97.3148C47.2835 94.6036 44.0603 93.2285 39.5036 93.2285H37.0046V93.228Z" fill="#000072"/>
<path d="M75.3627 112.209C75.3627 112.209 70.2617 91.3402 88.2628 93.0878L90.8038 93.3341C95.4462 93.784 99.1606 97.7159 99.4724 102.653C99.5563 103.982 99.4541 105.445 99.074 107.029C98.9234 107.657 98.7491 108.24 98.5561 108.781C96.8796 113.483 92.1718 116.132 87.5467 115.053L75.3632 112.209L75.3627 112.209Z" fill="#60547B"/>
<path d="M97.1733 104.905C97.5341 100.713 95.6501 97.103 92.9651 96.8426C90.2802 96.5822 87.8111 99.7697 87.4503 103.962C87.0895 108.154 88.9736 111.764 91.6585 112.024C94.3434 112.285 96.8125 109.097 97.1733 104.905Z" fill="white"/>
<g opacity="0.3">
<path d="M89.2949 109.95L83.7374 108.653C79.0571 107.56 75.9384 102.809 76.6621 97.7809C76.6689 97.7332 76.6761 97.6859 76.6833 97.6382C73.1938 103.328 75.3632 112.21 75.3632 112.21L87.5467 115.054C92.1718 116.133 96.8796 113.483 98.5561 108.782C98.7491 108.241 98.9235 107.658 99.0741 107.03C99.1843 106.57 99.2688 106.122 99.3345 105.683C97.191 109.102 93.2137 110.865 89.2949 109.951V109.95Z" fill="#000072"/>
</g>
<path d="M89.5922 116.217C88.8524 116.217 88.1046 116.133 87.3588 115.959L75.1753 113.115C74.8537 113.04 74.5996 112.78 74.5169 112.442C74.4125 112.015 72.0141 101.913 76.7155 96.0369C79.1797 92.9569 83.093 91.6537 88.343 92.1639L90.8835 92.4102C96.0249 92.9087 100.004 97.1905 100.345 102.591C100.441 104.116 100.298 105.687 99.9212 107.258C99.7672 107.9 99.5827 108.523 99.3735 109.11C97.8303 113.439 93.8517 116.217 89.5922 116.217ZM76.0937 111.43L87.7338 114.147C91.9317 115.126 96.2315 112.679 97.7378 108.453C97.924 107.931 98.0886 107.375 98.2261 106.8C98.5578 105.419 98.6834 104.045 98.5994 102.716C98.3211 98.3027 94.9351 94.6666 90.7236 94.2587L88.183 94.0124C83.5342 93.5612 80.1253 94.645 78.0505 97.2346C74.5063 101.659 75.6834 109.326 76.0932 111.43L76.0937 111.43Z" fill="#000072"/>
<path d="M84.5328 99.555C78.8684 97.6669 77.8698 89.2136 81.8493 83.6115C83.3832 81.4519 84.0848 79.313 84.3644 77.506C84.6397 75.7499 84.5196 74.3049 84.3818 73.4444C84.2965 72.8923 84.2028 72.5789 84.2028 72.5789L83.3921 69.6493L86.8035 68.1183L93.1344 65.2815C93.7834 66.3716 94.3692 67.4433 94.8935 68.4943C105.344 89.3766 92.1553 102.1 84.5328 99.5554V99.555Z" fill="#60547B"/>
<g opacity="0.6">
<path d="M84.3822 73.2187C84.3822 73.2187 86.84 75.6764 85.1105 80.6143C85.1105 80.6143 83.9109 83.6385 82.8504 84.7642C82.8504 84.7642 78.7144 91.6311 82.8504 97.9983C82.8504 97.9983 78.8374 96.035 79.5713 89.1613L81.3945 84.5107L82.6043 82.3538L83.7607 79.7038C83.7607 79.7038 85.4898 76.9827 84.3822 73.2183V73.2187Z" fill="white"/>
</g>
<g opacity="0.3">
<path d="M94.8935 68.4938C94.3692 67.4429 93.7834 66.3712 93.1343 65.281L91.351 66.0803C91.6632 66.6436 91.9593 67.202 92.2342 67.7531C101.772 86.8131 89.7348 98.4265 82.7778 96.1039C81.5141 95.6829 80.5066 94.9016 79.7562 93.8903C80.3896 96.5335 81.9892 98.7075 84.5332 99.5554C92.1557 102.1 105.344 89.3766 94.8939 68.4943L94.8935 68.4938Z" fill="#000072"/>
</g>
<path d="M84.3741 72.5213C84.7097 73.2742 84.8742 74.0663 84.9926 74.8768C85.0991 75.6869 85.1237 76.5149 85.0533 77.3367C85.0041 78.1635 84.8314 78.9749 84.6291 79.7778C84.5014 80.1691 84.3817 80.5662 84.2367 80.9521L83.9945 81.5199C83.91 81.7068 83.8413 81.9036 83.7395 82.0805C83.5439 82.439 83.3645 82.8096 83.1528 83.1572L82.4974 84.1789C82.091 84.7634 81.7411 85.392 81.4446 86.0467C80.8532 87.3566 80.4859 88.7827 80.3785 90.2227C80.2708 91.6605 80.4239 93.1185 80.8812 94.4329C81.3355 95.7455 82.0978 96.9069 83.1261 97.6886C83.6377 98.0812 84.2108 98.3807 84.8221 98.5797L85.2794 98.695C85.3557 98.7125 85.43 98.74 85.5084 98.7503L85.7447 98.7783C85.9025 98.794 86.0582 98.8256 86.2177 98.8314L86.6992 98.8328C86.8591 98.8431 87.0211 98.8174 87.1828 98.8003C87.3444 98.7796 87.506 98.7724 87.6672 98.7431L88.1499 98.6382C88.2301 98.6202 88.3111 98.6063 88.3909 98.5851L88.6289 98.5076L89.1048 98.3554C89.2614 98.2956 89.4149 98.2235 89.5702 98.1591C89.8845 98.0402 90.181 97.8673 90.4818 97.7079C90.5565 97.6665 90.6337 97.6309 90.7066 97.5859L90.9234 97.4459L91.3574 97.1671C91.6412 96.9708 91.9105 96.7484 92.1888 96.5421C92.4476 96.3062 92.7135 96.0788 92.9676 95.837C93.2082 95.5785 93.4618 95.334 93.6939 95.0665C94.6263 93.9984 95.4076 92.7754 96.024 91.4619C96.6353 90.1444 97.0756 88.735 97.362 87.2882C97.6449 85.8409 97.7912 84.3527 97.7531 82.8587L97.7505 82.2989L97.7119 81.7388C97.6831 81.3655 97.6682 80.9913 97.6309 80.6185C97.5282 79.875 97.4663 79.1257 97.3051 78.3895C97.2326 78.0203 97.1711 77.6488 97.0905 77.2813L96.8156 76.1844L96.6786 75.6355C96.6272 75.4541 96.5674 75.2748 96.5123 75.0947L96.1755 74.0136L96.0906 73.7434L95.9914 73.4782L95.7932 72.9473L95.3975 71.8846C95.0976 71.1907 94.8006 70.495 94.4918 69.8047C94.1537 69.1284 93.8313 68.443 93.4894 67.768L92.3967 65.7773L92.3856 65.757C92.1426 65.3144 92.2838 64.7461 92.7008 64.4881C93.1055 64.2377 93.6226 64.3733 93.875 64.7862C95.5018 67.4596 96.9301 70.2987 97.9656 73.3278L98.3368 74.4702C98.3974 74.6611 98.4628 74.8502 98.5196 75.0425L98.6736 75.6261L98.9807 76.7937C99.0715 77.1863 99.144 77.5853 99.2259 77.9811C99.4066 78.7691 99.4868 79.581 99.6056 80.3843C99.6522 80.7882 99.6705 81.1971 99.7023 81.6032L99.7451 82.2134L99.7511 82.8271C99.7969 84.4621 99.6446 86.1102 99.3337 87.725C99.021 89.3397 98.5315 90.927 97.8316 92.4152C97.1295 93.9007 96.237 95.2926 95.1616 96.5173C94.0888 97.743 92.8289 98.8021 91.4049 99.5816C91.0451 99.7694 90.6909 99.967 90.3091 100.111C90.1208 100.187 89.935 100.27 89.7445 100.34L89.1608 100.522L88.8685 100.611C88.7697 100.637 88.6683 100.655 88.5682 100.677L87.9663 100.8C87.7639 100.833 87.5565 100.845 87.352 100.868C87.1467 100.887 86.9422 100.913 86.7331 100.902L86.1087 100.892C85.9004 100.881 85.6917 100.842 85.4834 100.818L85.1712 100.774C85.0673 100.758 84.965 100.724 84.8619 100.699L84.2456 100.533C83.4493 100.265 82.6845 99.8576 82.0062 99.3263C80.6398 98.264 79.6642 96.7285 79.1335 95.0989C78.5956 93.463 78.451 91.7339 78.6011 90.0579C78.753 88.3801 79.2026 86.7447 79.9081 85.2452C80.2619 84.4959 80.6768 83.7786 81.1561 83.1117L81.7593 82.2035C81.9528 81.8977 82.114 81.5722 82.2942 81.2579C82.4669 80.9395 82.6039 80.6022 82.7626 80.2753C82.9085 79.943 83.0277 79.5985 83.166 79.2604C83.272 78.9114 83.3972 78.5665 83.4918 78.2121C83.5804 77.8559 83.6844 77.5015 83.7476 77.1368C83.9045 76.4127 83.9953 75.6697 84.0458 74.9169C84.0997 74.1667 84.0971 73.3917 84.0352 72.6366L84.0339 72.6199C84.0254 72.515 84.0984 72.4222 84.1976 72.4128C84.2744 72.4056 84.3448 72.4515 84.3762 72.5213H84.3741Z" fill="#000072"/>
<path d="M19.6826 60.3845C19.6826 60.3845 20.8734 72.5658 9.23534 78.7713C9.23534 78.7713 9.77662 65.6133 19.6826 60.3845Z" fill="#248943"/>
<path d="M9.12166 78.9582L9.12972 78.7664C9.13523 78.634 9.78808 65.4819 19.636 60.2837L19.773 60.2117L19.7887 60.3729C19.7917 60.4035 20.0754 63.4857 18.925 67.2853C17.8632 70.7922 15.3282 75.6486 9.2837 78.8717L9.12208 78.9578L9.12166 78.9582ZM19.5893 60.5606C10.6344 65.4004 9.47417 76.9395 9.35412 78.5813C15.2141 75.3932 17.6829 70.6499 18.7227 67.2164C19.7094 63.9581 19.6296 61.2419 19.5893 60.5606Z" fill="#000072"/>
<g opacity="0.3">
<path d="M19.6826 60.3845C18.2747 61.1275 17.0564 62.0312 16.0018 63.034C15.9925 65.6309 15.3638 72.6298 9.31679 77.818C9.25019 78.4223 9.23576 78.7713 9.23576 78.7713C20.8738 72.5658 19.6831 60.3845 19.6831 60.3845H19.6826Z" fill="#000072"/>
</g>
<path d="M20.4042 60.9752C19.7891 61.7106 19.1749 62.5004 18.5844 63.2893C17.9926 64.0823 17.4178 64.8914 16.8608 65.715C16.3013 66.5377 15.7723 67.3824 15.259 68.2407C14.7487 69.1008 14.2749 69.9856 13.829 70.8911C13.8167 70.9172 13.7866 70.928 13.762 70.915C13.7395 70.9033 13.7298 70.8749 13.737 70.8501C14.0517 69.882 14.4004 68.9211 14.7899 67.9782C15.1818 67.0371 15.5942 66.1018 16.04 65.185C16.4837 64.2669 16.9474 63.3582 17.4327 62.4612C17.9209 61.5615 18.416 60.6844 18.9619 59.7932C19.2372 59.3443 19.8035 59.2169 20.2265 59.5091C20.6498 59.8013 20.7694 60.4025 20.4941 60.8514C20.47 60.891 20.4432 60.928 20.4148 60.9626L20.4046 60.9748L20.4042 60.9752Z" fill="#000072"/>
<path d="M9.23534 79.7386C9.06269 79.7386 8.89047 79.6864 8.7403 79.5833C8.46881 79.3969 8.311 79.0718 8.325 78.7291C8.34791 78.1685 9.00797 64.9389 19.2767 59.5183C19.5443 59.3774 19.8599 59.3841 20.1217 59.5368C20.3834 59.6899 20.5582 59.969 20.5892 60.2843C20.6019 60.4166 20.8929 63.5772 19.6907 67.5466C18.5818 71.2092 15.9386 76.2795 9.64428 79.6355C9.51489 79.7044 9.37491 79.7386 9.23534 79.7386ZM18.7901 62.0201C12.6735 66.066 10.8643 73.5805 10.3459 77.0166C14.0844 74.6112 16.633 71.2597 17.9319 67.0323C18.55 65.0222 18.7413 63.2219 18.7897 62.0201H18.7901Z" fill="#000072"/>
<path d="M20.5972 61.4607C20.5972 61.4607 10.035 66.3883 0.911194 56.5228C0.911194 56.5228 12.8793 53.0475 20.5972 61.4607Z" fill="#248943"/>
<path d="M14.1816 62.8039H14.1756C10.7056 62.8025 5.57447 61.7259 0.835687 56.6015L0.709274 56.4647L0.883622 56.4138C1.0041 56.3791 13.0006 53.0177 20.6736 61.3818L20.78 61.498L20.6401 61.5633C20.6138 61.5759 17.9383 62.8034 14.1816 62.8034V62.8039ZM1.11778 56.5844C5.76578 61.5291 10.7714 62.5756 14.1667 62.5787H14.1816C17.4008 62.5787 19.8116 61.6687 20.411 61.4197C13.3349 53.8512 2.62922 56.2035 1.11821 56.5844H1.11778Z" fill="#000072"/>
<g opacity="0.7">
<path d="M18.528 62.1488C19.8286 61.8187 20.5972 61.4607 20.5972 61.4607C12.8788 53.0475 0.911194 56.5228 0.911194 56.5228C1.06857 56.693 1.22638 56.8574 1.38418 57.019C2.73272 56.829 12.0699 55.7843 18.528 62.1488Z" fill="white"/>
</g>
<path d="M20.288 62.3708C19.4404 61.9736 18.5441 61.5945 17.6562 61.2392C16.7641 60.8835 15.8627 60.5498 14.9536 60.2386C14.045 59.9243 13.1253 59.6479 12.1984 59.3916C11.2707 59.1386 10.3327 58.9305 9.3838 58.7567C9.35665 58.7522 9.33757 58.7252 9.34181 58.6964C9.34563 58.6703 9.36811 58.6514 9.39229 58.6514C10.3569 58.6739 11.3254 58.7324 12.2904 58.8373C13.2542 58.9459 14.2193 59.0764 15.178 59.2467C16.1371 59.4142 17.0937 59.6055 18.0469 59.8212C19.0035 60.0396 19.9414 60.272 20.9073 60.5516C21.3943 60.6925 21.6815 61.2261 21.5487 61.7431C21.4159 62.26 20.9132 62.5649 20.4263 62.4239C20.3834 62.4113 20.3423 62.396 20.3024 62.378L20.288 62.3712V62.3708Z" fill="#000072"/>
<path d="M14.1815 63.6586H14.1752C10.5512 63.6572 5.19521 62.536 0.260877 57.2005C0.0343518 56.9555 -0.0530342 56.6021 0.0313823 56.2706C0.115799 55.9392 0.358868 55.6803 0.670657 55.5898C1.18055 55.4416 13.2487 52.064 21.2501 60.7857C21.4583 61.0127 21.5487 61.3342 21.4914 61.6453C21.4342 61.9565 21.2369 62.2185 20.9637 62.346C20.8488 62.3996 18.1054 63.6581 14.1815 63.6581V63.6586ZM2.82731 57.1086C9.18824 62.9462 16.0052 61.8804 18.8558 61.0572C13.3586 56.1148 6.06907 56.5822 2.82731 57.1086Z" fill="#000072"/>
<path d="M41.3399 87.7488L20.0869 63.0359C19.1265 61.9192 18.5937 60.4616 18.5937 58.9491V55.3287C18.5937 54.2683 19.8226 53.7622 20.4963 54.5457L45.5459 83.6732C46.606 84.9061 46.5241 86.8181 45.3627 87.9434C44.2012 89.0686 42.4 88.9817 41.3399 87.7488Z" fill="#59E041"/>
<path d="M43.4444 88.8447C42.6427 88.8447 41.8439 88.5011 41.2619 87.8248L20.0088 63.1119C19.0281 61.9717 18.4881 60.4934 18.4881 58.9494V55.329C18.4881 54.7909 18.7816 54.3357 19.2546 54.1412C19.7272 53.9462 20.2332 54.0727 20.5752 54.4699L45.6244 83.5975C46.7222 84.874 46.6374 86.8612 45.4343 88.0265C44.8689 88.5745 44.1554 88.8447 43.4444 88.8447ZM41.4184 87.673C42.4373 88.8578 44.1749 88.942 45.2914 87.8604C46.4075 86.7783 46.4868 84.9344 45.4678 83.7492L20.4186 54.6216C20.0822 54.2308 19.6368 54.2254 19.3314 54.351C19.0264 54.4766 18.7006 54.7995 18.7006 55.329V58.9494C18.7006 60.4372 19.2211 61.8614 20.1658 62.9601L41.4188 87.673H41.4184Z" fill="#000072"/>
<g opacity="0.3">
<path d="M20.9612 61.8758L42.2142 86.5887C43.2149 87.7523 44.8752 87.8937 46.035 86.9598C46.3078 86.3194 46.3617 85.5963 46.1899 84.9213C45.0335 85.8003 43.4151 85.644 42.4327 84.5012L21.1796 59.7883C20.2193 58.6715 19.6865 57.2139 19.6865 55.7014V54.1677C19.6126 54.1686 19.5397 54.1776 19.468 54.1934V57.789C19.468 59.3011 20.0004 60.7586 20.9612 61.8758Z" fill="#000072"/>
</g>
<path d="M23.8619 68.0111H23.8445C23.5297 68.0102 23.2761 67.7387 23.2769 67.4046C23.2778 67.0714 23.5327 66.8021 23.8462 66.8021C23.8509 66.8021 23.8568 66.8021 23.8619 66.8021C26.8249 66.8021 27.5639 63.4573 27.594 63.3146C27.6627 62.9895 27.9661 62.7837 28.2732 62.8553C28.5799 62.9273 28.7737 63.2479 28.7067 63.5735C28.3907 65.1099 26.9717 68.0107 23.8623 68.0107L23.8619 68.0111Z" fill="#000072"/>
<path d="M32.6654 78.2192H32.648C32.3337 78.2183 32.0796 77.9468 32.0804 77.6127C32.0812 77.2795 32.3362 77.0102 32.6497 77.0102C32.6556 77.0102 32.6599 77.0102 32.665 77.0102C35.6458 77.0102 36.3903 73.5587 36.3975 73.5241C36.4645 73.1976 36.7679 72.9909 37.0754 73.0625C37.3825 73.1337 37.5772 73.4561 37.5102 73.7821C37.1942 75.3185 35.7748 78.2192 32.6654 78.2192Z" fill="#000072"/>
<g opacity="0.7">
<path d="M20.1611 56.6264L45.2108 85.754C45.5794 86.1827 45.8064 86.6933 45.9018 87.2246C46.3786 86.1498 46.231 84.8304 45.4292 83.8983L20.3796 54.7708C19.706 53.9873 18.477 54.4934 18.477 55.5538V56.7097C18.8605 56.1743 19.6623 56.0469 20.1611 56.6264Z" fill="white"/>
</g>
<path d="M43.4448 89.6989C42.4246 89.6989 41.4078 89.2616 40.6671 88.4007L19.4141 63.6878C18.2976 62.3896 17.6829 60.7069 17.6829 58.9489V55.3286C17.6829 54.4429 18.1856 53.6639 18.9636 53.3437C19.7408 53.0235 20.6074 53.2392 21.1699 53.893L46.2191 83.0206C47.6165 84.6453 47.5079 87.1741 45.9773 88.6574C45.2579 89.3544 44.3501 89.6984 43.4448 89.6984V89.6989ZM42.0131 87.0966C42.733 87.9337 43.9602 87.9927 44.7488 87.229C45.5374 86.4649 45.593 85.1622 44.8731 84.3255L19.8239 55.198C19.8031 55.1737 19.7399 55.0998 19.6224 55.1476C19.5053 55.1957 19.5053 55.2962 19.5053 55.329V58.9494C19.5053 60.2232 19.9512 61.4431 20.7601 62.3837L42.0131 87.0966Z" fill="#000072"/>
<path d="M32.3354 80.8398C32.3354 80.8398 28.1807 93.4232 38.1949 97.905C44.4536 100.706 47.16 98.0838 48.31 95.7229C48.9599 94.3882 49.2038 92.877 49.1143 91.3776C48.4415 80.1432 35.7052 82.736 35.7052 82.736L32.3358 80.8398H32.3354Z" fill="#60547B"/>
<g opacity="0.6">
<path d="M36.703 82.879C36.703 82.879 43.9857 83.1721 46.5029 87.4557C46.5029 87.4557 49.0834 92.3441 47.938 96.6011C47.938 96.6011 49.5627 93.9872 49.3442 93.8201C49.1258 93.6531 49.2127 90.1431 49.2127 90.1431L48.2825 87.0644L46.402 84.8044L43.3613 82.879L40.1259 82.4007L37.8072 82.3962L36.7025 82.879H36.703Z" fill="white"/>
</g>
<g opacity="0.3">
<path d="M49.0006 90.26C49.0006 90.26 47.7908 98.0167 40.8635 95.5086C34.1649 93.0833 32.1775 88.3061 31.8208 82.9958C31.8208 82.9958 28.6656 94.2144 39.672 98.4904C39.672 98.4904 49.3985 101.39 49.0006 90.2604V90.26Z" fill="#000072"/>
</g>
<path d="M35.684 82.62C36.2054 82.3341 36.7509 82.1499 37.3062 82.0134C37.8615 81.8766 38.4273 81.7951 38.997 81.764C39.5668 81.7311 40.1403 81.746 40.7117 81.8113C41.2839 81.8653 41.8553 81.9635 42.4238 82.0886C43.5564 82.3566 44.6907 82.7533 45.7249 83.4125C46.7553 84.0627 47.7051 84.9385 48.3847 86.0233C49.074 87.099 49.5241 88.3229 49.7625 89.559C49.8936 90.1795 49.9483 90.7973 50.0026 91.425C50.0391 92.0644 50.0217 92.711 49.939 93.3536C49.7786 94.6356 49.3578 95.9153 48.6583 97.0127C48.3058 97.5616 47.8977 98.0889 47.398 98.5261C47.2826 98.6454 47.1426 98.7359 47.0145 98.8404C46.883 98.9408 46.7545 99.0457 46.6102 99.1254L46.186 99.3785C46.041 99.4532 45.8904 99.5158 45.7419 99.5838C45.4475 99.732 45.134 99.8013 44.8277 99.9022C44.6737 99.9495 44.5172 99.9661 44.362 99.9985C44.2063 100.025 44.0502 100.061 43.8949 100.076C43.5857 100.094 43.2722 100.131 42.9655 100.125C42.6613 100.109 42.3516 100.111 42.0517 100.075C40.8415 99.958 39.7106 99.5996 38.6221 99.1849C36.451 98.3739 34.3185 96.9465 32.8643 94.8801C32.1347 93.8566 31.579 92.6975 31.2116 91.4939C30.8439 90.2885 30.6424 89.0448 30.5711 87.8078C30.5096 86.5699 30.566 85.3384 30.723 84.1285C30.7997 83.5228 30.9071 82.923 31.0347 82.3282C31.0984 82.0306 31.1696 81.7343 31.2456 81.4384C31.3262 81.1372 31.4025 80.8593 31.5098 80.5324C31.6689 80.0488 32.1669 79.7931 32.6225 79.9615C33.0705 80.1272 33.3106 80.6405 33.1685 81.1169L33.16 81.1457C33.0926 81.3718 33.0196 81.6555 32.9572 81.9171C32.8957 82.1859 32.8376 82.4565 32.7863 82.729C32.6823 83.2738 32.6005 83.8245 32.5415 84.3761C32.4155 85.4784 32.3846 86.5884 32.4558 87.6786C32.5343 88.7674 32.7154 89.8382 33.0344 90.85C33.3505 91.8627 33.8243 92.8002 34.4165 93.6382C35.0117 94.4753 35.7438 95.1998 36.5719 95.7982C36.9804 96.1053 37.4262 96.362 37.8767 96.6083L38.5694 96.9505L39.2974 97.2504C40.2684 97.6305 41.2623 97.9497 42.2452 98.0488C43.2247 98.1586 44.1952 98.0884 45.0326 97.7196C46.7214 97.0437 47.8841 95.121 48.1586 93.0861C48.2328 92.5741 48.2553 92.0495 48.2332 91.525C48.1925 90.9918 48.1548 90.4452 48.0513 89.9246C47.8608 88.8772 47.5235 87.8785 46.995 87.0094C46.4766 86.1323 45.741 85.4204 44.9024 84.857C44.0629 84.2883 43.0906 83.915 42.0895 83.6503C41.0824 83.3859 40.0334 83.2932 38.9775 83.1977C37.9187 83.0937 36.8472 83.0198 35.7252 82.8514L35.7205 82.8505C35.6573 82.8411 35.6127 82.7789 35.6221 82.7114C35.6276 82.6704 35.6518 82.6371 35.6836 82.6191L35.684 82.62Z" fill="#000072"/>
<g opacity="0.3">
<path d="M94.8935 68.4938C92.9727 69.8649 90.7588 71.0825 88.2238 72.1101C87.0173 72.5996 85.7367 73.0449 84.3818 73.4439C78.6758 75.1257 71.6238 75.9745 62.9832 75.7079C55.8023 75.4877 50.0306 74.5736 45.4089 73.1723C44.7251 72.9661 44.0671 72.7477 43.4334 72.5203C40.9683 71.6364 38.8702 70.5994 37.0915 69.4538C37.9395 67.9647 38.536 67.0668 38.536 67.0668L44.8952 68.6185C45.4874 67.1479 45.8806 66.3036 45.8806 66.3036L86.2631 66.8764C86.4336 67.2429 86.6148 67.6581 86.8027 68.1174L93.1335 65.2805C93.7826 66.3707 94.3684 67.4424 94.8927 68.4933L94.8935 68.4938Z" fill="#000072"/>
<path d="M66.032 75.8687C65.0313 75.8687 64.014 75.853 62.9803 75.821C56.1714 75.6121 50.2499 74.7574 45.3796 73.2814C44.7162 73.081 44.0497 72.8613 43.3994 72.628C41.0256 71.7769 38.8846 70.7417 37.0364 69.5507L36.946 69.4926L37.0008 69.3963C37.8407 67.9207 38.4435 67.0115 38.4494 67.0025L38.4906 66.9408L44.8328 68.4885C45.4 67.0845 45.7818 66.2627 45.786 66.2541L45.8157 66.1906L45.8827 66.1915L86.3301 66.7652L86.359 66.8269C86.5232 67.1795 86.6911 67.564 86.8591 67.9706L93.1764 65.1396L93.2243 65.2203C93.8644 66.2951 94.4575 67.3785 94.9873 68.4407L95.0318 68.5303L94.9525 68.5871C92.9817 69.9938 90.73 71.2145 88.2615 72.2155C87.0509 72.7068 85.7549 73.1566 84.4102 73.5524C79.1878 75.0915 73.0173 75.8683 66.032 75.8683V75.8687ZM37.2375 69.4165C39.0514 70.5742 41.1469 71.5824 43.4677 72.4146C44.1146 72.6465 44.7777 72.8653 45.4382 73.0648C50.2915 74.5359 56.1955 75.3874 62.9866 75.5959C71.2145 75.8503 78.4043 75.0897 84.3538 73.3359C85.6921 72.9419 86.9817 72.4943 88.186 72.0052C90.607 71.0241 92.8162 69.8303 94.7548 68.4569C94.2521 67.4555 93.6935 66.4351 93.0928 65.422L86.748 68.2651L86.706 68.1629C86.5354 67.7455 86.3641 67.351 86.1969 66.9885L45.9468 66.4176C45.845 66.6405 45.4865 67.4375 44.9928 68.6632L44.958 68.7496L38.5822 67.1934C38.438 67.415 37.9221 68.2183 37.2375 69.4156V69.4165Z" fill="#222A66"/>
</g>
<path d="M51.436 16.5073C51.2684 23.7476 45.6032 29.473 38.782 29.2956C35.6755 29.2146 32.8618 27.9204 30.737 25.8527C28.1972 23.3846 26.6413 19.8066 26.7325 15.8634C26.9 8.62048 32.5653 2.89502 39.389 3.07288C42.4081 3.15168 45.1463 4.37197 47.2487 6.33885C49.8953 8.815 51.5297 12.4718 51.4364 16.5078L51.436 16.5073Z" fill="#60547B"/>
<path d="M39.0895 29.4122C38.986 29.4122 38.8834 29.4108 38.7794 29.4081C35.7672 29.3293 32.8855 28.0964 30.6653 25.9355C28.0102 23.3553 26.5378 19.6832 26.6264 15.8606C26.7953 8.56817 32.5139 2.78372 39.3916 2.96023C42.3139 3.03633 45.1293 4.20619 47.3187 6.25412C50.0934 8.85005 51.6328 12.5879 51.542 16.51C51.3757 23.6908 45.8191 29.4117 39.09 29.4117L39.0895 29.4122ZM39.081 3.18133C32.4643 3.18133 27.0014 8.80592 26.8385 15.866C26.7516 19.6233 28.1985 23.2333 30.8086 25.7693C32.9912 27.8933 35.824 29.1055 38.7849 29.1825C45.5345 29.3563 51.1641 23.6709 51.3299 16.5041C51.419 12.6487 49.9059 8.97433 47.1782 6.42253C45.0263 4.40972 42.2592 3.25968 39.386 3.18493C39.2842 3.18223 39.1824 3.18088 39.081 3.18088V3.18133Z" fill="#000072"/>
<g opacity="0.3">
<path d="M51.2239 16.282C51.0563 23.5222 45.3911 29.2477 38.5699 29.0703C35.4634 28.9892 32.6497 27.6951 30.5248 25.6274C33.2024 18.6933 38.1015 10.8164 47.0361 6.11353C49.6827 8.58968 51.3172 12.2465 51.2239 16.2825V16.282Z" fill="#000072"/>
</g>
<g opacity="0.6">
<path d="M38.5856 5.43511C41.6046 5.51392 44.3429 6.73421 46.4452 8.70108C49.0918 11.1772 50.7263 14.8341 50.633 18.87C50.6096 19.8809 50.4756 20.8612 50.2495 21.801C50.9689 20.1921 51.3923 18.4026 51.436 16.5078C51.5293 12.4723 49.8953 8.815 47.2482 6.33885C45.1459 4.37243 42.4077 3.15169 39.3886 3.07288C33.5185 2.91979 28.509 7.13767 27.116 12.9302C29.1449 8.39128 33.5482 5.30363 38.5856 5.43511Z" fill="white"/>
</g>
<path d="M39.0929 30.2272C38.9818 30.2272 38.8711 30.2259 38.7595 30.2227C31.467 30.0327 25.6796 23.58 25.8586 15.8391C26.0376 8.0981 32.108 1.95207 39.409 2.14479C42.9417 2.2371 46.2289 3.78385 48.6655 6.50046C51.1021 9.21707 52.3964 12.7784 52.3094 16.5285C52.2225 20.2785 50.7653 23.7678 48.2061 26.3547C45.7275 28.8597 42.5022 30.2272 39.0925 30.2272H39.0929ZM39.0802 3.99684C32.8788 3.99684 27.7595 9.26795 27.6063 15.885C27.4511 22.6029 32.4736 28.2027 38.8023 28.368C45.1243 28.5368 50.4064 23.2018 50.5621 16.4834C50.6376 13.2292 49.5143 10.1384 47.3997 7.78064C45.285 5.42291 42.4323 4.0806 39.3661 4.00044C39.2707 3.99774 39.1752 3.99684 39.0802 3.99684Z" fill="#000072"/>
<path d="M81.4212 15.1121C81.4263 22.9391 87.408 29.2801 94.7815 29.2747C98.1395 29.2724 101.211 27.9513 103.557 25.7755C106.361 23.1787 108.129 19.3557 108.126 15.0928C108.121 7.26265 102.139 0.92209 94.7633 0.927494C91.4995 0.929745 88.5118 2.17345 86.1927 4.24074C83.2729 6.84342 81.4187 10.7497 81.4212 15.1121Z" fill="#60547B"/>
<path d="M94.7722 29.3875C87.3559 29.3875 81.3203 22.9862 81.3152 15.1124C81.3126 10.8751 83.0655 6.88103 86.1244 4.15451C88.5377 2.00302 91.6059 0.816949 94.7633 0.814697H94.7722C102.19 0.814697 108.227 7.21739 108.232 15.0925C108.235 19.2222 106.556 23.1469 103.626 25.8599C101.176 28.1321 98.0352 29.3848 94.7811 29.387H94.7718L94.7722 29.3875ZM81.5273 15.1124C81.5324 22.8614 87.4734 29.1624 94.7722 29.1624H94.7815C97.9843 29.1601 101.076 27.9272 103.487 25.6911C106.371 23.0208 108.023 19.1578 108.02 15.0934C108.015 7.34257 102.073 1.04029 94.7726 1.04029H94.7637C91.656 1.04254 88.6365 2.2097 86.261 4.32742C83.2504 7.01116 81.5252 10.9422 81.5277 15.1124H81.5273Z" fill="#000072"/>
<g opacity="0.3">
<path d="M81.4212 15.1124C81.4263 22.9393 87.408 29.2803 94.7815 29.2749C98.1395 29.2727 101.211 27.9515 103.557 25.7757C100.833 18.2108 95.7309 9.56657 86.1927 4.24097C83.2729 6.84365 81.4187 10.7499 81.4212 15.1124Z" fill="#000072"/>
</g>
<g opacity="0.6">
<path d="M95.5735 3.50157C92.3097 3.50382 89.322 4.74752 87.0029 6.81481C84.0831 9.4175 82.2289 13.3238 82.2315 17.6862C82.2323 18.7791 82.3532 19.8417 82.5746 20.8635C81.8365 19.1055 81.4225 17.1607 81.4212 15.1119C81.4183 10.749 83.2729 6.84273 86.1927 4.24049C88.5118 2.17321 91.4999 0.929501 94.7633 0.927249C101.109 0.922746 106.419 5.61659 107.783 11.913C105.701 6.95395 101.019 3.49706 95.5735 3.50112V3.50157Z" fill="white"/>
</g>
<path d="M94.773 30.2029C90.9768 30.2029 87.4072 28.6349 84.7207 25.7873C82.0317 22.9369 80.5495 19.1455 80.5469 15.1118C80.5444 11.0781 82.0215 7.28482 84.7067 4.43042C87.3923 1.57602 90.9637 0.00270175 94.7637 0H94.7735C102.614 0 108.994 6.76743 109 15.0911C109.003 19.1248 107.525 22.918 104.84 25.7724C102.155 28.6268 98.5832 30.2002 94.7832 30.2029H94.773ZM94.773 1.85565H94.7645C91.4316 1.85835 88.2988 3.23805 85.9437 5.74167C83.5885 8.24529 82.2925 11.572 82.2947 15.1104C82.2968 18.6484 83.597 21.9738 85.9555 24.4738C88.312 26.9716 91.443 28.3468 94.7726 28.3472H94.7815C98.1145 28.345 101.247 26.9648 103.602 24.4612C105.958 21.9576 107.254 18.6304 107.251 15.0924C107.247 7.79184 101.65 1.85565 94.773 1.85565Z" fill="#000072"/>
<path d="M31.3554 38.7245C31.3554 38.7245 15.5076 71.921 63.1741 72.5937C111.484 73.2759 108.066 38.8772 98.7207 21.5572C89.8756 5.16477 77.5614 2.56028 62.1552 3.80984C45.9888 5.12109 30.7624 19.715 31.3554 38.7245Z" fill="white"/>
<path d="M64.5646 72.7163C64.1044 72.7163 63.6403 72.7132 63.1724 72.7064C46.5228 72.4714 35.7515 68.267 31.1582 60.2104C25.8069 50.8241 30.9571 39.3313 31.2481 38.6999C30.9766 29.7635 34.2243 21.1886 40.3944 14.5513C46.2021 8.30347 54.1305 4.34765 62.1463 3.69743C71.0312 2.97697 77.4426 3.67537 82.9365 5.96285C89.4383 8.67 94.6309 13.7529 98.8119 21.5015C103.843 30.8248 107.466 45.7709 101.125 57.2087C98.417 62.0921 94.1215 65.8859 88.3574 68.484C82.1233 71.2939 74.1241 72.7163 64.5642 72.7163H64.5646ZM68.4597 3.6452C66.4261 3.6452 64.3275 3.74697 62.1628 3.92213C46.914 5.15908 30.84 18.8151 31.4611 38.7207L31.4619 38.7495L31.4496 38.7751C31.3936 38.8922 25.9239 50.5966 31.3402 60.0951C35.8936 68.0797 46.6043 72.2471 63.175 72.4813C63.6543 72.488 64.132 72.4912 64.6033 72.4916C83.0544 72.4916 95.2749 67.3155 100.942 57.0948C107.238 45.7398 103.63 30.8847 98.6278 21.6136C91.0074 7.49069 80.9695 3.6452 68.4588 3.6452H68.4597Z" fill="#000072"/>
<path d="M49.161 47.0217C49.161 47.0217 50.5944 40.7311 53.8421 36.2156C55.6004 33.7709 55.7298 30.36 53.9927 27.8978C52.888 26.3321 51.0389 25.1406 47.9499 25.3347C39.7123 25.853 34.506 37.2418 34.7207 44.0412C34.9349 50.841 38.9025 53.7904 41.4973 53.8706C44.0922 53.9503 48.1106 52.8795 49.161 47.0212V47.0217Z" fill="#60547B"/>
<path d="M75.3712 47.7016C75.3712 47.7016 73.2583 41.0688 69.2394 36.5002C67.0632 34.0263 66.6483 30.374 68.413 27.5794C69.535 25.8026 71.5258 24.3626 75.0247 24.304C84.3546 24.1482 91.1241 35.9301 91.4189 43.2518C91.7141 50.5736 87.4734 54.085 84.5536 54.3952C81.6342 54.7055 77.0184 53.9026 75.3708 47.7016H75.3712Z" fill="#60547B"/>
<g opacity="0.3">
<path d="M98.7203 21.5578C93.8767 12.5812 87.993 7.73924 81.1307 5.40088C86.0094 7.9797 90.2913 12.2642 93.9467 19.0389C102.785 35.4196 106.018 67.9536 60.3273 67.3083C39.6779 67.017 31.6325 60.2716 28.9757 53.0462C30.0277 62.1223 37.0945 72.2259 63.1737 72.5943C111.483 73.2765 108.065 38.8778 98.7203 21.5578Z" fill="#000072"/>
</g>
<g opacity="0.3">
<path d="M70.428 45.0867C70.1574 44.5828 69.4511 44.6423 69.2767 45.1921C68.8118 46.6569 67.7568 48.7426 65.5441 48.5454C62.1641 48.2437 63.4219 43.7502 63.4219 43.7502L60.6667 43.7962L57.8987 43.8426C57.8987 43.8426 58.6453 49.2051 55.482 48.8237C53.6393 48.6017 52.8706 47.2112 52.5499 46.0891C52.3934 45.5411 51.6909 45.4645 51.4305 45.9661C50.4985 47.7628 49.7549 50.959 54.5 53.0623L60.7511 49.5054L68.4355 52.2324C72.3764 50.1376 71.3867 46.8708 70.428 45.0872V45.0867Z" fill="#000072"/>
</g>
<path d="M65.7851 39.5735C63.8834 38.4595 60.5894 38.5797 60.5894 38.5797C60.5894 38.5797 57.2934 38.5689 55.4256 39.7464C54.8037 40.1382 54.5615 40.9717 54.8377 41.6813C55.4167 43.1682 56.9472 45.6556 60.6934 45.593C64.4399 45.5304 65.8954 42.9935 66.4303 41.4881C66.6852 40.7699 66.4184 39.945 65.7851 39.574V39.5735Z" fill="#000072"/>
<path d="M61.4408 44.773C61.4561 44.9045 61.462 44.9847 61.4701 45.0869L61.4858 45.3733C61.4934 45.5628 61.4972 45.751 61.4917 45.9393C61.4824 46.3157 61.4552 46.6926 61.4026 47.0709C61.2953 47.8242 61.0943 48.591 60.7367 49.3165C60.5555 49.678 60.3337 50.0266 60.0728 50.3472C59.8153 50.6718 59.4976 50.9465 59.1658 51.1847C58.8311 51.4243 58.4655 51.5945 58.0985 51.7363C57.729 51.8606 57.3545 51.9543 56.9854 51.9894C56.2375 52.0677 55.5575 52.0281 54.8419 51.902C54.486 51.834 54.1288 51.7332 53.7772 51.5823C53.4268 51.4364 53.0806 51.2442 52.7667 50.9893C52.1363 50.4895 51.646 49.746 51.4797 48.9607C51.3164 48.1736 51.391 47.3942 51.7312 46.7097C51.7859 46.5989 51.9149 46.5566 52.0193 46.6152C52.0757 46.6467 52.113 46.7007 52.127 46.7615L52.1342 46.7935C52.429 48.0962 52.7841 49.1683 53.6168 49.6965C53.8209 49.8325 54.0533 49.9338 54.3015 50.0086C54.422 50.0518 54.5552 50.0738 54.6824 50.1049C54.816 50.1243 54.9467 50.1504 55.0837 50.163C55.6246 50.2188 56.2257 50.2035 56.736 50.1063C56.9973 50.0599 57.2391 49.9788 57.4711 49.891C57.6943 49.7866 57.9098 49.6753 58.0943 49.5245C58.468 49.2309 58.7633 48.8391 58.9851 48.3645C59.1972 47.885 59.3516 47.3401 59.4242 46.7606C59.464 46.472 59.4899 46.1766 59.4992 45.8798C59.5031 45.7317 59.5073 45.5826 59.5048 45.4354L59.4992 45.217L59.4882 45.0274L59.4844 44.9639C59.4517 44.3889 59.8641 43.8949 60.4058 43.8598C60.9258 43.8265 61.3759 44.2318 61.44 44.7726L61.4408 44.773Z" fill="#000072"/>
<path d="M61.4417 44.7067L61.4353 44.9107L61.4362 45.1453C61.4387 45.3034 61.4476 45.4628 61.4578 45.6217C61.4786 45.9396 61.5185 46.2553 61.5749 46.5619C61.6818 47.1775 61.8739 47.7547 62.1425 48.2478C62.2748 48.4968 62.4343 48.7179 62.6137 48.9138C62.6994 49.0169 62.8012 49.0993 62.8946 49.1934C62.9998 49.2713 63.0969 49.3623 63.2119 49.428C63.6497 49.7257 64.1871 49.8909 64.7645 49.9738C65.3346 50.0521 65.9857 50.0454 66.5784 49.9675C66.7298 49.9517 66.8706 49.9157 67.0191 49.8936C67.1578 49.8545 67.3063 49.8301 67.4386 49.7793C67.7144 49.6955 67.968 49.5757 68.1975 49.4285C68.6637 49.1371 68.9891 48.7035 69.2305 48.1708C69.4735 47.639 69.6275 46.9856 69.7395 46.2895L69.7442 46.2616C69.7641 46.1387 69.874 46.0558 69.9902 46.077C70.0551 46.0887 70.1086 46.1314 70.1391 46.1877C70.3364 46.5543 70.4378 46.9357 70.4895 47.3436C70.5362 47.7493 70.5226 48.174 70.4263 48.5932C70.2447 49.4375 69.7035 50.2174 69.0353 50.7303C68.7019 50.9901 68.3405 51.1977 67.9723 51.3494C67.7886 51.4363 67.6024 51.4881 67.4157 51.5566C67.2299 51.6052 67.0416 51.6669 66.8549 51.6998C66.1024 51.8501 65.3813 51.9127 64.5944 51.8655C63.8185 51.815 63.0044 51.6083 62.2642 51.1698C62.0759 51.0689 61.9041 50.9352 61.7276 50.81C61.5617 50.6695 61.392 50.5312 61.2448 50.3696C60.9407 50.0562 60.6756 49.7041 60.4609 49.3303C60.0206 48.5851 59.7648 47.7714 59.6129 46.9685C59.5387 46.5651 59.4933 46.1616 59.4696 45.7577C59.4564 45.5555 59.4543 45.3533 59.4555 45.1498C59.4564 45.048 59.4594 44.9454 59.4632 44.8423C59.4687 44.7319 59.4721 44.6459 59.4852 44.5045C59.5378 43.9313 60.018 43.5116 60.5581 43.5675C61.0764 43.6211 61.4612 44.0925 61.4451 44.6369L61.4429 44.7058L61.4417 44.7067Z" fill="#000072"/>
<path d="M60.4431 45.0466C60.4431 45.0466 60.4726 45.2574 60.4799 45.5982C60.4641 45.4199 60.4525 45.2367 60.4431 45.0466Z" fill="#222A66"/>
<path d="M60.3739 45.6091C60.3582 45.4295 60.3464 45.2449 60.337 45.053L60.5479 45.0305C60.5491 45.0395 60.5784 45.2521 60.5856 45.5961L60.3739 45.6091Z" fill="#000072"/>
<path d="M68.3299 53.7014C67.9867 56.3473 66.614 59.5813 61.9685 59.6588C60.2119 59.688 58.8659 59.272 57.8351 58.6074C54.2361 56.2847 54.4758 50.9353 54.4758 50.9353C60.1631 51.8426 60.5254 47.2267 60.4791 45.5989C61.1664 53.6307 68.3074 50.2846 68.3074 50.2846C68.3074 50.2846 68.5708 51.8485 68.3295 53.7014H68.3299Z" fill="#000072"/>
<path d="M68.3299 53.7012C67.9867 56.3471 66.614 59.5811 61.9685 59.6586C60.2119 59.6878 58.8659 59.2718 57.8351 58.6071C57.8351 58.6071 60.2127 50.329 68.3299 53.7017V53.7012Z" fill="#FF4379"/>
<path d="M61.7955 60.4719C59.411 60.4719 57.4945 59.6957 56.0963 58.1633C53.5417 55.3634 53.7033 51.0775 53.7118 50.8965C53.722 50.6669 53.8234 50.453 53.9905 50.3075C54.1581 50.1621 54.3753 50.0981 54.5895 50.1324C56.4174 50.4237 57.7744 50.1247 58.6194 49.2426C59.6363 48.1803 59.7355 46.4814 59.7156 45.6488C59.7003 45.4655 59.688 45.2782 59.6795 45.0868C59.6596 44.6532 59.9646 44.2795 60.3718 44.2389C60.7786 44.1984 61.1447 44.5055 61.2011 44.9355C61.2058 44.9707 61.2351 45.2062 61.2453 45.5714C61.4234 47.5679 62.0415 48.9247 63.0859 49.6091C65.0186 50.8762 67.9693 49.5537 67.9986 49.5398C68.2132 49.4389 68.4593 49.4488 68.6667 49.5659C68.8741 49.683 69.0192 49.8946 69.0604 50.14C69.0935 50.3354 69.8388 54.9644 67.4904 57.9899C66.2441 59.5952 64.3907 60.4301 61.9821 60.4702C61.9197 60.4711 61.8578 60.4719 61.7959 60.4719H61.7955ZM55.2653 51.8435C55.3552 53.0953 55.7259 55.4296 57.2013 57.0412C58.3293 58.2732 59.9307 58.8806 61.9575 58.8473C63.8944 58.8149 65.3571 58.1813 66.3052 56.9633C67.6372 55.2522 67.7186 52.7467 67.6461 51.3873C66.3798 51.7773 64.1137 52.192 62.282 50.9915C61.5795 50.5313 61.0166 49.8878 60.595 49.0665C60.3748 49.5357 60.0838 49.9892 59.6999 50.3922C58.6542 51.49 57.1636 51.9749 55.2653 51.8435Z" fill="#000072"/>
<path d="M59.5415 40.7893C61.183 40.7044 62.5 40.3361 62.483 39.9667C62.4661 39.5974 61.1216 39.3668 59.4801 39.4517C57.8385 39.5366 56.5216 39.9049 56.5385 40.2743C56.5555 40.6436 57.8999 40.8742 59.5415 40.7893Z" fill="white"/>
<path d="M58.8994 40.9231C57.8215 40.9231 56.4535 40.7925 56.4301 40.2845C56.4021 39.6663 58.4078 39.3993 59.4725 39.3443C60.5368 39.2894 62.5582 39.3488 62.5866 39.9666C62.5981 40.2143 62.2947 40.4214 61.6589 40.5988C61.0964 40.756 60.3451 40.8654 59.5442 40.9068C59.3542 40.9167 59.1336 40.9226 58.8994 40.9226V40.9231ZM60.1708 39.551C59.9565 39.551 59.7275 39.5569 59.4831 39.5695C57.6014 39.6667 56.6333 40.0797 56.6422 40.2742C56.6511 40.4683 57.654 40.7803 59.534 40.6826C60.3205 40.6421 61.0561 40.5353 61.605 40.3818C62.2438 40.2035 62.3775 40.0297 62.3749 39.9783C62.3669 39.8095 61.6075 39.5515 60.1708 39.5515V39.551Z" fill="#000072"/>
<path d="M64.5634 73.5317C64.0997 73.5317 63.6331 73.5286 63.1622 73.5218C46.2297 73.2827 35.2411 68.9464 30.5011 60.6327C25.1566 51.2585 29.6985 40.2556 30.4748 38.5234C30.2512 29.4342 33.5749 20.7265 39.8476 13.9784C45.7839 7.59327 53.8904 3.54966 62.0877 2.88458C71.0944 2.1542 77.6102 2.86972 83.2169 5.20403C89.8879 7.98143 95.2074 13.18 99.4783 21.0962C104.611 30.609 108.295 45.8834 101.786 57.6225C98.9935 62.6599 94.5762 66.5666 88.6573 69.2346C82.3278 72.0876 74.2267 73.5317 64.5625 73.5317H64.5634ZM32.1355 39.1434C32.0817 39.2569 26.8059 50.5831 32.0032 59.6826C36.4132 67.4042 46.9046 71.4361 63.1856 71.6662C82.1403 71.9386 94.6186 66.8922 100.28 56.6814C106.409 45.6276 102.862 31.1003 97.9622 22.0188C89.3034 5.97087 77.4129 3.50328 62.2218 4.73527C47.3254 5.94341 31.6231 19.2702 32.2293 38.694C32.234 38.8498 32.2021 39.0043 32.1355 39.1434Z" fill="#000072"/>
<path d="M82.0894 34.0235C81.4115 34.2806 80.7256 34.5728 80.0876 34.8971C79.4457 35.2235 78.8374 35.59 78.2703 35.9976L78.0594 36.1525C77.9882 36.202 77.9169 36.2515 77.852 36.3101L77.452 36.6419C77.3201 36.7532 77.2013 36.8792 77.0749 36.9963C77.0129 37.0562 76.9501 37.1152 76.8865 37.1724L76.7143 37.3646C76.2294 37.8546 75.8549 38.439 75.4858 39.0285L74.2598 37.6618C74.3197 37.6312 74.3587 37.6146 74.4007 37.5952C74.4435 37.5754 74.4843 37.5578 74.5237 37.5421C74.6039 37.5096 74.6849 37.4772 74.7638 37.4502C74.9225 37.3912 75.0811 37.3435 75.2398 37.2949C75.5566 37.2012 75.8778 37.1359 76.1997 37.0823C76.8437 36.9783 77.4982 36.9616 78.1434 37.0283C78.3046 37.0418 78.465 37.0621 78.6245 37.0949C78.784 37.1251 78.9431 37.149 79.1 37.1895C79.4127 37.2764 79.7236 37.3588 80.0197 37.4907C80.6229 37.7123 81.1731 38.0653 81.6766 38.4472C81.82 38.5561 81.8531 38.7678 81.7509 38.92C81.6741 39.0339 81.543 39.0825 81.4217 39.0537L81.3848 39.0447C81.0997 38.9767 80.8333 38.8785 80.5567 38.8213C80.2793 38.766 80.0108 38.7002 79.7355 38.6723C79.4648 38.625 79.1882 38.625 78.9197 38.6025C78.7844 38.598 78.6482 38.6057 78.5138 38.6039C78.3797 38.6002 78.2448 38.6088 78.1108 38.6228C77.5754 38.6543 77.0456 38.7448 76.5306 38.8835C76.4017 38.9168 76.2748 38.9591 76.1476 38.9956L75.7721 39.1257C75.6495 39.1735 75.5261 39.2199 75.4094 39.2734C75.3488 39.2987 75.2936 39.3266 75.2372 39.3536C75.2079 39.3666 75.1808 39.3797 75.1566 39.3928L75.096 39.4243L75.0599 39.4427C74.6035 39.68 74.0524 39.4797 73.8293 38.9952C73.6868 38.6867 73.7152 38.3314 73.87 38.0572L74.1962 37.4889L74.3621 37.2061C74.4198 37.1138 74.4889 37.0296 74.5521 36.9409L74.9411 36.4172C75.0794 36.2511 75.2321 36.0984 75.3772 35.939L75.5982 35.7035L75.8387 35.4919C76.0016 35.3545 76.1582 35.2082 76.3266 35.0803C76.6702 34.8354 77.0112 34.5868 77.3803 34.3959C78.1061 33.9933 78.8731 33.697 79.6561 33.5183C80.4435 33.344 81.2278 33.2625 82.044 33.3516C82.2205 33.371 82.349 33.5385 82.3312 33.7258C82.318 33.8609 82.2328 33.9695 82.1199 34.0122L82.0915 34.023L82.0894 34.0235Z" fill="#000072"/>
<path d="M49.4104 38.6115C49.9124 35.3176 48.4828 32.332 46.2172 31.943C43.9517 31.5539 41.7081 33.9087 41.2061 37.2025C40.7041 40.4963 42.1337 43.4819 44.3993 43.871C46.6648 44.2601 48.9084 41.9053 49.4104 38.6115Z" fill="#000072"/>
<path d="M47.1419 35.6355C47.3003 34.5963 46.7251 33.633 45.8571 33.484C44.9892 33.3349 44.1571 34.0565 43.9987 35.0957C43.8404 36.1349 44.4156 37.0981 45.2836 37.2472C46.1515 37.3963 46.9836 36.6747 47.1419 35.6355Z" fill="white"/>
<g opacity="0.3">
<path d="M43.8156 39.3268C43.1844 39.2183 42.5896 39.6735 42.4878 40.344C42.3856 41.014 42.8145 41.6453 43.4461 41.7534C44.0773 41.8619 44.6721 41.4067 44.7739 40.7362C44.8761 40.0662 44.4472 39.4349 43.8156 39.3268Z" fill="white"/>
</g>
</g>
<defs>
<clipPath id="clip0_2019_7258">
<rect width="109" height="120" fill="white"/>
</clipPath>
</defs>
</svg>
