<svg width="79" height="78" viewBox="0 0 79 78" fill="none" xmlns="http://www.w3.org/2000/svg">
<g clip-path="url(#clip0_2175_851)">
<path d="M50.6235 40.1697C48.388 51.8147 36.794 59.6125 19.5848 61.0781C21.287 58.4789 25.7177 58.6401 25.7311 54.8556C25.3314 54.5176 25.0261 54.1047 24.8761 54.1494C20.3504 55.6549 15.7985 57.0887 11.3513 58.7947C9.84751 59.3698 9.20621 61.0828 10.4104 62.3801C12.9556 65.1206 15.4616 67.98 19.5875 69.9498C19.3641 67.8415 19.2126 66.3652 19.0915 65.2719C24.0418 64.4378 28.9932 64.0141 33.7106 62.7128C44.8436 59.6545 52.6291 52.8259 55.6444 41.3541C56.1193 39.5368 57.1529 38.8408 58.7109 38.1189C65.2369 35.1061 69.4014 30.0307 70.8484 22.9664C71.3683 20.3936 71.7973 17.5631 68.6235 15.0151C69.3577 19.9905 68.2209 23.9517 65.7803 27.5322C63.3843 31.0433 60.4717 33.8873 56.3041 35.0291C54.1858 31.7644 52.5307 28.3942 50.1105 25.7284C47.683 23.0695 44.7012 20.7115 41.5521 18.9495C38.3263 17.1497 34.8485 18.1788 32.7846 20.5827C30.7207 22.9865 30.5807 26.3001 32.672 29.5214C35.9643 34.5918 40.712 37.706 46.5061 39.2756C47.8669 39.644 49.2532 39.8788 50.6235 40.1697ZM50.7899 36.0222C44.473 35.3275 40.1304 32.601 36.711 28.1987C35.5961 26.7627 34.715 25.0936 36.2801 23.4734C37.6183 22.0937 39.2925 22.6206 40.6879 23.4641C45.3045 26.2487 48.5841 30.1514 50.7899 36.0222Z" fill="#E28D4D"/>
</g>
<defs>
<clipPath id="clip0_2175_851">
<rect width="74.96" height="35.49" fill="white" transform="matrix(-0.729078 0.68443 0.68443 0.729078 54.6514 0)"/>
</clipPath>
</defs>
</svg>
