<svg width="21" height="41" viewBox="0 0 21 41" fill="none" xmlns="http://www.w3.org/2000/svg">
<path d="M14.9362 17.4336C17.3246 23.6744 14.0885 30.8527 6.28229 36.6663C6.32541 34.9159 8.49514 33.6771 7.37743 31.8607C7.08563 31.8175 6.81677 31.7104 6.75824 31.7764C5.03802 33.8417 3.28407 35.8804 1.66104 38.0184C1.11167 38.7405 1.31338 39.7514 2.2754 40.015C4.3083 40.5714 6.35782 41.1964 8.91882 40.9141C8.18558 39.9709 7.67453 39.3089 7.29178 38.8212C9.41471 36.9514 11.6601 35.2777 13.5327 33.2533C17.9559 28.4818 19.656 22.8989 17.6925 16.5095C17.3801 15.4981 17.6684 14.8577 18.2 14.0492C20.4304 10.6679 20.9172 7.00033 19.5119 3.18743C18.9966 1.80085 18.3613 0.317933 16.0845 0.0404107C17.914 2.20504 18.5462 4.43974 18.441 6.87939C18.3364 9.27257 17.7864 11.4997 16.1296 13.2844C14.1455 12.3502 12.3517 11.2278 10.4009 10.6701C8.44856 10.1178 6.32017 9.87421 4.28867 9.9658C2.20925 10.0621 0.849411 11.588 0.575044 13.3522C0.300676 15.1165 1.21786 16.7449 3.17627 17.6664C6.25901 19.1167 9.45774 19.1978 12.6987 18.2285C13.4599 18.0007 14.1935 17.7014 14.9362 17.4336ZM13.7839 15.398C10.5524 16.9416 7.66285 16.9258 4.71762 15.8332C3.75717 15.4767 2.8394 14.9391 3.1077 13.6983C3.33875 12.64 4.29702 12.3951 5.2158 12.3845C8.25386 12.3468 10.9837 13.2416 13.7839 15.398Z" fill="#E28D4D"/>
</svg>
