<svg width="54" height="82" viewBox="0 0 54 82" fill="none" xmlns="http://www.w3.org/2000/svg">
<g clip-path="url(#clip0_2166_11926)">
<path d="M33.5018 49.8792C42.7093 42.4077 44.1051 28.5053 37.267 12.645C35.7803 15.3732 38.0154 19.2021 34.6862 21.0018C34.1994 20.8092 33.6913 20.7352 33.6599 20.5819C32.8488 15.8818 31.9622 11.1925 31.3649 6.46692C31.1614 4.86982 32.3682 3.49534 34.0805 3.94379C37.6982 4.89246 41.4024 5.75039 45.0876 8.4564C43.1239 9.25538 41.7512 9.81931 40.7303 10.2291C42.3337 14.9861 44.2994 19.5504 45.381 24.323C47.9448 35.5801 45.6041 45.668 36.9177 53.745C35.5402 55.022 35.415 56.2619 35.5148 57.9761C35.9423 65.1512 33.4363 71.2194 27.8936 75.832C25.8716 77.5057 23.5795 79.2209 19.8344 77.6273C24.5665 75.924 27.5208 73.0508 29.5236 69.2082C31.4863 65.4377 32.617 61.5271 31.6545 57.3145C27.7764 56.9897 24.024 57.123 20.5312 56.2492C17.0409 55.3658 13.554 53.8517 10.5133 51.9085C7.4031 49.9156 6.66722 46.3641 7.81091 43.4095C8.95461 40.4548 11.809 38.766 15.6362 39.0875C21.6603 39.594 26.648 42.3073 30.7686 46.6726C31.7362 47.6979 32.5981 48.8088 33.5018 49.8792ZM29.9249 51.9852C26.3284 46.7458 21.8738 44.2064 16.3784 43.2722C14.586 42.968 12.6986 42.9799 12.0101 45.1247C11.4262 46.956 12.6815 48.1827 14.0841 49.0141C18.7194 51.7676 23.7084 52.8145 29.9249 51.9852Z" fill="#E28D4D"/>
</g>
<defs>
<clipPath id="clip0_2166_11926">
<rect width="74.96" height="35.49" fill="white" transform="translate(0 72.4058) rotate(-75)"/>
</clipPath>
</defs>
</svg>
