<svg width="105" height="66" viewBox="0 0 105 66" fill="none" xmlns="http://www.w3.org/2000/svg">
<g clip-path="url(#clip0_2019_7141)">
<path fill-rule="evenodd" clip-rule="evenodd" d="M25.6987 0.083252L79.3111 0.577731C79.3111 0.577731 90.8783 23.5476 95.8792 26.1605C95.8792 26.1605 98.1385 56.7818 103.031 61.6433L55.5567 62.3981L48.4638 30.3038C48.4638 30.3038 25.2557 7.93767 25.3788 6.36054" fill="#DD8526"/>
<mask id="mask0_2019_7141" style="mask-type:luminance" maskUnits="userSpaceOnUse" x="25" y="0" width="80" height="66">
<path d="M25.6987 0.083252L79.3111 0.577731C79.3111 0.577731 90.8783 23.5476 95.8792 26.1605C95.8792 26.1605 100.107 60.2744 104.995 65.1307L55.5518 62.3929L48.4589 30.2985C48.4589 30.2985 25.2557 7.93767 25.3788 6.36054" fill="white"/>
</mask>
<g mask="url(#mask0_2019_7141)">
<g style="mix-blend-mode:multiply" opacity="0.21">
<path fill-rule="evenodd" clip-rule="evenodd" d="M95.8792 26.1606L51.0627 27.311L55.9948 62.825L105 61.5862L95.8792 26.1606Z" fill="#2D1D16"/>
</g>
</g>
<path fill-rule="evenodd" clip-rule="evenodd" d="M58.2783 62.6375C58.2783 62.6375 51.9729 40.0632 51.0623 27.3109C51.0623 27.3109 32.3531 15.7609 25.7328 0C25.7328 0 18.5661 18.608 4.1244 27.4254C4.1244 27.4254 7.88003 54.8352 -0.00531006 62.3929" fill="#EA9734"/>
<g style="mix-blend-mode:multiply" opacity="0.52">
<path fill-rule="evenodd" clip-rule="evenodd" d="M37.8762 57.4014L25.6594 0.661133L18.1136 60.0768L37.8762 57.4014Z" fill="#2D1D16"/>
</g>
<mask id="mask1_2019_7141" style="mask-type:luminance" maskUnits="userSpaceOnUse" x="-1" y="0" width="60" height="63">
<path d="M58.2783 62.6375C58.2783 62.6375 51.9729 40.0632 51.0623 27.3109C51.0623 27.3109 32.3531 15.7609 25.7328 0C25.7328 0 18.5661 18.608 4.1244 27.4254C4.1244 27.4254 7.88003 54.8352 -0.00531006 62.3929" fill="white"/>
</mask>
<g mask="url(#mask1_2019_7141)">
<path fill-rule="evenodd" clip-rule="evenodd" d="M37.1182 57.4533C33.7219 53.7473 27.2 53.6016 22.6666 54.8768C21.3573 55.2464 19.2851 55.491 18.4188 56.6986C17.6657 57.7396 17.7888 59.1762 17.6706 60.3941C17.4836 62.3304 16.2333 64.9382 18.9159 65.6356C21.948 66.4268 25.7971 65.7033 28.9129 65.6148C30.8719 65.5576 32.8506 65.6356 34.7998 65.4482C35.7498 65.3598 36.877 65.1932 37.5464 64.4385C38.0485 63.8711 38.1715 62.9602 38.3044 62.2523" fill="#0F1F26"/>
</g>
<g style="mix-blend-mode:multiply" opacity="0.15">
<path fill-rule="evenodd" clip-rule="evenodd" d="M27.3526 0.937012L16.1596 62.4503C16.1596 62.4503 12.7682 63.002 11.1832 58.307C11.1832 58.307 12.3941 64.423 27.3526 0.937012Z" fill="#2D1D16"/>
</g>
<path fill-rule="evenodd" clip-rule="evenodd" d="M25.6594 0.661133L36.9853 62.799C36.9853 62.799 42.8082 62.6845 44.3784 57.9375C44.3784 57.9375 40.7557 64.7873 25.6594 0.661133Z" fill="#FFB361"/>
<path fill-rule="evenodd" clip-rule="evenodd" d="M25.6692 0.484131L17.8331 62.5908C17.8331 62.5908 14.4762 63.3507 12.6402 58.7651C12.6402 58.7651 14.1808 64.7977 25.6692 0.484131Z" fill="#FFA543"/>
</g>
<defs>
<clipPath id="clip0_2019_7141">
<rect width="105" height="66" fill="white"/>
</clipPath>
</defs>
</svg>
