<svg width="230" height="182" viewBox="0 0 230 182" fill="none" xmlns="http://www.w3.org/2000/svg">
<path fill-rule="evenodd" clip-rule="evenodd" d="M57.7029 42.4269H75.8079V71.8173C71.6476 76.5126 66.4788 80.2056 60.6888 82.6199C54.8987 85.0341 48.6375 86.107 42.374 85.7582C36.4211 85.7187 30.5394 84.4616 25.0905 82.0641C19.6417 79.6666 14.7411 76.1795 10.6902 71.8173C3.60551 63.6857 -0.201917 53.2099 0.00825966 42.4269C-0.0356846 36.9175 1.00783 31.4535 3.07901 26.3481C5.15019 21.2426 8.20834 16.5959 12.0783 12.6743C15.9912 8.63331 20.6823 5.42697 25.8685 3.24878C31.0547 1.07059 36.6284 -0.0342897 42.2533 0.00081081C54.6262 0.0781994 66.5501 4.64616 75.8079 12.8554L63.7379 26.6152C61.2466 23.5443 58.0866 21.0834 54.499 19.4204C50.9114 17.7573 46.9912 16.9361 43.0378 17.0195C36.6828 17.142 30.6325 19.7659 26.2002 24.3219C23.7071 26.6363 21.7142 29.4366 20.3442 32.5503C18.9742 35.664 18.256 39.0252 18.234 42.4269C18.1624 45.8985 18.7999 49.3482 20.1074 52.565C21.4149 55.7818 23.3649 58.6981 25.8381 61.1354C30.1709 65.4696 35.9036 68.122 42.0119 68.6188C47.45 68.9116 52.8675 67.7447 57.7029 65.2392V42.4269Z" fill="#54A1EE"/>
<path d="M101.216 20.6404H83.1711V85.6977H101.216V20.6404Z" fill="#54A1EE"/>
<path fill-rule="evenodd" clip-rule="evenodd" d="M134.828 85.6977L109.18 20.6404H128.914L144.062 61.618L160.236 20.6404H179.005L153.356 85.6977H134.828Z" fill="#54A1EE"/>
<path fill-rule="evenodd" clip-rule="evenodd" d="M203.567 33.9175V61.6182C203.811 63.8782 204.86 65.9751 206.522 67.5261C208.184 69.0771 210.348 69.979 212.619 70.0672C214.121 70.0231 215.592 69.6358 216.921 68.9349C218.249 68.234 219.4 67.2382 220.284 66.0238C223.347 69.0925 226.591 71.9744 230 74.6538C227.38 77.8681 224.125 80.5077 220.439 82.4079C216.752 84.3081 212.714 85.428 208.576 85.6979C205.56 85.8289 202.55 85.3335 199.735 84.2429C196.92 83.1522 194.361 81.49 192.221 79.3611C189.908 77.0518 188.118 74.2725 186.973 71.2113C185.828 68.1502 185.353 64.8786 185.582 61.6182V0.181885H203.688V20.6405H219.379V33.9175H203.567Z" fill="#54A1EE"/>
<path d="M178.343 0.181885H83.1711V13.4589H178.343V0.181885Z" fill="#F2DF7F"/>
<rect x="25.7468" y="111.583" width="170.922" height="70.4971" rx="12.2604" transform="rotate(-7.63048 25.7468 111.583)" fill="#E28D4D"/>
<path d="M66.7876 166.951L65.7567 159.256L50.6763 161.276L49.8529 155.131L64.1789 130.605L68.8786 129.976L71.8468 152.131L76.3916 151.523L77.2219 157.72L72.6771 158.329L73.708 166.024L66.7876 166.951ZM56.7665 154.152L65.7011 152.955L64.1374 141.283L56.7665 154.152Z" fill="#F2DF7F"/>
<path d="M83.1216 158.086L78.2161 121.47L85.3432 120.515L87.6748 137.919L100.726 118.402L108.577 117.35L96.7085 135.5L114.367 153.9L106.31 154.98L92.7795 140.705L88.7818 146.183L90.2487 157.131L83.1216 158.086ZM116.998 153.548L113.373 126.486L120.293 125.559L123.918 152.621L116.998 153.548ZM112.867 122.716L111.947 115.847L118.868 114.92L119.788 121.788L112.867 122.716ZM126.696 138.475C126.346 135.858 126.546 133.43 127.298 131.192C128.044 128.919 129.247 127.04 130.906 125.556C132.565 124.072 134.565 123.173 136.906 122.86C138.903 122.592 140.76 122.852 142.478 123.638C144.225 124.385 145.648 125.456 146.746 126.851L144.684 111.461L151.605 110.534L155.618 140.488C155.714 141.211 155.904 141.711 156.187 141.989C156.469 142.267 156.908 142.401 157.502 142.391L158.256 148.02C157.084 148.423 156.119 148.675 155.361 148.776C154.122 148.942 153.047 148.771 152.138 148.262C151.263 147.748 150.707 146.999 150.47 146.014L150.138 144.324C149.366 146.145 148.179 147.618 146.577 148.744C145.01 149.865 143.297 150.55 141.438 150.799C139.578 151.048 137.808 150.918 136.128 150.407C134.482 149.891 132.988 149.075 131.647 147.958C130.34 146.836 129.246 145.476 128.366 143.876C127.516 142.238 126.959 140.437 126.696 138.475ZM148.407 139.246L147.542 132.79C147.064 131.838 146.393 131.017 145.529 130.326C144.666 129.636 143.739 129.129 142.75 128.806C141.755 128.449 140.793 128.332 139.864 128.457C138.797 128.6 137.862 128.953 137.062 129.516C136.261 130.078 135.584 130.783 135.031 131.628C134.513 132.468 134.149 133.411 133.938 134.455C133.762 135.495 133.748 136.566 133.896 137.668C134.043 138.77 134.356 139.797 134.834 140.749C135.342 141.662 135.989 142.434 136.774 143.065C137.559 143.696 138.427 144.158 139.378 144.451C140.363 144.74 141.389 144.813 142.456 144.67C143.111 144.582 143.751 144.391 144.377 144.097C145.034 143.764 145.629 143.368 146.164 142.911C146.728 142.415 147.197 141.862 147.571 141.251C147.975 140.601 148.253 139.933 148.407 139.246ZM173.485 146.506C171.178 146.815 168.924 146.731 166.722 146.255C164.521 145.779 162.563 144.902 160.85 143.625L162.727 138.8C164.52 139.891 166.233 140.643 167.866 141.055C169.532 141.463 171.089 141.57 172.535 141.376C173.878 141.196 174.913 140.812 175.64 140.224C176.402 139.631 176.718 138.853 176.589 137.889C176.501 137.235 176.211 136.765 175.717 136.481C175.219 136.162 174.521 135.923 173.623 135.763C172.76 135.598 171.703 135.424 170.451 135.241C168.367 134.855 166.612 134.441 165.186 134.002C163.76 133.562 162.641 132.923 161.827 132.086C161.044 131.209 160.553 130.031 160.355 128.55C160.115 126.76 160.357 125.168 161.082 123.774C161.836 122.341 162.974 121.155 164.495 120.215C166.051 119.271 167.931 118.651 170.134 118.356C172.062 118.097 173.929 118.163 175.733 118.552C177.533 118.907 179.229 119.661 180.82 120.814L178.62 125.578C177.1 124.695 175.687 124.096 174.383 123.78C173.075 123.429 171.783 123.339 170.509 123.51C169.786 123.607 169.109 123.785 168.478 124.045C167.882 124.3 167.404 124.662 167.047 125.131C166.719 125.56 166.603 126.136 166.7 126.859C166.787 127.513 167.029 128.007 167.424 128.339C167.849 128.633 168.441 128.869 169.201 129.048C169.995 129.222 170.949 129.409 172.063 129.611C174.315 129.94 176.225 130.332 177.793 130.788C179.396 131.239 180.64 131.896 181.527 132.759C182.409 133.587 182.961 134.827 183.182 136.48C183.542 139.165 182.842 141.397 181.082 143.175C179.323 144.953 176.79 146.063 173.485 146.506Z" fill="white"/>
</svg>
