<svg width="109" height="120" viewBox="0 0 109 120" fill="none" xmlns="http://www.w3.org/2000/svg">
<g clip-path="url(#clip0_2019_7160)">
<path d="M84.8331 48.142C84.8331 48.142 84.334 46.2452 82.1713 46.9551C80.0197 47.6649 80.7628 49.6199 80.7628 49.6199C79.1325 49.2359 78.0345 50.2367 78.4448 51.1676C77.0252 49.7247 70.8588 50.0388 72.0677 57.405C71.5686 57.149 71.258 57.9287 71.258 57.9287C69.6831 56.4973 65.2136 57.9287 67.2543 60.8845C67.2543 60.8845 63.4612 61.8969 65.5906 64.1777C65.5906 64.1777 63.7718 65.8302 64.9141 67.8084C66.0675 69.7983 67.8753 68.8208 67.8753 68.8208C67.8753 68.8208 65.9012 73.7782 71.258 73.3127C71.3467 75.0233 74.2193 75.0699 74.2193 75.0699C74.2193 75.0699 74.1305 79.0381 76.8699 79.2475C77.5908 81.7262 82.6704 83.2157 84.2231 80.4694C84.8664 81.3887 86.0975 80.1552 86.0975 80.1552C86.1418 81.4353 88.3489 82.052 90.323 80.388C91.7648 83.7045 100.737 84.3329 98.7409 77.0249C100.615 77.4555 101.525 76.2568 101.037 75.3957C102.345 76.4779 104.164 74.8255 102.223 72.9054C106.582 74.4531 109.621 69.7053 108.867 67.6804C108.102 65.6556 104.641 65.1436 104.641 65.1436C104.641 65.1436 108.623 62.0249 104.164 59.5811C105.784 57.4167 105.007 52.0288 97.7206 53.8674C97.4877 53.2157 96.8333 52.9714 96.8333 52.9714C98.6522 52.0637 96.0015 47.886 91.8314 50.644C91.1327 45.9892 86.4413 45.2212 84.822 48.1188L84.8331 48.142Z" fill="#539832"/>
<g style="mix-blend-mode:multiply" opacity="0.4">
<path d="M108.889 67.6919C108.124 65.6671 104.663 65.1551 104.663 65.1551C104.663 65.1551 108.645 62.0364 104.187 59.5926C105.806 57.4281 105.029 52.0402 97.7428 53.8789C97.5099 53.2272 96.8555 52.9828 96.8555 52.9828C98.6744 52.0751 96.0237 47.8975 91.8536 50.6554C91.1549 46.0007 86.4635 45.2326 84.8442 48.1302C84.8442 48.1302 84.3451 46.2334 82.1824 46.9433C80.0308 47.6531 80.7739 49.6081 80.7739 49.6081C79.1436 49.2241 78.0456 50.2249 78.4559 51.1558C77.0363 49.7128 70.8699 50.027 72.0788 57.3932C71.5797 57.1372 71.2691 57.9169 71.2691 57.9169C69.6942 56.4855 65.2247 57.9169 67.2654 60.8727C67.2654 60.8727 63.4723 61.8851 65.6018 64.1659C65.6018 64.1659 63.7829 65.8184 64.9252 67.7966C66.0787 69.7866 67.8864 68.8091 67.8864 68.8091C67.8864 68.8091 65.9123 73.7664 71.2691 73.3009C71.3579 75.0115 74.2304 75.0581 74.2304 75.0581C74.2304 75.0581 74.1416 79.0263 76.8811 79.2357C77.602 81.7144 82.6815 83.2039 84.2342 80.4576C84.8775 81.3769 86.1086 80.1434 86.1086 80.1434C86.1529 81.4235 88.36 82.0402 90.3341 80.3762C91.7759 83.6927 100.748 84.3211 98.752 77.0131C100.626 77.4437 101.536 76.245 101.048 75.3839C102.357 76.4661 104.175 74.8137 102.235 72.8936C106.593 74.4413 109.632 69.6935 108.878 67.6686L108.889 67.6919ZM99.0293 69.1582C99.6171 69.7051 99.362 70.7291 98.6411 71.4274C97.399 72.626 95.8795 72.5445 94.9812 71.2063C94.8592 71.2063 94.7372 71.183 94.593 71.1132C94.6485 71.9627 94.5154 73.0333 93.7723 73.4638C93.251 73.7547 92.763 73.7198 92.4081 73.4638C92.1087 75.1745 90.1567 76.7338 88.3378 75.7447C87.1289 75.093 86.6298 73.3009 87.5615 72.4863C86.5633 72.2419 86.3969 71.2644 86.7186 70.2753C85.92 69.9611 85.8646 68.8672 86.3415 67.9828C84.1455 68.809 80.5188 68.5298 80.8626 66.3071C80.0197 66.9588 78.6778 67.5406 78.0567 67.0635C77.8127 68.0177 77.1805 69.0069 76.2489 69.2396C75.2064 69.484 74.6851 68.9138 74.6851 68.2272C73.5316 69.3211 71.5686 70.4615 70.4041 69.5654C68.6295 68.1923 70.2821 66.4002 72.0233 65.9696C70.3375 64.5965 76.5151 60.9658 76.4042 63.9332C77.2692 63.1419 78.7998 63.0371 78.955 64.0612C79.7757 63.3513 80.8405 63.2001 81.6279 64.0379C82.2601 63.0022 83.1917 62.1295 84.5337 62.0131C84.7333 62.0014 84.9219 62.0131 85.0993 62.0713C85.1991 61.6873 85.3877 61.3381 85.6649 61.0472C86.5633 60.1279 87.7944 60.221 88.604 60.9425C88.5707 60.0464 88.8813 59.1853 89.8572 59.0108C89.4136 57.9751 89.3804 56.7881 90.0902 55.8455C90.7778 54.9029 92.4192 54.6818 93.4396 55.2288C95.4359 56.3343 94.715 58.9409 93.8943 60.7563C94.4821 60.3141 95.2141 59.9533 95.9017 60.1744C96.3343 60.3141 96.6115 60.5701 96.8001 60.8843C97.5542 60.5468 98.386 60.3955 99.0737 60.5468C101.27 61.0123 100.782 62.9208 99.7391 64.2474C101.225 63.6539 103.277 63.3746 103.377 65.1434C103.499 67.273 101.203 68.7974 99.0515 69.1349L99.0293 69.1582Z" fill="#569132"/>
</g>
<g style="mix-blend-mode:multiply" opacity="0.4">
<path d="M108.889 67.692C108.224 65.9232 105.506 65.3065 104.819 65.1785C104.786 65.2017 104.752 65.225 104.708 65.2367C105.418 65.609 106.139 66.0629 106.283 66.8193C106.471 67.7386 106.36 68.7277 105.784 69.519C104.641 71.0551 102.512 72.0675 100.626 71.1017C100.937 71.6951 101.048 72.405 100.826 73.0218C100.604 73.6152 100.172 73.8247 99.7059 73.7665C99.839 74.4298 99.6505 75.0699 98.8852 75.5586C98.4416 75.8379 97.9425 75.8844 97.5322 75.7448C97.6098 76.8736 97.2882 78.0256 96.3454 78.6075C95.4693 79.1661 94.2382 78.8169 93.5949 78.1304C93.4507 77.9791 93.3398 77.7929 93.24 77.5951C92.9628 77.7929 92.6522 77.9558 92.3084 78.0605C91.3213 78.3747 90.1013 77.8744 90.0459 77.1412C88.6374 78.1187 86.4414 78.7937 85.4654 77.0714C85.0439 76.3266 84.9774 75.4422 85.2325 74.6626C84.7445 74.616 84.3341 74.488 84.0901 74.2436C83.2805 75.5353 81.75 76.7107 80.286 76.2219C79.4764 75.9543 78.8886 75.3491 78.7666 74.5811C77.9015 74.7207 77.0697 74.1505 76.7702 73.4407C76.615 73.0916 76.6482 72.6959 76.7702 72.3235C75.7721 73.1381 74.4412 73.4872 73.2212 72.5679C72.9217 72.3468 72.6999 72.0908 72.5336 71.8115C72.1343 72.0675 71.7018 72.2304 71.247 72.3003C69.9162 72.4981 69.7831 71.3809 70.26 70.6013C68.7627 70.4849 68.0085 69.6121 68.3191 68.3786C67.8976 68.6695 67.3875 68.9256 66.8551 69.1001C67.454 69.1001 67.9087 68.8557 67.9087 68.8557C67.9087 68.8557 65.9346 73.8131 71.2914 73.3476C71.3801 75.0582 74.2526 75.1048 74.2526 75.1048C74.2526 75.1048 74.1639 79.073 76.9033 79.2824C77.6242 81.7611 82.7038 83.2506 84.2565 80.5043C84.8998 81.4236 86.1309 80.1901 86.1309 80.1901C86.1752 81.4702 88.3823 82.0869 90.3564 80.4228C91.7982 83.7394 100.771 84.3678 98.7743 77.0598C100.649 77.4903 101.558 76.2917 101.07 75.4306C102.379 76.5128 104.198 74.8604 102.257 72.9403C106.615 74.488 109.654 69.7401 108.9 67.7153L108.889 67.692Z" fill="#457728"/>
</g>
<g style="mix-blend-mode:multiply" opacity="0.4">
<path d="M65.7127 66.633C66.0565 66.2956 67.0325 65.993 67.4317 66.2723C67.9086 65.6206 68.8957 65.2948 69.7386 65.4344C68.7183 62.7579 75.1509 59.7323 77.2249 62.7463C77.3358 62.7114 77.4578 62.6765 77.5687 62.6532C78.5114 62.467 79.2767 62.6881 79.8312 63.1652C80.6298 62.4786 82.0715 62.1644 83.3248 62.1994C83.5466 61.315 84.2786 60.4073 84.8331 59.872C85.6982 59.069 86.7519 58.8246 87.7389 59.0458C86.9958 57.5097 87.5171 55.6361 88.9589 54.3677C89.4802 53.9139 90.1345 53.5648 90.8333 53.4367C91.6318 52.0985 93.5172 51.1326 94.8925 52.0752C96.0459 52.8665 95.9794 54.2979 95.4026 55.5663C95.9572 55.3918 96.5228 55.3103 97.0552 55.3801C98.4415 55.5663 98.874 56.4507 98.8075 57.5097C99.8279 56.2412 101.27 55.2172 103.055 55.3103C103.621 55.3336 104.131 55.4848 104.564 55.7059C103.821 54.0651 101.791 52.8665 97.7539 53.8906C97.521 53.2389 96.8666 52.9945 96.8666 52.9945C98.6855 52.0869 96.0348 47.9092 91.8647 50.6672C91.166 46.0124 86.4746 45.2444 84.8553 48.1419C84.8553 48.1419 84.3562 46.2451 82.1935 46.955C80.0419 47.6648 80.785 49.6198 80.785 49.6198C79.1547 49.2358 78.0567 50.2366 78.4671 51.1676C77.0474 49.7246 70.881 50.0388 72.0899 57.4049C71.5908 57.1489 71.2802 57.9286 71.2802 57.9286C69.7053 56.4973 65.2358 57.9286 67.2765 60.8844C67.2765 60.8844 63.4834 61.8968 65.6129 64.1776C65.6129 64.1776 63.794 65.8301 64.9363 67.8084C65.014 67.9364 65.0805 68.0527 65.1581 68.1575C65.1027 67.5989 65.258 67.0403 65.7238 66.5981L65.7127 66.633Z" fill="#457728"/>
</g>
<path d="M43.5088 68.9489C43.5088 68.9489 51.0284 66.959 46.3037 61.7922C46.9691 60.0466 43.8526 58.2894 42.2778 59.0342C45.0504 56.9628 44.5514 51.4586 39.4829 51.5517C39.4829 51.5517 42.0559 43.8015 31.9744 44.7557C33.4051 40.6362 27.1832 38.8209 24.5436 42.2654C22.7913 39.17 18.2108 41.0784 17.9557 43.72C16.1036 39.5424 6.74295 41.2181 8.3733 48.3399C5.31225 47.1878 4.54698 49.5617 4.83534 50.9349C1.90738 49.3174 -2.40692 54.298 2.01829 57.9403C-1.29785 59.2786 -0.0556829 63.9683 2.41756 64.073C-0.122227 66.9008 2.86119 67.1219 3.69299 67.3662C1.86302 70.7526 3.73736 73.3709 6.39914 71.9279C5.56733 75.3725 10.4584 73.2894 10.4584 73.2894C9.70419 77.6649 16.7246 80.9582 18.843 77.246C19.4862 80.7371 22.758 78.7821 22.758 78.7821C22.9909 81.3771 29.8339 80.9931 29.8672 77.5951C32.4513 80.7836 37.9745 76.6409 37.1316 74.5579C40.1816 75.547 44.0412 72.9287 43.5199 68.9605L43.5088 68.9489Z" fill="#509D32"/>
<g style="mix-blend-mode:multiply" opacity="0.4">
<path d="M46.3037 61.7922C46.9691 60.0466 43.8526 58.2894 42.2778 59.0342C45.0504 56.9628 44.5514 51.4586 39.4829 51.5517C39.4829 51.5517 42.0559 43.8015 31.9744 44.7557C33.4051 40.6362 27.1832 38.8209 24.5436 42.2654C22.7913 39.17 18.2108 41.0784 17.9557 43.72C16.1036 39.5424 6.74295 41.2181 8.3733 48.3399C5.31225 47.1878 4.54698 49.5617 4.83534 50.9349C1.90738 49.3174 -2.40692 54.298 2.01829 57.9403C-1.29785 59.2786 -0.0556829 63.9683 2.41756 64.073C-0.122227 66.9008 2.86119 67.1219 3.69299 67.3662C1.86302 70.7526 3.73736 73.3709 6.39914 71.9279C5.56733 75.3725 10.4584 73.2894 10.4584 73.2894C9.70419 77.6649 16.7246 80.9582 18.843 77.246C19.4862 80.7371 22.758 78.7821 22.758 78.7821C22.9909 81.3771 29.8339 80.9931 29.8672 77.5951C32.4513 80.7836 37.9745 76.6409 37.1316 74.5579C40.1816 75.547 44.0412 72.9287 43.5199 68.9605C43.5199 68.9605 51.0395 66.9706 46.3148 61.8038L46.3037 61.7922ZM1.60793 62.0947C1.6412 61.8038 1.77429 61.5711 1.95174 61.3732C1.96284 61.3383 1.98502 61.3034 2.01829 61.2685C2.35101 60.9776 2.79464 60.7681 3.24936 60.8961C3.62645 61.0008 3.93699 61.2685 4.05899 61.6176C4.32517 62.4322 3.42682 63.2468 2.57283 63.2468C1.91847 63.2468 1.54139 62.6417 1.60793 62.0831V62.0947ZM7.4084 69.3096C7.17549 70.0311 6.47678 70.7293 5.67824 70.9155C4.7688 71.1366 3.69299 70.4151 4.0479 69.4609C4.30299 68.7859 5.0017 68.2507 5.75588 68.1576C5.80024 68.111 5.86678 68.0761 5.93333 68.0761C6.77623 68.0179 7.71894 68.3554 7.4084 69.298V69.3096ZM10.2255 69.7053C9.95928 69.9496 9.5711 70.0427 9.30492 70.2755C9.10529 70.4384 8.92783 70.2289 9.00547 70.0544C9.00547 70.0544 9.00547 70.0195 8.99438 69.9729C8.98329 69.9264 8.96111 69.8798 8.93893 69.8216C8.89456 69.7053 8.82802 69.5656 8.8502 69.4376C8.92783 68.9838 9.42692 68.8558 9.85946 68.8092C10.0702 68.7976 10.0924 68.9721 10.0147 69.1118C10.1256 69.1351 10.2255 69.1816 10.292 69.2514C10.414 69.3911 10.3585 69.5889 10.2255 69.7053ZM11.878 60.6867C11.8336 61.315 11.5785 61.9085 10.9685 62.2925C10.3253 62.6882 9.47128 62.8278 8.90565 62.3973C8.57293 64.1312 6.62095 66.1327 4.68007 65.5742C2.52846 64.9458 3.83717 62.9791 5.47861 62.8511C5.45643 62.6067 5.51188 62.374 5.63388 62.1995C4.94625 61.9434 4.7688 61.3965 4.90189 60.8379C4.13662 60.8961 3.31591 60.675 3.14955 59.8953C2.94991 58.9411 3.85936 58.464 4.75771 58.2894C4.31408 57.9054 4.31408 57.3003 4.41389 56.637C2.91664 56.4275 1.90738 54.9031 2.73919 53.4252C3.42682 52.215 4.72443 52.4593 5.81133 53.0063C5.70042 52.2615 6.06642 51.4702 6.65423 51.0164C6.55441 50.516 6.8095 49.9225 7.24204 49.5268C7.79658 49.0148 8.4953 48.8635 9.21619 48.8984C9.16074 48.6541 9.14965 48.3864 9.18292 48.0955C9.31601 47.1878 9.67092 46.4198 10.536 46.3965C10.3031 45.7099 10.7245 44.8372 11.2569 44.6742C10.8244 42.9985 14.3956 41.6719 14.6618 43.6851C15.1941 43.4058 15.8596 43.336 16.4474 43.6269C17.7228 44.2902 17.6895 45.9776 17.1461 47.2111C17.7228 46.9318 18.355 46.9202 18.843 47.246C18.721 46.315 18.7099 45.2677 19.5195 44.7208C20.2737 44.2088 21.4271 44.1739 21.9706 45.0117C22.2922 45.5005 22.3587 46.2801 22.2257 47.0482C23.1795 46.7922 24.2331 46.9318 25.0094 47.6067C25.6749 48.1886 25.4531 49.0846 24.8985 49.7014C26.0852 49.8759 26.9392 50.8767 25.7082 52.0055C24.9207 52.7386 23.5122 53.2507 22.1591 53.3088C22.1813 53.4834 22.1813 53.623 22.1591 53.7161C21.8375 54.6936 21.0833 55.4035 20.0408 55.706C19.9964 55.7177 19.9299 55.741 19.8633 55.7526C19.9077 56.2181 19.7968 56.7185 19.4751 57.2538C19.0204 58.0218 17.9446 58.7549 17.1239 58.5222C17.2015 59.4997 16.6359 60.6634 15.5157 60.6401C15.0832 60.6401 14.2958 60.4539 13.8078 60.1281C13.4972 60.6168 12.9316 60.9659 12.2994 60.8147C12.1442 60.7797 12.0111 60.7216 11.8891 60.6517L11.878 60.6867ZM30.089 70.7293C29.4014 71.2181 28.4143 71.5439 27.405 71.6835C27.1943 72.277 26.8505 72.8589 26.3292 73.4058C25.1425 74.651 22.7691 75.5237 22.1258 73.8597C21.6378 74.9186 20.6619 75.7797 19.3421 75.0815C18.6877 74.7324 18.2552 74.2437 18.0001 73.6851C17.0019 74.7091 15.7043 75.3957 14.329 75.1746C11.5231 74.7091 12.2107 71.3344 14.329 70.8224C13.4418 69.7867 14.573 67.3895 16.4696 67.1335C17.2459 65.6905 19.5306 64.3523 20.2848 66.3655C20.7062 64.9109 21.5158 63.6192 23.3236 63.2933C24.8985 63.0024 26.1296 63.6192 26.4623 64.969C27.3607 63.8868 28.9134 63.8984 30.0003 65.004C31.1094 66.1211 30.6435 67.343 29.6676 68.1692C30.1445 68.1692 30.5992 68.3321 30.7212 68.879C30.8765 69.6005 30.7655 70.2755 30.1001 70.7293H30.089Z" fill="#569132"/>
</g>
<g style="mix-blend-mode:multiply" opacity="0.4">
<path d="M21.15 41.8697C21.8376 43.045 22.9467 43.6036 24.3331 43.045C24.6547 42.917 24.6325 43.3126 24.4218 43.4406C22.8802 44.2785 25.2758 45.3724 26.0632 45.6167C27.1612 45.9426 28.4366 46.1404 29.4792 45.5818C29.8008 45.4422 29.7897 45.8495 29.5679 45.9775C26.9616 47.0481 27.6936 49.9922 29.6899 51.2607C29.8784 51.377 29.6455 51.6214 29.5125 51.6563C28.481 51.9589 27.1058 52.5058 26.8839 53.623C26.7509 54.3212 27.017 55.0776 27.5937 55.543C29.4237 57.0442 30.799 55.0543 31.2426 53.46C31.2981 53.2506 31.6641 53.1575 31.6862 53.4251C31.8193 55.4616 34.5587 54.7052 35.7898 54.1117C37.7751 53.1691 38.984 51.4468 39.7714 49.55C39.4498 49.0846 39.0949 48.7005 38.7511 48.4678C38.5514 48.3282 38.8731 47.9674 39.0949 48.107C39.3056 48.2583 39.5274 48.4562 39.727 48.6773C39.4387 46.5826 37.8527 44.1738 31.9857 44.744C33.4164 40.6245 27.1945 38.8091 24.5549 42.2537C23.6898 40.7176 22.1371 40.415 20.7618 40.8107C20.8617 41.218 21.0058 41.5904 21.1611 41.858L21.15 41.8697Z" fill="#569132"/>
</g>
<g style="mix-blend-mode:multiply" opacity="0.3">
<path d="M46.3039 61.7921C46.9694 60.0466 43.8529 58.2894 42.278 59.0341C44.6736 57.2421 44.6292 52.9131 41.3131 51.8076C41.9231 54.1117 41.5016 56.5089 38.7844 56.2878C39.228 57.5446 38.9397 59.5578 37.2761 59.7091C35.4683 59.872 34.6919 58.173 34.3592 56.6719C33.605 58.1963 31.4756 58.6269 30.2445 57.1606C29.8009 58.3592 28.6474 58.9643 27.2833 59.0923C27.5716 59.9069 27.6715 60.6982 27.3942 61.5361C28.8027 61.315 30.6438 61.3732 31.8638 62.0132C33.1059 62.6416 32.7177 63.5725 31.9858 64.3289C33.0837 64.3289 34.4812 64.6315 34.8915 65.6439C35.2243 66.4818 34.8694 67.1451 34.2705 67.692C35.3795 67.7269 36.3555 68.2971 36.1448 69.5307C36.0006 70.3802 35.2797 70.7176 34.5255 70.6478C35.7123 72.8006 33.2168 75.4771 31.2094 73.6152C30.8989 74.8836 29.934 76.1172 28.6696 76.6757C27.372 77.2459 26.4626 76.7805 26.1077 75.7099C25.5309 76.7339 24.4773 77.6067 23.2019 77.595C22.0595 77.595 21.749 76.8968 22.0152 76.1055C20.895 76.6175 19.9079 76.5012 18.7212 75.9659C18.2443 77.1878 16.5807 78.4096 15.9485 76.955C15.4383 77.5718 14.6065 78.1071 13.7415 78.3747C15.638 79.2126 17.8339 79.0613 18.8654 77.2576C19.5087 80.7487 22.7804 78.7936 22.7804 78.7936C23.0133 81.3887 29.8563 81.0047 29.8896 77.6067C32.4738 80.7952 37.997 76.6525 37.1541 74.5694C40.204 75.5586 44.0636 72.9403 43.5423 68.9721C43.5423 68.9721 51.0619 66.9822 46.3372 61.8154L46.3039 61.7921Z" fill="#178137"/>
</g>
<g style="mix-blend-mode:multiply" opacity="0.3">
<path d="M46.3038 61.7921C46.9693 60.0466 43.8528 58.2894 42.2779 59.0341C44.6735 57.2421 44.6291 52.9131 41.313 51.8076C41.923 54.1117 41.5015 56.5089 38.7843 56.2878C39.2279 57.5446 38.9396 59.5578 37.276 59.7091C35.4682 59.872 34.6918 58.173 34.3591 56.6719C34.1816 57.0326 33.9376 57.3235 33.6382 57.5446C34.6696 58.9061 34.8693 60.6982 33.982 62.3041C35.8342 61.4546 39.483 60.9193 38.7621 63.0372C40.6032 62.0248 43.1097 62.8162 42.8879 65.1901C42.7437 66.796 40.947 67.1451 39.3832 66.9356C40.4923 67.9713 40.9803 69.4957 40.2372 70.9736C39.5163 72.3933 38.2076 72.6494 37.1651 71.7649C37.1651 72.8588 36.6549 74.0574 35.69 74.6276C35.0911 75 34.6696 74.9302 34.4367 74.5927C33.8933 76.4197 32.5624 78.142 30.4995 78.2002C33.25 80.1552 37.8971 76.4779 37.1207 74.5578C40.1707 75.5469 44.0302 72.9286 43.509 68.9604C43.509 68.9604 51.0285 66.9705 46.3038 61.8037V61.7921Z" fill="#178137"/>
</g>
<path d="M78.345 67.7501C78.345 67.7501 77.4689 71.695 73.1878 74.8021C68.9068 77.8975 65.9123 80.8882 65.4687 80.2016C65.0361 79.5151 65.269 75.7214 64.9585 72.4631C64.5259 67.9829 65.3467 64.1776 67.343 59.4879C69.3393 54.7982 69.6942 52.3545 72.9771 48.5841C72.0566 47.3971 72.2895 46.7455 72.2895 46.7455C72.2895 46.7455 69.8273 50.4227 69.1508 50.3878C68.4964 50.3413 69.8273 46.1287 69.8273 46.1287L67.8864 45.2327C67.8864 45.2327 67.4539 51.5981 66.3448 55.6128C65.2358 59.6275 60.9547 69.2164 59.8124 69.3095C58.6811 69.4142 59.5906 60.7912 59.7902 57.2536C59.9898 53.7276 60.7994 51.5166 61.4649 50.4693C62.1303 49.422 63.4723 46.6175 63.4723 46.6175C63.4723 46.6175 61.8309 46.9666 60.7773 46.3498C58.4371 50.9348 57.7273 56.823 57.5831 60.5469C57.3613 66.6562 57.084 68.1341 56.2411 67.9014C55.3872 67.6803 54.5775 65.0154 54.1894 63.5492C53.8012 62.0829 52.2374 59.325 51.8159 57.6725C51.4056 56.0201 51.583 54.9844 53.5905 51.4584C55.5868 47.9208 55.4537 46.8386 55.4537 46.8386C55.4537 46.8386 54.1228 47.5251 52.7808 47.3157C52.7808 47.3157 51.9712 51.0628 50.9841 52.1799C50.0081 53.2971 50.4185 57.0791 49.2096 55.6477C48.0118 54.2047 46.1042 51.9123 44.9397 49.6431C43.7751 47.3739 43.4646 47.0364 43.4646 47.0364L41.2797 46.2567C41.2797 46.2567 41.557 46.8037 41.3352 47.0015C43.2206 49.7012 45.35 53.2389 48.156 57.3234C50.9509 61.4196 52.4259 66.0744 53.047 70.159C53.6681 74.2435 54.267 76.6989 53.1357 76.4895C52.0045 76.2684 47.4684 73.5919 45.5164 71.6136C42.1559 68.2272 41.0801 66.4701 40.3148 64.7012C39.5606 62.9324 37.9968 58.8013 37.2649 55.0542C35.934 54.5422 35.8563 54.3793 35.8563 54.3793C35.8563 54.3793 36.5772 58.0682 36.1447 58.1264C35.7232 58.1846 30.6548 53.6578 30.6548 53.6578L29.4459 54.0069C29.4459 54.0069 34.4034 57.8936 36.5883 61.4429C38.7621 65.0038 38.9839 66.1093 38.9839 66.1093C38.9839 66.1093 37.6087 65.7253 34.8027 64.5034C31.9857 63.2815 30.8322 62.851 28.8692 61.0356C26.8839 59.2203 25.3423 57.9984 25.3423 57.9984L24.6547 58.0566C24.6547 58.0566 25.2314 60.093 25.1759 60.3956C25.1759 60.3956 27.9375 62.7812 29.9339 63.6888C31.9191 64.6082 34.1594 65.7253 37.1872 68.0061C42.1226 71.7183 45.7937 74.8021 48.6218 76.7571C51.461 78.7121 53.0359 81.7726 53.8123 83.972C54.5886 86.1714 54.145 89.7788 54.4666 91.8968C54.7883 94.0263 54.0895 94.4801 52.9472 93.4095C51.8048 92.3389 49.742 90.2676 48.0229 89.0573C46.3149 87.8238 41.0135 82.4592 41.0135 82.4592C41.0135 82.4592 40.4923 83.332 40.0819 83.4367C42.9988 86.1597 46.2816 89.8021 45.7382 89.8254C45.1948 89.8487 35.7343 89.4064 35.7343 89.4064C35.7343 89.4064 36.4774 89.9767 35.5458 91.0356C40.0375 91.2218 40.4257 91.5593 42.9433 91.5476C45.4609 91.5476 51.8159 93.1186 53.3021 97.1683C54.7883 101.218 56.0637 111.784 54.9435 118.825C54.9435 118.825 54.7106 120.198 60.5776 120C66.4557 119.802 69.3504 119.441 68.7737 117.835C68.197 116.23 67.0768 113.181 66.7219 110.807C66.367 108.421 65.0694 100.601 65.4576 94.5151C65.8457 88.4289 68.7404 83.0178 73.3986 81.3188C78.0567 79.6198 81.1399 79.7594 87.0624 76.3033C87.0624 76.3033 86.53 75.8843 86.2971 75.2327C82.7702 76.8735 76.992 79.2125 73.5871 79.1427C74.6962 77.1528 75.8385 74.9999 77.9236 74.1155C80.0087 73.2311 83.8128 71.8812 83.8128 71.8812C83.8128 71.8812 82.859 71.4623 82.493 71.2296C81.0623 71.7532 78.6556 72.3234 78.3007 71.9161C77.9569 71.5205 80.1528 67.6454 80.1528 67.6454C80.1528 67.6454 78.6778 67.7501 78.3118 67.7501H78.345Z" fill="#654209"/>
<g style="mix-blend-mode:multiply" opacity="0.3">
<path d="M86.3304 75.2212C82.8035 76.862 77.0252 79.201 73.6204 79.1312C74.7294 77.1413 75.8718 74.9885 77.9569 74.104C80.0419 73.2196 83.8461 71.8698 83.8461 71.8698C83.8461 71.8698 82.8923 71.4508 82.5263 71.2181C81.0955 71.7418 78.6888 72.312 78.3339 71.9047C77.9901 71.509 80.1861 67.6339 80.1861 67.6339C80.1861 67.6339 78.711 67.7386 78.345 67.7386C78.345 67.7386 77.4689 71.6836 73.1878 74.7906C68.9068 77.886 65.9123 80.8767 65.4687 80.1902C65.0361 79.5036 65.269 75.7099 64.9585 72.4516C64.5259 67.9714 65.3467 64.1661 67.343 59.4764C69.3393 54.7867 69.6942 52.343 72.9771 48.5726C72.0566 47.3857 72.2895 46.734 72.2895 46.734C72.2895 46.734 69.8273 50.4113 69.1508 50.3764C68.4964 50.3298 69.8273 46.1172 69.8273 46.1172L67.8864 45.2212C67.8864 45.2212 67.4539 51.5866 66.3448 55.6013C65.2358 59.6161 60.9547 69.2049 59.8124 69.298C58.6811 69.4027 59.5906 60.7798 59.7902 57.2421C59.9898 53.7161 60.7994 51.5051 61.4649 50.4578C62.1303 49.4105 63.4723 46.606 63.4723 46.606C63.4723 46.606 61.8309 46.9551 60.7773 46.3383C58.4371 50.9233 57.7273 56.8116 57.5831 60.5354C57.3613 66.6448 57.084 68.1227 56.2411 67.8899C55.3872 67.6688 54.5775 65.004 54.1894 63.5377C53.8012 62.0715 52.2374 59.3135 51.8159 57.6611C51.4056 56.0086 51.583 54.9729 53.5905 51.4469C55.5868 47.9093 55.4537 46.8271 55.4537 46.8271C55.4537 46.8271 54.1228 47.5137 52.7808 47.3042C52.7808 47.3042 51.9712 51.0513 50.9841 52.1684C50.0081 53.2856 50.4185 57.0676 49.2096 55.6362C48.0118 54.1933 46.1042 51.9008 44.9397 49.6316C43.7751 47.3624 43.4646 47.0249 43.4646 47.0249L41.2797 46.2452C41.2797 46.2452 41.557 46.7922 41.3352 46.99C43.2206 49.6898 45.35 53.2274 48.156 57.312C50.9509 61.4082 52.4259 66.0629 53.047 70.1475C53.6681 74.2321 54.267 76.6874 53.1357 76.478C52.0045 76.2569 47.4684 73.5804 45.5164 71.6021C42.1559 68.2158 41.0801 66.4586 40.3148 64.6898C39.5606 62.921 37.9968 58.7898 37.2649 55.0428C35.934 54.5307 35.8563 54.3678 35.8563 54.3678C35.8563 54.3678 36.5772 58.0567 36.1447 58.1149C35.7232 58.1731 30.6548 53.6463 30.6548 53.6463L29.4459 53.9954C29.4459 53.9954 34.4034 57.8822 36.5883 61.4314C38.7621 64.9923 38.9839 66.0978 38.9839 66.0978C38.9839 66.0978 37.6087 65.7138 34.8027 64.4919C31.9857 63.2701 30.8322 62.8395 28.8692 61.0241C26.8839 59.2088 25.3423 57.9869 25.3423 57.9869L24.6547 58.0451C24.6547 58.0451 25.2314 60.0815 25.1759 60.3841C25.1759 60.3841 27.9375 62.7697 29.9339 63.6774C31.9191 64.5967 34.1594 65.7138 37.1872 67.9947C42.1226 71.7068 45.7937 74.7906 48.6218 76.7456C51.461 78.7006 53.0359 81.7611 53.8123 83.9605C54.5886 86.1599 54.145 89.7674 54.4666 91.8853C54.7883 94.0148 54.0895 94.4687 52.9472 93.3981C51.8048 92.3275 49.742 90.2561 48.0229 89.0459C46.3149 87.8123 41.0135 82.4477 41.0135 82.4477C41.0135 82.4477 40.4923 83.3205 40.0819 83.4252C42.9988 86.1483 46.2816 89.7906 45.7382 89.8139C45.1948 89.8372 35.7343 89.395 35.7343 89.395C35.7343 89.395 36.4774 89.9652 35.5458 91.0241C40.0375 91.2103 40.4257 91.5478 42.9433 91.5362C43.6642 91.5362 44.7178 91.6642 45.8824 91.9551C45.8824 91.8387 45.96 91.6991 46.1153 91.6758C49.5091 91.3616 51.5165 93.9217 53.0581 96.3888C53.1025 96.4586 53.0803 96.5284 53.0359 96.5866C53.1357 96.7728 53.2245 96.959 53.3021 97.1568C54.7883 101.206 56.0637 111.773 54.9435 118.813C54.9435 118.813 54.7106 120.186 60.5776 119.988C66.4557 119.791 69.3504 119.43 68.7737 117.824C68.197 116.218 67.0768 113.169 66.7219 110.795C66.367 108.41 65.0694 100.59 65.4576 94.5036C65.8457 88.4175 68.7404 83.0063 73.3986 81.3073C78.0567 79.6083 81.1399 79.748 87.0624 76.2918C87.0624 76.2918 86.53 75.8729 86.2971 75.2212H86.3304ZM55.0212 70.6828C55.0212 70.5082 55.3095 70.3104 55.4426 70.4966C56.4186 71.8465 56.7513 73.4291 57.0175 75.0234C57.1506 73.4524 57.4057 71.893 58.2042 70.5082C58.2929 70.3453 58.6146 70.2871 58.6146 70.5315C58.6146 71.7185 58.3262 72.8822 58.2597 74.0575C58.1931 75.2794 58.4926 76.4082 58.7698 77.5835C59.2467 79.5967 59.4242 81.6681 59.4242 83.7162C59.4464 87.8124 58.8807 91.862 57.7717 95.8186C57.7162 95.9698 57.3835 96.1328 57.3391 95.9C56.6293 92.5835 57.1284 89.2321 56.9953 85.8923C56.8622 82.2964 56.5517 78.7123 55.9861 75.1397C55.9084 74.7441 55.8086 74.3484 55.6755 73.9644C55.3317 72.8822 54.9657 71.8232 55.0212 70.6828ZM49.9305 76.7224C47.2909 74.9768 44.5182 73.2895 42.3999 70.9853C41.4793 69.9962 40.825 68.8325 40.2261 67.6456C39.0283 65.7255 38.1078 63.6657 37.3536 61.5245C37.287 61.3267 37.6641 61.0707 37.775 61.2918C39.4276 64.3523 40.6808 67.6339 43.1097 70.2755C45.228 72.568 47.79 74.4299 50.2743 76.3616C50.485 76.5245 50.1523 76.8736 49.9416 76.7224H49.9305ZM54.8326 85.2406C54.3668 82.8317 53.0803 80.7836 51.8048 78.7006C51.4056 78.1653 51.0063 77.6417 50.6181 77.1064C50.485 76.9318 50.7956 76.6525 50.9841 76.7805C53.1246 78.2933 55.9972 80.4345 56.3742 83.1227C56.6182 84.8566 56.1746 86.5672 56.1968 88.3011C56.219 90.1165 56.2744 91.9085 56.1302 93.7239C56.1192 93.9101 55.7421 94.1312 55.6866 93.8636C55.0988 91.0125 55.3983 88.1033 54.8548 85.2522L54.8326 85.2406ZM57.4057 114.961C57.4057 115.206 56.962 115.357 56.962 115.043C56.9177 112.227 56.1857 109.457 56.1081 106.629C56.0637 104.756 56.0082 102.871 55.9639 100.997C55.9195 100.962 55.8641 100.927 55.8641 100.834C55.7864 98.9256 55.5646 97.0288 55.7975 95.1203C55.8197 94.9458 56.1968 94.7014 56.2411 94.9807C56.829 98.2739 58.0379 101.521 58.1931 104.86C58.3484 108.247 57.5609 111.587 57.4057 114.961ZM60.2338 99.2049C60.0231 101.602 59.7791 103.988 59.402 106.35C59.3687 106.525 59.0138 106.769 58.9584 106.49C58.4149 103.732 58.5924 100.962 59.1026 98.2274C59.3022 96.1677 59.5684 94.1312 60.3225 92.1646C60.3891 91.99 60.8105 91.8504 60.7662 92.1413C60.3558 94.457 60.4667 96.8659 60.256 99.2049H60.2338ZM61.1322 75.2561C61.4094 73.0567 61.9196 70.8923 62.5518 68.7511C62.6072 68.5532 62.9954 68.4369 62.9954 68.7278C62.9621 71.2065 63.4723 73.6386 63.2616 76.1289C63.062 78.433 62.6516 80.7022 62.0083 82.9365C61.964 83.0994 61.6202 83.2739 61.5758 83.0179C61.0989 80.4811 61.0878 77.9442 61.354 75.4074C61.232 75.4539 61.0989 75.4307 61.1211 75.2677L61.1322 75.2561ZM72.5667 76.7224C68.9733 80.7604 64.6369 84.2282 61.7976 88.8364C61.6756 89.0342 61.3318 89.0342 61.3984 88.7549C62.2191 85.4384 64.4927 83.0296 67.0214 80.7953C67.0325 80.7487 67.0657 80.7022 67.1101 80.6556C68.7959 79.1894 70.393 77.63 72.3228 76.4431C72.5667 76.2918 72.7442 76.5362 72.5667 76.734V76.7224Z" fill="#654209"/>
<path d="M46.448 92.0947C47.8565 92.4904 49.376 93.1071 50.6514 93.9799C49.5534 92.8511 48.2003 92.0365 46.448 92.0947Z" fill="#654209"/>
</g>
<g style="mix-blend-mode:multiply" opacity="0.3">
<path d="M26.7841 59.9068C27.9486 61.2451 29.3572 62.3389 30.8544 63.3397C33.6382 65.19 36.7103 66.2257 39.7492 67.5523C39.3721 67.017 38.9729 66.4933 38.5736 65.958C37.9747 65.7602 36.7325 65.318 34.8249 64.4801C32.0079 63.2583 30.8544 62.8277 28.8914 61.0123C26.9061 59.197 25.3645 57.9751 25.3645 57.9751L24.8987 58.01C25.6307 58.5337 26.1963 59.2319 26.7841 59.8952V59.9068Z" fill="#654209"/>
<path d="M36.1447 58.1148C35.7233 58.173 30.6548 53.6462 30.6548 53.6462L30.0559 53.8092C32.1742 55.962 34.8471 57.5679 36.8435 59.8254C38.74 61.9783 39.6494 64.8293 41.1245 67.2265C42.8657 70.0543 45.1172 72.0675 47.8899 73.9992C50.4185 75.7564 53.0138 77.4205 55.3539 79.3871C54.6663 77.4205 54.633 75.3026 53.8678 73.3359C53.6903 72.8821 53.5129 72.4399 53.3354 71.9977C53.8012 74.9418 54.0674 76.6408 53.1247 76.4663C51.9934 76.2452 47.4573 73.5687 45.5053 71.5904C42.1448 68.204 41.069 66.4469 40.3038 64.6781C39.5496 62.9092 37.9858 58.7781 37.2538 55.031C35.9229 54.519 35.8453 54.3561 35.8453 54.3561C35.8453 54.3561 36.5662 58.045 36.1336 58.1032L36.1447 58.1148Z" fill="#654209"/>
<path d="M47.1911 90.6283C48.1006 90.5119 49.0655 91.3032 49.7198 91.792C51.949 93.456 53.8677 95.446 55.4094 97.7035C55.6201 96.7377 55.3539 95.6787 55.1432 94.7361C54.9214 93.7353 54.7661 92.7695 54.6552 91.7571C54.5776 91.0356 54.4777 90.3024 54.3557 89.5926C54.3557 90.4421 54.4001 91.245 54.4888 91.8851C54.8105 94.0146 54.1117 94.4685 52.9694 93.3979C51.827 92.3273 49.7642 90.2559 48.0451 89.0456C46.3371 87.8121 41.0357 82.4475 41.0357 82.4475C41.0357 82.4475 40.5145 83.3203 40.1041 83.425C43.021 86.1481 46.3038 89.7904 45.7604 89.8137C45.217 89.837 35.7565 89.3948 35.7565 89.3948C35.7565 89.3948 36.4996 89.965 35.568 91.0239C40.0598 91.2101 40.4479 91.5476 42.9655 91.536C43.4535 91.536 44.0857 91.5941 44.8066 91.7221C45.6051 91.3963 46.2484 90.7679 47.1911 90.6399V90.6283Z" fill="#654209"/>
<path d="M78.4893 67.7385C78.4338 67.7385 78.3784 67.7385 78.3451 67.7385C78.3451 67.7385 78.2009 68.3786 77.7462 69.3444C78.0124 68.8091 78.2675 68.2738 78.4893 67.7385Z" fill="#654209"/>
<path d="M58.2375 61.7222C58.2153 63.4095 58.2375 65.1085 58.3262 66.8075C58.3928 68.4018 58.5369 70.0542 59.2911 71.4972C59.89 70.6593 60.2671 69.6702 60.5111 68.6461C60.2117 69.0418 59.9677 69.2745 59.8013 69.2978C58.67 69.4025 59.5795 60.7796 59.7791 57.2419C59.9787 53.7159 60.7884 51.5049 61.4538 50.4576C62.1193 49.4103 63.4612 46.6058 63.4612 46.6058C63.4612 46.6058 61.8198 46.9549 60.7662 46.3381C59.6017 48.6306 58.8364 51.2489 58.3484 53.7625C58.4482 56.4157 58.2708 59.0689 58.2375 61.7454V61.7222Z" fill="#654209"/>
<path d="M53.0692 50.4344C51.9379 52.4824 50.3852 54.7284 50.8067 57.1489C51.2392 59.581 52.559 61.7222 53.5239 63.9914C54.4999 66.3304 55.487 68.6694 56.4519 71.0201C56.6959 69.9378 56.7624 68.844 56.7181 67.7501C56.585 67.9014 56.4186 67.9363 56.2301 67.8897C55.3761 67.6686 54.5664 65.0038 54.1783 63.5375C53.7901 62.0713 52.2263 59.3133 51.8048 57.6609C51.3945 56.0084 51.5719 54.9728 53.5794 51.4468C55.5757 47.9091 55.4426 46.8269 55.4426 46.8269C55.4426 46.8269 54.9879 47.0596 54.3557 47.2109C54.1117 48.3281 53.6459 49.4103 53.0692 50.4576V50.4344Z" fill="#654209"/>
<path d="M67.4206 59.2783C67.0546 59.6972 66.7219 60.1162 66.4113 60.5467C64.9363 62.653 64.1156 65.2015 64.0379 67.7384C63.9603 70.3101 64.3817 72.8819 64.3596 75.4536C64.3596 76.7453 64.4261 78.0603 64.1821 79.3404C63.9714 80.4459 63.6719 81.5281 63.4723 82.6336C64.9141 81.691 66.1895 80.5739 67.343 79.3287C66.3226 80.1084 65.6683 80.4808 65.4797 80.1899C65.0472 79.5033 65.2801 75.7097 64.9695 72.4513C64.537 67.9711 65.3577 64.1658 67.3541 59.4762C67.3873 59.4063 67.4095 59.3365 67.4428 59.2783H67.4206Z" fill="#654209"/>
<path d="M86.3305 75.2211C82.8036 76.8619 77.0253 79.2009 73.6205 79.1311C74.7295 77.1412 75.8719 74.9883 77.9569 74.1039C80.042 73.2195 83.8461 71.8696 83.8461 71.8696C83.8461 71.8696 82.8923 71.4507 82.5263 71.218C81.0956 71.7416 78.6889 72.3118 78.334 71.9045C77.9902 71.5089 80.1862 67.6338 80.1862 67.6338C80.1862 67.6338 79.5096 67.6803 78.9662 67.7036C78.212 69.5539 77.1806 71.3111 76.4264 73.1381C75.4615 75.4422 73.443 77.1062 71.7018 78.91C70.0603 80.609 68.4189 82.308 66.7331 83.972C65.1138 85.5663 63.4724 87.2886 62.6406 89.3716C61.6313 91.8735 61.7312 94.6547 61.5426 97.2847C61.3208 100.31 61.1212 103.394 61.5426 106.42C61.8864 108.957 62.3855 111.447 62.4853 114.019C62.5519 115.485 62.8181 117.382 61.9086 118.685C61.8421 118.778 61.6757 118.906 61.5537 118.801C59.0805 116.532 60.2006 112.96 59.1026 110.143C58.8697 112.576 58.9141 115.31 57.3281 117.289C57.2505 117.382 57.0398 117.44 56.9732 117.312C55.6091 114.705 56.4298 111.389 55.9972 108.584C55.6756 106.489 55.2542 104.453 54.5665 102.475C55.3651 107.397 55.7311 113.937 54.9547 118.801C54.9547 118.801 54.7218 120.175 60.5888 119.977C66.4669 119.779 69.3616 119.418 68.7849 117.812C68.2082 116.206 67.088 113.157 66.7331 110.784C66.3782 108.398 65.0806 100.578 65.4687 94.4918C65.8569 88.4057 68.7516 82.9945 73.4097 81.2955C78.0679 79.5966 81.1511 79.7362 87.0736 76.28C87.0736 76.28 86.5412 75.8611 86.3083 75.2094L86.3305 75.2211Z" fill="#654209"/>
</g>
<path d="M97.5764 37.052C101.225 33.1652 98.874 25.1241 91.3434 24.5306C91.9645 23.2855 90.2898 22.9015 90.2898 22.9015C90.2898 22.9015 91.7427 16.7921 85.0993 15.7797C85.0217 14.9302 84.3673 13.7898 84.3673 13.7898C84.3673 13.7898 84.567 7.94801 79.9976 5.74863C75.4282 3.54925 72.2784 7.05197 72.2784 7.05197C70.9364 4.25911 68.1415 5.66717 68.1415 5.66717C67.709 2.79285 64.4927 1.50115 62.9178 4.21256C62.9178 4.21256 61.2764 0.0581743 57.683 2.7463C55.6533 0.512014 52.1154 1.65243 51.3169 2.92086C51.6496 -1.3848 42.0117 -1.30335 42.4775 5.84173C40.0154 4.84095 38.3296 6.35375 37.9192 7.92474C36.422 5.48098 34.7916 9.55391 34.7916 9.55391C31.0097 6.0861 24.7434 13.2661 30.4219 17.7812C27.383 18.3631 28.8913 20.9814 28.8913 20.9814C26.2739 20.1668 26.4846 22.5524 26.4846 22.5524C22.736 21.4818 18.9873 26.2296 24.8876 31.0822C21.8598 31.8386 22.3256 35.0504 23.6343 35.4577C20.7285 35.5275 22.5031 39.1466 24.1889 39.5306C19.1315 41.986 23.9892 47.4205 28.6695 46.8852C28.1372 54.9845 34.5365 55.3219 34.5365 55.3219C32.152 61.1637 40.8028 62.1877 44.5404 59.1505C45.7493 62.4787 49.8196 59.069 49.8196 59.069C49.8196 63.1769 58.7366 62.979 62.2191 60.2211C63.5278 65.6788 72.0677 63.2932 72.6555 59.6392C72.6555 59.6392 78.3007 63.6424 83.1252 60.6866C87.4395 57.9403 86.4968 55.6129 85.9866 54.1117C88.1936 54.2863 90.7667 50.481 90.4118 48.6307C92.9516 52.5407 105.872 44.1389 97.5764 37.0869V37.052Z" fill="#B8CD0E"/>
<g style="mix-blend-mode:multiply" opacity="0.3">
<path d="M97.5764 37.052C101.225 33.1652 98.874 25.1241 91.3434 24.5306C91.9645 23.2855 90.2898 22.9015 90.2898 22.9015C90.2898 22.9015 91.7427 16.7921 85.0993 15.7797C85.0217 14.9302 84.3673 13.7898 84.3673 13.7898C84.3673 13.7898 84.567 7.94801 79.9976 5.74863C75.4282 3.54925 72.2784 7.05197 72.2784 7.05197C70.9364 4.25911 68.1415 5.66717 68.1415 5.66717C67.709 2.79285 64.4927 1.50115 62.9178 4.21256C62.9178 4.21256 61.2764 0.0581743 57.683 2.7463C55.6533 0.512014 52.1154 1.65243 51.3169 2.92086C51.6496 -1.3848 42.0117 -1.30335 42.4775 5.84173C40.0154 4.84095 38.3296 6.35375 37.9192 7.92474C36.422 5.48098 34.7916 9.55391 34.7916 9.55391C31.0097 6.0861 24.7434 13.2661 30.4219 17.7812C27.383 18.3631 28.8913 20.9814 28.8913 20.9814C26.2739 20.1668 26.4846 22.5524 26.4846 22.5524C22.736 21.4818 18.9873 26.2296 24.8876 31.0822C21.8598 31.8386 22.3256 35.0504 23.6343 35.4577C20.7285 35.5275 22.5031 39.1466 24.1889 39.5306C19.1315 41.986 23.9892 47.4205 28.6695 46.8852C28.1372 54.9845 34.5365 55.3219 34.5365 55.3219C32.152 61.1637 40.8028 62.1877 44.5404 59.1505C45.7493 62.4787 49.8196 59.069 49.8196 59.069C49.8196 63.1769 58.7366 62.979 62.2191 60.2211C63.5278 65.6788 72.0677 63.2932 72.6555 59.6392C72.6555 59.6392 78.3007 63.6424 83.1252 60.6866C87.4395 57.9403 86.4968 55.6129 85.9866 54.1117C88.1936 54.2863 90.7667 50.481 90.4118 48.6307C92.9516 52.5407 105.872 44.1389 97.5764 37.0869V37.052ZM44.5959 34.166C44.6402 35.1668 44.2299 36.0861 43.0099 36.2374C43.8306 37.9596 43.9415 40.1707 43.4202 41.6718C42.7215 43.6617 39.7936 44.3251 39.1947 42.3933C38.1299 44.2785 35.324 44.1389 34.6585 41.8347C33.7935 42.6144 32.2962 43.4988 31.2869 42.4981C31.2648 42.4631 31.2315 42.4399 31.1982 42.405C30.5771 42.9868 29.8673 43.5105 29.0577 43.7083C28.0373 43.9759 26.9505 43.4756 26.7065 42.4515C26.407 41.2064 27.3497 40.1823 28.603 39.9496C28.481 39.3212 28.5808 38.7277 28.9024 38.1924C27.2943 38.588 25.4976 38.2738 25.2536 36.4236C25.1094 35.3297 25.8192 34.4104 26.8728 34.3406C26.1852 33.014 27.6824 31.9666 29.091 31.5942C28.4477 31.059 28.2481 30.3607 28.3812 29.5112C26.2739 29.5694 23.6898 27.5562 24.7545 25.45C26.0299 22.9364 28.1593 24.5074 29.7897 25.7525C29.8341 25.031 30.2111 24.4375 30.9099 24.3095C29.9561 23.332 29.4902 21.8425 30.3331 20.6439C31.0984 19.5384 32.2186 19.4918 33.1724 20.2017C33.25 19.7129 33.5716 19.3987 34.0596 19.2591C32.7287 18.3398 33.3831 17.0597 34.5698 16.1404C33.2833 16.3499 31.6418 16.571 30.8322 15.6633C30.1446 14.8953 30.5217 14.3949 31.3202 14.2669C31.2093 14.0574 31.1206 13.8363 31.1871 13.6385C31.3535 13.1264 31.3091 13.2312 30.8766 12.8006C30.322 12.2653 30.311 11.474 30.5439 10.8107C30.9431 9.71682 32.2518 9.19316 32.8507 10.2521C32.8951 10.2521 32.9284 10.2521 32.9616 10.2521C34.1594 10.3103 34.592 11.7533 34.6474 12.7308C35.8452 11.9628 37.398 12.2537 37.7861 13.5454C38.3961 12.5679 39.3167 11.8464 40.5366 11.986C39.8934 10.6943 39.5052 8.8906 41.2354 8.27385C42.3112 7.88983 43.3204 8.46004 43.7308 9.34444C44.3519 8.37858 45.8713 8.58804 46.2817 9.8681C47.0358 9.18153 47.9896 8.40185 48.8769 8.48331C49.1098 7.99456 49.4203 7.54072 49.8196 7.16834C51.1616 5.93482 52.4814 6.35375 53.3797 7.61054C53.9232 6.0861 55.8863 4.48021 57.0508 5.65554C57.1728 4.8875 57.6608 4.16601 58.5591 4.038C59.89 3.85181 60.744 4.81768 60.866 5.98137C60.9658 6.90069 60.6886 7.85492 60.2006 8.78587C61.9751 8.52986 63.9381 9.2979 63.8383 11.0551C64.4372 10.5547 65.2247 10.3918 66.0565 10.4849C65.9788 9.18153 66.5445 7.50581 68.2968 7.93637C70.0381 8.36694 70.1601 9.93793 69.6499 11.2645C70.7035 10.6943 71.9457 11.1714 72.1675 12.4166C72.8884 11.4624 74.0418 10.3569 75.2618 10.6827C76.5483 11.0202 77.236 12.0908 77.0474 13.2894C76.7258 15.2676 74.2304 17.0015 72.0899 16.6873C73.3431 18.6773 71.3579 20.9465 68.8846 20.7486C68.9955 21.9123 68.3745 23.1109 67.0879 23.4484C66.3448 23.6462 65.7903 23.4949 65.4021 23.1226C64.7256 25.1008 61.3318 25.7525 60.2227 23.7044C59.6127 24.0768 58.1709 23.5531 57.683 22.7967C57.4279 22.3894 57.2726 21.9472 57.1839 21.4934C56.585 21.8309 55.8086 21.8658 55.0655 21.7029C55.5757 22.4476 55.9195 23.4135 55.0101 23.9721C54.3446 24.3794 53.5905 24.4375 52.8807 24.2979C54.2226 25.6245 55.1432 27.5097 54.6441 29.2785C54.2226 30.7797 52.2928 32.6183 51.084 31.0706C50.6514 32.4554 49.4092 34.4918 47.8344 33.3514C47.8011 33.3282 47.7789 33.3049 47.7456 33.2816C47.1024 34.2475 45.7604 34.7129 44.6069 34.1777L44.5959 34.166ZM83.7019 47.1994C82.1714 47.9209 78.6667 48.3282 77.7129 46.7455C77.5465 46.8735 77.358 46.9899 77.1472 47.0481C77.0142 47.0946 76.87 47.1295 76.7369 47.1645C76.7702 47.2459 76.8145 47.3274 76.8478 47.4205C77.3691 48.8751 76.5373 50.5508 75.3838 51.5516C73.9864 52.7851 71.3246 53.7277 70.5482 52.1218C70.0159 53.879 68.5852 55.2754 66.3448 54.7168C65.0029 54.3794 64.0269 53.5648 63.4945 52.5291C62.5518 53.0527 61.476 53.1691 60.9215 52.1334C59.4131 53.3786 57.8826 52.3313 57.439 50.7021C56.829 51.7261 55.9639 52.7735 54.6552 52.8898C53.6792 52.9829 52.7919 52.2963 52.315 51.5516C51.6607 50.5508 51.3612 49.0613 51.9601 48.1187C51.2836 48.1652 50.6181 48.014 50.1412 47.5834C49.9638 47.4205 49.8972 47.1761 49.8418 46.955C49.742 46.5128 49.8418 46.699 49.3538 46.6524C48.7438 46.6059 48.1005 46.4313 47.7013 45.9426C46.8806 44.9651 47.1356 43.3941 48.3445 42.7308C49.3205 42.1955 50.4518 42.3235 51.5276 42.6144C49.8529 40.415 53.7901 36.505 56.7292 39.007C57.0619 38.3902 57.7051 37.8084 58.2486 38.1342C58.6479 36.3305 61.354 34.3173 62.2413 36.1559C62.3743 36.0745 62.4963 35.993 62.6516 35.9232C64.0269 35.353 65.2912 36.2607 66.0121 37.2963C66.6665 35.6904 67.8643 34.4686 69.8163 34.6664C70.0824 32.2808 73.4873 30.9309 75.2729 32.9325C76.3931 34.1776 75.8053 36.0977 74.7627 37.3662C76.3487 36.9007 77.724 37.7036 78.3007 39.3095C78.7554 38.3437 79.5207 37.4593 80.7074 37.2963C81.8719 37.1334 83.0919 37.5407 83.9459 38.3088C84.7222 39.0186 85.3766 40.1125 84.9884 41.1482C84.7111 41.8813 84.1455 42.3933 83.469 42.7541C84.4561 42.789 85.3655 43.1614 85.6095 44.2203C85.909 45.4771 84.7999 46.6757 83.7019 47.1761V47.1994Z" fill="#00973C"/>
</g>
<g style="mix-blend-mode:multiply" opacity="0.3">
<path d="M97.5764 37.0519C101.225 33.1652 98.8741 25.1241 91.3434 24.5306C91.9645 23.2855 90.2898 22.9014 90.2898 22.9014C90.2898 22.9014 91.7427 16.792 85.0993 15.7796C85.0217 14.9301 84.3673 13.7897 84.3673 13.7897C84.3673 13.7897 84.567 7.94798 79.9976 5.7486C78.2452 4.91074 76.7036 4.89911 75.4726 5.2133C75.5169 5.27149 75.5613 5.34131 75.5946 5.41113C75.7942 5.78351 75.772 6.1559 75.6167 6.48173C76.87 6.0628 78.2231 6.33045 79.2323 7.41268C80.419 8.68111 80.2416 10.3917 79.3543 11.6951C81.9496 11.0434 81.6168 14.4298 80.3636 15.9775C79.4431 17.0946 78.2674 17.979 76.9698 18.7005C77.5022 18.7471 77.9902 18.9449 78.3672 19.3522C78.7665 19.7944 78.7887 20.3297 78.578 20.8882C79.6538 20.4693 80.8959 20.481 80.8405 21.3886C81.5614 20.7835 82.5485 20.3529 83.469 20.609C84.7777 20.9697 84.9995 22.4127 84.4672 23.4484C84.0679 24.2164 83.0586 25.5081 81.8498 26.5089C82.4376 26.7533 82.7925 27.242 82.8146 27.8937C83.5799 27.0209 84.7333 26.4623 85.9533 26.7067C87.4728 26.9976 87.75 28.7432 87.5171 29.9301C87.3397 30.8611 86.8517 31.8619 86.1751 32.8045C86.8073 32.4903 87.4617 32.339 88.0717 32.595C88.8591 32.9325 89.214 33.6074 89.1253 34.294C90.6336 33.0605 93.3287 31.7339 93.739 34.0962C93.9054 35.0853 93.495 36.1675 92.8296 37.145C93.6503 37.3196 94.4378 37.6105 94.9368 38.1691C95.7465 39.0768 95.6245 40.4616 94.8814 41.4041C94.0274 42.498 92.7187 42.6726 91.5209 42.2536C92.4081 44.1156 90.7667 46.4662 88.8369 45.4305C88.4266 47.0248 87.3064 48.5143 85.7537 49.294C84.7223 49.8293 83.1474 50.3413 81.8498 50.2598C82.127 51.2257 82.127 52.2149 81.3285 53.0062C80.2194 54.1 78.822 53.6113 77.9347 52.6803C78.334 54.5539 78.5225 56.602 76.5927 57.7308C74.7073 58.8363 73.3653 57.6726 72.5002 56.2063C72.3117 57.5329 71.7461 58.7897 70.8255 59.6276C69.8495 60.512 68.3301 60.6284 67.1656 60.0232C66.2783 59.5694 65.99 58.6152 66.001 57.6842C65.4354 58.3475 64.5814 58.7897 63.6498 58.5453C62.6738 58.2777 62.1747 57.6493 61.9196 56.8696C61.3984 57.5678 60.6775 58.1264 59.8235 58.429C58.0712 59.0457 56.4408 57.7075 56.4741 56.218C55.3761 57.37 53.5683 58.2893 52.315 56.9744C52.0156 56.6718 51.8603 56.346 51.8049 56.0201C51.4389 56.09 51.084 56.1132 50.7291 56.0783C49.1653 55.9154 48.0007 54.4608 48.2891 53.0876C47.5238 53.5647 46.814 53.3204 46.326 52.7385C45.9157 54.7284 44.4184 56.7183 42.6106 57.3584C41.4794 57.7657 39.6827 57.3002 39.3499 56.0783C39.0949 55.1706 39.3943 54.2513 39.9267 53.46C39.2612 53.7742 38.5181 53.9022 37.9414 53.4949C37.6309 53.2738 37.4312 53.0178 37.3092 52.7618C36.8878 53.0527 36.3998 53.2505 35.8785 53.2971C34.1595 53.4833 34.2704 51.7261 34.6918 50.5275C33.9487 51.0744 32.9949 51.5632 32.1631 51.1675C31.3202 50.7719 31.0097 49.8991 30.9321 49.0612C30.8433 48.3281 30.9875 47.4903 31.3313 46.7804C30.3442 46.2218 30.1113 45.2327 30.2999 44.2552C29.4459 45.0232 28.237 45.4422 27.0947 44.8836C26.7065 44.6974 26.4181 44.4647 26.2185 44.2086C25.4865 44.4298 24.7323 44.453 24.0336 44.1737C22.9911 43.7548 22.3145 42.626 22.1814 41.4623C21.2166 44.069 24.9874 47.3041 28.6585 46.8851C28.1261 54.9844 34.5255 55.3219 34.5255 55.3219C32.1409 61.1637 40.7917 62.1877 44.5293 59.1505C45.7382 62.4786 49.8085 59.069 49.8085 59.069C49.8085 63.1768 58.7255 62.979 62.208 60.2211C63.5167 65.6788 72.0566 63.2932 72.6444 59.6392C72.6444 59.6392 78.2896 63.6423 83.1141 60.6865C87.4284 57.9402 86.4857 55.6128 85.9755 54.1117C88.1826 54.2862 90.7556 50.481 90.4007 48.6307C92.9405 52.5407 105.861 44.1388 97.5654 37.0868L97.5764 37.0519Z" fill="#549F31"/>
</g>
<path d="M46.8917 87.4631C46.8917 87.4631 49.8973 86.0085 49.0655 83.2156C48.2337 80.4111 44.4185 80.993 43.6865 81.377C44.7623 78.8402 42.5441 77.7463 41.3796 78.2467C41.4129 77.4321 40.9138 77.3739 40.5922 77.5019C41.1245 75.8727 38.6957 74.1156 37.0764 75.9658C36.289 75.2094 34.1595 75.6982 33.8268 76.2218C33.7824 75.3258 32.4959 75.3723 31.8083 75.8495C31.9857 73.5104 25.9413 73.8595 26.4736 78.1303C24.6991 77.3157 23.1353 78.6656 23.1686 79.4802C23.1686 79.4802 20.3404 79.166 20.1297 82.2614C19.919 85.3685 23.5346 85.7525 23.5346 85.7525C23.5346 85.7525 20.8395 87.4631 23.6122 89.3367C22.5697 90.1396 23.5235 92.6066 26.6511 92.083C26.4182 93.2001 28.3812 93.5841 29.08 92.2575C29.4903 93.6307 32.2076 94.3173 33.7492 93.2001C34.1817 94.2591 35.7899 93.9333 36.5551 92.6997C37.8084 94.1893 43.2207 95.3879 42.9989 90.8146C44.5959 91.3266 47.0137 89.7672 46.8917 87.4631Z" fill="#AFC90C"/>
<g style="mix-blend-mode:multiply" opacity="0.6">
<path d="M49.0655 83.2156C48.2337 80.4111 44.4185 80.993 43.6865 81.377C44.7623 78.8402 42.5441 77.7463 41.3796 78.2467C41.4129 77.4321 40.9138 77.3739 40.5922 77.5019C41.1245 75.8727 38.6957 74.1156 37.0764 75.9658C36.289 75.2094 34.1595 75.6982 33.8268 76.2218C33.7824 75.3258 32.4959 75.3723 31.8083 75.8495C31.9857 73.5104 25.9413 73.8595 26.4736 78.1303C24.6991 77.3157 23.1353 78.6656 23.1686 79.4802C23.1686 79.4802 20.3404 79.166 20.1297 82.2614C19.919 85.3685 23.5346 85.7525 23.5346 85.7525C23.5346 85.7525 20.8395 87.4631 23.6122 89.3367C22.5697 90.1396 23.5235 92.6066 26.6511 92.083C26.4182 93.2001 28.3812 93.5841 29.08 92.2575C29.4903 93.6307 32.2076 94.3173 33.7492 93.2001C34.1817 94.2591 35.7899 93.9333 36.5551 92.6997C37.8084 94.1893 43.2207 95.3879 42.9989 90.8146C44.5959 91.3266 47.0137 89.7672 46.8917 87.4631C46.8917 87.4631 49.8973 86.0085 49.0655 83.2156ZM35.9784 81.7261C36.6217 82.9014 35.2908 83.9139 33.9932 84.0768C34.6475 86.3925 33.6161 89.3018 31.1096 90.0931C29.823 90.4887 27.9598 90.5353 27.7823 88.941V88.8712C26.7398 89.2785 25.6862 89.3018 25.1649 88.1962C24.7102 87.2071 25.1982 86.4856 25.9745 86.0434C25.3756 85.7525 25.0207 85.1008 24.9986 84.3677C23.7786 84.4142 22.6584 84.1 22.1926 83.1458C20.9726 80.6788 23.9893 79.7478 26.03 80.3646C26.0633 80.3646 26.0744 80.3879 26.0965 80.4111C26.3184 79.8758 26.6733 79.3987 27.1169 79.1078C27.0947 78.9449 27.0947 78.7703 27.1169 78.5958C27.25 77.8045 27.8156 77.0597 28.47 76.5593C29.0356 76.1404 29.7898 75.7331 30.5329 75.8727C31.1539 75.9775 31.3647 76.5011 31.3979 77.0248C32.5514 76.6175 33.5828 77.211 33.9599 78.0954C35.6346 77.4786 38.3518 77.2343 38.5404 79.2824C38.6624 80.6322 37.2871 81.7959 35.9673 81.7261H35.9784Z" fill="#AFC90C"/>
</g>
<g style="mix-blend-mode:multiply">
<path d="M49.0655 83.2157C48.2337 80.4112 44.4185 80.993 43.6865 81.377C44.7623 78.8402 42.5441 77.7463 41.3796 78.2467C41.4129 77.4321 40.9138 77.3739 40.5922 77.5019C41.1134 75.896 38.7733 74.1738 37.154 75.896C37.154 75.9193 37.154 75.9542 37.154 75.9775C37.7418 75.7447 38.374 75.768 38.9285 76.2684C39.7825 77.0481 39.7825 78.3049 39.3167 79.3638C40.1153 79.3173 40.9138 79.5268 41.3685 80.0621C41.9674 80.7603 42.1892 81.7727 42.0118 82.6804C43.0432 82.4476 44.1412 82.5756 44.9619 83.1691C46.6255 84.3793 44.7512 85.9852 43.3648 86.4507V86.474C43.5312 87.0675 43.3648 87.7308 42.9989 88.2312C42.5885 88.7897 41.9896 89.1738 41.3907 89.2436C41.3242 89.5461 41.2132 89.872 41.0247 90.1862C40.1818 91.6641 38.1744 92.2575 37.0653 91.2684C36.9433 91.443 36.8102 91.6175 36.6549 91.7572C36.2224 92.1412 35.5237 92.5252 34.9137 92.3041C34.5921 92.1761 34.3813 91.9899 34.2704 91.7688C32.5624 92.6532 30.2999 92.6067 29.7454 91.2335C28.7916 91.5942 27.7712 91.6873 26.8174 91.2684C26.3738 91.0822 25.9745 90.5935 25.7971 90.0931C25.3867 90.0931 24.9764 89.9534 24.6104 89.6625C24.0558 89.2087 23.8784 88.6268 24.1557 88.1148C23.2795 88.1497 22.6473 87.3817 22.6695 86.5671C22.2148 87.242 22.0262 88.2661 23.6011 89.325C22.5586 90.128 23.5124 92.595 26.64 92.0714C26.4071 93.1885 28.3701 93.5725 29.0689 92.2459C29.4792 93.6191 32.1965 94.3057 33.7381 93.1885C34.1706 94.2475 35.7788 93.9216 36.544 92.6881C37.7973 94.1776 43.2096 95.3762 42.9878 90.8029C44.5848 91.315 47.0026 89.7556 46.8806 87.4515C46.8806 87.4515 49.8862 85.9969 49.0544 83.204L49.0655 83.2157Z" fill="#AFC90C"/>
</g>
<g style="mix-blend-mode:screen">
<path d="M25.9635 81.0162C25.6529 80.6788 25.0984 80.5857 24.6548 80.6439C24.2444 80.702 23.9006 80.9697 23.6344 81.2722C23.6344 81.2722 23.6344 81.2761 23.6344 81.2839C23.5235 81.3653 23.4237 81.4584 23.335 81.5632C23.0466 81.9472 23.0355 82.4359 23.3128 82.8083C23.6122 83.2389 24.0226 83.4251 24.5549 83.3785C25.6751 83.2854 26.8285 81.9472 25.9635 81.0046V81.0162Z" fill="#D2D600"/>
</g>
<g style="mix-blend-mode:screen">
<path d="M27.494 82.6454C27.0947 82.3312 26.5291 82.7617 26.3627 83.1108C26.2851 83.2854 26.2518 83.5181 26.4071 83.6578C26.4625 83.7043 26.5069 83.7276 26.5623 83.7392C26.6621 83.8323 26.8285 83.8556 26.9727 83.7858C27.3165 83.6112 27.9709 83.0061 27.494 82.6337V82.6454Z" fill="#D2D600"/>
</g>
<g style="mix-blend-mode:screen">
<path d="M27.2278 84.8797H27.1945C26.9838 84.8565 26.7398 84.9961 26.5956 85.1823C26.4514 85.3103 26.3738 85.4849 26.4292 85.7176C26.4847 85.8921 26.7509 85.9387 26.9061 85.9038C27.261 85.834 27.5494 85.5081 27.5272 85.159C27.5161 84.9961 27.3941 84.903 27.2278 84.8797Z" fill="#D2D600"/>
</g>
<path d="M39.5717 88.5804C39.3943 87.9869 38.7621 87.824 38.1854 88.0451C37.7528 88.208 37.3868 88.5105 37.1761 88.8829C37.1428 88.9178 37.1207 88.9411 37.0874 88.976C36.7879 89.3251 36.7325 89.8255 36.8767 90.2445C36.9987 90.6168 37.3757 90.8612 37.775 90.8496C38.3517 90.8496 38.8508 90.5121 39.2057 90.1048C39.5717 89.6742 39.7381 89.104 39.5717 88.5804Z" fill="#D2D600"/>
<path d="M35.7011 90.1165C35.5458 90.1165 35.3684 90.419 35.568 90.419C35.7122 90.419 35.9007 90.1165 35.7011 90.1165Z" fill="#D2D600"/>
<path d="M36.1114 84.1351C36.1114 84.1351 36.0449 84.17 36.0005 84.2049C35.6456 84.298 35.4016 84.6122 35.3129 84.9264C35.2131 85.2638 35.2796 85.7759 35.7454 85.8341C36.4219 85.9155 36.9876 85.1358 36.9876 84.5656C36.9876 84.17 36.4441 83.9605 36.1114 84.1351Z" fill="#D2D600"/>
<path d="M32.396 90.5004C32.1188 90.4422 31.8193 90.64 31.6308 90.7913C31.3646 91.0008 31.287 91.3499 31.2759 91.6641C31.2759 91.7921 31.3646 91.9201 31.4866 91.9667C31.7861 92.083 32.0744 92.0016 32.3295 91.827C32.3295 91.827 32.3295 91.8037 32.3517 91.8037C32.5291 91.7106 32.7066 91.5943 32.7842 91.4779C33.0615 91.059 32.9062 90.6168 32.396 90.512V90.5004Z" fill="#D2D600"/>
<path d="M45.7715 86.8814C45.6051 86.6603 45.2724 86.7883 45.0839 86.8814C44.9508 86.9512 44.8621 87.0559 44.7844 87.184C44.6292 87.3585 44.5182 87.568 44.5072 87.7891C44.5072 87.9054 44.5515 87.9869 44.6292 88.0567C44.607 88.0451 44.5848 88.0335 44.5404 88.0335C44.3075 88.0335 44.0303 88.4873 44.3297 88.4873C44.5293 88.4873 44.7512 88.1615 44.6402 88.0684C44.729 88.1382 44.8288 88.1847 44.9397 88.208C45.1837 88.2546 45.4499 88.1033 45.6162 87.952C45.9157 87.6843 46.0155 87.2072 45.7715 86.8814Z" fill="#D2D600"/>
<g style="mix-blend-mode:multiply">
<path d="M17.1796 68.3669C16.8579 67.9131 16.2368 67.948 15.7488 68.1574C15.1167 68.4367 14.6176 69.0069 14.4845 69.6586C14.418 69.9612 14.5067 70.2172 14.6841 70.3801C14.8505 70.6012 15.1389 70.7176 15.4605 70.6943C16.0594 70.6477 16.6139 70.2405 16.9577 69.7866C17.0243 69.6819 17.0908 69.5888 17.1352 69.4724C17.1685 69.4026 17.2017 69.3328 17.2128 69.2629C17.1685 69.4259 17.2683 69.1233 17.2683 69.0768C17.3237 68.8557 17.3237 68.5647 17.1906 68.3669H17.1796Z" fill="#AFC90C"/>
</g>
<g style="mix-blend-mode:multiply">
<path d="M15.0502 71.695C14.8838 71.4622 14.4402 71.6833 14.2849 71.7881C14.0963 71.9394 13.8302 72.1954 13.8745 72.463C13.8745 72.463 13.8745 72.4863 13.8856 72.5096C13.9189 72.6841 14.0187 72.8238 14.2294 72.8354H14.2738C14.4956 72.8354 14.6952 72.7423 14.8616 72.591C14.9836 72.4747 15.1278 72.2768 15.1278 72.0906C15.1722 71.951 15.1611 71.8346 15.0612 71.695H15.0502Z" fill="#AFC90C"/>
</g>
<path d="M11.6674 63.7122C11.2903 63.6773 10.8467 63.8402 10.5583 64.0613C10.2367 64.3057 9.87067 64.713 9.87067 65.1319C9.73758 65.4229 9.7154 65.7487 9.92613 66.0164C10.3476 66.5517 11.1905 66.1211 11.6008 65.7953C12.0223 65.4461 12.3328 64.8992 12.3661 64.3639C12.3883 63.9799 12.0445 63.7472 11.6785 63.7122H11.6674Z" fill="#D2D600"/>
<path d="M9.29401 66.9123C9.26073 66.8541 9.22746 66.7959 9.1831 66.7378C9.01674 66.5632 8.7062 66.7378 8.57311 66.8425C8.56202 66.8658 8.53984 66.8774 8.52874 66.9007C8.42893 66.9705 8.32911 67.1334 8.32911 67.2731C8.32911 67.2731 8.30693 67.2963 8.30693 67.308C8.25148 67.4127 8.27366 67.5291 8.37347 67.5873C8.5842 67.7036 8.86147 67.564 9.03892 67.4592C9.19419 67.3778 9.41601 67.0869 9.3051 66.9007L9.29401 66.9123Z" fill="#D2D600"/>
<g opacity="0.4">
<g style="mix-blend-mode:screen">
<path d="M4.93532 53.1226C4.19223 52.8782 3.48243 53.4717 3.20516 54.0536C3.0388 54.391 3.00552 54.8565 3.20516 55.194C3.28279 55.6129 3.56006 55.9387 4.13678 55.8107C4.75786 55.6711 5.26804 55.194 5.48985 54.647C5.72276 54.0536 5.63403 53.367 4.93532 53.1342V53.1226Z" fill="#96C01F"/>
</g>
<g style="mix-blend-mode:screen">
<path d="M6.94269 56.4273C6.32161 55.8804 5.50089 56.6368 5.27908 57.1837C5.20144 57.3699 5.16817 57.5794 5.32344 57.7423C5.4898 57.9285 5.72271 57.9867 5.94452 57.9518C6.06652 57.975 6.2107 57.9518 6.38815 57.8936C6.9316 57.6841 7.47505 56.9045 6.9316 56.4273H6.94269Z" fill="#96C01F"/>
</g>
<path d="M4.20328 59.3366C4.14782 59.418 4.10346 59.4995 4.08128 59.5926H4.10346C4.0591 59.6973 4.07019 59.8253 4.21437 59.8602C4.26982 59.8602 4.31419 59.8835 4.35855 59.8952C4.66909 59.9533 5.02399 59.5693 5.00181 59.29C4.96854 58.8478 4.35855 59.1271 4.21437 59.3366H4.20328Z" fill="#96C01F"/>
<path d="M13.8745 46.4312C13.3088 45.7679 12.2885 46.2916 11.7451 46.7338C11.5232 46.9084 11.3458 47.0945 11.2016 47.3273C10.88 47.7928 10.6692 48.363 10.9132 48.8634C10.9354 48.9099 10.9798 48.9448 11.002 48.9914C11.0685 49.1426 11.1683 49.2823 11.3014 49.3987C12.0334 49.9805 13.1425 49.259 13.5861 48.6888C14.063 48.0837 14.429 47.0946 13.8856 46.4312H13.8745Z" fill="#DDDA00"/>
<path d="M16.1259 47.3854C16.1259 47.3854 16.0815 47.2923 16.0372 47.2574C16.0372 47.2574 16.0372 47.2574 16.0261 47.269C15.9041 47.141 15.7044 47.1294 15.5159 47.2108C15.3273 47.2923 15.1832 47.4087 15.0723 47.5716C14.8615 47.8974 14.8837 48.4327 15.4272 48.328C15.6601 48.2931 15.8819 48.1302 16.015 47.944C16.1148 47.8043 16.2368 47.5483 16.137 47.3854H16.1259Z" fill="#96C01F"/>
<path d="M19.9855 52.8199C19.7526 52.3079 19.198 52.3544 18.7433 52.5988C18.3995 52.785 18.1444 53.169 18.0002 53.5065C17.7673 54.1 17.6675 55.124 18.6102 55.0542C18.6546 55.0542 18.6879 55.0659 18.7211 55.0542C19.2646 55.0193 19.7748 54.612 19.9966 54.1698C20.2073 53.7509 20.1851 53.2505 19.9855 52.8199Z" fill="#96C01F"/>
</g>
<path opacity="0.4" d="M34.7584 68.8091C34.6253 68.3785 34.1595 68.2388 33.7381 68.2854C33.1835 68.3552 32.7621 68.8207 32.5181 69.2629C32.3739 69.5189 32.2741 69.9611 32.4515 70.2288C32.4737 70.2637 32.4959 70.2869 32.5181 70.3102C32.5513 70.4964 32.6955 70.6011 32.8841 70.6593C33.361 70.799 33.8379 70.4964 34.1817 70.2171C34.592 69.8913 34.9248 69.3211 34.7584 68.8091Z" fill="#AFC90C"/>
<path opacity="0.4" d="M32.0855 71.7881C31.7417 71.7881 31.4201 72.0208 31.287 72.3117C31.1871 72.5445 31.2204 72.9169 31.5642 72.9169C31.908 72.9169 32.2408 72.6841 32.3739 72.3816C32.4848 72.1605 32.4404 71.7881 32.0855 71.7881Z" fill="#AFC90C"/>
<path opacity="0.4" d="M38.7067 70.6943C37.9303 70.7874 37.2538 71.4856 36.9765 72.149C36.8434 72.4748 36.788 72.8123 36.91 73.1614C37.0431 73.557 37.5754 73.7548 37.9747 73.6618C38.3185 73.5919 38.5958 73.429 38.8398 73.2312C39.3167 72.917 39.6827 72.4399 39.8379 71.9395C40.0598 71.2296 39.4719 70.6012 38.6956 70.706L38.7067 70.6943Z" fill="#AFC90C"/>
<g style="mix-blend-mode:multiply">
<path d="M22.9246 64.7595C22.7249 64.841 22.4588 65.0737 22.3257 65.3065C22.3035 65.3297 22.2924 65.3297 22.2813 65.353C22.1149 65.5392 22.126 65.7603 22.2702 65.9465C22.4477 66.1792 22.8358 66.0629 23.0355 65.9465C23.3904 65.7487 23.5346 65.3763 23.5456 65.0155C23.5456 64.7013 23.1686 64.6664 22.9357 64.7595H22.9246Z" fill="#AFC90C"/>
</g>
<g style="mix-blend-mode:screen" opacity="0.3">
<path d="M28.1261 25.5779C28.0041 25.4266 27.8599 25.3568 27.6935 25.3102C27.6713 25.2753 27.6492 25.2404 27.6159 25.2055C27.0503 24.5538 26.1297 24.9611 25.6861 25.4964C25.2425 26.0201 25.3312 26.7532 25.5308 27.335C25.8081 28.1264 26.6177 28.3591 27.4162 28.1264C27.9819 27.9518 28.4255 27.3467 28.5142 26.823C28.5919 26.3692 28.4144 25.9386 28.1261 25.5779Z" fill="#569132"/>
</g>
<g style="mix-blend-mode:screen" opacity="0.3">
<path d="M31.2758 29.1041C31.0762 28.8713 30.688 28.9644 30.444 29.0459C30.078 29.1622 29.4902 29.8256 29.9006 30.1747C29.9228 30.1979 29.9339 30.1979 29.956 30.2096C29.9782 30.4889 30.1224 30.71 30.4219 30.7332C31.0429 30.7565 31.4089 30.0816 31.4422 29.5812C31.4533 29.4066 31.3978 29.2437 31.2758 29.1041Z" fill="#569132"/>
</g>
<g style="mix-blend-mode:screen" opacity="0.5">
<path d="M30.2556 32.6997C30.0892 32.4204 29.7898 32.2808 29.4459 32.2924C28.8803 32.3157 28.4145 32.6183 28.0818 33.0372C27.9043 33.2699 27.7491 33.5841 27.7158 33.875C27.6936 34.0961 27.7047 34.2009 27.7602 34.422C27.7712 34.4685 27.8045 34.5151 27.8378 34.55C27.9043 34.7827 28.0596 34.9689 28.3701 35.0271C28.8249 35.1086 29.4238 34.7129 29.7121 34.4103C30.1003 34.0147 30.5772 33.2583 30.2556 32.6997Z" fill="#82BA28"/>
</g>
<path d="M27.505 35.4111C27.2832 35.318 26.9837 35.4577 26.8507 35.6089C26.6621 35.7951 26.5179 36.0162 26.5845 36.249C26.5845 36.2839 26.5845 36.3072 26.5845 36.3304C26.5845 36.4817 26.7176 36.5981 26.8728 36.5981C27.1279 36.6097 27.3276 36.4468 27.4717 36.2722C27.5494 36.1908 27.5937 36.0861 27.627 35.9813C27.6492 35.9231 27.6714 35.8533 27.6936 35.7835C27.7379 35.6439 27.6714 35.4577 27.5161 35.3995L27.505 35.4111Z" fill="#569132"/>
<path d="M25.2425 39.9962C24.8321 39.6587 24.2554 39.8798 23.9227 40.2173C23.6343 40.5082 23.468 40.8573 23.3792 41.2413C23.235 41.8581 23.2905 42.7657 24.1999 42.6726C24.577 42.6261 24.9652 42.3701 25.1759 42.0326C25.6861 41.4508 25.8303 40.4849 25.2314 40.0078L25.2425 39.9962Z" fill="#569132"/>
<path d="M28.6584 40.7409C28.2702 40.8107 27.6713 41.4624 28.1593 41.7533C28.1593 41.7533 28.1704 41.7533 28.1815 41.7766C28.1815 41.7766 28.1926 41.7766 28.2148 41.7766C28.2148 41.7766 28.2148 41.7882 28.237 41.7882C28.4588 41.8697 28.736 41.7067 28.8802 41.5555C29.0133 41.4042 29.1464 41.2296 29.1242 41.0202C29.102 40.7991 28.8913 40.6943 28.6584 40.7292V40.7409Z" fill="#569132"/>
<path d="M46.4924 6.16744C46.4924 6.08598 46.4702 6.0278 46.3482 6.05107C46.1818 6.08598 45.7826 6.47 46.082 6.58637C46.3038 6.67946 46.5922 6.34199 46.4924 6.17908V6.16744Z" fill="#DDDA00"/>
<g style="mix-blend-mode:screen" opacity="0.5">
<path d="M33.372 11.2646C33.3166 11.0668 33.0948 10.869 32.8618 10.8806C32.4293 10.9039 32.0744 11.1366 31.8415 11.4741C31.6751 11.7301 31.5753 11.9978 31.5864 12.2887C31.5864 12.5563 31.7971 12.7309 32.03 12.8007C32.3073 12.9869 32.7398 12.7658 32.9838 12.5912C33.3942 12.2654 33.5051 11.7185 33.372 11.253V11.2646Z" fill="#82BA28"/>
</g>
<g style="mix-blend-mode:screen" opacity="0.5">
<path d="M33.1613 14.7206C33.0948 14.6043 33.006 14.5345 32.884 14.5112C32.8064 14.3366 32.5513 14.3483 32.3517 14.4646C32.1299 14.5926 31.6973 15.0814 31.8859 15.349C32.019 15.5469 32.1742 15.64 32.4293 15.5934C32.6955 15.5469 32.9173 15.3956 33.0504 15.1978C33.1391 15.0698 33.2389 14.8719 33.1502 14.7206H33.1613Z" fill="#82BA28"/>
</g>
<g style="mix-blend-mode:screen" opacity="0.5">
<path d="M36.9543 13.9409C36.8878 13.6849 36.4996 13.7198 36.3 13.7897C36.2778 13.7897 36.2778 13.7897 36.2667 13.8013C35.9118 13.9293 35.5902 14.325 35.6678 14.6857C35.6678 14.6973 35.6678 14.7206 35.6678 14.7323C35.6678 15.1279 36.056 15.2559 36.3887 15.1279C36.8878 14.9301 37.0874 14.3948 36.9543 13.9409Z" fill="#82BA28"/>
</g>
<g style="mix-blend-mode:screen" opacity="0.5">
<path d="M42.6106 12.9986C42.4775 12.44 41.8786 11.928 41.2243 12.1141C40.6475 12.2771 40.2039 12.5913 39.8601 12.9986C39.1059 13.6153 38.6401 14.7208 38.8287 15.5238C38.9839 16.1754 39.6161 16.3849 40.2815 16.2569C41.2464 16.0591 41.9452 15.2678 42.3555 14.4648C42.5884 14.0226 42.7215 13.4873 42.6106 12.9869V12.9986Z" fill="#82BA28"/>
</g>
<g style="mix-blend-mode:screen" opacity="0.5">
<path d="M42.533 9.33292C42.2113 9.03036 41.6901 9.30964 41.4239 9.53075C41.1245 9.78676 40.9026 10.1126 40.9137 10.5082C40.9137 10.8457 41.2575 10.9737 41.5792 10.9272C41.8786 10.8806 42.1781 10.6828 42.3444 10.4384C42.3888 10.3686 42.4443 10.2988 42.4775 10.2173C42.4775 10.1941 42.4997 10.1708 42.4997 10.1359C42.6661 9.91476 42.7548 9.54238 42.5219 9.33292H42.533Z" fill="#82BA28"/>
</g>
<g style="mix-blend-mode:screen" opacity="0.3">
<path d="M46.8362 1.02393C45.96 1.12866 45.2502 1.88506 44.8066 2.53673C44.7401 2.64146 44.6735 2.75783 44.607 2.8742C44.4961 2.99057 44.4073 3.10694 44.3297 3.24658C43.9637 3.92152 44.0081 4.84084 44.7512 5.25977C45.461 5.66706 46.4259 5.01539 46.9139 4.59646C47.5238 4.0728 48.1006 3.25822 48.156 2.4669C48.2115 1.69887 47.7457 0.919193 46.8251 1.03556L46.8362 1.02393Z" fill="#569132"/>
</g>
<g style="mix-blend-mode:screen" opacity="0.5">
<path d="M49.1653 8.91385C47.9564 9.41424 47.0137 10.7525 46.9249 11.9744C46.9138 12.1373 46.9471 12.2886 47.0247 12.4282C47.1689 13.3359 48.5775 13.045 49.1874 12.6842C50.0414 12.1838 50.6403 11.183 50.7734 10.2637C50.9176 9.3095 50.2632 8.46001 49.1542 8.91385H49.1653Z" fill="#82BA28"/>
</g>
<g style="mix-blend-mode:screen" opacity="0.5">
<path d="M53.036 8.11081C52.8475 7.97117 52.6257 7.9828 52.4038 8.0759C52.1488 8.18063 51.8715 8.49483 51.9824 8.76248C51.9824 8.78575 51.9824 8.79739 51.9935 8.80903C52.0379 8.90212 52.1488 8.97194 52.2597 8.97194C52.6257 8.99522 52.9029 8.76248 53.0582 8.47156C53.1137 8.37846 53.1358 8.19227 53.0249 8.11081H53.036Z" fill="#82BA28"/>
</g>
<g style="mix-blend-mode:screen" opacity="0.5">
<path d="M57.8272 7.40107C57.8716 7.29634 57.9048 7.17997 57.9048 7.0636C57.8827 6.7494 57.6054 6.66795 57.317 6.69122C57.0509 6.71449 56.818 6.86577 56.6294 7.04033C56.3078 7.34289 56.1858 7.92473 56.574 8.07601C56.5961 8.07601 56.6072 8.09929 56.6294 8.09929C56.6516 8.09929 56.6627 8.09929 56.6738 8.12256C56.829 8.15747 56.9843 8.12256 57.1396 8.06438C57.3725 7.98292 57.561 7.80836 57.7052 7.61054C57.7496 7.55235 57.7939 7.48253 57.8272 7.42435V7.40107Z" fill="#82BA28"/>
</g>
<g style="mix-blend-mode:screen" opacity="0.5">
<path d="M55.7753 39.7169C55.0655 39.135 54.1117 39.6587 53.5572 40.1707C53.2577 40.4267 52.9028 40.9155 52.7808 41.4042C52.4259 41.8464 52.2707 42.5446 52.7808 42.9054C53.3243 43.2778 54.0341 43.0218 54.5221 42.7076C55.0988 42.3235 55.5424 41.7999 55.8752 41.218C56.1192 40.7758 56.2412 40.0893 55.7864 39.7285L55.7753 39.7169Z" fill="#82BA28"/>
</g>
<path d="M51.1506 43.4522C50.6071 43.5918 49.9638 44.1271 49.9749 44.7089C49.9417 44.7904 49.9306 44.8719 49.9195 44.965C49.8973 45.3373 50.2411 45.5701 50.596 45.6399C50.9287 45.6981 51.2504 45.4886 51.4833 45.3024C51.7384 45.093 51.8936 44.7788 51.9713 44.4762C52.1044 43.9526 51.8715 43.2776 51.1616 43.4405L51.1506 43.4522Z" fill="#569132"/>
<g style="mix-blend-mode:multiply" opacity="0.3">
<path d="M78.822 25.0777C78.2674 24.7984 77.6131 24.9147 77.0142 25.194C77.1362 24.4725 76.8478 23.8442 75.7831 23.9838C75.5835 24.0071 75.162 24.1467 74.6962 24.3445L74.7295 24.2631C74.8847 23.8791 74.674 23.7278 74.3967 23.7511C74.1306 23.4252 73.5871 23.3787 72.8773 23.5183C71.8126 23.7278 71.1915 24.5191 70.881 25.4035C70.1822 25.1591 69.4392 25.4733 68.8624 26.0086C68.1305 24.6122 64.7921 25.7526 64.5149 27.7425C64.1821 27.7425 63.8605 27.8123 63.5832 27.9753C63.1285 27.2421 62.2302 27.149 61.5869 27.4981C61.5425 26.637 61.1655 25.8224 60.1007 26.1715C58.7477 26.6137 58.1044 28.0102 58.1931 29.3135C57.7162 29.6161 57.3059 30.0466 57.1617 30.4656C56.1303 30.6867 55.3761 31.7107 55.4315 32.4555C54.511 32.5137 53.6681 32.6882 52.7808 33.177C52.1376 33.5261 51.3501 34.5036 51.7605 35.2483C52.437 36.4469 54.1339 35.6673 55.2652 34.8178C55.4315 35.6789 56.3632 36.2026 57.4168 35.516C58.304 34.9341 59.1913 34.1428 59.7458 33.2119C59.9011 33.3282 60.1118 33.4097 60.3447 33.4213C61.1876 33.4795 61.9751 32.8744 62.5629 32.1762C62.7625 33.177 63.3392 34.1545 64.3818 34.1545C65.4687 34.1545 66.001 33.3399 66.2118 32.4438C67.343 32.921 68.6961 31.5362 68.5963 30.1281C69.5501 30.1281 70.5815 30.0932 71.3468 29.523C71.613 29.3251 71.8015 29.0808 71.9457 28.7898C72.5446 29.1622 73.3542 29.4066 73.82 29.523C74.4744 29.6743 75.406 29.7673 76.0271 29.4415C76.8145 29.0342 77.2249 28.3476 77.9125 27.824C78.5225 27.3469 80.1861 25.7526 78.822 25.0893V25.0777Z" fill="#178137"/>
</g>
<g style="mix-blend-mode:multiply" opacity="0.3">
<path d="M80.3303 29.29C79.7314 28.9758 78.944 29.4995 78.5336 29.8602C78.1011 30.2326 77.6685 30.8726 77.7351 31.4545C77.8571 32.3971 79.0216 32.2225 79.6205 31.8152C79.6427 31.792 79.6649 31.7687 79.6982 31.7454C80.0531 31.5476 80.3747 31.245 80.5632 30.9774C80.9514 30.4304 81.029 29.6391 80.3303 29.2784V29.29Z" fill="#178137"/>
</g>
<g style="mix-blend-mode:multiply" opacity="0.3">
<path d="M83.2805 29.7905C83.3249 29.6974 83.347 29.6043 83.3359 29.4995C83.3138 29.197 82.9589 29.0922 82.6927 29.2319C82.5152 29.3133 82.3821 29.4064 82.238 29.5461C82.0827 29.6857 81.9274 29.9301 81.9607 30.1512C81.9274 30.3141 82.0051 30.4654 82.2047 30.4887C82.2491 30.4887 82.2934 30.4887 82.3267 30.4887C82.5596 30.4887 82.8258 30.3607 82.97 30.221C83.0476 30.1396 83.1141 30.0581 83.1807 29.965C83.214 29.9301 83.2472 29.8835 83.2805 29.8254C83.2805 29.8137 83.2916 29.8021 83.3027 29.7905H83.2805Z" fill="#178137"/>
</g>
<g style="mix-blend-mode:screen" opacity="0.3">
<path d="M48.0783 75.4422C44.9618 72.8588 41.7455 70.3569 38.5625 67.8084C37.032 66.5865 35.1687 65.9814 33.3498 65.2017C30.8877 64.1427 28.7472 62.5834 26.7952 60.8495C26.7397 60.8029 26.6177 60.9077 26.6732 60.9659C27.993 62.211 29.3571 63.3747 30.9209 64.3406C33.0282 65.6439 35.5014 66.2839 37.4978 67.7153C41.0579 70.2638 44.2964 73.1148 47.9231 75.5935C48.0007 75.6517 48.156 75.512 48.0783 75.4538V75.4422Z" fill="#845819"/>
<path d="M42.4664 69.775C39.8268 67.2265 39.1836 63.91 37.1983 61.0007C37.1429 60.9077 36.9876 61.0357 37.0209 61.1055C38.4627 64.038 39.239 68.0527 42.2224 69.9961C42.3444 70.0776 42.5884 69.8797 42.4664 69.7634V69.775Z" fill="#845819"/>
<path d="M52.7142 65.3414C52.6921 65.2483 52.5257 65.3763 52.5368 65.4578C54.1228 71.8813 55.6422 78.4678 56.1856 85.066C56.2078 85.322 56.596 85.066 56.596 84.9147C56.84 78.2933 54.4 71.6835 52.7031 65.3414H52.7142Z" fill="#845819"/>
<path d="M55.6755 87.4981C55.4648 85.5199 55.0766 83.5067 54.4001 81.6331C53.7901 79.9458 52.1597 78.561 50.8843 77.3042C50.8289 77.2576 50.7069 77.374 50.7512 77.4322C52.1597 79.0614 53.5239 80.6905 54.1894 82.7154C54.9103 84.8566 55.0655 87.3236 55.1986 89.5346C55.4426 93.561 55.3206 97.5175 56.1968 101.497C56.2301 101.637 56.4297 101.497 56.4075 101.416C55.5868 96.7379 56.1413 92.1762 55.6644 87.5098L55.6755 87.4981Z" fill="#845819"/>
<path d="M57.9158 65.8765C57.9158 65.7951 57.816 65.8416 57.8049 65.8882C57.6164 66.9937 57.0951 68.0526 57.0064 69.1581C56.9066 70.508 56.9287 71.8928 57.0064 73.2427C57.0286 73.4405 57.3058 73.2427 57.3169 73.1147C57.3724 71.9161 57.3169 70.7175 57.3169 69.5189C57.3169 68.2621 57.7938 67.0984 57.9047 65.8649L57.9158 65.8765Z" fill="#845819"/>
<path d="M61.0767 70.0892C59.1359 76.315 60.622 82.6339 60.0897 88.976C59.5906 94.9457 57.9602 101.032 59.2246 107.025C59.2468 107.153 59.4464 107.025 59.4353 106.932C58.4593 100.45 60.4002 94.3872 60.9436 87.9752C61.4538 81.924 59.8013 76.0241 61.5204 70.0078C61.598 69.7169 61.1433 69.8914 61.0767 70.0892Z" fill="#845819"/>
<path d="M60.9325 110.493C60.622 108.817 60.5222 107.118 60.3336 105.431C60.3336 105.349 60.1895 105.431 60.1895 105.489C60.2782 107.234 60.1784 108.968 60.4556 110.69C60.744 112.494 61.3207 114.228 61.7089 116.009C61.7311 116.137 61.9307 116.009 61.9196 115.927C61.8087 114.077 61.2763 112.308 60.9436 110.493H60.9325Z" fill="#845819"/>
<path d="M75.7055 72.9635C72.1121 77.1877 66.9549 79.7827 63.2838 83.9837C63.1951 84.0651 63.3282 84.1233 63.3947 84.0535C67.2654 80.0737 72.3782 77.3855 75.8164 73.0217C75.9051 72.9169 75.7609 72.8937 75.6944 72.9635H75.7055Z" fill="#845819"/>
<path d="M84.3673 76.4779C80.5965 77.8162 76.748 78.7239 72.9217 79.9108C72.8662 79.9225 72.8219 80.0505 72.9217 80.0388C76.7369 79.2243 81.0068 78.561 84.4339 76.6874C84.5559 76.6292 84.5559 76.3965 84.3784 76.4663L84.3673 76.4779Z" fill="#845819"/>
<path d="M81.395 71.9859C80.3414 72.1954 79.2989 72.463 78.2342 72.6027C78.1676 72.6027 78.0789 72.754 78.1787 72.754C79.2545 72.754 80.286 72.5678 81.3285 72.2885C81.4727 72.2419 81.628 71.9277 81.395 71.9859Z" fill="#845819"/>
<path d="M52.06 94.4454C50.9952 92.9908 49.1985 92.1413 47.4684 91.5478C47.3686 91.5129 47.2133 91.6991 47.3242 91.734C49.1542 92.374 50.5183 93.3166 51.8714 94.6199C51.9601 94.713 52.1376 94.5385 52.06 94.4454Z" fill="#845819"/>
</g>
<g style="mix-blend-mode:multiply">
<path d="M88.6706 61.4313C87.8832 60.9076 86.9294 61.3149 86.275 61.8386C85.6539 62.3506 85.1105 63.3863 85.787 64.0496C86.2195 64.4685 86.9404 64.3638 87.5172 64.0496C87.9497 63.8983 88.3379 63.619 88.6262 63.2583C89.0144 62.7696 89.325 61.8619 88.6817 61.4197L88.6706 61.4313Z" fill="#AFC90C"/>
</g>
<g style="mix-blend-mode:multiply">
<path d="M84.3563 64.643C84.0014 64.1776 83.2916 64.5034 82.9477 64.7943C82.6483 65.0387 82.2157 65.6322 82.4043 66.0395C82.4265 66.3886 82.8368 66.47 83.1474 66.4468C83.4912 66.4235 83.8461 66.1558 84.0679 65.9231C84.3895 65.5856 84.689 65.062 84.3563 64.643Z" fill="#AFC90C"/>
</g>
<g style="mix-blend-mode:multiply">
<path d="M78.822 65.8069C78.822 65.8069 78.7888 65.7603 78.7777 65.737C78.578 65.4345 78.212 65.5974 77.9791 65.7836C77.9459 65.8069 77.9126 65.8418 77.8793 65.8767C77.6131 66.0047 77.3913 66.3189 77.5688 66.5865C77.8793 67.0287 78.5115 66.5865 78.7333 66.2723C78.7998 66.156 78.9218 65.9465 78.822 65.8069Z" fill="#AFC90C"/>
</g>
<g style="mix-blend-mode:multiply">
<path d="M72.8884 67.145C72.7442 66.5632 71.9235 66.7261 71.5242 66.9239C70.9031 67.2149 70.3153 67.7618 70.1933 68.4367C70.0159 69.4142 71.4133 69.3444 71.9124 68.8324C71.9457 68.8091 71.9789 68.7975 72.0011 68.7858C72.5667 68.4367 73.0437 67.8083 72.8773 67.1567L72.8884 67.145Z" fill="#AFC90C"/>
</g>
<g style="mix-blend-mode:multiply">
<path d="M102.301 64.9922C101.702 64.6664 100.959 65.2133 100.549 65.5741C100.105 65.9581 99.7059 66.4818 99.5395 67.0287C99.4952 67.1683 99.5284 67.3778 99.6504 67.4709C99.7059 67.5174 99.7724 67.5524 99.8279 67.5756C99.9277 67.7153 100.105 67.8084 100.416 67.8316C101.081 67.8782 101.78 67.3778 102.19 66.924C102.656 66.4352 103.1 65.4228 102.301 64.9806V64.9922Z" fill="#AFC90C"/>
</g>
<g style="mix-blend-mode:multiply">
<path d="M98.1089 70.0079C97.9758 70.0428 97.8427 70.0777 97.7207 70.1359C97.3769 70.3104 96.9887 70.7177 97.266 71.1017C97.5321 71.4741 98.1532 71.1832 98.3529 70.8806C98.4416 70.7293 98.486 70.6013 98.4527 70.4733C98.5636 70.229 98.4527 69.938 98.1089 70.0079Z" fill="#AFC90C"/>
</g>
<g style="mix-blend-mode:multiply">
<path d="M105.029 67.948C104.553 67.7036 103.854 67.948 103.432 68.1691C102.723 68.5182 101.857 69.1117 101.913 69.9496C101.913 70.0659 101.968 70.1707 102.024 70.2638C102.046 70.3219 102.079 70.3801 102.124 70.4267C102.434 70.834 103.077 70.6361 103.477 70.5081C103.965 70.3336 104.486 70.0427 104.852 69.6819C105.262 69.2746 105.75 68.3204 105.018 67.9596L105.029 67.948Z" fill="#AFC90C"/>
</g>
<g style="mix-blend-mode:multiply">
<path d="M98.8297 74.5112C98.7631 74.453 98.6855 74.4064 98.5968 74.4064C98.5524 74.3482 98.4193 74.3482 98.3306 74.4064C98.0755 74.5577 97.7982 74.8835 98.1199 75.1046C98.2308 75.1861 98.3528 75.1977 98.4748 75.1396C98.497 75.1279 98.5191 75.1163 98.5413 75.1046C98.7077 75.0232 99.0404 74.709 98.8186 74.5228L98.8297 74.5112Z" fill="#AFC90C"/>
</g>
<g style="mix-blend-mode:multiply" opacity="0.3">
<path d="M46.6699 47.5484C46.8917 46.7803 46.7142 46.0821 45.6051 45.8843C45.0728 45.7912 44.5293 45.989 44.0746 46.3149C43.9859 45.7679 43.631 45.3374 42.8546 45.4421C42.5441 45.4886 42.2557 45.6283 42.0228 45.8377C41.9008 45.4886 41.6236 45.221 41.1134 45.3141C40.4701 45.4421 40.1152 45.7679 39.9489 46.1985C39.228 45.8959 38.3185 45.9425 37.7196 46.501C37.5754 46.6407 37.4756 46.8385 37.4313 47.0247C36.7214 47.1178 36.0782 47.5135 35.8785 48.1768C35.5458 49.2939 37.0542 49.4452 38.3296 49.3405C37.8194 49.7943 37.4867 50.3296 37.9525 50.7253C38.8731 51.5166 40.1707 51.1093 41.191 50.4576C41.2354 50.7253 41.3796 50.9813 41.6901 51.1791C41.8897 51.3187 42.1226 51.3769 42.3556 51.3769C42.1892 51.7028 42.0561 52.0286 41.9674 52.3661C41.7677 53.0992 42.4221 53.9021 43.2539 53.6345C44.6513 53.1806 45.3501 51.9471 45.7937 50.6787C45.8159 50.6089 45.8491 50.5158 45.8824 50.4343C47.0248 50.3994 48.6218 49.8758 48.7771 48.8401C48.9767 47.4786 47.7678 47.304 46.692 47.5367L46.6699 47.5484Z" fill="#178137"/>
</g>
<path opacity="0.3" d="M98.5192 61.8154C97.765 61.4547 96.8445 61.7922 96.0238 62.3973C95.9462 62.1995 95.8463 62.0016 95.7354 61.8387C95.192 61.1521 93.8833 61.4082 93.2511 61.8387C93.3066 61.5245 93.3509 61.222 93.3176 60.931C93.2511 60.1165 92.2751 59.9419 91.6429 60.3259C90.5893 60.9776 89.8684 62.8162 89.946 64.2941C89.1031 64.3756 88.2159 65.1902 88.0274 65.9233C87.1734 65.9582 86.3748 66.4004 86.4635 67.343C86.5079 67.9947 87.4284 68.2158 88.3601 68.2158C88.1383 68.53 88.0052 68.8791 87.9719 69.298C87.9497 69.7286 88.1937 69.9729 88.5375 70.0777C87.7723 70.9039 87.4063 72.0559 88.3823 72.8007C88.7372 73.0684 89.1364 73.0334 89.5246 72.8473C89.4359 73.4175 89.5801 73.9062 90.1679 74.1273C90.7335 74.3368 91.5542 73.6153 91.8204 73.2429C92.0644 72.9054 92.2418 72.5563 92.3971 72.1956C92.8296 72.2421 93.3509 71.9163 93.6282 71.6719C94.216 71.1599 94.3934 70.357 94.46 69.6122C95.1254 70.1126 95.802 70.1591 96.4341 69.298C96.8556 68.7394 96.9 68.0994 96.7558 67.4594C97.6985 67.2383 98.2863 65.6673 98.1421 64.5967C99.0848 63.9334 99.7503 62.4322 98.5303 61.8387L98.5192 61.8154Z" fill="#AFC90C"/>
<g style="mix-blend-mode:screen" opacity="0.5">
<path d="M51.4167 24.6122C51.3723 24.3096 51.217 24.0071 50.9176 23.7161C50.7845 23.5881 50.6292 23.4718 50.4629 23.3787C50.6181 23.2972 50.7845 23.2041 50.9398 23.1227C52.3261 22.3895 53.7014 21.2491 53.7346 19.6665C53.7679 17.9093 51.2281 18.2584 49.6976 19.3756C49.5867 19.0614 49.387 18.7472 49.0876 18.4679C48.4443 17.8744 47.3685 18.4097 46.7031 18.8403C46.6698 17.9559 46.2595 17.1529 45.1837 16.6758C43.5311 15.931 42.289 17.8395 41.923 19.3988C40.9026 18.4562 39.8379 17.5369 38.4516 18.7239C38.019 19.0963 37.7972 19.5967 37.7196 20.1552C37.2205 19.8294 36.6327 19.713 36.0005 20.004C34.8471 20.5043 34.7251 21.6913 35.0689 22.727C34.6252 22.6805 34.1816 22.7619 33.8489 23.0761C33.2611 23.623 33.2833 24.2282 33.6493 24.682C33.0393 24.7402 32.4847 24.9497 31.9635 25.4151C31.3646 25.9504 31.054 26.9047 31.3757 27.6145C31.6418 28.1964 32.3295 28.3942 33.1058 28.4058C32.6622 29.36 33.6493 29.9186 34.6142 30.0583C33.3165 31.0009 31.5975 32.5369 32.5069 33.8984C33.0725 34.7363 34.47 34.2126 35.3905 33.6192C35.5901 34.5734 37.1983 34.2359 38.0523 33.7355C38.4183 33.5261 38.7843 33.2584 39.1281 32.9326C39.3943 33.7355 39.9488 34.2126 41.0024 33.7588C42.0782 33.2933 42.5884 31.862 43.021 30.931C43.2317 30.5005 43.4424 30.0117 43.6088 29.5113C44.13 30.2328 44.9507 31.0125 45.7936 30.675C46.5035 30.3957 46.8916 29.8022 47.0802 29.1506C47.668 29.6859 48.5331 29.8604 49.4314 29.2902C49.7641 29.0691 49.997 28.8247 50.1523 28.5455C50.5959 28.4756 51.0396 28.3127 51.3834 28.1382C52.3039 27.6727 53.047 26.7999 52.7586 25.7759C52.5923 25.1708 52.0488 24.7984 51.4167 24.6122Z" fill="#82BA28"/>
</g>
</g>
<defs>
<clipPath id="clip0_2019_7160">
<rect width="109" height="120" fill="white"/>
</clipPath>
</defs>
</svg>
