<svg width="186" height="119" viewBox="0 0 186 119" fill="none" xmlns="http://www.w3.org/2000/svg">
<defs>
<filter id="filter0_d_2025_14883" x="0.933044" y="0.902588" width="194.884" height="128.546" filterUnits="userSpaceOnUse" color-interpolation-filters="sRGB">
<feFlood flood-opacity="0" result="BackgroundImageFix"/>
<feColorMatrix in="SourceAlpha" type="matrix" values="0 0 0 0 0 0 0 0 0 0 0 0 0 0 0 0 0 0 127 0" result="hardAlpha"/>
<feOffset dx="10" dy="10"/>
<feGaussianBlur stdDeviation="5"/>
<feColorMatrix type="matrix" values="0 0 0 0 0 0 0 0 0 0 0 0 0 0 0 0 0 0 0.4 0"/>
<feBlend mode="normal" in2="BackgroundImageFix" result="effect1_dropShadow_2025_14883"/>
<feBlend mode="normal" in="SourceGraphic" in2="effect1_dropShadow_2025_14883" result="shape"/>
</filter>
</defs>
<g filter="url(#filter0_d_2025_14883)">
<mask id="mask0_2025_14883" style="mask-type:luminance" maskUnits="userSpaceOnUse" x="0" y="0" width="176" height="110">
<path d="M16.0129 0.90263C16.0129 0.90263 45.2291 11.3783 92.3752 11.7816V10.0807C92.3752 10.0807 93.9201 9.54418 93.8935 12.4475C93.8935 12.4475 95.7808 13.4635 96.9376 13.4064C96.9376 13.4064 97.7824 12.5617 98.8554 12.9841L99.7572 13.6614L100.941 13.8859L101.728 14.3083L102.349 14.4224C102.349 14.4224 102.094 15.2672 103.901 14.9856C103.901 14.9856 103.562 14.5328 104.407 14.4491L105.168 14.5061C105.168 14.5061 104.715 14.9589 107.368 14.8714L107.592 15.2938L108.775 15.153C108.775 15.153 108.521 15.5754 107.368 16.0282C106.211 16.481 102.124 19.5518 101.812 20.5107C101.812 20.5107 101.249 21.7245 103.559 20.5107C103.559 20.5107 105.476 19.1561 105.476 20.0579C105.476 20.0579 104.83 22.341 107.451 20.7923L108.494 19.9171L109.453 19.8905L112.611 17.1545C112.611 17.1545 113.992 16.93 113.992 17.1545C113.992 17.1545 112.836 18.2542 112.47 19.3539L113.992 19.2702V19.7763L114.639 19.7192C114.639 19.7192 115.119 20.9597 115.906 20.8456C115.906 20.8456 117.231 20.9293 117.486 20.8189L118.132 20.5069V20.0845L118.893 19.8866L119.316 19.3806L120.697 19.4376L121.005 19.1827C121.005 19.1827 122.33 18.8174 122.303 20.1112C122.303 20.1112 122.756 20.4498 123.6 20.1682C123.6 20.1682 124.727 19.4072 125.008 20.2519V21.3288L125.374 21.6637L125.88 22.1698C125.88 22.1698 125.88 22.3676 125.427 22.3676H123.764C123.764 22.3676 122.242 22.8166 121.877 22.3676C121.877 22.3676 120.975 22.0061 120.75 22.5693C120.75 22.5693 121.005 23.0449 119.285 22.9346L119.061 23.2162H118.608L118.581 23.8935C118.581 23.8935 118.045 24.7382 117.706 23.8935C117.706 23.8935 116.69 23.8554 116.492 24.2702C116.295 24.685 115.758 25.1644 115.815 25.7276C115.872 26.2908 114.32 28.4635 114.32 28.4635L114.236 29.2512C114.236 29.2512 114.407 29.3349 114.856 28.6576L116.744 25.9787C116.744 25.9787 117.447 26.0624 117.052 26.8806C117.052 26.8806 115.952 28.2618 115.895 28.825C115.838 29.3882 115.895 31.9262 115.248 32.0404C115.248 32.0404 115.503 32.8014 115.332 33.4787C115.332 33.4787 114.571 35.172 115.305 35.3395C115.305 35.3395 115.081 36.4658 115.305 36.637C115.53 36.8045 115.503 38.2733 115.503 38.2733L115.728 39.2322C115.728 39.2322 116.009 39.7687 116.264 39.7687C116.519 39.7687 116.489 40.6705 116.489 40.6705L117.082 41.0929C117.082 41.0929 117.817 41.2603 118.209 40.895C118.604 40.5297 119.365 40.3319 119.902 38.8669C120.438 37.4019 120.324 36.2717 119.902 35.172C119.479 34.0723 118.718 32.5769 119.167 30.914C119.167 30.914 119.647 29.6736 119.674 28.4064C119.7 27.1355 120.492 26.6028 120.716 26.5457C120.941 26.4886 121.31 27.4742 121.31 27.4742L121.618 27.4171L121.534 25.4156C121.534 25.4156 122.52 25.1911 122.238 24.0343C122.238 24.0343 122.379 23.2733 123.958 23.5815C125.537 23.8935 126.355 24.4567 126.355 24.4567L127.851 25.1035L128.075 25.6096L127.569 26.0624L128.075 26.6256C128.075 26.6256 128.471 28.5434 128.216 28.9087C127.961 29.274 127.992 30.2634 127.116 30.3737C126.241 30.4879 127.033 31.4163 127.033 31.4163L127.486 31.8691C127.486 31.8691 128.924 29.8943 129.373 29.7268C129.826 29.5594 130.305 29.9247 130.305 29.9247C130.305 29.9247 131.009 33.3912 131.519 33.3912C131.519 33.3912 131.998 35.9863 130.983 35.8988C130.983 35.8988 130.899 36.7436 130.53 36.9719C130.164 37.1964 130.05 38.1553 130.221 38.4673C130.221 38.4673 129.685 39.4529 129.46 39.6507C129.236 39.8486 130.868 40.3851 132.333 40.4118C132.333 40.4118 133.094 40.7238 135.575 39.1142C138.056 37.5084 142.2 33.4483 142.2 33.4483L142.653 32.9955C142.653 32.9955 141.188 31.5 141.527 31.2755C141.865 31.051 142.908 30.4879 148.433 29.8676L149.788 28.513C149.788 28.513 150.324 27.4437 149.788 26.7664C149.251 26.0891 149.053 25.7504 149.053 25.7504L152.409 21.5761L161.009 19.4072L162.223 19.1903C162.223 19.1903 162.177 17.8851 162.897 17.4361L164.068 17.5274C164.068 17.5274 164.16 14.8714 164.788 14.5099V12.4856L165.191 12.0822V9.87523L165.823 7.98406L166.858 7.44373C166.858 7.44373 167.082 8.70324 168.658 6.99472L170.1 7.35621L172.352 13.0716L173.524 13.4331L173.973 14.6926L175.457 14.8714C175.457 14.8714 176.492 15.5449 175.05 17.2573L173.205 18.9239C173.205 18.9239 172.215 18.2504 172.078 19.0571C171.945 19.8676 171.359 19.6888 170.865 19.3273C170.37 18.9658 170.686 21.306 170.686 21.306L168.795 22.7025L167.847 22.8813L167.444 24.5937L166.995 27.0708L167.219 28.8707L166.77 29.3653L167.356 29.6355L168.212 29.86L169.247 31.3022L170.777 30.9407L171.002 31.5267L168.886 32.516L168.212 32.2915L165.735 34.4072C165.735 34.4072 161.728 35.3965 160.963 36.793C160.963 36.793 163.574 36.3897 164.068 35.8037C164.068 35.8037 165.598 35.8037 165.104 36.344C164.609 36.8844 161.321 38.8212 161.321 38.8212L159.114 39.2245L159.293 39.7649L160.149 39.9437L159.925 43.4102L158.258 46.5609C158.258 46.5609 157.988 45.4803 156.234 45.3889L158.482 48.2694L158.258 50.8798L157.493 52.185L157.356 54.1218C157.356 54.1218 156.683 55.564 156.23 53.8973C155.781 52.2306 156.139 52.1888 156.139 52.1888L156.363 51.0625L154.426 50.1606C154.426 50.1606 153.749 47.6416 154.156 47.1431C154.563 46.6484 153.57 46.2413 153.57 46.2413L153.121 48.2238L154.11 51.013L154.921 52.048L155.507 54.4338L155.644 55.876H156.903L158.254 59.0267C158.254 59.0267 156.903 58.532 155.195 60.1987C155.195 60.1987 157.76 58.8935 158.57 59.9285C158.57 59.9285 159.472 61.7284 156.546 62.5845L156.591 63.8897L157.718 64.4757C157.718 64.4757 158.391 65.0617 155.423 65.7352C152.451 66.4087 152.497 69.4719 152.676 69.8334C152.855 70.1949 150.157 70.6439 150.157 70.6439L148.806 73.8402C148.806 73.8402 136.203 82.0328 147.364 93.3303L147.497 94.9513L150.602 100.126C150.602 100.126 151.367 101.34 150.826 104.674L150.332 105.077L150.153 106.652C150.153 106.652 149.342 108.094 147.634 107.779C147.634 107.779 147.318 105.214 146.237 105.347L144.571 105.077C144.571 105.077 143.893 102.6 142.817 102.375L142.862 101.295L141.96 101.565L140.294 99.0457L140.697 97.516L139.978 98.2352L139.438 93.4179C139.438 93.4179 139.616 92.1127 138.132 92.1127C138.132 92.1127 136.062 90.6287 133.947 89.0533C133.947 89.0533 133.631 88.0183 130.659 91.0777L129.354 91.1233C129.354 91.1233 128.228 89.1865 124.807 89.0533C124.807 89.0533 121.61 89.1446 119.449 89.9095C119.449 89.9095 119.989 88.2885 119.358 88.1553C119.358 88.1553 118.593 88.2885 118.502 89.236C118.502 89.236 116.07 89.822 114.449 89.822C114.449 89.822 112.512 90.0465 114.54 91.3973C114.54 91.3973 115.172 92.1621 113.368 92.927C113.368 92.927 114.133 93.6918 115.26 93.8288C115.26 93.8288 117.105 94.7725 115.484 95.2253C115.484 95.2253 114.088 95.0465 112.874 93.6956C112.874 93.6956 112.109 92.7938 111.93 95.0008C111.93 95.0008 111.481 95.72 110.849 94.685L109.32 95.6743C109.32 95.6743 107.79 95.1797 107.52 94.5937L107.653 93.7375C107.653 93.7375 106.481 94.1408 106.211 92.8357H104.365C104.365 92.8357 105.941 93.962 104.004 93.9163C104.004 93.9163 100.537 93.0145 99.0989 92.9727C99.0989 92.9727 94.3729 93.8288 93.0677 96.2603C93.0677 96.2603 87.4855 98.5548 85.4612 102.246C85.4612 102.246 83.9315 105.758 85.328 108.954L84.3387 109.449C84.3387 109.449 84.0228 108.505 81.774 108.505L78.1286 106.751L76.9148 103.555V101.801C76.9148 101.801 73.8973 99.2816 72.8166 95.5868L70.4764 92.5693L66.8311 91.8958C66.8311 91.8958 65.2557 91.8958 65.1644 93.3798C65.1644 93.3798 64.7154 95.1797 63.6347 95.4042C63.6347 95.4042 59.898 93.7375 58.7298 91.8045L58.414 89.2398C58.414 89.2398 58.6842 87.8433 56.7473 87.0328L52.4247 82.5312L46.7093 81.9452L46.6636 83.4293L35.9939 82.1698L24.156 75.1035L23.8858 74.2017L15.9939 72.9879C15.9939 72.9879 16.5038 67.8128 12.6758 67.4057V65.876L10.7846 65.2025C10.7846 65.2025 9.92847 62.2763 6.41629 62.3676L6.14612 61.4658C6.14612 61.4658 7.40564 59.1713 6.14612 58.2694L3.93912 53.5891V52.6873L4.79529 51.2755C4.79529 51.2755 2.36378 49.8981 3.0411 49.2664L3.35693 47.6911L3.89726 47.7367L4.48326 47.9612L4.61644 47.0594L3.80594 46.6979L4.20929 46.1119L4.61264 45.6629L3.8478 45.2596L3.21614 46.0244L2.49696 45.5754C2.49696 45.5754 2.81279 41.9757 1.46195 41.6142V39.6774C1.46195 39.6774 2.90411 38.0107 1.68646 36.3897C1.68646 36.3897 0.289958 34.4985 1.23745 33.7337C1.23745 33.7337 2.58828 33.0145 3.17428 29.6812L3.49011 24.7306C3.49011 24.7306 9.20548 15.0541 9.34247 11.9452L10.1073 11.3593L9.34247 10.7733L9.47565 10.0084L10.016 9.60126L9.65449 8.65758L10.2862 8.11724L9.83714 2.21922L10.1986 1.72455C10.1986 1.72455 12.36 5.05408 14.7002 4.47188L16.2298 5.55255L15.4193 4.15605L15.5107 3.5244L16.0967 3.57006L16.5 2.75956L16.051 1.67889L15.9901 0.89502L16.0129 0.90263Z" fill="white"/>
</mask>
<g mask="url(#mask0_2025_14883)">
<path d="M175.827 0.902588H0.933044V109.449H175.827V0.902588Z" fill="white"/>
<path d="M83.22 0.902588H0.933044V59.5441H83.22V0.902588Z" fill="#3D3C69"/>
<path d="M175.827 0.902588H83.22V8.72983H175.827V0.902588Z" fill="#B12030"/>
<path d="M175.827 17.7214H83.22V25.5487H175.827V17.7214Z" fill="#B12030"/>
<path d="M175.827 51.2488H83.22V59.5403H175.827V51.2488Z" fill="#B12030"/>
<path d="M175.827 68.1323H0.933044V75.9596H175.827V68.1323Z" fill="#B12030"/>
<path d="M175.827 84.8257H0.933044V92.6529H175.827V84.8257Z" fill="#B12030"/>
<path d="M175.827 101.595H0.933044V109.422H175.827V101.595Z" fill="#B12030"/>
<path d="M77.7862 52.0745L80.1149 52.3904L78.4482 54.0456L78.8668 56.3554L76.7778 55.2823L74.7116 56.3934L75.0845 54.0761L73.3912 52.4513L75.7123 52.0936L76.7321 49.9817L77.7862 52.0745Z" fill="white"/>
<path d="M77.7862 40.5906L80.1149 40.9065L78.4482 42.5617L78.8668 44.8715L76.7778 43.7984L74.7116 44.9095L75.0845 42.5922L73.3912 40.9674L75.7123 40.6097L76.7321 38.4978L77.7862 40.5906Z" fill="white"/>
<path d="M77.7862 28.4026L80.1149 28.7184L78.4482 30.3736L78.8668 32.6796L76.7778 31.6065L74.7116 32.7176L75.0845 30.4003L73.3912 28.7793L75.7123 28.4216L76.7321 26.3059L77.7862 28.4026Z" fill="white"/>
<path d="M77.7862 16.9148L80.1149 17.2306L78.4482 18.882L78.8668 21.1918L76.7778 20.1187L74.7116 21.2298L75.0845 18.9125L73.3912 17.2915L75.7123 16.9338L76.7321 14.8181L77.7862 16.9148Z" fill="white"/>
<path d="M77.7862 5.21775L80.1149 5.53358L78.4482 7.18883L78.8668 9.49857L76.7778 8.4217L74.7116 9.53281L75.0845 7.21546L73.3912 5.59446L75.7123 5.23677L76.7321 3.12109L77.7862 5.21775Z" fill="white"/>
<path d="M70.6629 46.2907L72.9878 46.6066L71.3212 48.2618L71.7397 50.5716L69.6507 49.4947L67.5845 50.6058L67.9612 48.2923L66.2641 46.6675L68.5853 46.3098L69.605 44.1941L70.6629 46.2907Z" fill="white"/>
<path d="M70.6629 34.8066L72.9878 35.1224L71.3212 36.7777L71.7397 39.0874L69.6507 38.0106L67.5845 39.1217L67.9612 36.8043L66.2641 35.1833L68.5853 34.8256L69.605 32.71L70.6629 34.8066Z" fill="white"/>
<path d="M70.6629 22.6148L72.9878 22.9306L71.3212 24.5859L71.7397 26.8956L69.6507 25.8226L67.5845 26.9337L67.9612 24.6163L66.2641 22.9915L68.5853 22.6338L69.605 20.522L70.6629 22.6148Z" fill="white"/>
<path d="M70.6629 11.127L72.9878 11.4429L71.3212 13.0981L71.7397 15.4078L69.6507 14.3348L67.5845 15.4459L67.9612 13.1285L66.2641 11.5037L68.5853 11.1461L69.605 9.03418L70.6629 11.127Z" fill="white"/>
<path d="M57.1735 45.8569L59.4985 46.1727L57.8356 47.8242L58.2504 50.1339L56.1652 49.0609L54.0952 50.172L54.4719 47.8546L52.7786 46.2336L55.0959 45.8759L56.1157 43.7603L57.1735 45.8569Z" fill="white"/>
<path d="M57.1735 34.373L59.4985 34.6888L57.8356 36.3403L58.2504 38.65L56.1652 37.577L54.0952 38.6881L54.4719 36.3707L52.7786 34.7497L55.0959 34.392L56.1157 32.2764L57.1735 34.373Z" fill="white"/>
<path d="M57.1735 22.1811L59.4985 22.497L57.8356 24.1522L58.2504 26.4619L56.1652 25.3889L54.0952 26.5L54.4719 24.1826L52.7786 22.5578L55.0959 22.2002L56.1157 20.0845L57.1735 22.1811Z" fill="white"/>
<path d="M57.1735 10.6933L59.4985 11.0092L57.8356 12.6644L58.2504 14.9742L56.1652 13.9011L54.0952 15.0122L54.4719 12.6949L52.7786 11.07L55.0959 10.7124L56.1157 8.59668L57.1735 10.6933Z" fill="white"/>
<path d="M43.1134 46.2602L45.4383 46.5761L43.7717 48.2275L44.1902 50.5372L42.105 49.4642L40.035 50.5753L40.4117 48.2579L38.7146 46.6369L41.0358 46.2793L42.0555 44.1636L43.1134 46.2602Z" fill="white"/>
<path d="M43.1134 34.7763L45.4383 35.0922L43.7717 36.7436L44.1902 39.0534L42.105 37.9803L40.035 39.0914L40.4117 36.7741L38.7146 35.1531L41.0358 34.7954L42.0555 32.6797L43.1134 34.7763Z" fill="white"/>
<path d="M43.1134 22.5844L45.4383 22.9003L43.7717 24.5555L44.1902 26.8653L42.105 25.7922L40.035 26.9033L40.4117 24.586L38.7146 22.9612L41.0358 22.6035L42.0555 20.4878L43.1134 22.5844Z" fill="white"/>
<path d="M43.1134 11.0967L45.4383 11.4125L43.7717 13.0677L44.1902 15.3775L42.105 14.3006L40.035 15.4155L40.4117 13.0982L38.7146 11.4734L41.0358 11.1157L42.0555 9L43.1134 11.0967Z" fill="white"/>
<path d="M29.1979 45.9824L31.5267 46.2982L29.86 47.9535L30.2786 50.2632L28.1895 49.1902L26.1233 50.3013L26.4962 47.9839L24.8029 46.3591L27.1241 46.0014L28.1401 43.8857L29.1979 45.9824Z" fill="white"/>
<path d="M29.1979 34.4985L31.5267 34.8143L29.86 36.4696L30.2786 38.7793L28.1895 37.7063L26.1233 38.8174L26.4962 36.5L24.8029 34.8752L27.1241 34.5175L28.1401 32.4019L29.1979 34.4985Z" fill="white"/>
<path d="M29.1979 22.3105L31.5267 22.6263L29.86 24.2778L30.2786 26.5875L28.1895 25.5145L26.1233 26.6256L26.4962 24.3082L24.8029 22.6872L27.1241 22.3257L28.1401 20.2139L29.1979 22.3105Z" fill="white"/>
<path d="M29.1979 10.8189L31.5267 11.1386L29.86 12.79L30.2786 15.0997L28.1895 14.0267L26.1233 15.1378L26.4962 12.8204L24.8029 11.1994L27.1241 10.8379L28.1401 8.72607L29.1979 10.8189Z" fill="white"/>
<path d="M15.9292 45.8569L18.258 46.1727L16.5913 47.8242L17.0099 50.1339L14.9208 49.0609L12.8546 50.172L13.2275 47.8546L11.5342 46.2336L13.8516 45.8759L14.8714 43.7603L15.9292 45.8569Z" fill="white"/>
<path d="M15.9292 34.373L18.258 34.6888L16.5913 36.3403L17.0099 38.65L14.9208 37.577L12.8546 38.6881L13.2275 36.3707L11.5342 34.7497L13.8516 34.392L14.8714 32.2764L15.9292 34.373Z" fill="white"/>
<path d="M15.9292 22.1811L18.258 22.497L16.5913 24.1522L17.0099 26.4619L14.9208 25.3889L12.8546 26.5L13.2275 24.1826L11.5342 22.5578L13.8516 22.2002L14.8714 20.0845L15.9292 22.1811Z" fill="white"/>
<path d="M15.9292 10.6933L18.258 11.0092L16.5913 12.6644L17.0099 14.9742L14.9208 13.9011L12.8546 15.0122L13.2275 12.6949L11.5342 11.07L13.8516 10.7124L14.8714 8.59668L15.9292 10.6933Z" fill="white"/>
<path d="M63.8973 51.831L66.2222 52.1469L64.5594 53.8021L64.9741 56.1118L62.8889 55.0388L60.8189 56.1499L61.1956 53.8326L59.4985 52.2077L61.8196 51.8501L62.8394 49.7344L63.8973 51.831Z" fill="white"/>
<path d="M63.8973 40.3471L66.2222 40.663L64.5594 42.3182L64.9741 44.628L62.8889 43.5549L60.8189 44.666L61.1956 42.3487L59.4985 40.7239L61.8196 40.3662L62.8394 38.2505L63.8973 40.3471Z" fill="white"/>
<path d="M63.8973 28.1553L66.2222 28.475L64.5594 30.1264L64.9741 32.4362L62.8889 31.3631L60.8189 32.4742L61.1956 30.1569L59.4985 28.5359L61.8196 28.1744L62.8394 26.0625L63.8973 28.1553Z" fill="white"/>
<path d="M63.8973 16.6673L66.2222 16.9869L64.5594 18.6384L64.9741 20.9481L62.8889 19.8751L60.8189 20.9862L61.1956 18.6688L59.4985 17.044L61.8196 16.6863L62.8394 14.5745L63.8973 16.6673Z" fill="white"/>
<path d="M63.8973 4.97029L66.2222 5.28992L64.5594 6.94137L64.9741 9.25111L62.8889 8.17805L60.8189 9.28916L61.1956 6.97181L59.4985 5.35081L61.8196 4.98931L62.8394 2.87744L63.8973 4.97029Z" fill="white"/>
<path d="M36.3897 52.2343L38.7146 52.5502L37.0518 54.2054L37.4665 56.5152L35.3813 55.4421L33.3113 56.5532L33.688 54.2359L31.9947 52.6111L34.312 52.2534L35.3318 50.1377L36.3897 52.2343Z" fill="white"/>
<path d="M36.3897 40.7505L38.7146 41.0663L37.0518 42.7215L37.4665 45.0313L35.3813 43.9582L33.3113 45.0693L33.688 42.752L31.9947 41.1272L34.312 40.7695L35.3318 38.6538L36.3897 40.7505Z" fill="white"/>
<path d="M36.3897 28.5587L38.7146 28.8783L37.0518 30.5297L37.4665 32.8395L35.3813 31.7664L33.3113 32.8775L33.688 30.5602L31.9947 28.9354L34.312 28.5777L35.3318 26.4658L36.3897 28.5587Z" fill="white"/>
<path d="M36.3897 17.0709L38.7146 17.3867L37.0518 19.042L37.4665 21.3517L35.3813 20.2786L33.3113 21.3897L33.688 19.0724L31.9947 17.4476L34.312 17.0899L35.3318 14.978L36.3897 17.0709Z" fill="white"/>
<path d="M36.3897 5.37361L38.7146 5.69324L37.0518 7.34469L37.4665 9.65443L35.3813 8.58137L33.3113 9.69248L33.688 7.37513L31.9947 5.75413L34.312 5.39263L35.3318 3.28076L36.3897 5.37361Z" fill="white"/>
<path d="M22.653 51.9909L24.9779 52.3068L23.3151 53.9582L23.7298 56.268L21.6446 55.1949L19.5746 56.306L19.9513 53.9887L18.258 52.3677L20.5753 52.01L21.5951 49.8943L22.653 51.9909Z" fill="white"/>
<path d="M22.653 40.5068L24.9779 40.8226L23.3151 42.4741L23.7298 44.7838L21.6446 43.7108L19.5746 44.8219L19.9513 42.5045L18.258 40.8835L20.5753 40.5258L21.5951 38.4102L22.653 40.5068Z" fill="white"/>
<path d="M22.653 28.3152L24.9779 28.631L23.3151 30.2862L23.7298 32.596L21.6446 31.5229L19.5746 32.634L19.9513 30.3167L18.258 28.6919L20.5753 28.3342L21.5951 26.2185L22.653 28.3152Z" fill="white"/>
<path d="M22.653 16.8274L24.9779 17.1432L23.3151 18.7984L23.7298 21.1082L21.6446 20.0351L19.5746 21.1462L19.9513 18.8289L18.258 17.2041L20.5753 16.8464L21.5951 14.7307L22.653 16.8274Z" fill="white"/>
<path d="M22.653 5.1301L24.9779 5.44593L23.3151 7.10118L23.7298 9.41092L21.6446 8.33786L19.5746 9.44897L19.9513 7.13162L18.258 5.50681L20.5753 5.14912L21.5951 3.03345L22.653 5.1301Z" fill="white"/>
<path d="M8.80595 51.9909L11.1309 52.3068L9.46424 53.9582L9.88281 56.268L7.79377 55.1949L5.72756 56.306L6.10427 53.9887L4.40717 52.3677L6.72832 52.01L7.74811 49.8943L8.80595 51.9909Z" fill="white"/>
<path d="M8.80595 40.5068L11.1309 40.8226L9.46424 42.4741L9.88281 44.7838L7.79377 43.7108L5.72756 44.8219L6.10427 42.5045L4.40717 40.8835L6.72832 40.5258L7.74811 38.4102L8.80595 40.5068Z" fill="white"/>
<path d="M8.80595 28.3152L11.1309 28.631L9.46424 30.2862L9.88281 32.596L7.79377 31.5229L5.72756 32.634L6.10427 30.3167L4.40717 28.6919L6.72832 28.3342L7.74811 26.2185L8.80595 28.3152Z" fill="white"/>
<path d="M8.80595 16.8274L11.1309 17.1432L9.46424 18.7984L9.88281 21.1082L7.79377 20.0351L5.72756 21.1462L6.10427 18.8289L4.40717 17.2041L6.72832 16.8464L7.74811 14.7307L8.80595 16.8274Z" fill="white"/>
<path d="M8.80595 5.1301L11.1309 5.44593L9.46424 7.10118L9.88281 9.41092L7.79377 8.33786L5.72756 9.44897L6.10427 7.13162L4.40717 5.50681L6.72832 5.14912L7.74811 3.03345L8.80595 5.1301Z" fill="white"/>
<path d="M50.0503 52.3943L52.3752 52.7101L50.7086 54.3615L51.1271 56.6713L49.0381 55.5982L46.9719 56.7093L47.3448 54.392L45.6515 52.771L47.9726 52.4095L48.9924 50.2976L50.0503 52.3943Z" fill="white"/>
<path d="M50.0503 40.9101L52.3752 41.226L50.7086 42.8774L51.1271 45.1871L49.0381 44.1141L46.9719 45.2252L47.3448 42.9078L45.6515 41.2868L47.9726 40.9253L48.9924 38.8135L50.0503 40.9101Z" fill="white"/>
<path d="M50.0503 28.7185L52.3752 29.0343L50.7086 30.6896L51.1271 32.9993L49.0381 31.9262L46.9719 33.0374L47.3448 30.72L45.6515 29.0952L47.9726 28.7375L48.9924 26.6218L50.0503 28.7185Z" fill="white"/>
<path d="M50.0503 17.2307L52.3752 17.5465L50.7086 19.2018L51.1271 21.5115L49.0381 20.4346L46.9719 21.5496L47.3448 19.2322L45.6515 17.6074L47.9726 17.2497L48.9924 15.134L50.0503 17.2307Z" fill="white"/>
<path d="M50.0503 5.53342L52.3752 5.84925L50.7086 7.5045L51.1271 9.81424L49.0381 8.74118L46.9719 9.85229L47.3448 7.53494L45.6515 5.91013L47.9726 5.55244L48.9924 3.43677L50.0503 5.53342Z" fill="white"/>
<path d="M175.827 34.7268H83.22V43.0221H175.827V34.7268Z" fill="#B12030"/>
</g>
</g>

</svg>
